<svg id="Capa_1" enable-background="new 0 0 512 512" height="512" viewBox="0 0 512 512" width="512" xmlns="http://www.w3.org/2000/svg"><g><path d="m52.433 312.975c-5.151-18.452-7.763-37.621-7.763-56.975 0-49.779 17.516-97.654 49.464-135.698 12.514 12.239 29.619 19.803 48.464 19.803 38.25 0 69.368-31.119 69.368-69.368 0-7.225-1.113-14.193-3.172-20.747 15.416-3.529 31.265-5.32 47.208-5.32 51.262 0 99.495 17.968 137.689 50.951h-16.208c-6.855 0-12.431 5.577-12.431 12.431v19.806c0 6.855 5.577 12.431 12.431 12.431h79.556c7.401 0 13.421-6.021 13.421-13.421v-79.557c0-6.855-5.577-12.431-12.431-12.431h-19.807c-6.855 0-12.431 5.577-12.431 12.431v17.033c-46.733-41.621-106.37-64.344-169.791-64.344-26.312 0-52.202 3.953-76.983 11.732-10.593-6.563-23.069-10.364-36.42-10.364-38.25 0-69.368 31.119-69.368 69.368 0 13.94 4.148 26.923 11.254 37.808-35.361 41.073-54.773 93.211-54.773 147.456 0 19.872 2.575 39.568 7.656 58.585l-14.124 4.284c-5.497-20.405-8.283-41.542-8.283-62.869 0-51.13 15.7-99.854 45.402-140.904 2.422-3.347 1.672-8.023-1.675-10.444-3.346-2.422-8.023-1.671-10.444 1.675-31.56 43.618-48.242 95.374-48.242 149.673 0 23.556 3.203 46.899 9.519 69.382 1.687 6.572 9.155 10.663 15.587 8.553l18.959-5.75c6.413-1.945 10.166-8.768 8.368-15.21zm375.494-225.933c2.127 2.172 5.356 2.838 8.169 1.69 2.814-1.149 4.653-3.886 4.653-6.925v-31.968h14.751v75.491h-75.491v-14.751h32.519c3.007 0 5.722-1.801 6.891-4.572s.565-5.972-1.534-8.127c-42.824-43.96-100.316-68.17-161.885-68.17-18.037 0-35.967 2.139-53.359 6.358-2.696-4.65-5.912-8.959-9.576-12.847 20.397-5.479 41.514-8.261 62.935-8.261 65.325-.001 126.383 25.599 171.927 72.082zm-285.33-70.715c30.001 0 54.409 24.408 54.409 54.409s-24.408 54.409-54.409 54.409-54.409-24.408-54.409-54.409 24.408-54.409 54.409-54.409z"/><path d="m426.441 426.442c-45.526 45.526-106.056 70.599-170.441 70.599-33.764 0-66.377-6.796-96.933-20.199-3.784-1.659-8.194.061-9.854 3.845-1.66 3.783.062 8.195 3.845 9.854 32.462 14.239 67.097 21.459 102.942 21.459 68.38 0 132.667-26.628 181.019-74.981 2.921-2.921 2.921-7.657 0-10.578-2.921-2.92-7.657-2.92-10.578.001z"/><path d="m501.909 184.615c-.94-3.246-3.096-5.913-6.07-7.511-2.967-1.594-6.372-1.919-9.588-.916l-18.909 5.905c-6.397 1.997-10.095 8.849-8.244 15.276 5.752 19.966 8.514 40.744 8.21 61.756-.823 56.911-23.724 109.883-64.486 149.16-40.82 39.333-94.705 60.276-151.724 58.991-49.398-1.119-95.904-19.064-132.817-50.921h16.238c6.855 0 12.431-5.577 12.431-12.431v-19.807c0-6.854-5.577-12.431-12.431-12.431h-79.556c-7.401 0-13.421 6.021-13.421 13.421v79.556c0 6.855 5.577 12.431 12.431 12.431h19.807c6.855 0 12.431-5.577 12.431-12.431v-17.017c11.231 9.986 23.308 18.961 36.06 26.79 3.522 2.162 8.126 1.059 10.287-2.461 2.161-3.521 1.059-8.126-2.461-10.287-16.715-10.262-32.2-22.618-46.023-36.727-2.128-2.171-5.356-2.838-8.17-1.69-2.814 1.149-4.652 3.886-4.652 6.925v31.941h-14.751v-75.491h75.491v14.751h-32.552c-3.007 0-5.722 1.801-6.891 4.572-1.17 2.77-.566 5.971 1.532 8.126 41.473 42.59 97.116 66.789 156.678 68.138 1.777.04 3.549.06 5.321.06 59.064 0 114.681-22.339 157.122-63.234 43.656-42.065 68.183-98.787 69.063-159.716.313-21.643-2.416-43.06-8.114-63.703l14.088-4.399c5.841 20.993 8.801 42.768 8.801 64.762 0 53.031-16.789 103.226-48.552 145.157-2.494 3.293-1.847 7.985 1.446 10.479s7.984 1.846 10.479-1.446c33.748-44.555 51.587-97.874 51.587-154.193 0-24.264-3.395-48.281-10.091-71.385z"/><path d="m141.957 361.149h230.066c13.954 0 25.306-11.352 25.306-25.305v-151.907c0-13.954-11.352-25.306-25.306-25.306h-8.257c-7.389-19.364-26.205-32.539-47.232-32.539-1.531 0-3.059.087-4.58.224-3.53-24.442-24.608-43.286-50.012-43.286-27.868 0-50.541 22.672-50.541 50.541 0 8.838 2.36 17.484 6.679 25.059h-76.123c-13.954 0-25.305 11.352-25.305 25.306v40.002h-1.261c-9.623 0-17.452 7.829-17.452 17.452v36.999c0 9.623 7.829 17.452 17.452 17.452h1.261v40.002c0 13.954 11.352 25.306 25.305 25.306zm205.268-202.518h-41.374c3.049-5.319 5.101-11.147 6.039-17.267 1.535-.2 3.087-.312 4.644-.312 12.785-.001 24.407 6.916 30.691 17.579zm-120.865-25.059c0-19.62 15.962-35.582 35.582-35.582s35.582 15.962 35.582 35.582c0 9.488-3.671 18.352-10.337 25.059h-50.491c-6.669-6.705-10.336-15.552-10.336-25.059zm-94.749 72.799h6.822c4.131 0 7.48-3.349 7.48-7.48s-3.349-7.48-7.48-7.48h-6.822v-7.475c0-5.705 4.641-10.347 10.346-10.347h230.066c5.705 0 10.347 4.642 10.347 10.347v151.906c0 5.705-4.642 10.346-10.347 10.346h-230.066c-5.705 0-10.346-4.641-10.346-10.346v-7.476h6.822c4.131 0 7.48-3.349 7.48-7.48s-3.349-7.48-7.48-7.48h-6.822v-17.567h50.076c9.623 0 17.452-7.829 17.452-17.452v-36.999c0-9.623-7.829-17.452-17.452-17.452h-50.076zm-18.714 72.019v-36.999c0-1.375 1.119-2.493 2.493-2.493h66.296c1.375 0 2.493 1.119 2.493 2.493v36.999c0 1.375-1.119 2.493-2.493 2.493h-66.296c-1.374 0-2.493-1.119-2.493-2.493z"/><path d="m122.379 103.415c4.299 2.776 7.624 4.085 11.387 4.667v1.265c0 4.131 3.349 7.48 7.48 7.48s7.48-3.349 7.48-7.48v-2.071c8.655-2.923 14.186-10.64 15.468-18.26 1.771-10.535-3.935-20.051-14.198-23.679-5.19-1.835-10.916-4.04-14.027-6.479-.473-.372-.8-1.62-.527-3.066.141-.75.795-3.257 3.263-4 5.447-1.64 8.912 1.083 9.289 1.399l-.12-.108 2.068.863c7.35 3.069 13.624-6.146 8.075-11.86-1.823-1.681-5.072-3.718-9.289-4.866v-1.133c0-4.131-3.349-7.48-7.48-7.48s-7.48 3.349-7.48 7.48v1.593c-6.692 2.27-11.658 8.084-13.026 15.341-1.307 6.934.99 13.681 5.996 17.608 4.801 3.765 11.62 6.46 18.273 8.813 4.387 1.551 4.832 4.714 4.431 7.095-.563 3.352-3.384 6.974-8.245 7.006-5.444.038-6.87-.187-10.915-2.834-3.707-2.424-8.765-1.136-10.803 2.947-1.727 3.456-.345 7.664 2.9 9.759z"/><path d="m154.502 253.401h-11.905c-4.131 0-7.48 3.349-7.48 7.48s3.349 7.48 7.48 7.48h11.905c4.131 0 7.48-3.349 7.48-7.48-.001-4.132-3.35-7.48-7.48-7.48z"/><path d="m229.569 206.371h25.582c4.131 0 7.48-3.349 7.48-7.48s-3.349-7.48-7.48-7.48h-25.582c-4.131 0-7.48 3.349-7.48 7.48 0 4.132 3.349 7.48 7.48 7.48z"/><path d="m288.042 206.371h25.582c4.131 0 7.48-3.349 7.48-7.48s-3.349-7.48-7.48-7.48h-25.582c-4.131 0-7.48 3.349-7.48 7.48.001 4.132 3.349 7.48 7.48 7.48z"/><path d="m204.156 198.892c0-4.131-3.349-7.48-7.48-7.48h-25.582c-4.131 0-7.48 3.349-7.48 7.48s3.349 7.48 7.48 7.48h25.582c4.132-.001 7.48-3.349 7.48-7.48z"/><path d="m345.294 206.371h6.822v6.822c0 4.131 3.349 7.48 7.48 7.48s7.48-3.349 7.48-7.48v-9.349c0-6.855-5.577-12.431-12.431-12.431h-9.349c-4.131 0-7.48 3.349-7.48 7.48-.002 4.13 3.347 7.478 7.478 7.478z"/><path d="m359.595 239.335c-4.131 0-7.48 3.349-7.48 7.48v26.334c0 4.131 3.349 7.48 7.48 7.48s7.48-3.349 7.48-7.48v-26.334c0-4.131-3.349-7.48-7.48-7.48z"/><path d="m345.294 328.368h9.349c6.855 0 12.431-5.577 12.431-12.431v-9.349c0-4.131-3.349-7.48-7.48-7.48s-7.48 3.349-7.48 7.48v6.822h-6.822c-4.131 0-7.48 3.349-7.48 7.48.002 4.129 3.351 7.478 7.482 7.478z"/><path d="m195.685 313.409h-25.582c-4.131 0-7.48 3.349-7.48 7.48s3.349 7.48 7.48 7.48h25.582c4.131 0 7.48-3.349 7.48-7.48-.001-4.132-3.35-7.48-7.48-7.48z"/><path d="m228.576 328.368h25.582c4.131 0 7.48-3.349 7.48-7.48s-3.349-7.48-7.48-7.48h-25.582c-4.131 0-7.48 3.349-7.48 7.48.001 4.131 3.349 7.48 7.48 7.48z"/><path d="m287.05 328.368h25.582c4.131 0 7.48-3.349 7.48-7.48s-3.349-7.48-7.48-7.48h-25.582c-4.131 0-7.48 3.349-7.48 7.48s3.349 7.48 7.48 7.48z"/></g></svg>