<?xml version="1.0" encoding="utf-8"?>
<!-- Generator: Adobe Illustrator 17.1.0, SVG Export Plug-In . SVG Version: 6.00 Build 0)  -->
<!DOCTYPE svg PUBLIC "-//W3C//DTD SVG 1.1//EN" "http://www.w3.org/Graphics/SVG/1.1/DTD/svg11.dtd">
<svg version="1.1" id="Capa_1" xmlns="http://www.w3.org/2000/svg" xmlns:xlink="http://www.w3.org/1999/xlink" x="0px" y="0px"
	 viewBox="0 90 612 612" enable-background="new 0 90 612 612" xml:space="preserve">
<g>
	<g>
		<path fill="#FFFFFF" d="M595.1,295.6l-83.1,34.4c6.7,20.8,10.3,43,10.3,65.9s-3.6,45.1-10.3,65.9l83.1,34.4
			C606.1,464.9,612,431.2,612,396S606.1,327.1,595.1,295.6z"/>
	</g>
</g>
<g>
	<g>
		<path fill="#FFFFFF" d="M306,90c-35.2,0-68.9,5.9-100.4,16.9l34.4,83.1c20.8-6.7,43-10.3,65.9-10.3s45.1,3.6,65.9,10.3l34.4-83.1
			C374.9,95.9,341.2,90,306,90z"/>
	</g>
</g>
<g>
	<g>
		<path fill="#FFFFFF" d="M371.9,602.1c-20.8,6.7-43,10.3-65.9,10.3s-45.1-3.6-65.9-10.3l-34.4,83.1C237.1,696.1,270.8,702,306,702
			s68.9-5.9,100.4-16.9L371.9,602.1z"/>
	</g>
</g>
<g>
	<g>
		<path fill="#FFFFFF" d="M498.3,495.1c-20.6,39.9-53.3,72.6-93.2,93.2l34.4,83.1c61.8-30,111.9-80.2,141.9-141.9L498.3,495.1z"/>
	</g>
</g>
<g>
	<g>
		<path fill="#FFFFFF" d="M113.7,495.1l-83.1,34.4c30,61.8,80.2,111.9,141.9,141.9l34.4-83.1C167,567.7,134.3,535,113.7,495.1z"/>
	</g>
</g>
<g>
	<g>
		<path fill="#FFFFFF" d="M172.5,120.6c-61.8,30-111.9,80.2-141.9,141.9l83.1,34.4c20.6-39.9,53.3-72.6,93.2-93.2L172.5,120.6z"/>
	</g>
</g>
<g>
	<g>
		<path fill="#FFFFFF" d="M439.5,120.6l-34.4,83.1c39.9,20.6,72.6,53.3,93.2,93.2l83.1-34.4C551.4,200.7,501.3,150.6,439.5,120.6z"
			/>
	</g>
</g>
<g>
	<g>
		<path fill="#FFFFFF" d="M99.9,330.1l-83.1-34.4C5.9,327.1,0,360.8,0,396s5.9,68.9,16.9,100.4l83.1-34.4
			c-6.7-20.8-10.3-43-10.3-65.9S93.3,350.9,99.9,330.1z"/>
	</g>
</g>
<g>
	<g>
		<path fill="#FFFFFF" d="M306,215.5c-99.5,0-180.5,81-180.5,180.5s81,180.5,180.5,180.5s180.5-81,180.5-180.5
			S405.5,215.5,306,215.5z M306,522.7c-69.9,0-126.7-56.8-126.7-126.7S236.1,269.3,306,269.3S432.7,326.1,432.7,396
			S375.9,522.7,306,522.7z"/>
	</g>
</g>
<g>
	<g>
		<path fill="#FFFFFF" d="M306,305.2c-50.1,0-90.8,40.8-90.8,90.8s40.8,90.8,90.8,90.8s90.8-40.8,90.8-90.8S356.1,305.2,306,305.2z"
			/>
	</g>
</g>
</svg>
