<?xml version="1.0" encoding="utf-8"?>
<!-- Generator: Adobe Illustrator 17.1.0, SVG Export Plug-In . SVG Version: 6.00 Build 0)  -->
<!DOCTYPE svg PUBLIC "-//W3C//DTD SVG 1.1//EN" "http://www.w3.org/Graphics/SVG/1.1/DTD/svg11.dtd">
<svg version="1.1" id="Слой_1" xmlns="http://www.w3.org/2000/svg" xmlns:xlink="http://www.w3.org/1999/xlink" x="0px" y="0px"
	 viewBox="16 16 480 480" enable-background="new 16 16 480 480" xml:space="preserve">
<g id="Computer">
	<linearGradient id="SVGID_1_" gradientUnits="userSpaceOnUse" x1="16" y1="256" x2="496" y2="256">
		<stop  offset="0" style="stop-color:#FD035F"/>
		<stop  offset="1" style="stop-color:#6C2C8C"/>
	</linearGradient>
	<path fill="url(#SVGID_1_)" d="M456,16H56c-22.1,0-40,17.9-40,40v304c0,22.1,17.9,40,40,40h132.5l-18,48H152c-13.3,0-24,10.7-24,24
		v16c0,4.4,3.6,8,8,8h240c4.4,0,8-3.6,8-8v-16c0-13.3-10.7-24-24-24h-18.5l-18-48H456c22.1,0,40-17.9,40-40V56
		C496,33.9,478.1,16,456,16z M56,32h400c13.3,0,24,10.7,24,24v248H32V56C32,42.7,42.7,32,56,32z M368,472v8H144v-8c0-4.4,3.6-8,8-8
		h208C364.4,464,368,467.6,368,472z M324.5,448H187.5l18-48h100.9L324.5,448z M456,384H56c-13.3,0-24-10.7-24-24v-40h448v40
		C480,373.3,469.3,384,456,384z"/>
	<linearGradient id="SVGID_2_" gradientUnits="userSpaceOnUse" x1="232" y1="352" x2="280" y2="352">
		<stop  offset="0" style="stop-color:#FD035F"/>
		<stop  offset="1" style="stop-color:#6C2C8C"/>
	</linearGradient>
	<path fill="url(#SVGID_2_)" d="M256,328c-13.3,0-24,10.7-24,24s10.7,24,24,24c13.3,0,24-10.7,24-24S269.3,328,256,328z M256,360
		c-4.4,0-8-3.6-8-8s3.6-8,8-8s8,3.6,8,8S260.4,360,256,360z"/>
</g>
</svg>
