<?xml version="1.0" encoding="utf-8"?>
<!-- Generator: Adobe Illustrator 17.1.0, SVG Export Plug-In . SVG Version: 6.00 Build 0)  -->
<!DOCTYPE svg PUBLIC "-//W3C//DTD SVG 1.1//EN" "http://www.w3.org/Graphics/SVG/1.1/DTD/svg11.dtd">
<svg version="1.1" id="Capa_1" xmlns="http://www.w3.org/2000/svg" xmlns:xlink="http://www.w3.org/1999/xlink" x="0px" y="0px"
	 viewBox="0 180.8 612 430.3" enable-background="new 0 180.8 612 430.3" xml:space="preserve">
<g>
	<g>
		<linearGradient id="SVGID_1_" gradientUnits="userSpaceOnUse" x1="31.3483" y1="516.2789" x2="580.6469" y2="516.2789">
			<stop  offset="0" style="stop-color:#FD035F"/>
			<stop  offset="1" style="stop-color:#6C2C8C"/>
		</linearGradient>
		<path fill="url(#SVGID_1_)" d="M396.6,421.4l-51.3,51.4c-20.8,20.9-57.4,21.3-78.6,0l-51.3-51.4L31.3,606.1
			c6.9,3.2,14.4,5.1,22.4,5.1h504.4c8,0,15.6-1.9,22.4-5.1L396.6,421.4z"/>
	</g>
</g>
<g>
	<g>
		<linearGradient id="SVGID_2_" gradientUnits="userSpaceOnUse" x1="31.3507" y1="316.7263" x2="580.6469" y2="316.7263">
			<stop  offset="0" style="stop-color:#FD035F"/>
			<stop  offset="1" style="stop-color:#6C2C8C"/>
		</linearGradient>
		<path fill="url(#SVGID_2_)" d="M558.2,180.8H53.8c-8,0-15.6,1.9-22.4,5.1l196.7,197.4c0,0,0,0,0,0s0,0,0,0l64,64.2
			c6.8,6.8,21,6.8,27.8,0l64-64.2c0,0,0,0,0,0c0,0,0,0,0,0l196.7-197.4C573.8,182.7,566.2,180.8,558.2,180.8z"/>
	</g>
</g>
<g>
	<g>
		<linearGradient id="SVGID_3_" gradientUnits="userSpaceOnUse" x1="0" y1="396" x2="190.136" y2="396">
			<stop  offset="0" style="stop-color:#FD035F"/>
			<stop  offset="1" style="stop-color:#6C2C8C"/>
		</linearGradient>
		<path fill="url(#SVGID_3_)" d="M5.7,211C2.2,218.1,0,226.1,0,234.6v322.7c0,8.5,2.2,16.5,5.7,23.7l184.4-185L5.7,211z"/>
	</g>
</g>
<g>
	<g>
		<linearGradient id="SVGID_4_" gradientUnits="userSpaceOnUse" x1="421.8652" y1="396" x2="612" y2="396">
			<stop  offset="0" style="stop-color:#FD035F"/>
			<stop  offset="1" style="stop-color:#6C2C8C"/>
		</linearGradient>
		<path fill="url(#SVGID_4_)" d="M606.3,211L421.9,396l184.4,185c3.5-7.2,5.7-15.1,5.7-23.7V234.6C612,226.1,609.8,218.1,606.3,211z
			"/>
	</g>
</g>
</svg>
