<?xml version="1.0" encoding="utf-8"?>
<!-- Generator: Adobe Illustrator 17.1.0, SVG Export Plug-In . SVG Version: 6.00 Build 0)  -->
<!DOCTYPE svg PUBLIC "-//W3C//DTD SVG 1.1//EN" "http://www.w3.org/Graphics/SVG/1.1/DTD/svg11.dtd">
<svg version="1.1" id="Layer_1" xmlns="http://www.w3.org/2000/svg" xmlns:xlink="http://www.w3.org/1999/xlink" x="0px" y="0px"
	 viewBox="46.2 48 419.6 414.2" enable-background="new 46.2 48 419.6 414.2" xml:space="preserve">
<g>
	<path fill="#FCFCFC" d="M449.8,317.1c-8.8,0-16,7.2-16,16v74.5L304.7,278.5c-3.1-3.1-7.2-4.7-11.3-4.7s-8.2,1.6-11.3,4.7
		c-6.3,6.3-6.3,16.4,0,22.6l129.1,129.1h-74.5c-8.8,0-16,7.2-16,16s7.2,16,16,16h113.1c8.8,0,16-7.2,16-16V333.1
		C465.8,324.3,458.6,317.1,449.8,317.1L449.8,317.1z"/>
	<path fill="#FCFCFC" d="M102.6,80h74.5c8.8,0,16-7.2,16-16s-7.2-16-16-16H64c-8.8,0-16,7.2-16,16v113.1c0,8.8,7.2,16,16,16
		s16-7.2,16-16v-74.5l130.9,130.9c6.3,6.3,16.4,6.3,22.6,0s6.3-16.4,0-22.6L102.6,80z"/>
	<path fill="#FCFCFC" d="M218.7,273.8c-4.1,0-8.2,1.6-11.3,4.7L78.2,407.6v-74.5c0-8.8-7.2-16-16-16s-16,7.2-16,16v113.1
		c0,8.8,7.2,16,16,16h113.1c8.8,0,16-7.2,16-16s-7.2-16-16-16h-74.5L230,301.1c6.3-6.3,6.3-16.4,0-22.6
		C226.8,275.3,222.8,273.8,218.7,273.8L218.7,273.8z"/>
	<path fill="#FCFCFC" d="M301.1,233.5L432,102.6v74.5c0,8.8,7.2,16,16,16s16-7.2,16-16V64c0-8.8-7.2-16-16-16H334.9
		c-8.8,0-16,7.2-16,16s7.2,16,16,16h74.5L278.5,210.9c-6.3,6.3-6.3,16.4,0,22.6S294.8,239.8,301.1,233.5L301.1,233.5z"/>
</g>
</svg>
