<svg width="21" height="21" viewBox="0 0 21 21" fill="none" xmlns="http://www.w3.org/2000/svg">
<path d="M15.7927 5.3167C15.7927 5.4267 15.7027 5.5167 15.5927 5.5167H14.1927C14.0827 5.5167 13.9927 5.4267 13.9927 5.3167V4.1167H7.59265V5.3167C7.59265 5.4267 7.50265 5.5167 7.39265 5.5167H5.99265C5.88265 5.5167 5.79265 5.4267 5.79265 5.3167V4.1167H2.59265V7.5167H18.9927V4.1167H15.7927V5.3167Z" fill="#0057FF" fill-opacity="0.5"/>
<path d="M19.9927 2.3166H15.7927V0.716602C15.7927 0.606602 15.7027 0.516602 15.5927 0.516602H14.1927C14.0827 0.516602 13.9927 0.606602 13.9927 0.716602V2.3166H7.59272V0.716602C7.59272 0.606602 7.50272 0.516602 7.39272 0.516602H5.99272C5.88272 0.516602 5.79272 0.606602 5.79272 0.716602V2.3166H1.59272C1.15022 2.3166 0.792725 2.6741 0.792725 3.1166V19.7166C0.792725 20.1591 1.15022 20.5166 1.59272 20.5166H19.9927C20.4352 20.5166 20.7927 20.1591 20.7927 19.7166V3.1166C20.7927 2.6741 20.4352 2.3166 19.9927 2.3166ZM18.9927 18.7166H2.59272V9.2166H18.9927V18.7166ZM18.9927 7.5166H2.59272V4.1166H5.79272V5.3166C5.79272 5.4266 5.88272 5.5166 5.99272 5.5166H7.39272C7.50272 5.5166 7.59272 5.4266 7.59272 5.3166V4.1166H13.9927V5.3166C13.9927 5.4266 14.0827 5.5166 14.1927 5.5166H15.5927C15.7027 5.5166 15.7927 5.4266 15.7927 5.3166V4.1166H18.9927V7.5166Z" fill="#252525"/>
</svg>
