<svg width="32" height="33" viewBox="0 0 32 33" fill="none" xmlns="http://www.w3.org/2000/svg">
<g clip-path="url(#clip0)">
<path d="M24 14.2974H32L28 8.96411L24 14.2974ZM24 19.6308H32L28 24.9641L24 19.6308Z" fill="#2D9CDB"/>
<path d="M1.33333 0.964111H9.33333V32.9641H1.33333C0.979711 32.9641 0.640572 32.8236 0.390523 32.5736C0.140475 32.3235 0 31.9844 0 31.6308V2.29744C0 1.94382 0.140475 1.60468 0.390523 1.35463C0.640572 1.10459 0.979711 0.964111 1.33333 0.964111Z" fill="#2F80ED"/>
<path d="M12 0.964111H20C20.3536 0.964111 20.6928 1.10459 20.9428 1.35463C21.1929 1.60468 21.3333 1.94382 21.3333 2.29744V31.6308C21.3333 31.9844 21.1929 32.3235 20.9428 32.5736C20.6928 32.8236 20.3536 32.9641 20 32.9641H12V0.964111Z" fill="#56CCF2"/>
</g>
<defs>
<clipPath id="clip0">
<rect width="32" height="32" fill="white" transform="translate(0 0.964111)"/>
</clipPath>
</defs>
</svg>
