<svg width="15" height="14" viewBox="0 0 15 14" fill="none" xmlns="http://www.w3.org/2000/svg">
<path d="M3.54844 2.00916C3.54824 2.40495 3.39175 2.78444 3.11338 3.06416C2.83502 3.34389 2.45759 3.50092 2.06413 3.50072C1.67066 3.50053 1.29339 3.34311 1.0153 3.06311C0.737218 2.78311 0.581102 2.40346 0.581299 2.00767C0.581496 1.61189 0.737989 1.23239 1.01635 0.952672C1.29471 0.67295 1.67214 0.515916 2.06561 0.516113C2.45908 0.516311 2.83635 0.673726 3.11443 0.953727C3.39252 1.23373 3.54863 1.61338 3.54844 2.00916ZM3.59294 4.60577H0.625806V13.9476H3.59294V4.60577ZM8.28102 4.60577H5.32872V13.9476H8.25135V9.04538C8.25135 6.31446 11.7897 6.06077 11.7897 9.04538V13.9476H14.7197V8.03061C14.7197 3.42685 9.48271 3.59847 8.25135 5.85931L8.28102 4.60577Z" fill="white"/>
</svg>
