<svg style="enable-background:new 0 0 590.556 590.556" version="1.1" viewBox="0 0 590.56 590.56" xml:space="preserve" xmlns="http://www.w3.org/2000/svg">
	<g fill="#886ac5" transform="matrix(-1 0 0 1 590.55 0)">
		<path d="m574.1 469.24-136.49-115.8c-3.248-2.709-7.227-4.171-11.266-4.171-5.643 0-11.018 2.843-14.373 7.606-15.533 22.029-34.578 41.087-56.611 56.635-4.1 2.895-6.816 7.319-7.449 12.143-0.635 4.828 0.775 9.602 3.975 13.439l115.87 136.61c7.852 9.422 19.252 14.859 31.23 14.859 10.768 0 21.021-4.324 28.877-12.179l48.98-48.981c8.346-8.348 12.656-19.241 12.137-30.68-0.523-11.446-5.808-21.915-14.884-29.48z"/>
		<path d="m218.4 433.74c57.923 0 112.38-22.559 153.35-63.522 40.965-40.965 63.523-95.423 63.523-153.35 1e-3 -119.58-97.287-216.87-216.87-216.87-119.58 0-216.87 97.29-216.87 216.87s97.287 216.87 216.87 216.87zm-146.59-216.87c0-80.83 65.759-146.59 146.59-146.59 80.831 0 146.59 65.759 146.59 146.59 0 39.091-15.262 75.885-42.982 103.6-27.721 27.718-64.515 42.984-103.61 42.984-80.83 3e-3 -146.59-65.757-146.59-146.59z"/>
	</g>
</svg>
