<svg xmlns="http://www.w3.org/2000/svg" xmlns:xlink="http://www.w3.org/1999/xlink" viewBox="0 0 234.79 234.79">
	<defs>
		<style>.cls-1{fill:#003458;}.cls-2{clip-path:url(#clip-path);}.cls-3{fill:#fff;}</style>
		<clipPath id="clip-path">
			<path class="cls-1" d="M117.4,0A117.4,117.4,0,1,0,234.79,117.4,117.4,117.4,0,0,0,117.4,0Z"/>
		</clipPath>
	</defs>
	<g id="Слой_2" data-name="Слой 2">
		<g id="Layer_1" data-name="Layer 1">
			<path class="cls-1" d="M117.4,0A117.4,117.4,0,1,0,234.79,117.4,117.4,117.4,0,0,0,117.4,0Z"/>
			<g class="cls-2">
				<path class="cls-3" d="M142.41,111.34h-6.58a37.83,37.83,0,0,1-34.88,0H94.38a29.27,29.27,0,0,0-29.24,29.25V178.5H171.65V140.59A29.28,29.28,0,0,0,142.41,111.34Z"/>
				<path class="cls-3" d="M149.14,77.6a30.75,30.75,0,1,0-30.75,30.74A30.79,30.79,0,0,0,149.14,77.6Z"/>
				<path class="cls-3" d="M142.41,111.34h-6.58a37.83,37.83,0,0,1-34.88,0H94.38a29.27,29.27,0,0,0-29.24,29.25V178.5H171.65V140.59A29.28,29.28,0,0,0,142.41,111.34Z"/>
				<path class="cls-3" d="M149.14,77.6a30.75,30.75,0,1,0-30.75,30.74A30.79,30.79,0,0,0,149.14,77.6Z"/>
			</g>
		</g>
	</g>
</svg>