<svg version="1.1" id="Capa_1" xmlns="http://www.w3.org/2000/svg" xmlns:xlink="http://www.w3.org/1999/xlink" x="0px" y="0px"
	 viewBox="0 0 512 512" style="enable-background:new 0 0 512 512;" xml:space="preserve">
<style type="text/css">
	.st0{fill:url(#Shape_1_);}
	.st1{fill:url(#Shape_2_);}
	.st2{fill:url(#Shape_3_);}
</style>
<g>
	<g id="Page-1_4_">
		<g id="_x30_05---Get-Points" transform="translate(-1)">
			<linearGradient id="Shape_1_" gradientUnits="userSpaceOnUse" x1="13.3639" y1="112.0981" x2="503.3639" y2="109.0981">
				<stop  offset="4.475343e-07" style="stop-color:#C1207F"/>
				<stop  offset="0.5019" style="stop-color:#EF33EE"/>
				<stop  offset="1" style="stop-color:#8209B7"/>
			</linearGradient>
			<path id="Shape_25_" class="st0" d="M108.5,140.5c1.7,1.8,2.5,4.3,2,6.7l-7.6,46.1c-1.6,9.3,2.2,18.7,9.9,24.2
				c7.1,5.1,16.6,5.7,24.3,1.4l40.4-22c1.7-1,3.9-1,5.6,0l40.4,22.1c7.7,4.2,17.1,3.7,24.3-1.4c7.7-5.5,11.5-14.9,9.9-24.2
				l-7.6-46.1c-0.4-2.4,0.3-4.9,2-6.7l32.1-32.5c6.6-6.7,8.8-16.5,5.8-25.3c-2.7-8.5-10-14.8-18.8-16.2l-44.7-6.7
				c-2.1-0.4-4-1.8-4.8-3.8l-20.1-42.4C197.7,5.3,189.4,0,180.3,0s-17.4,5.3-21.1,13.6L139,56c-0.9,2-2.7,3.4-4.8,3.8l-44.7,6.7
				c-8.8,1.4-16.1,7.7-18.8,16.2c-3,8.9-0.8,18.7,5.8,25.3L108.5,140.5z M86.8,88.1c0.7-2.4,2.7-4.2,5.2-4.7l44.7-6.8
				c7.8-1.2,14.4-6.2,17.7-13.4l20.1-42.4c0.9-2.3,3.2-3.9,5.7-3.9s4.8,1.5,5.7,3.9l20.1,42.4c3.3,7.1,9.9,12.1,17.6,13.4l44.7,6.8
				c2.5,0.4,4.5,2.2,5.2,4.7c1,2.8,0.3,5.8-1.7,8l-32.1,32.5c-5.5,5.7-8,13.7-6.7,21.5l7.6,46.1c0.6,2.9-0.6,5.8-2.9,7.5
				c-1.8,1.4-4.3,1.5-6.2,0.4l-40.4-22.1c-6.8-3.7-15.1-3.7-22,0L128.9,204c-2,1.1-4.4,1-6.2-0.4c-2.4-1.7-3.5-4.6-2.9-7.5l7.6-46.1
				c1.3-7.8-1.2-15.8-6.7-21.5L88.6,96.1C86.5,93.9,85.9,90.9,86.8,88.1z"/>
			<linearGradient id="Shape_2_" gradientUnits="userSpaceOnUse" x1="13.2145" y1="87.7064" x2="503.2145" y2="84.7064">
				<stop  offset="4.475343e-07" style="stop-color:#C1207F"/>
				<stop  offset="0.5019" style="stop-color:#EF33EE"/>
				<stop  offset="1" style="stop-color:#8209B7"/>
			</linearGradient>
			<path id="Shape_24_" class="st1" d="M349.3,105.1c0.2,0.2,0.3,0.6,0.2,0.9l-4.4,26.9c-1.2,6.8,1.6,13.6,7.2,17.6
				c5.3,3.8,12.2,4.2,17.9,1.1l23.4-12.9l23.6,12.9c5.7,3.1,12.7,2.7,17.9-1.1c5.6-4,8.4-10.8,7.2-17.6l-4.4-26.9
				c-0.1-0.3,0-0.6,0.2-0.9l18.7-18.9c4.8-4.9,6.4-12,4.2-18.4c-2-6.2-7.4-10.8-13.8-11.8L421,51.7L409.2,27
				c-2.8-6.1-8.8-10-15.5-10c-6.7,0-12.8,3.9-15.5,10l-11.9,25L340.2,56c-6.5,1-11.8,5.5-13.8,11.8c-2.2,6.4-0.6,13.6,4.2,18.4
				L349.3,105.1z M342.7,72.8l26.1-3.9c5.7-0.9,10.6-4.6,13-9.8l11.9-25c0.1,0.1,0.1,0.1,0.2,0.2l11.8,24.7c2.4,5.2,7.3,8.9,13,9.8
				l26.1,3.9v1.4l-18.7,19c-4,4.1-5.8,9.9-4.9,15.6l4.4,26.9c0.1,0.3,0,0.6-0.2,0.9l-23.5-12.9c-5.1-2.8-11.2-2.8-16.2,0l-23.4,12.9
				c0,0-0.4-0.2-0.3-0.9l4.4-26.9c0.9-5.7-0.9-11.5-4.9-15.6l-18.7-18.9l-6.1,6L342.7,72.8z"/>
			<linearGradient id="Shape_3_" gradientUnits="userSpaceOnUse" x1="14.7494" y1="338.3966" x2="504.7494" y2="335.3966">
				<stop  offset="4.475343e-07" style="stop-color:#C1207F"/>
				<stop  offset="0.5019" style="stop-color:#EF33EE"/>
				<stop  offset="1" style="stop-color:#8209B7"/>
			</linearGradient>
			<path id="Shape_23_" class="st2" d="M9.6,494.9c1.9,0,3.8-0.7,5.3-1.9c1.8-1.4,43.2-34.6,60.4-51.8
				c66.6-66.6,116-74.3,147.4-74.3c11.8-0.1,23.3,4,32.4,11.6c4.5,3.6,10.1,5.5,15.8,5.5h86.9c9.4-0.3,17.5,6.8,18.5,16.2
				c0.2,4.7-1.5,9.2-4.7,12.6c-3.2,3.4-7.7,5.3-12.4,5.3h-93.9c-4.7,0-8.5,3.8-8.5,8.5c0,4.7,3.8,8.5,8.5,8.5h93.9
				c9.4,0,18.3-3.8,24.7-10.6c6.4-6.8,9.8-15.9,9.3-25.3c0-0.1-0.1-0.2-0.1-0.3l74.2-62.2c3.5-2.9,8-4.4,12.6-3.9s8.7,2.6,11.7,6.1
				c5.6,6.8,5.2,16.8-0.9,23.1L384.4,470.5c-4.4,4.5-10.3,7.2-16.6,7.4H213.7c-12,0-23.9,2.3-35,6.8l-27.1,10.9
				c-4.4,1.8-6.5,6.7-4.7,11.1c1.8,4.4,6.7,6.5,11.1,4.7l27.1-10.9c9.1-3.7,18.8-5.5,28.6-5.5H368c10.8-0.3,21-4.8,28.5-12.5
				L503.1,374c12.8-13,13.2-33.9,0.8-47.3c-12.4-13.4-33.2-14.8-47.2-3L413,360.2l-2.6-15.7c-0.6-3.8,0.6-7.6,3.2-10.3l40-40.6
				c7.7-7.8,10.3-19.2,6.7-29.5c-3.1-9.9-11.6-17.2-21.8-18.8l-55.8-8.4c-3.4-0.6-6.3-2.8-7.7-5.9l-25.2-53.1
				c-4.3-9.6-13.9-15.8-24.4-15.8c-10.6,0-20.1,6.2-24.4,15.8l-25.1,53c-1.5,3.2-4.4,5.4-7.8,6l-55.8,8.4
				c-10.3,1.6-18.7,8.9-21.9,18.8c-3.5,10.3-0.9,21.7,6.7,29.5l40,40.6c2.6,2.7,3.8,6.5,3.2,10.2l-1.3,7.5
				c-5.3-1.3-10.8-1.9-16.3-1.9c-34.4,0-88.3,8.2-159.4,79.3c-16.5,16.5-58.6,50.2-59,50.6c-2.8,2.3-3.9,6.1-2.7,9.5
				S6,494.9,9.6,494.9z M249.3,322.2l-40-40.6c-3.1-3.2-4.1-7.9-2.7-12.1c1.1-3.8,4.3-6.6,8.2-7.3l55.8-8.4
				c9-1.5,16.7-7.2,20.6-15.4l25.2-53.1c1.5-3.7,5.1-6.1,9-6.1c4,0,7.5,2.4,9,6.1l25.2,53.2c3.9,8.2,11.6,13.9,20.5,15.4l55.8,8.4
				c3.9,0.6,7.1,3.5,8.2,7.3c1.5,4.2,0.4,8.9-2.7,12.1l-40,40.6c-6.4,6.6-9.4,15.9-7.9,25l4.3,25.7l-10.6,8.9
				c-6.8-9.4-17.7-15-29.3-14.9h-86.9c-1.8,0.1-3.5-0.5-4.9-1.6c-3.3-2.7-6.9-5.1-10.7-7.2l1.9-11
				C258.6,338.1,255.7,328.8,249.3,322.2L249.3,322.2z"/>
		</g>
	</g>
</g>
</svg>
