<?xml version="1.0" encoding="iso-8859-1"?>
<!-- Generator: Adobe Illustrator 19.0.0, SVG Export Plug-In . SVG Version: 6.00 Build 0)  -->
<svg version="1.1" id="Capa_1" xmlns="http://www.w3.org/2000/svg" xmlns:xlink="http://www.w3.org/1999/xlink" x="0px" y="0px"
	 viewBox="0 0 409.6 409.6" style="enable-background:new 0 0 409.6 409.6;" xml:space="preserve">
<g>
	<g>
		<path d="M325.635,0H83.965c-15.125,0-27.43,12.305-27.43,27.43v354.74c0,15.125,12.305,27.43,27.43,27.43h241.67
			c15.125,0,27.43-12.305,27.43-27.43V27.43C353.065,12.305,340.76,0,325.635,0z M342.825,382.17c0,9.48-7.71,17.19-17.19,17.19
			H83.965c-9.48,0-17.19-7.71-17.19-17.19V335.9h276.05V382.17z M342.825,325.66H66.775V56.755h276.05V325.66z M342.825,46.515
			H66.775V27.43c0-9.48,7.71-17.19,17.19-17.19h241.67c9.48,0,17.19,7.71,17.19,17.19V46.515z"/>
	</g>
</g>
<g>
	<g>
		<path d="M204.8,347.435c-11.615,0-21.075,9.455-21.08,21.075c0,0.005,0,0.005,0,0.005c0,11.62,9.455,21.075,21.08,21.075
			c11.615,0,21.075-9.455,21.08-21.075C225.88,356.89,216.425,347.435,204.8,347.435z M204.8,379.35
			c-5.975,0-10.84-4.86-10.84-10.835c0.005-5.975,4.865-10.84,10.84-10.84s10.84,4.865,10.84,10.835
			C215.635,374.49,210.775,379.35,204.8,379.35z"/>
	</g>
</g>
<g>
</g>
<g>
</g>
<g>
</g>
<g>
</g>
<g>
</g>
<g>
</g>
<g>
</g>
<g>
</g>
<g>
</g>
<g>
</g>
<g>
</g>
<g>
</g>
<g>
</g>
<g>
</g>
<g>
</g>
</svg>
