<?xml version="1.0"?>
<svg xmlns="http://www.w3.org/2000/svg" xmlns:xlink="http://www.w3.org/1999/xlink" xmlns:svgjs="http://svgjs.com/svgjs" version="1.1" width="512" height="512" x="0" y="0" viewBox="0 0 128 128" style="enable-background:new 0 0 512 512" xml:space="preserve" class=""><g><g xmlns="http://www.w3.org/2000/svg" id="number"><text fill="#24253a" font-family="MyriadPro-Regular, Myriad Pro" font-size="40" letter-spacing=".002em" transform="translate(61.012 -510.265)" svgjs:data="{&quot;leading&quot;:&quot;1.3&quot;}">8<tspan x="-10.3" y="228" svgjs:data="{&quot;leading&quot;:&quot;1.3&quot;}">18</tspan><tspan x="-10.3" y="456" svgjs:data="{&quot;leading&quot;:&quot;1.3&quot;}">28</tspan><tspan x="-10.3" y="684" svgjs:data="{&quot;leading&quot;:&quot;1.3&quot;}">38</tspan><tspan x="-10.3" y="912" svgjs:data="{&quot;leading&quot;:&quot;1.3&quot;}">48</tspan><tspan x="-10.3" y="1140" svgjs:data="{&quot;leading&quot;:&quot;1.3&quot;}">58</tspan><tspan x="-10.3" y="1368" svgjs:data="{&quot;leading&quot;:&quot;1.3&quot;}">68</tspan><tspan x="-10.3" y="1596" svgjs:data="{&quot;leading&quot;:&quot;1.3&quot;}">78</tspan><tspan x="-10.3" y="1824" svgjs:data="{&quot;leading&quot;:&quot;1.3&quot;}">88</tspan><tspan x="-10.3" y="2052" svgjs:data="{&quot;leading&quot;:&quot;1.3&quot;}">98</tspan><tspan x="-20.599" y="2280" svgjs:data="{&quot;leading&quot;:&quot;1.3&quot;}">108</tspan><tspan x="-20.599" y="2508" svgjs:data="{&quot;leading&quot;:&quot;1.3&quot;}">118</tspan><tspan x="-20.599" y="2736" svgjs:data="{&quot;leading&quot;:&quot;1.3&quot;}">128</tspan><tspan x="-20.599" y="2964" svgjs:data="{&quot;leading&quot;:&quot;1.3&quot;}">138</tspan><tspan x="-20.599" y="3192" svgjs:data="{&quot;leading&quot;:&quot;1.3&quot;}">148</tspan><tspan x="-20.599" y="3420" svgjs:data="{&quot;leading&quot;:&quot;1.3&quot;}">158</tspan><tspan x="-20.599" y="3648" svgjs:data="{&quot;leading&quot;:&quot;1.3&quot;}">168</tspan><tspan x="-20.599" y="3876" svgjs:data="{&quot;leading&quot;:&quot;1.3&quot;}">178</tspan><tspan x="-20.599" y="4104" svgjs:data="{&quot;leading&quot;:&quot;1.3&quot;}">188</tspan><tspan x="-20.599" y="4332" svgjs:data="{&quot;leading&quot;:&quot;1.3&quot;}">198</tspan><tspan x="-20.599" y="4560" svgjs:data="{&quot;leading&quot;:&quot;1.3&quot;}">208</tspan><tspan x="-20.599" y="4788" svgjs:data="{&quot;leading&quot;:&quot;1.3&quot;}">218</tspan><tspan x="-20.599" y="5016" svgjs:data="{&quot;leading&quot;:&quot;1.3&quot;}">228</tspan><tspan x="-20.599" y="5244" svgjs:data="{&quot;leading&quot;:&quot;1.3&quot;}">238</tspan><tspan x="-20.599" y="5472" svgjs:data="{&quot;leading&quot;:&quot;1.3&quot;}">248</tspan></text></g><g xmlns="http://www.w3.org/2000/svg" id="Circle_Grid" data-name="Circle Grid"><circle cx="64" cy="64" fill="#7b8c98" r="64" data-original="#ef5261" style="" class=""/></g><g xmlns="http://www.w3.org/2000/svg" id="icon"><path d="m56.268 101.045v.722a3.234 3.234 0 0 0 3.232 3.233h9.025a3.234 3.234 0 0 0 3.234-3.234v-.722z" fill="#7b8c98" data-original="#414451" style="" class=""/><path d="m51.271 89.321v7.587a5.32 5.32 0 0 0 5.32 5.32h14.847a5.32 5.32 0 0 0 5.32-5.32v-7.587z" fill="#ffffff" data-original="#575b6d" style="" class=""/><path d="m76.855 91.8h-26.055a1.485 1.485 0 1 0 0 2.969h26.055a1.485 1.485 0 1 0 0-2.969z" fill="#7b8c98" data-original="#414451" style="" class=""/><path d="m76.237 97.252h-24.445a1.485 1.485 0 0 0 0 2.969h24.445a1.485 1.485 0 0 0 0-2.969z" fill="#7b8c98" data-original="#414451" style="" class=""/><path d="m93.427 49.469a29.59 29.59 0 1 0 -52.447 21.714 38.834 38.834 0 0 1 7.646 16.166 2.987 2.987 0 0 0 2.92 2.347h24.986a2.982 2.982 0 0 0 2.906-2.288 45.529 45.529 0 0 1 8.144-16.965 29.489 29.489 0 0 0 5.845-20.974z" fill="#ffffff" data-original="#f6c863" style="" class=""/><g fill="#eab54e"><path d="m71.761 55.915a7.751 7.751 0 1 1 -7.751-7.751 7.747 7.747 0 0 1 7.751 7.751z" fill="#ffffff" data-original="#eab54e" style="" class=""/><path d="m61.93 58.33h4.16v31.367h-4.16z" fill="#ffffff" data-original="#eab54e" style="" class=""/></g></g></g></svg>
