<svg id="Layer_1" data-name="Layer 1" xmlns="http://www.w3.org/2000/svg" viewBox="0 0 500 500"><defs><style>.cls-1{fill:#fff;}</style></defs><title>3463_500x500_dark</title><g id="logo-large"><g id="Слой_1"><path class="cls-1" d="M331.09,277.44h38.54c3.66-13.66,7.56-27.56,11.22-41.22s7.56-27.56,11.22-41.22H426c2.92-10.74,5.85-21.71,9-32.44H328.65c-2.92,10.73-5.85,21.7-9,32.44h33.9c-3.9,13.66-7.56,27.56-11.46,41.22S334.75,263.78,331.09,277.44Z"/><path class="cls-1" d="M91.81,267.44C85.71,259.15,85,248.9,89.13,234h37.32c-2.2,8,.48,13.42,7.07,13.42,6.34,0,12.2-5.37,14.39-13.42,3.17-12,6.59-23.9,9.76-35.61,3.17-11.95,6.58-23.9,9.75-35.85h37.32c-3.17,11.7-6.58,23.66-9.75,35.36s-6.59,23.66-9.76,35.37C181.08,248.41,175,258.9,164,267.44c-21.71,16.83-59.76,17.07-72.2,0Z"/><path class="cls-1" d="M186.21,277.44h99c2.92-10.49,5.85-21,8.53-31.46H232.55c1.22-4.15,2.19-8.3,3.41-12.44h56.1c2.44-9.27,5.13-18.54,7.57-27.81h-56.1c1-3.9,2.19-7.81,3.17-11.71h60.24q4.4-15.74,8.78-31.46H217.67c-5.37,19.27-10.49,38.29-15.85,57.56s-10.49,38.3-15.61,57.32Z"/><path class="cls-1" d="M80.59,337.44c7.56,0,12.93-2.68,18.29-7.07-1.22-1.46-2.19-2.93-3.41-4.63-4.39,3.17-7.81,5.12-12.93,5.12-7.56,0-11.46-6.34-9.27-14.15h0c2.2-7.8,9.51-14.15,17.08-14.15a11.36,11.36,0,0,1,9.75,4.88l5.86-5.12c-2.93-3.66-6.59-6.1-13.91-6.1-12.19,0-23.17,9.27-26.34,20.74v.24c-2.93,11.22,3.42,20.24,14.88,20.24Zm40-.73h7.08c2.19-3.17,4.39-6.34,6.82-9.75h18.79c.48,3.17.73,6.34,1.46,9.75h7.32c-1.95-13.17-4.15-26.58-6.1-40h-6.59C139.86,310.13,130.35,323.54,120.59,336.71Zm18.3-15.85c3.65-5.37,7.31-10.73,11.22-16.1.73,5.37,1.7,10.73,2.43,16.1Zm63.17,16.58c8.29,0,15.37-4.39,17.56-11.95h0c1.71-6.58-1.71-9.75-9.51-11.71-7.32-1.95-8.78-3.17-7.81-6.34v-.24c.74-2.68,3.66-4.64,7.81-4.64a14.13,14.13,0,0,1,9.76,4.15c1.7-1.71,3.41-3.41,5.12-5.37-3.17-3.17-7.32-5.12-13.17-5.12-7.81,0-14.88,4.64-16.83,11.47v.24c-2,7.32,2.19,9.76,10,11.95,6.83,1.71,8,3.17,7.31,6.1h0c-.73,2.93-4.14,5.12-8.53,5.12A14.4,14.4,0,0,1,192.55,326c-2,1.71-3.66,3.41-5.61,5.12a20,20,0,0,0,15.12,6.34Zm42.69-.73h7.07c3.66-13.41,7.32-26.58,11-40h-7.07C252.06,310.13,248.4,323.54,244.75,336.71Zm37.31,0h6.83c2.69-9.51,5.13-19,7.81-28.54,4.88,9.52,9.51,19,14.15,28.54h5.85c3.66-13.41,7.32-26.58,11-40h-6.83c-2.44,9.27-5.13,18.54-7.56,27.56-4.64-9.27-9.27-18.54-13.91-27.56H292.8C289.38,310.13,285.72,323.54,282.06,336.71Zm83.67.73c12.19,0,23.66-9.51,26.58-20.73h0c3.18-11.22-2.92-20.49-15.12-20.49S353.78,305.73,350.6,317v.24c-2.92,11,2.93,20.24,15.13,20.24Zm1.95-6.34c-8.05,0-11.95-6.34-9.76-14.14h0c2.2-7.81,9.52-14.15,17.32-14.15,8.05,0,11.95,6.34,9.76,14.15v.24c-2.2,7.56-9.27,13.9-17.32,13.9Z"/></g></g></svg>