<svg id="Layer_1" data-name="Layer 1" xmlns="http://www.w3.org/2000/svg" xmlns:xlink="http://www.w3.org/1999/xlink" viewBox="0 0 500 500"><defs><style>.cls-1{fill:#fff;}.cls-2,.cls-3,.cls-4{fill-rule:evenodd;}.cls-2{fill:url(#linear-gradient);}.cls-3{fill:url(#linear-gradient-2);}.cls-4{fill:url(#linear-gradient-3);}.cls-5{mask:url(#mask);}.cls-6{fill:none;stroke:#ad00ff;stroke-width:8px;}</style><linearGradient id="linear-gradient" x1="174.6" y1="-4361.11" x2="174.6" y2="-4562.87" gradientTransform="matrix(1, 0, 0, -1, 0, -4222.43)" gradientUnits="userSpaceOnUse"><stop offset="0" stop-color="#ffdc1a"/><stop offset="1" stop-color="#ff273f"/></linearGradient><linearGradient id="linear-gradient-2" x1="171.1" y1="-4364.33" x2="184.79" y2="-4592.74" gradientTransform="matrix(1, 0, 0, -1, 0, -4222.43)" gradientUnits="userSpaceOnUse"><stop offset="0.1" stop-color="#ffdc1a"/><stop offset="0.43" stop-color="#ff6033"/><stop offset="0.71" stop-color="#ff273f"/></linearGradient><linearGradient id="linear-gradient-3" x1="164.51" y1="-4391" x2="193.29" y2="-4593.57" gradientTransform="matrix(1, 0, 0, -1, 0, -4222.43)" gradientUnits="userSpaceOnUse"><stop offset="0" stop-color="#ffdc1a"/><stop offset="0.56" stop-color="#ff273f"/></linearGradient><mask id="mask" x="242.45" y="238.8" width="195.53" height="127" maskUnits="userSpaceOnUse"><g id="path-4-outside-1"><rect class="cls-1" x="242.78" y="239.26" width="194.51" height="126.54"/><path d="M271.43,296.13q3.36,1.17,6.4,2.2a23.71,23.71,0,0,1,5.33,2.5,12.33,12.33,0,0,1,3.66,3.52,8.15,8.15,0,0,1,1.37,4.85,13.62,13.62,0,0,1-1.68,6.61,15.44,15.44,0,0,1-4.57,5.44,22.91,22.91,0,0,1-7.46,3.67,29.32,29.32,0,0,1-9.6,1.47,31.89,31.89,0,0,1-9.59-1.18,17.36,17.36,0,0,1-5.64-2.49,7.53,7.53,0,0,1-2.59-2.94,6.75,6.75,0,0,1-.61-2.35,11.21,11.21,0,0,1,.76-3.82,15.08,15.08,0,0,1,2.9-4.7,17,17,0,0,1,2-1.91,9.94,9.94,0,0,1,4.26-2.21,10.53,10.53,0,0,0,.77,5.59,9.55,9.55,0,0,0,3,3.23,13.13,13.13,0,0,0,4.27,1.61,25.08,25.08,0,0,0,4.57.44,16,16,0,0,0,4.26-.58,22.44,22.44,0,0,0,4.11-1.47,11.42,11.42,0,0,0,2.9-2.21,4.09,4.09,0,0,0,1.22-2.79,3.17,3.17,0,0,0-1.37-2.64,10.39,10.39,0,0,0-3.51-1.62,19.54,19.54,0,0,0-4.41-1c-1.53-.29-3-.58-4.42-.88L262,301.27a34,34,0,0,1-7-2.65,20.74,20.74,0,0,1-5.94-4.7,11.82,11.82,0,0,1-2.44-7.78,16.41,16.41,0,0,1,2.9-9.7,27.36,27.36,0,0,1,7.31-7.05A35,35,0,0,1,266.1,265a30.53,30.53,0,0,1,8.68-1.47,17.29,17.29,0,0,1,4.27.59,11.51,11.51,0,0,1,4.26,1.76,9.09,9.09,0,0,1,3.2,3.23,9.34,9.34,0,0,1,1.37,5.29,19.3,19.3,0,0,1-.6,5.29,7,7,0,0,1-1.53,3.09,4.2,4.2,0,0,1-2.28,1.32,15.88,15.88,0,0,1-3.2.29,8.87,8.87,0,0,1-2.29-.29c-.61-.2-1.27-.39-2-.59a5.53,5.53,0,0,1-2-1,15,15,0,0,0,2.29-3.38,7.92,7.92,0,0,0,.91-4,5.92,5.92,0,0,0-1.22-3.68,4.06,4.06,0,0,0-3.65-1.61,14.2,14.2,0,0,0-5.33,1,14.09,14.09,0,0,0-7.47,6.9,11,11,0,0,0-1.06,4.85,11.3,11.3,0,0,0,3,7.49C263.66,292.45,267,294.46,271.43,296.13Zm55.3-30.27a14.44,14.44,0,0,1,7.92,2.35,21.81,21.81,0,0,1,6.24,6.17A32.6,32.6,0,0,1,345,283.2a33.76,33.76,0,0,1,1.52,10.13,55.26,55.26,0,0,1-1.22,11.17,41.78,41.78,0,0,1-3.81,10.87,26.31,26.31,0,0,1-6.7,8.37A15.73,15.73,0,0,1,324.75,327a14.63,14.63,0,0,1-9-3.24,23.07,23.07,0,0,1-6.4-8.37A74.76,74.76,0,0,1,308,325.8a68.07,68.07,0,0,0-1.07,12.93c0,1.47.06,3.13.16,5s.25,3.73.45,5.59a36.65,36.65,0,0,0,.92,5.14,14.72,14.72,0,0,0,1.37,3.67,29.77,29.77,0,0,1-4.72,2.21,22.77,22.77,0,0,1-3.51,1,12.25,12.25,0,0,1-3.2.44,2.48,2.48,0,0,1-2.59-1.61,18.65,18.65,0,0,1-.6-5.73q0-2.64.15-7.64.3-4.85.61-11.17t.76-13.22q.45-7.05.76-13.81c.31-4.5.51-8.67.61-12.48s.3-7.2.3-9.85q0-4.84-.15-7.49a26.85,26.85,0,0,0-.45-4.11,6.64,6.64,0,0,0-.46-2.06c-.21-.39-.46-.83-.76-1.32a13.76,13.76,0,0,1,3.2-1.77,15.39,15.39,0,0,1,3.8-1.17,11.37,11.37,0,0,1,3.51-.29,5.7,5.7,0,0,1,2.59.73,4.17,4.17,0,0,1,1.06,2.2,23.73,23.73,0,0,1,.76,4.41A34.48,34.48,0,0,1,318,268.8,13.85,13.85,0,0,1,326.73,265.86Zm-5.94,52.45a7.21,7.21,0,0,0,5.18-2.5,21.67,21.67,0,0,0,4.41-6.32,38.19,38.19,0,0,0,3.05-8.66,39.27,39.27,0,0,0,1.22-9.55,27.37,27.37,0,0,0-1.07-8.38,14.56,14.56,0,0,0-2.44-5.29,7.34,7.34,0,0,0-3-2.79,5.7,5.7,0,0,0-2.75-.88,8.12,8.12,0,0,0-5.48,2.35,20.27,20.27,0,0,0-4.57,5.88,35.71,35.71,0,0,0-3.2,7.93,37.45,37.45,0,0,0-1.06,8.82,36,36,0,0,0,.76,7.64,29.91,29.91,0,0,0,2.28,6.17,14,14,0,0,0,3.05,4.11A5.85,5.85,0,0,0,320.79,318.31ZM356.28,272c0-.59.81-1.22,2.43-1.91a28.64,28.64,0,0,1,5.33-1.61,23.73,23.73,0,0,1,5.49-.74c1.73-.1,2.59.25,2.59,1q0,2.2-.31,6.32-.3,4-.76,8.52c-.3,2.94-.61,5.92-.91,9s-.51,5.43-.61,7.49-.41,4.51-.61,7.05c-.2,2.16-.36,4.56-.46,7.2s-.1,5.34,0,8.08c0,.49-.5,1-1.52,1.47a12.24,12.24,0,0,1-3.35,1,15.19,15.19,0,0,1-3.51.44c-1.11,0-1.72-.2-1.82-.59a8.28,8.28,0,0,1-.61-2c-.21-1-.41-2.35-.61-4.12s-.36-4.21-.46-7.05-.05-6.46.15-10.58a170,170,0,0,0,.16-18.8Q356.42,275.41,356.28,272Zm10.66-29.23a10.5,10.5,0,0,1,5.79,1.76,5.36,5.36,0,0,1,2.74,4.7,8.27,8.27,0,0,1-1.22,4.26,13.86,13.86,0,0,1-2.74,3.67,14.7,14.7,0,0,1-3.81,2.65,10.36,10.36,0,0,1-4,.88,9.18,9.18,0,0,1-4-.73,9.91,9.91,0,0,1-2.44-1.91,7.73,7.73,0,0,1-1.06-2.5,10.81,10.81,0,0,1-.31-2.5,12.68,12.68,0,0,1,.46-3.23,8.2,8.2,0,0,1,1.67-3.38,8.92,8.92,0,0,1,3.36-2.64A12.58,12.58,0,0,1,366.94,242.8Zm-3.81,13.66a4.16,4.16,0,0,0,2-.59,12.38,12.38,0,0,0,2.13-1.61,7.42,7.42,0,0,0,1.68-1.91,3.18,3.18,0,0,0,.76-1.77c0-.78-.41-1.17-1.22-1.17a4.78,4.78,0,0,0-2,.59,14.2,14.2,0,0,0-2.13,1.46,7.69,7.69,0,0,0-1.83,1.77,3.12,3.12,0,0,0-.61,1.76C361.91,256,362.32,256.46,363.13,256.46Zm35.34,63.61c-.1.59-.66,1.23-1.68,1.91a17.17,17.17,0,0,1-3.35,1.62,12.32,12.32,0,0,1-3.5.88,2.69,2.69,0,0,1-2.29-.29c-.4-.4-1.06-1.13-2-2.21a9.42,9.42,0,0,1-1.67-5.29c-.2-2.54-.31-5.73-.31-9.55s-.05-8.22-.15-12.92v-5.88q0-2.64-.15-6.17,0-3.53-.15-7.35c.91-.49,1.83-.93,2.74-1.32a28,28,0,0,1,2.74-1.17,16,16,0,0,1,2.59-.89,29.59,29.59,0,0,1,4.88-1q1.67-.15,2,1a22.53,22.53,0,0,1-.16,4.27q-.3,2.93-.76,9-.45,5.86-1.52,16.45c1.32-3.13,2.38-5.83,3.2-8.08s1.67-4.06,2.28-5.44a35.1,35.1,0,0,1,1.68-4,42.59,42.59,0,0,1,2-4.26q1.22-2.36,2.43-4.41,1.38-2.06,2.44-3.67a6.72,6.72,0,0,1,1.83-1.91,5.65,5.65,0,0,1,2.74,0,16.89,16.89,0,0,1,4.88,1.47,18.15,18.15,0,0,1,5,3.08,8.8,8.8,0,0,1,3.2,4.7,26.7,26.7,0,0,1,.61,8.52c-.1,3.53-.36,7.15-.76,10.87s-.56,7.25-.76,10.58a20.52,20.52,0,0,0,.61,7.64,10.09,10.09,0,0,0,.91,2.65,14.59,14.59,0,0,0,.76,2.2,5.28,5.28,0,0,0,1.22,1.32,63.73,63.73,0,0,1-5.94,2.35c-1.52.49-2.69.84-3.5,1a4.9,4.9,0,0,1-2.14.29,4.62,4.62,0,0,1-2.43-2.2,22.4,22.4,0,0,1-1.68-5.58,17.15,17.15,0,0,1-.3-3.82q.15-2.79.45-6.17t.61-7.2q.46-3.83.61-7.05c.2-2.25.36-4.16.46-5.73a18,18,0,0,0,0-3.38,6.82,6.82,0,0,0-2.13-3.67c-.92-.79-1.63-.88-2.14-.3a29.55,29.55,0,0,0-4.26,7.2q-2.13,4.85-4.11,10.73-2,5.73-3.35,11.46A63,63,0,0,0,398.47,320.07Z"/></g></mask></defs><title>3427_500x500_dark</title><g id="logo-large"><path class="cls-2" d="M269,244c.07-1.47.11-2.95.11-4.43a88.67,88.67,0,0,0-19.15-55l3.43-11.35a98.51,98.51,0,0,1,25.81,66.37c0,1.14,0,2.27-.06,3.4A46.12,46.12,0,0,0,269,244Zm-42.32,71.64a97.71,97.71,0,0,1-91.36,6.85,55.29,55.29,0,0,1-5,8.48,108.12,108.12,0,0,0,99.62-5.76A45.45,45.45,0,0,1,226.67,315.64ZM113.33,309a32.09,32.09,0,0,1-3.6,9.74C85.53,300.24,70,271.65,70,239.57c0-55.72,46.83-100.88,104.6-100.88a106.85,106.85,0,0,1,57.23,16.43l-2.74,10a96.46,96.46,0,0,0-54.49-16.67c-52.2,0-94.51,40.81-94.51,91.15C80.09,267.36,93,292.25,113.33,309Z"/><path class="cls-3" d="M126,170l-1.6-7.81-.18,0-.17,0a14.8,14.8,0,0,0-7.62,4.26,13.29,13.29,0,0,0-3.42,8v.22l-7.34,129.47v0c-.4,6.4-3.06,12.15-8.44,17.47A33.53,33.53,0,0,1,91.67,326h0a11.42,11.42,0,0,0-5.6,8.35,12.71,12.71,0,0,0,2.54,8.76l.15.21.17.21.23.29.13.16,7.34,9.4.23.31.27.28a12.23,12.23,0,0,0,8.29,3.81,16.06,16.06,0,0,0,7.74-1.69l.09,0,.09-.05a65.56,65.56,0,0,0,22.34-18.61v0l0,0a60.89,60.89,0,0,0,12.87-33.5v-.11l6.63-119.52,15.67,107.94h0c.68,4.75,2.91,9.66,8,12.49a16.93,16.93,0,0,0,10.64,1.81l.28,0,.28-.05L212.26,302a18.82,18.82,0,0,0,12.56-8.74,57.72,57.72,0,0,1,7.57-22.06l35.18-116.49v0a14.32,14.32,0,0,0,.51-7.05,10.78,10.78,0,0,0-4.63-6.85,13.79,13.79,0,0,0-10.9-2.27l-14.94,2.28a16.82,16.82,0,0,0-8.32,3.29,14.58,14.58,0,0,0-5.06,7.62v.06l-20.36,73.84-8.41-62.67h0c-.39-2.89-1.74-7.37-6.35-9.74a13.59,13.59,0,0,0-8.92-1.22l-15.67,3h-.06l-.07,0a15.74,15.74,0,0,0-8.38,4.28,11.28,11.28,0,0,0-2.58,4.29,12.31,12.31,0,0,0-5.28-3.86l0,0h0A12.93,12.93,0,0,0,141,159l-12.48,2.38-3.11.6-.78.15-.2,0h-.06Zm0,0,16.63-3.18a4.49,4.49,0,0,1,2.46.21c1.89.74,2.74,2.28,2.56,4.65l-7.31,131.64a53.16,53.16,0,0,1-11.26,29.29A57.46,57.46,0,0,1,109.49,349q-4.11,1.95-6.3-.34l-7.36-9.45-.41-.5q-2.7-3.85.69-5.95a41.2,41.2,0,0,0,6.93-5.39q10-9.87,10.82-22.62l7.35-129.52C121.44,172.44,123,170.71,126,170ZM179,291.09,161.16,167.94c-.42-2.69,1.24-4.43,5-5.21l15.66-3a5,5,0,0,1,3.4.41c1.12.56,1.82,1.82,2.08,3.77l11,82,2.8,20.84,5.6-20.31,25.54-92.63c.86-3,3.05-4.72,6.59-5.13L254,146.32a5.28,5.28,0,0,1,4.6.87q2.28,1.31,1.07,5.22L219.72,284.67c-.38,1.1-.75,2.08-1.11,2.92q-2.78,5.58-8,6.57l-22.2,4.44a8.47,8.47,0,0,1-5.39-.81Q179.75,296,179,291.09Z"/><path class="cls-4" d="M201.06,266.72,224,183.65A77.18,77.18,0,0,0,187.7,167.2Zm18.66,17.95,23.34-77.3a71.34,71.34,0,0,1,6.51,45.14,59.21,59.21,0,0,0-24.93,42.42,78.48,78.48,0,0,1-84.48,10.17c.06-.59.11-1.17.15-1.76l7.31-131.64a8.1,8.1,0,0,0,0-.84,77,77,0,0,1,13.46-3.59c0,.22,0,.44.06.67L179,291.09q.71,4.91,4,6.7a8.48,8.48,0,0,0,5.39.81l22.2-4.44q5.22-1,8-6.57C219,286.75,219.34,285.77,219.72,284.67ZM98.44,239.57A71.5,71.5,0,0,0,115,285.26l5.52-97.38A71.94,71.94,0,0,0,98.44,239.57Z"/><g class="cls-5"><path class="cls-6" d="M271.43,296.13q3.36,1.17,6.4,2.2a23.71,23.71,0,0,1,5.33,2.5,12.33,12.33,0,0,1,3.66,3.52,8.15,8.15,0,0,1,1.37,4.85,13.62,13.62,0,0,1-1.68,6.61,15.44,15.44,0,0,1-4.57,5.44,22.91,22.91,0,0,1-7.46,3.67,29.32,29.32,0,0,1-9.6,1.47,31.89,31.89,0,0,1-9.59-1.18,17.36,17.36,0,0,1-5.64-2.49,7.53,7.53,0,0,1-2.59-2.94,6.75,6.75,0,0,1-.61-2.35,11.21,11.21,0,0,1,.76-3.82,15.08,15.08,0,0,1,2.9-4.7,17,17,0,0,1,2-1.91,9.94,9.94,0,0,1,4.26-2.21,10.53,10.53,0,0,0,.77,5.59,9.55,9.55,0,0,0,3,3.23,13.13,13.13,0,0,0,4.27,1.61,25.08,25.08,0,0,0,4.57.44,16,16,0,0,0,4.26-.58,22.44,22.44,0,0,0,4.11-1.47,11.42,11.42,0,0,0,2.9-2.21,4.09,4.09,0,0,0,1.22-2.79,3.17,3.17,0,0,0-1.37-2.64,10.39,10.39,0,0,0-3.51-1.62,19.54,19.54,0,0,0-4.41-1c-1.53-.29-3-.58-4.42-.88L262,301.27a34,34,0,0,1-7-2.65,20.74,20.74,0,0,1-5.94-4.7,11.82,11.82,0,0,1-2.44-7.78,16.41,16.41,0,0,1,2.9-9.7,27.36,27.36,0,0,1,7.31-7.05A35,35,0,0,1,266.1,265a30.53,30.53,0,0,1,8.68-1.47,17.29,17.29,0,0,1,4.27.59,11.51,11.51,0,0,1,4.26,1.76,9.09,9.09,0,0,1,3.2,3.23,9.34,9.34,0,0,1,1.37,5.29,19.3,19.3,0,0,1-.6,5.29,7,7,0,0,1-1.53,3.09,4.2,4.2,0,0,1-2.28,1.32,15.88,15.88,0,0,1-3.2.29,8.87,8.87,0,0,1-2.29-.29c-.61-.2-1.27-.39-2-.59a5.53,5.53,0,0,1-2-1,15,15,0,0,0,2.29-3.38,7.92,7.92,0,0,0,.91-4,5.92,5.92,0,0,0-1.22-3.68,4.06,4.06,0,0,0-3.65-1.61,14.2,14.2,0,0,0-5.33,1,14.09,14.09,0,0,0-7.47,6.9,11,11,0,0,0-1.06,4.85,11.3,11.3,0,0,0,3,7.49C263.66,292.45,267,294.46,271.43,296.13Zm55.3-30.27a14.44,14.44,0,0,1,7.92,2.35,21.81,21.81,0,0,1,6.24,6.17A32.6,32.6,0,0,1,345,283.2a33.76,33.76,0,0,1,1.52,10.13,55.26,55.26,0,0,1-1.22,11.17,41.78,41.78,0,0,1-3.81,10.87,26.31,26.31,0,0,1-6.7,8.37A15.73,15.73,0,0,1,324.75,327a14.63,14.63,0,0,1-9-3.24,23.07,23.07,0,0,1-6.4-8.37A74.76,74.76,0,0,1,308,325.8a68.07,68.07,0,0,0-1.07,12.93c0,1.47.06,3.13.16,5s.25,3.73.45,5.59a36.65,36.65,0,0,0,.92,5.14,14.72,14.72,0,0,0,1.37,3.67,29.77,29.77,0,0,1-4.72,2.21,22.77,22.77,0,0,1-3.51,1,12.25,12.25,0,0,1-3.2.44,2.48,2.48,0,0,1-2.59-1.61,18.65,18.65,0,0,1-.6-5.73q0-2.64.15-7.64.3-4.85.61-11.17t.76-13.22q.45-7.05.76-13.81c.31-4.5.51-8.67.61-12.48s.3-7.2.3-9.85q0-4.84-.15-7.49a26.85,26.85,0,0,0-.45-4.11,6.64,6.64,0,0,0-.46-2.06c-.21-.39-.46-.83-.76-1.32a13.76,13.76,0,0,1,3.2-1.77,15.39,15.39,0,0,1,3.8-1.17,11.37,11.37,0,0,1,3.51-.29,5.7,5.7,0,0,1,2.59.73,4.17,4.17,0,0,1,1.06,2.2,23.73,23.73,0,0,1,.76,4.41A34.48,34.48,0,0,1,318,268.8,13.85,13.85,0,0,1,326.73,265.86Zm-5.94,52.45a7.21,7.21,0,0,0,5.18-2.5,21.67,21.67,0,0,0,4.41-6.32,38.19,38.19,0,0,0,3.05-8.66,39.27,39.27,0,0,0,1.22-9.55,27.37,27.37,0,0,0-1.07-8.38,14.56,14.56,0,0,0-2.44-5.29,7.34,7.34,0,0,0-3-2.79,5.7,5.7,0,0,0-2.75-.88,8.12,8.12,0,0,0-5.48,2.35,20.27,20.27,0,0,0-4.57,5.88,35.71,35.71,0,0,0-3.2,7.93,37.45,37.45,0,0,0-1.06,8.82,36,36,0,0,0,.76,7.64,29.91,29.91,0,0,0,2.28,6.17,14,14,0,0,0,3.05,4.11A5.85,5.85,0,0,0,320.79,318.31ZM356.28,272c0-.59.81-1.22,2.43-1.91a28.64,28.64,0,0,1,5.33-1.61,23.73,23.73,0,0,1,5.49-.74c1.73-.1,2.59.25,2.59,1q0,2.2-.31,6.32-.3,4-.76,8.52c-.3,2.94-.61,5.92-.91,9s-.51,5.43-.61,7.49-.41,4.51-.61,7.05c-.2,2.16-.36,4.56-.46,7.2s-.1,5.34,0,8.08c0,.49-.5,1-1.52,1.47a12.24,12.24,0,0,1-3.35,1,15.19,15.19,0,0,1-3.51.44c-1.11,0-1.72-.2-1.82-.59a8.28,8.28,0,0,1-.61-2c-.21-1-.41-2.35-.61-4.12s-.36-4.21-.46-7.05-.05-6.46.15-10.58a170,170,0,0,0,.16-18.8Q356.42,275.41,356.28,272Zm10.66-29.23a10.5,10.5,0,0,1,5.79,1.76,5.36,5.36,0,0,1,2.74,4.7,8.27,8.27,0,0,1-1.22,4.26,13.86,13.86,0,0,1-2.74,3.67,14.7,14.7,0,0,1-3.81,2.65,10.36,10.36,0,0,1-4,.88,9.18,9.18,0,0,1-4-.73,9.91,9.91,0,0,1-2.44-1.91,7.73,7.73,0,0,1-1.06-2.5,10.81,10.81,0,0,1-.31-2.5,12.68,12.68,0,0,1,.46-3.23,8.2,8.2,0,0,1,1.67-3.38,8.92,8.92,0,0,1,3.36-2.64A12.58,12.58,0,0,1,366.94,242.8Zm-3.81,13.66a4.16,4.16,0,0,0,2-.59,12.38,12.38,0,0,0,2.13-1.61,7.42,7.42,0,0,0,1.68-1.91,3.18,3.18,0,0,0,.76-1.77c0-.78-.41-1.17-1.22-1.17a4.78,4.78,0,0,0-2,.59,14.2,14.2,0,0,0-2.13,1.46,7.69,7.69,0,0,0-1.83,1.77,3.12,3.12,0,0,0-.61,1.76C361.91,256,362.32,256.46,363.13,256.46Zm35.34,63.61c-.1.59-.66,1.23-1.68,1.91a17.17,17.17,0,0,1-3.35,1.62,12.32,12.32,0,0,1-3.5.88,2.69,2.69,0,0,1-2.29-.29c-.4-.4-1.06-1.13-2-2.21a9.42,9.42,0,0,1-1.67-5.29c-.2-2.54-.31-5.73-.31-9.55s-.05-8.22-.15-12.92v-5.88q0-2.64-.15-6.17,0-3.53-.15-7.35c.91-.49,1.83-.93,2.74-1.32a28,28,0,0,1,2.74-1.17,16,16,0,0,1,2.59-.89,29.59,29.59,0,0,1,4.88-1q1.67-.15,2,1a22.53,22.53,0,0,1-.16,4.27q-.3,2.93-.76,9-.45,5.86-1.52,16.45c1.32-3.13,2.38-5.83,3.2-8.08s1.67-4.06,2.28-5.44a35.1,35.1,0,0,1,1.68-4,42.59,42.59,0,0,1,2-4.26q1.22-2.36,2.43-4.41,1.38-2.06,2.44-3.67a6.72,6.72,0,0,1,1.83-1.91,5.65,5.65,0,0,1,2.74,0,16.89,16.89,0,0,1,4.88,1.47,18.15,18.15,0,0,1,5,3.08,8.8,8.8,0,0,1,3.2,4.7,26.7,26.7,0,0,1,.61,8.52c-.1,3.53-.36,7.15-.76,10.87s-.56,7.25-.76,10.58a20.52,20.52,0,0,0,.61,7.64,10.09,10.09,0,0,0,.91,2.65,14.59,14.59,0,0,0,.76,2.2,5.28,5.28,0,0,0,1.22,1.32,63.73,63.73,0,0,1-5.94,2.35c-1.52.49-2.69.84-3.5,1a4.9,4.9,0,0,1-2.14.29,4.62,4.62,0,0,1-2.43-2.2,22.4,22.4,0,0,1-1.68-5.58,17.15,17.15,0,0,1-.3-3.82q.15-2.79.45-6.17t.61-7.2q.46-3.83.61-7.05c.2-2.25.36-4.16.46-5.73a18,18,0,0,0,0-3.38,6.82,6.82,0,0,0-2.13-3.67c-.92-.79-1.63-.88-2.14-.3a29.55,29.55,0,0,0-4.26,7.2q-2.13,4.85-4.11,10.73-2,5.73-3.35,11.46A63,63,0,0,0,398.47,320.07Z"/></g></g></svg>