<?xml version="1.0" encoding="utf-8"?>
<!-- Generator: Adobe Illustrator 17.1.0, SVG Export Plug-In . SVG Version: 6.00 Build 0)  -->
<!DOCTYPE svg PUBLIC "-//W3C//DTD SVG 1.1//EN" "http://www.w3.org/Graphics/SVG/1.1/DTD/svg11.dtd">
<svg version="1.1" id="Capa_1" xmlns="http://www.w3.org/2000/svg" xmlns:xlink="http://www.w3.org/1999/xlink" x="0px" y="0px"
	 viewBox="0 161.2 612 469.5" enable-background="new 0 161.2 612 469.5" xml:space="preserve">
<g>
	<rect x="358.3" y="305.6" fill="#FFFFFF" width="145.1" height="108"/>
	<path fill="#FFFFFF" d="M92.1,630.8h499.2c11.5,0,20.7-9.3,20.7-20.7V182c0-11.5-9.3-20.7-20.7-20.7H92.1
		c-11.5,0-20.7,9.3-20.7,20.7v428C71.3,621.5,80.6,630.8,92.1,630.8z M325.1,289c0-9.2,7.4-16.6,16.6-16.6h178.3
		c9.2,0,16.6,7.4,16.6,16.6v141.2c0,9.2-7.4,16.6-16.6,16.6H341.7c-9.2,0-16.6-7.4-16.6-16.6L325.1,289L325.1,289z M163.4,272.4h107
		c9.2,0,16.6,7.4,16.6,16.6c0,9.2-7.4,16.6-16.6,16.6h-107c-9.2,0-16.6-7.4-16.6-16.6S154.2,272.4,163.4,272.4z M163.4,343.7h107
		c9.2,0,16.6,7.4,16.6,16.6c0,9.2-7.4,16.6-16.6,16.6h-107c-9.2,0-16.6-7.4-16.6-16.6C146.8,351.2,154.2,343.7,163.4,343.7z
		 M163.4,415.1h107c9.2,0,16.6,7.4,16.6,16.6c0,9.2-7.4,16.6-16.6,16.6h-107c-9.2,0-16.6-7.4-16.6-16.6
		C146.8,422.5,154.2,415.1,163.4,415.1z M163.4,522.1h356.6c9.2,0,16.6,7.4,16.6,16.6c0,9.2-7.4,16.6-16.6,16.6H163.4
		c-9.2,0-16.6-7.4-16.6-16.6C146.8,529.5,154.2,522.1,163.4,522.1z"/>
	<path fill="#FFFFFF" d="M38.1,610V232.6H20.7C9.3,232.6,0,241.9,0,253.3V610c0,11.5,9.3,20.7,20.7,20.7h21.5
		C39.6,624.4,38.1,617.4,38.1,610z"/>
</g>
</svg>
