<?xml version="1.0" encoding="utf-8"?>
<!-- Generator: Adobe Illustrator 17.1.0, SVG Export Plug-In . SVG Version: 6.00 Build 0)  -->
<!DOCTYPE svg PUBLIC "-//W3C//DTD SVG 1.1//EN" "http://www.w3.org/Graphics/SVG/1.1/DTD/svg11.dtd">
<svg version="1.1" id="Слой_1" xmlns="http://www.w3.org/2000/svg" xmlns:xlink="http://www.w3.org/1999/xlink" x="0px" y="0px"
	 viewBox="-3.5 -2 950.9 998.4" enable-background="new -3.5 -2 950.9 998.4" xml:space="preserve">
<path fill="#FFFFFF" d="M207.6,183.8c-0.2-4.3,1.1-8.5,3.9-11.9l51.5-63l-78.9-20.8c-4.1-1.1-7.7-3.7-10.1-7.3l-44.3-68.4L85.4,80.9
	c-2.3,3.6-5.9,6.2-10.1,7.3l-78.9,20.8L48,171.8c2.7,3.3,4.1,7.6,3.9,11.9l-4.5,81.2l76.2-29.4c4-1.5,8.4-1.5,12.4,0l76.2,29.4
	L207.6,183.8z"/>
<path fill="#FFFFFF" d="M330.1,545.4c4-1.5,8.4-1.5,12.4,0l76.2,29.4l-4.5-81.2c-0.2-4.3,1.1-8.5,3.9-11.9l51.5-63L390.7,398
	c-4.2-1.1-7.7-3.7-10.1-7.3l-44.3-68.4L292,390.7c-2.3,3.6-5.9,6.2-10.1,7.3L203,418.8l51.5,62.9c2.7,3.3,4.1,7.6,3.9,11.9
	l-4.5,81.2L330.1,545.4z"/>
<path fill="#FFFFFF" d="M892.3,587c-2.6,3.1-5.4,6-8.5,8.7c-1.6,1.4-3.2,2.7-4.8,4c-4.9,3.8-10.2,7-15.8,9.7
	c-1.7,0.8-3.4,1.6-5.2,2.3c-4,1.6-8.2,2.9-12.4,3.9c-1.1,0.3-2.3,0.4-3.4,0.6c-10,2.1-20.4,2.1-30.4,0c-1.1-0.2-2.3-0.4-3.4-0.6
	c-4.2-1-8.4-2.3-12.4-3.9c-1.7-0.7-3.4-1.5-5.2-2.3c-5.6-2.6-10.9-5.9-15.8-9.7c-1.7-1.3-3.3-2.6-4.8-4c-3-2.7-5.9-5.6-8.5-8.7
	c-1.1-1.3-2.2-2.4-3.2-3.7H590.9l12.9,51.6h128.4c33.3,0,60.2,27,60.2,60.2c0,33.3-27,60.3-60.2,60.3h-98.4l48.4,193.5
	c1.9,7.7,8.8,13.1,16.7,13h231.3c9.5,0,17.2-7.7,17.2-17.2V583.3h-52C894.4,584.6,893.3,585.8,892.3,587z"/>
<path fill="#FFFFFF" d="M758,695.2c0-14.3-11.6-25.8-25.8-25.8h-120l12.9,51.6h107.1C746.5,721,758,709.4,758,695.2z"/>
<path fill="#FFFFFF" d="M740.8,531.6c0-5.8,0.6-11.5,1.7-17.2H551.5c-9.5,0-17.2,7.7-17.2,17.2c0,9.5,7.7,17.2,17.2,17.2h191.1
	C741.4,543.2,740.8,537.4,740.8,531.6z"/>
<path fill="#FFFFFF" d="M620.3,170.1h34.4c38,0,68.9,30.8,68.9,68.9v154.9c0,38-30.8,68.9-68.9,68.9h-34.4V480h138.1
	c1-1.3,2.1-2.5,3.2-3.7c2.6-3.1,5.5-6,8.5-8.7c1.5-1.4,3.2-2.7,4.8-4c4.9-3.8,10.2-7,15.8-9.7c1.7-0.8,3.4-1.6,5.2-2.3
	c4-1.6,8.2-2.9,12.4-3.9c0.5-0.1,0.9-0.3,1.4-0.4V339.1c-23.7-8.4-37.9-32.6-33.7-57.4c4.3-24.8,25.7-42.9,50.9-42.9
	c25.1,0,46.6,18.1,50.9,42.9c4.3,24.8-10,49-33.7,57.4v108.2c0.5,0.1,0.9,0.3,1.4,0.4c4.2,1,8.4,2.3,12.4,3.9
	c1.7,0.7,3.4,1.5,5.2,2.3c5.6,2.6,10.9,5.9,15.8,9.7c1.7,1.3,3.3,2.6,4.8,4c3,2.7,5.9,5.6,8.5,8.7c1.1,1.3,2.2,2.4,3.2,3.7h52.1
	V152.9H620.3V170.1z"/>
<path fill="#FFFFFF" d="M930.2-2H534.3C524.7-2,517,5.7,517,15.2v18.3c0,5.1,2.3,9.9,6.2,13.2l86.1,71.8h338.1V15.2
	C947.4,5.7,939.7-2,930.2-2z"/>
<path fill="#FFFFFF" d="M913,531.6c0,5.8-0.6,11.5-1.7,17.2h36.2v-34.4h-36.2C912.4,520.1,913,525.8,913,531.6z"/>
<path fill="#FFFFFF" d="M800.5,487.5c-7.5,4.5-13.7,10.8-18,18.3c-2.2,3.7-3.9,7.7-5.1,11.8c-0.1,0.4-0.3,0.9-0.4,1.3
	c-2.3,8.2-2.3,17,0,25.2c0.1,0.4,0.3,0.9,0.4,1.3c1.2,4.1,2.9,8.1,5.1,11.8c4.4,7.5,10.6,13.9,18,18.4c0.7,0.5,1.5,0.9,2.3,1.2
	c2.8,1.5,5.7,2.7,8.7,3.6c1.1,0.3,2.1,0.7,3.2,1c8,2.1,16.4,2.1,24.4,0c1.1-0.3,2.1-0.7,3.2-1c3-0.9,5.9-2.2,8.7-3.6
	c0.8-0.4,1.5-0.8,2.3-1.2c7.4-4.5,13.6-10.8,18-18.3c2.1-3.7,3.8-7.7,5.1-11.8c0.1-0.5,0.3-0.9,0.4-1.3c2.3-8.2,2.3-17,0-25.2
	c-0.1-0.4-0.3-0.9-0.4-1.3c-1.2-4.1-2.9-8.1-5.1-11.8c-4.4-7.5-10.6-13.9-18-18.4c-0.7-0.4-1.5-0.8-2.3-1.2
	c-2.8-1.5-5.7-2.7-8.7-3.7c-1.1-0.3-2.1-0.7-3.2-1c-8-2.1-16.4-2.1-24.4,0c-1.1,0.3-2.1,0.7-3.2,1c-3,0.9-5.9,2.2-8.7,3.7
	C802,486.6,801.3,487,800.5,487.5z M826.9,514.4c9.5,0,17.2,7.7,17.2,17.2c0,9.5-7.7,17.2-17.2,17.2c-9.5,0-17.2-7.7-17.2-17.2
	C809.7,522.1,817.4,514.4,826.9,514.4z"/>
<path fill="#FFFFFF" d="M844.1,290.6c0,9.5-7.7,17.2-17.2,17.2c-9.5,0-17.2-7.7-17.2-17.2c0-9.5,7.7-17.2,17.2-17.2
	C836.4,273.4,844.1,281.1,844.1,290.6z"/>
<path fill="#FFFFFF" d="M689.2,393.9V239c0-19-15.4-34.4-34.4-34.4h-34.4v223.8h34.4C673.8,428.3,689.2,412.9,689.2,393.9z"/>
<path fill="#FFFFFF" d="M466.3,743.6c3,9,12.7,13.9,21.8,10.9l51.6-17.2c5.8-1.9,10.2-6.9,11.4-12.9c1.2-6-0.8-12.3-5.4-16.4
	c-4.6-4.1-11-5.4-16.9-3.5l-51.6,17.2c-4.3,1.4-7.9,4.6-10,8.6C465.2,734.6,464.8,739.3,466.3,743.6z"/>
<path fill="#FFFFFF" d="M492.1,791.7l-34.4,17.2c-8.5,4.2-12,14.6-7.7,23.1c4.2,8.5,14.6,12,23.1,7.7l34.4-17.2
	c8.5-4.2,12-14.6,7.7-23.1C511,790.9,500.6,787.4,492.1,791.7z"/>
<path fill="#FFFFFF" d="M320,860.5l-34.4,17.2c-8.5,4.3-12,14.6-7.7,23.1c4.3,8.5,14.6,12,23.1,7.7l34.4-17.2
	c5.5-2.7,9.1-8.2,9.5-14.4c0.4-6.1-2.6-12-7.7-15.4C332,858.2,325.5,857.8,320,860.5z"/>
<path fill="#FFFFFF" d="M369.8,653.9c-8.5-4.3-18.8-0.8-23.1,7.7c-4.2,8.5-0.8,18.9,7.7,23.1l34.4,17.2c8.5,4.3,18.9,0.8,23.1-7.7
	c4.3-8.5,0.8-18.8-7.7-23.1L369.8,653.9z"/>
<path fill="#FFFFFF" d="M446.5,918c2-4.1,2.4-8.8,0.9-13.2c-1.4-4.3-4.6-7.9-8.6-9.9l-34.4-17.2c-8.5-4.3-18.9-0.8-23.1,7.7
	c-4.3,8.5-0.8,18.8,7.7,23.1l34.4,17.2c4.1,2,8.8,2.4,13.1,0.9C440.8,925.2,444.4,922.1,446.5,918z"/>
<path fill="#FFFFFF" d="M559.2,894.9l-34.4-17.2c-8.5-4.3-18.9-0.8-23.1,7.7c-4.3,8.5-0.8,18.8,7.7,23.1l34.4,17.2
	c8.5,4.2,18.9,0.8,23.1-7.7C571.1,909.5,567.7,899.2,559.2,894.9z"/>
<path fill="#FFFFFF" d="M413.8,789.8c0-9.5-7.7-17.2-17.2-17.2h-34.4c-9.5,0-17.2,7.7-17.2,17.2c0,9.5,7.7,17.2,17.2,17.2h34.4
	C406.1,807.1,413.8,799.4,413.8,789.8z"/>
<path fill="#FFFFFF" d="M482.6,962h-34.4c-9.5,0-17.2,7.7-17.2,17.2c0,9.5,7.7,17.2,17.2,17.2h34.4c9.5,0,17.2-7.7,17.2-17.2
	C499.8,969.7,492.1,962,482.6,962z"/>
</svg>
