<?xml version="1.0" encoding="iso-8859-1"?>
<!-- Generator: Adobe Illustrator 19.0.0, SVG Export Plug-In . SVG Version: 6.00 Build 0)  -->
<svg version="1.1" id="Capa_1" xmlns="http://www.w3.org/2000/svg" xmlns:xlink="http://www.w3.org/1999/xlink" x="0px" y="0px"
	 viewBox="0 0 409.6 409.6" style="enable-background:new 0 0 409.6 409.6;" xml:space="preserve">
<g>
	<g>
		<path d="M289.797,0H119.803c-15.125,0-27.428,12.303-27.428,27.428v354.744c0,15.124,12.303,27.428,27.428,27.428h169.994v0
			c15.124,0,27.428-12.303,27.428-27.428V27.428C317.225,12.303,304.922,0,289.797,0z M306.98,382.172
			c0,9.477-7.711,17.188-17.188,17.188H119.803c-9.477,0-17.188-7.711-17.188-17.188v-46.269H306.98V382.172z M306.98,325.663
			H102.615V56.755H306.98V325.663z M306.98,46.515H102.615V27.428c0-9.477,7.711-17.188,17.188-17.188h169.989
			c9.477,0,17.188,7.711,17.188,17.188V46.515z"/>
	</g>
</g>
<g>
	<g>
		<path d="M204.8,347.438c-11.622,0-21.079,9.457-21.079,21.079s9.457,21.074,21.079,21.074c11.622,0,21.079-9.457,21.079-21.079
			S216.422,347.438,204.8,347.438z M204.8,379.356c-5.975,0-10.839-4.864-10.839-10.839s4.864-10.839,10.839-10.839
			s10.839,4.864,10.839,10.839S210.775,379.356,204.8,379.356z"/>
	</g>
</g>
<g>
</g>
<g>
</g>
<g>
</g>
<g>
</g>
<g>
</g>
<g>
</g>
<g>
</g>
<g>
</g>
<g>
</g>
<g>
</g>
<g>
</g>
<g>
</g>
<g>
</g>
<g>
</g>
<g>
</g>
</svg>
