<?xml version="1.0" standalone="no"?>
<!DOCTYPE svg PUBLIC "-//W3C//DTD SVG 1.1//EN" "http://www.w3.org/Graphics/SVG/1.1/DTD/svg11.dtd" >
<svg xmlns="http://www.w3.org/2000/svg" xmlns:xlink="http://www.w3.org/1999/xlink" version="1.1">
<metadata>
Created by FontForge 20190801 at Mon Jun 19 18:47:42 2017
 By www-data
Timur Zima
</metadata>
<defs>
<font id="FellazBold" horiz-adv-x="600" >
  <font-face 
    font-family="FellazBold"
    font-weight="400"
    font-stretch="normal"
    units-per-em="1000"
    panose-1="0 0 5 0 0 0 0 0 0 0"
    ascent="800"
    descent="-200"
    x-height="600"
    cap-height="860"
    bbox="-522 -318 1390 1186"
    underline-thickness="50"
    underline-position="-100"
    unicode-range="U+0020-25CA"
  />
<missing-glyph horiz-adv-x="703" 
d="M576 1140v-1406h-445v1406h445zM468 1046h-232v-47h92v-52h-93v-46h233v46h-93v52h93v47zM375 864h-140v-146h233v48h-93v98zM328 817v-51h-47v51h47zM468 680h-233v-46h93v-52h-93v-47h140v99h93v46zM468 596h-46v-93h-187v-48h233v141zM468 424h-140v-78h47v32h47v-66
h-141v112h-46v-159h233v159zM468 181h-233v-159h233v159zM422 135v-66h-141v66h141zM468 -10h-233v-47h98l-98 -66v-46h233v46h-143l98 66h45v47z" />
    <glyph glyph-name=".notdef" horiz-adv-x="703" 
d="M576 1140v-1406h-445v1406h445zM468 1046h-232v-47h92v-52h-93v-46h233v46h-93v52h93v47zM375 864h-140v-146h233v48h-93v98zM328 817v-51h-47v51h47zM468 680h-233v-46h93v-52h-93v-47h140v99h93v46zM468 596h-46v-93h-187v-48h233v141zM468 424h-140v-78h47v32h47v-66
h-141v112h-46v-159h233v159zM468 181h-233v-159h233v159zM422 135v-66h-141v66h141zM468 -10h-233v-47h98l-98 -66v-46h233v46h-143l98 66h45v47z" />
    <glyph glyph-name=".null" horiz-adv-x="0" 
 />
    <glyph glyph-name="nonmarkingreturn" horiz-adv-x="333" 
 />
    <glyph glyph-name="space" unicode=" " horiz-adv-x="400" 
 />
    <glyph glyph-name="exclam" unicode="!" horiz-adv-x="310" 
d="M55 290v570h200v-570h-200zM270 116q0 -49 -33.5 -82.5t-80.5 -33.5q-49 0 -82.5 33.5t-33.5 82.5q0 47 33.5 80.5t82.5 33.5q47 0 80.5 -33.5t33.5 -80.5z" />
    <glyph glyph-name="quotedbl" unicode="&#x22;" horiz-adv-x="581" 
d="M98 860h190l-97 -220h-151zM341 860h200l-127 -220h-171z" />
    <glyph glyph-name="numbersign" unicode="#" horiz-adv-x="797" 
d="M777 496h-115l-28 -138h83v-200h-124l-33 -158h-200l33 158h-91l-33 -158h-200l33 158h-82l1 200h122l28 138h-91l1 200h131l34 164h200l-34 -164h91l34 164h200l-34 -164h74v-200zM434 358l28 138h-91l-28 -138h91z" />
    <glyph glyph-name="dollar" unicode="$" horiz-adv-x="660" 
d="M348 489q105 -9 173 -84q32 -42 45.5 -77t13.5 -83q0 -72 -38.5 -131.5t-101.5 -89.5v-131h-200v126q-100 42 -136 146l178 69q13 -43 56 -43q24 0 40.5 17t16.5 42q0 24 -15.5 39.5t-41.5 17.5q-108 10 -151 33q-30 16 -47 29.5t-37 40.5q-53 73 -53 165q0 89 50 161
t130 104v127h200v-123q65 -23 113 -75t67 -119l-190 -69q-2 33 -26.5 56t-58.5 23q-35 0 -60 -25t-25 -60t26.5 -58.5t71.5 -27.5z" />
    <glyph glyph-name="percent" unicode="%" horiz-adv-x="986" 
d="M248 860q82 0 139 -57t58 -140q0 -82 -57.5 -140t-139.5 -58t-140 57.5t-58 140.5q0 82 58 139.5t140 57.5zM689 860h220l-600 -860h-220zM248 633q12 0 21 8.5t9 21.5q0 12 -8.5 20.5t-21.5 9.5q-13 0 -21.5 -9t-8.5 -21q0 -13 8.5 -21.5t21.5 -8.5zM739 390
q82 0 139 -57t58 -140q0 -82 -57.5 -140t-139.5 -58q-83 0 -140.5 57.5t-57.5 140.5q0 82 58 139.5t140 57.5zM739 163q12 0 21 8.5t9 21.5q0 12 -8.5 20.5t-21.5 9.5q-13 0 -21.5 -9t-8.5 -21q0 -13 8.5 -21.5t21.5 -8.5z" />
    <glyph glyph-name="ampersand" unicode="&#x26;" horiz-adv-x="720" 
d="M670 565v-195h-67q30 -30 37 -90q5 -49 -12 -99.5t-52 -88.5q-90 -97 -236 -97q-124 0 -212 83.5t-88 201.5q0 119 89 203q-38 60 -38 132q0 103 73 176.5t176 73.5q83 0 149 -50.5t89 -128.5l-190 -70q-1 20 -15 34.5t-33 14.5q-20 0 -34.5 -14.5t-14.5 -35.5
t14.5 -35.5t34.5 -14.5v-200q-42 0 -71 -24.5t-29 -60.5q0 -37 31.5 -61t82.5 -24q56 0 87 23t31 62q0 30 -19 53.5t-50 30.5v201h267z" />
    <glyph glyph-name="quotesingle" unicode="'" horiz-adv-x="348" 
d="M108 860h200l-107 -220h-161z" />
    <glyph glyph-name="parenleft" unicode="(" horiz-adv-x="430" 
d="M231 1144l193 -70q-79 -118 -122 -261q-52 -171 -52 -357q0 -189 52 -357q56 -181 136 -280q1 -2 5.5 -5.5t5.5 -5t0 -3.5l-195 -71q-97 145 -150.5 331t-53.5 391q0 390 181 688z" />
    <glyph glyph-name="parenright" unicode=")" horiz-adv-x="430" 
d="M199 1144q181 -298 181 -688q0 -205 -53.5 -391t-150.5 -331l-195 71q-3 1 8 11l3 3q80 99 136 280q52 168 52 357q0 186 -52 357q-43 143 -122 261z" />
    <glyph glyph-name="asterisk" unicode="*" horiz-adv-x="603" 
d="M50 575l126 35l-126 35l69 170l120 -99l-28 144h180l-27 -144l119 99l70 -170l-127 -35l127 -35l-70 -170l-119 99l27 -144h-180l28 144l-120 -99z" />
    <glyph glyph-name="plus" unicode="+" horiz-adv-x="565" 
d="M50 267v200h133v133h200v-133h132v-200h-132v-132h-200v132h-133z" />
    <glyph glyph-name="comma" unicode="," horiz-adv-x="348" 
d="M108 143h200l-107 -220h-161z" />
    <glyph glyph-name="hyphen" unicode="-" horiz-adv-x="465" 
d="M50 503h365v-200h-365v200z" />
    <glyph glyph-name="period" unicode="." horiz-adv-x="310" 
d="M270 116q0 -49 -33.5 -82.5t-80.5 -33.5q-49 0 -82.5 33.5t-33.5 82.5q0 47 33.5 80.5t82.5 33.5q47 0 80.5 -33.5t33.5 -80.5z" />
    <glyph glyph-name="slash" unicode="/" horiz-adv-x="404" 
d="M198 860h186l-178 -1126h-186z" />
    <glyph glyph-name="zero" unicode="0" horiz-adv-x="950" 
d="M475 865q180 0 307.5 -127.5t127.5 -307.5t-127.5 -307.5t-307.5 -127.5t-307.5 127.5t-127.5 307.5t127.5 307.5t307.5 127.5zM638 267q67 70 67 163t-67 163q-70 67 -163 67t-163 -67q-67 -70 -67 -163t67 -163q70 -67 163 -67t163 67z" />
    <glyph glyph-name="one" unicode="1" horiz-adv-x="690" 
d="M491 180h179v-180h-560v180h181v465l-80 -112l-191 69l185 258h286v-680z" />
    <glyph glyph-name="two" unicode="2" horiz-adv-x="700" 
d="M527 323l-186 -143h309v-180h-600v180l100 85l49 41l151 128l64 55q34 29 35.5 71.5t-26.5 73.5t-73 31q-40 0 -69 -27.5t-31 -67.5l-191 69q25 100 106.5 163t184.5 63q124 0 212 -88t88 -212q0 -73 -33 -137t-90 -105z" />
    <glyph glyph-name="three" unicode="3" horiz-adv-x="690" 
d="M40 865h600v-245l-124 -77q57 -42 90.5 -105.5t33.5 -137.5q0 -124 -88 -212t-212 -88q-105 0 -186 64.5t-105 163.5l191 70q1 -40 30 -69t70 -29t70.5 29.5t29.5 70.5t-29.5 70.5t-70.5 29.5h-35v200l130 85h-395v180z" />
    <glyph glyph-name="four" unicode="4" horiz-adv-x="710" 
d="M670 305v-180h-85v-125h-200v125h-345v180l345 555h200v-555h85zM253 305h132v213z" />
    <glyph glyph-name="five" unicode="5" horiz-adv-x="690" 
d="M350 595q124 0 212 -87.5t88 -212.5t-88 -212.5t-212 -87.5q-89 0 -162 47.5t-110 125.5l184 64q32 -44 85 -44q43 0 74 31t31 74t-31 74t-74 31q-33 0 -59.5 -18.5t-38.5 -49.5h-199v530h218q34 -34 83 -34t82 33l177 -65q-40 -68 -109 -108.5t-151 -40.5q-62 0 -120 25
v-100q58 25 120 25z" />
    <glyph glyph-name="six" unicode="6" horiz-adv-x="680" 
d="M346 600q122 -2 208 -89.5t86 -210.5q0 -124 -88 -212t-212 -88t-212 88t-88 212q0 65 26 123l201 442h198zM340 200q41 0 70.5 29.5t29.5 70.5t-29.5 70.5t-70.5 29.5t-70.5 -29.5t-29.5 -70.5t29.5 -70.5t70.5 -29.5z" />
    <glyph glyph-name="seven" unicode="7" horiz-adv-x="700" 
d="M50 860h600v-200l-263 -660h-225l257 660h-369v200z" />
    <glyph glyph-name="eight" unicode="8" horiz-adv-x="700" 
d="M561 491q89 -86 89 -206t-88 -205t-212 -85t-212 85t-88 205q0 116 85 203q-40 61 -40 132q0 101 74 172.5t179 71.5q104 0 178 -71.5t74 -172.5q0 -71 -39 -129zM286 629q0 -23 18.5 -39t43.5 -16q23 0 41.5 16t18.5 39q0 24 -18 40.5t-42 16.5q-27 0 -44.5 -17
t-17.5 -40zM350 188q44 0 74.5 27.5t30.5 67.5q0 39 -30.5 66.5t-74.5 27.5t-74.5 -27.5t-30.5 -66.5q0 -40 30.5 -67.5t74.5 -27.5z" />
    <glyph glyph-name="nine" unicode="9" horiz-adv-x="680" 
d="M324 265q-121 2 -202.5 89t-81.5 211q0 125 88 212.5t212 87.5t212 -87.5t88 -212.5q0 -65 -26 -123q-34 -74 -110.5 -221.5t-110.5 -220.5h-208zM340 665q-41 0 -70.5 -29.5t-29.5 -70.5t29.5 -70.5t70.5 -29.5t70.5 29.5t29.5 70.5t-29.5 70.5t-70.5 29.5z" />
    <glyph glyph-name="colon" unicode=":" horiz-adv-x="310" 
d="M270 536q0 -49 -33.5 -82.5t-80.5 -33.5q-49 0 -82.5 33.5t-33.5 82.5q0 47 33.5 80.5t82.5 33.5q47 0 80.5 -33.5t33.5 -80.5zM270 186q0 -49 -33.5 -82.5t-80.5 -33.5q-49 0 -82.5 33.5t-33.5 82.5q0 47 33.5 80.5t82.5 33.5q47 0 80.5 -33.5t33.5 -80.5z" />
    <glyph glyph-name="semicolon" unicode=";" horiz-adv-x="352" 
d="M198 420q-49 0 -82.5 33.5t-33.5 82.5q0 47 33.5 80.5t82.5 33.5q47 0 80.5 -33.5t33.5 -80.5q0 -49 -33.5 -82.5t-80.5 -33.5zM40 47l68 220h200l-107 -220h-161z" />
    <glyph glyph-name="less" unicode="&#x3c;" horiz-adv-x="560" 
d="M510 706v-201l-302 -91l302 -91v-200l-460 155v273z" />
    <glyph glyph-name="equal" unicode="=" horiz-adv-x="565" 
d="M50 598h465v-200h-465v200zM50 325h465v-200h-465v200z" />
    <glyph glyph-name="greater" unicode="&#x3e;" horiz-adv-x="560" 
d="M50 706l460 -155v-273l-460 -155v200l302 91l-302 91v201z" />
    <glyph glyph-name="question" unicode="?" horiz-adv-x="651" 
d="M321 869q120 0 205 -85t85 -205t-85 -205t-205 -85h-90v200h90q37 0 63.5 26.5t26.5 63.5t-26.5 63.5t-63.5 26.5t-63 -26t-27 -62l-191 69q24 96 102 157.5t179 61.5zM322 224q47 0 80.5 -33.5t33.5 -80.5q0 -49 -33.5 -82.5t-80.5 -33.5q-49 0 -82.5 33.5t-33.5 82.5
q0 47 33.5 80.5t82.5 33.5z" />
    <glyph glyph-name="at" unicode="@" horiz-adv-x="1320" 
d="M560 855h710v-720q0 -95 -67.5 -162.5t-162.5 -67.5q-76 0 -135.5 44t-83.5 114q-20 -37 -74.5 -59t-118.5 -15q-130 13 -206.5 99.5t-76.5 206.5q0 125 89.5 215t215.5 90q42 0 89.5 -17.5t70.5 -46.5v59h175v-440q0 -70 52 -70q22 0 37.5 15.5t15.5 37.5v537h-530
q-142 0 -241 -110.5t-99 -269.5t123.5 -270t301.5 -111v-180q-166 0 -305 74.5t-219.5 203.5t-80.5 283t69 282.5t188.5 203t262.5 74.5zM660 190q43 0 74 31t31 74t-31 73.5t-74 30.5t-74 -30.5t-31 -73.5t30.5 -74t74.5 -31z" />
    <glyph glyph-name="A" unicode="A" horiz-adv-x="690" 
d="M475 0l-40 190h-181l-39 -190h-200l180 860h300l180 -860h-200zM292 370h105l-52 251z" />
    <glyph glyph-name="B" unicode="B" horiz-adv-x="720" 
d="M606 466q74 -80 74 -188q0 -115 -81.5 -196.5t-196.5 -81.5h-352v860h350q100 0 170 -79.5t70 -185.5q0 -67 -34 -129zM375 660h-125v-130h125q28 0 46.5 20t18.5 45q0 27 -19.5 46t-45.5 19zM402 200q32 0 55 23t23 55q0 31 -23.5 54t-54.5 23h-152v-155h152z" />
    <glyph glyph-name="C" unicode="C" horiz-adv-x="913" 
d="M685 325l188 -69q-51 -117 -158.5 -189t-239.5 -72q-181 0 -308 127.5t-127 307.5t127 307.5t308 127.5q130 0 236.5 -70t158.5 -184l-189 -69q-27 55 -84 89t-122 34q-98 0 -166.5 -68.5t-68.5 -166.5t68.5 -166.5t166.5 -68.5q67 0 123.5 35.5t86.5 94.5z" />
    <glyph glyph-name="D" unicode="D" horiz-adv-x="720" 
d="M250 860q178 0 304 -126t126 -304t-126 -304t-304 -126h-200v860h200zM412 267q68 68 68 163t-68 163q-67 67 -162 67v-460q95 0 162 67z" />
    <glyph glyph-name="E" unicode="E" horiz-adv-x="590" 
d="M550 200v-200h-500v860h500v-200h-300v-130h260v-200h-260v-130h300z" />
    <glyph glyph-name="F" unicode="F" horiz-adv-x="590" 
d="M550 660h-300v-130h260v-200h-260v-330h-200v860h500v-200z" />
    <glyph glyph-name="G" unicode="G" horiz-adv-x="950" 
d="M907 485q3 -24 3 -50q0 -180 -127.5 -307.5t-307.5 -127.5t-307.5 127.5t-127.5 307.5t127.5 307.5t307.5 127.5q124 0 227.5 -64.5t159.5 -171.5l-191 -69q-73 105 -196 105q-97 0 -166 -69t-69 -166t69 -166t166 -69q99 0 166 69q17 17 30 36h-195v180h431z" />
    <glyph glyph-name="H" unicode="H" horiz-adv-x="700" 
d="M450 860h200v-860h-200v340h-200v-340h-200v860h200v-340h200v340z" />
    <glyph glyph-name="I" unicode="I" horiz-adv-x="460" 
d="M330 660v-460h80v-200h-360v200h80v460h-80v200h360v-200h-80z" />
    <glyph glyph-name="J" unicode="J" horiz-adv-x="690" 
d="M640 860v-565q0 -125 -88 -212.5t-212 -87.5t-212 87.5t-88 212.5h200q0 -41 29.5 -70.5t70.5 -29.5t70.5 29.5t29.5 70.5v365h-155v200h355z" />
    <glyph glyph-name="K" unicode="K" horiz-adv-x="700" 
d="M660 860l-204 -400h194v-460h-200v280h-200v-280h-200v860h200v-392l200 392h210z" />
    <glyph glyph-name="L" unicode="L" horiz-adv-x="570" 
d="M530 200v-200h-480v860h200v-660h280z" />
    <glyph glyph-name="M" unicode="M" horiz-adv-x="880" 
d="M560 860h270v-860h-200v415l-90 -415h-200l-90 415v-415h-200v860h270l120 -585z" />
    <glyph glyph-name="N" unicode="N" horiz-adv-x="700" 
d="M450 860h200v-860h-240l-160 437v-437h-200v860h240l160 -447v447z" />
    <glyph glyph-name="O" unicode="O" horiz-adv-x="950" 
d="M910 430q0 -180 -127.5 -307.5t-307.5 -127.5t-307.5 127.5t-127.5 307.5t127.5 307.5t307.5 127.5t307.5 -127.5t127.5 -307.5zM475 195q99 0 166 69q69 67 69 166t-69 166q-67 69 -166 69t-166 -69q-69 -67 -69 -166t69 -166q67 -69 166 -69z" />
    <glyph glyph-name="P" unicode="P" horiz-adv-x="690" 
d="M350 860q124 0 212 -88t88 -212t-88 -212t-212 -88h-100v-260h-200v860h300zM350 460q41 0 70.5 29.5t29.5 70.5t-29.5 70.5t-70.5 29.5h-100v-200h100z" />
    <glyph glyph-name="Q" unicode="Q" horiz-adv-x="955" 
d="M940 0h-230l-36 43q-91 -48 -199 -48q-180 0 -307.5 127.5t-127.5 307.5t127.5 307.5t307.5 127.5t307.5 -127.5t127.5 -307.5q0 -153 -96 -273zM641 596q-67 69 -166 69q-29 0 -61 -8l269 -336q27 49 27 109q0 95 -69 166zM475 195q36 0 67 10l-275 334
q-27 -49 -27 -109q0 -95 69 -166q67 -69 166 -69z" />
    <glyph glyph-name="R" unicode="R" horiz-adv-x="690" 
d="M650 560q0 -81 -40 -149t-107 -109l147 -302h-230l-132 260h-38v-260h-200v860h300q124 0 212 -88t88 -212zM450 560q0 41 -29.5 70.5t-70.5 29.5h-100v-200h100q41 0 70.5 29.5t29.5 70.5z" />
    <glyph glyph-name="S" unicode="S" horiz-adv-x="640" 
d="M325 0q-79 0 -142.5 46t-88.5 119l178 69q13 -43 56 -43q24 0 40.5 17t16.5 42q0 24 -15.5 39.5t-41.5 17.5q-108 10 -151 33q-30 16 -47 29.5t-37 40.5q-53 73 -53 165q0 118 83.5 201.5t201.5 83.5q97 0 173.5 -59t101.5 -151l-190 -69q-2 33 -26.5 56t-58.5 23
q-35 0 -60 -25t-25 -60t26.5 -58.5t71.5 -27.5q105 -9 173 -84q32 -42 45.5 -77t13.5 -83q0 -101 -72 -173t-173 -72z" />
    <glyph glyph-name="T" unicode="T" horiz-adv-x="560" 
d="M520 860v-200h-140v-660h-200v660h-140v200h480z" />
    <glyph glyph-name="U" unicode="U" horiz-adv-x="700" 
d="M450 860h200v-565q0 -125 -88 -212.5t-212 -87.5t-212 87.5t-88 212.5v565h200v-565q0 -41 29.5 -70.5t70.5 -29.5t70.5 29.5t29.5 70.5v565z" />
    <glyph glyph-name="V" unicode="V" horiz-adv-x="700" 
d="M450 860h210l-190 -860h-240l-190 860h210l100 -555z" />
    <glyph glyph-name="W" unicode="W" horiz-adv-x="1065" 
d="M845 860h200l-185 -860h-240l-87 396l-88 -396h-240l-185 860h200l105 -555l108 555h200l107 -555z" />
    <glyph glyph-name="X" unicode="X" horiz-adv-x="680" 
d="M40 0v460h160l-160 400h210l90 -215l90 215h210l-160 -400h160v-460h-200v260h-200v-260h-200z" />
    <glyph glyph-name="Y" unicode="Y" horiz-adv-x="690" 
d="M440 860h200v-860h-600v200h200l-200 660h200l200 -660v660z" />
    <glyph glyph-name="Z" unicode="Z" horiz-adv-x="700" 
d="M650 860v-200l-360 -460h360v-200h-600v200l360 460h-360v200h600z" />
    <glyph glyph-name="bracketleft" unicode="[" horiz-adv-x="312" 
d="M312 940h-72v-1006h72v-200h-272v1406h272v-200z" />
    <glyph glyph-name="backslash" unicode="\" horiz-adv-x="404" 
d="M206 860l178 -1126h-186l-178 1126h186z" />
    <glyph glyph-name="bracketright" unicode="]" horiz-adv-x="322" 
d="M0 940v200h272v-1406h-272v200h72v1006h-72z" />
    <glyph glyph-name="asciicircum" unicode="^" horiz-adv-x="683" 
d="M50 330l155 530h273l155 -530h-200l-91 372l-91 -372h-201z" />
    <glyph glyph-name="underscore" unicode="_" horiz-adv-x="565" 
d="M50 200h465v-200h-465v200z" />
    <glyph glyph-name="a" unicode="a" horiz-adv-x="767" 
d="M35 300q0 125 89.5 215t215.5 90q41 0 87.5 -17.5t69.5 -46.5v59h200v-531l30 -69h-200l-30 58q-19 -29 -62 -46.5t-95 -17.5q-126 0 -215.5 90t-89.5 216zM350 195q43 0 74 31t31 74t-31 73.5t-74 30.5t-74 -30.5t-31 -73.5q0 -44 30.5 -74.5t74.5 -30.5z" />
    <glyph glyph-name="b" unicode="b" horiz-adv-x="767" 
d="M732 300q0 -126 -89.5 -216t-215.5 -90q-52 0 -95 17.5t-62 46.5l-30 -58h-200l30 69v791h200v-319q23 29 69.5 46.5t87.5 17.5q126 0 215.5 -90t89.5 -215zM417 195q43 0 74 30.5t31 74.5q0 43 -31 73.5t-74 30.5t-74 -30.5t-31 -73.5t31 -74t74 -31z" />
    <glyph glyph-name="c" unicode="c" horiz-adv-x="680" 
d="M40 300q0 129 89 217.5t218 88.5q100 0 180 -54t113 -144l-205 -74q-10 29 -35.5 48t-53.5 19q-43 0 -72 -29.5t-30 -72.5q1 -43 30 -72t72 -29q28 0 53 18.5t36 46.5l204 -74q-33 -88 -113 -142t-179 -54q-129 0 -218 89t-89 218z" />
    <glyph glyph-name="d" unicode="d" horiz-adv-x="772" 
d="M40 300q0 125 89.5 215t215.5 90q41 0 87.5 -17.5t69.5 -46.5v319h200v-791l30 -69h-200l-30 58q-19 -29 -62 -46.5t-95 -17.5q-126 0 -215.5 90t-89.5 216zM355 195q43 0 74 31t31 74t-31 73.5t-74 30.5t-74 -30.5t-31 -73.5q0 -44 31 -74.5t74 -30.5z" />
    <glyph glyph-name="e" unicode="e" horiz-adv-x="679" 
d="M340 185q40 0 72 26l189 -69q-41 -67 -110 -107t-151 -40q-126 0 -215.5 89.5t-89.5 215.5q0 127 89.5 216t215.5 89q121 0 208.5 -82.5t95.5 -202.5l-52 -85h-347q35 -50 95 -50zM348 425q-34 0 -61.5 -17t-41.5 -51h206q-14 34 -41.5 51t-61.5 17z" />
    <glyph glyph-name="f" unicode="f" horiz-adv-x="467" 
d="M437 662h-117v-83h80v-198h-80v-381h-200v381h-80v198h80v281h317v-198z" />
    <glyph glyph-name="g" unicode="g" horiz-adv-x="722" 
d="M485 600h200l-35 -120v-190q0 -92 -54 -166.5t-140 -107.5l-31 -82h220v-200h-600v200h160l33 81q-88 34 -143 111t-55 174q0 127 89.5 216t215.5 89q70 0 130 -29zM345 405q-43 0 -74 -30.5t-31 -74.5t31 -74.5t74 -30.5t74 30.5t31 74.5t-31 74.5t-74 30.5z" />
    <glyph glyph-name="h" unicode="h" horiz-adv-x="690" 
d="M365 605q124 0 204.5 -88t80.5 -217v-300h-200v300q0 44 -31 74.5t-74 30.5t-74 -30.5t-31 -74.5v-300h-200v860h200v-303q48 48 125 48z" />
    <glyph glyph-name="i" unicode="i" horiz-adv-x="280" 
d="M240 860v-200h-200v200h200zM40 600h200v-600h-200v600z" />
    <glyph glyph-name="j" unicode="j" horiz-adv-x="300" 
d="M260 861v-200h-200v200h200zM60 600h200v-865h-280v200h80v665z" />
    <glyph glyph-name="k" unicode="k" horiz-adv-x="570" 
d="M530 355v-355h-200v175h-90v-175h-200v860h200v-381l90 121h235l-186 -245h151z" />
    <glyph glyph-name="l" unicode="l" horiz-adv-x="280" 
d="M40 860h200v-860h-200v860z" />
    <glyph glyph-name="m" unicode="m" horiz-adv-x="840" 
d="M800 600v-600h-200v400h-80v-400h-200v400h-80v-400h-200v600h760z" />
    <glyph glyph-name="n" unicode="n" horiz-adv-x="690" 
d="M365 605q124 0 204.5 -88t80.5 -217v-300h-200v300q0 44 -31 74.5t-74 30.5t-74 -30.5t-31 -74.5v-300h-200v600h200v-53q16 24 49 41t76 17z" />
    <glyph glyph-name="o" unicode="o" horiz-adv-x="674" 
d="M337 602q125 0 213.5 -88.5t88.5 -213.5t-88.5 -213.5t-213.5 -88.5t-213.5 88.5t-88.5 213.5t88.5 213.5t213.5 88.5zM337 195q43 0 74 30.5t31 74.5t-31 74.5t-74 30.5t-74 -30.5t-31 -74.5t31 -74.5t74 -30.5z" />
    <glyph glyph-name="p" unicode="p" horiz-adv-x="694" 
d="M40 -180v780h200v-61q20 32 57 50t80 18q123 0 202.5 -89.5t79.5 -217.5q0 -126 -88.5 -216.5t-213.5 -90.5q-75 0 -117 38v-211h-200zM357 195q43 0 74 30.5t31 74.5t-31 74.5t-74 30.5t-74 -30.5t-31 -74.5t31 -74.5t74 -30.5z" />
    <glyph glyph-name="q" unicode="q" horiz-adv-x="724" 
d="M654 -180h-200v211q-42 -38 -127 -38q-124 0 -208 90t-84 217q0 128 79.5 217.5t202.5 89.5q44 0 85.5 -18.5t61.5 -49.5l20 61h200l-30 -62v-718zM337 195q43 0 74 30.5t31 74.5t-31 74.5t-74 30.5t-74 -30.5t-31 -74.5t31 -74.5t74 -30.5z" />
    <glyph glyph-name="r" unicode="r" horiz-adv-x="429" 
d="M399 400q-7 5 -54 5q-43 0 -74 -30.5t-31 -74.5v-300h-200v600h200v-53q16 24 49 41t76 17q12 0 34 -2v-203z" />
    <glyph glyph-name="s" unicode="s" horiz-adv-x="535" 
d="M515 184q0 -76 -65 -132.5t-159 -56.5q-111 0 -170.5 38.5t-78.5 94.5l184 67q17 -17 48 -17q34 0 34 21q0 16 -38 21q-132 18 -186 61t-54 128q0 82 76 138.5t192 56.5q91 0 146.5 -40.5t74.5 -102.5l-179 -65q-7 15 -17.5 22t-35.5 7q-47 0 -47 -32q0 -15 14 -22t47 -9
q94 -7 154 -57.5t60 -120.5z" />
    <glyph glyph-name="t" unicode="t" horiz-adv-x="467" 
d="M320 198h117v-198h-317v402h-80v198h80v260h200v-260h80v-198h-80v-204z" />
    <glyph glyph-name="u" unicode="u" horiz-adv-x="690" 
d="M325 -5q-124 0 -204.5 88t-80.5 217v300h200v-300q0 -44 31 -74.5t74 -30.5t74 30.5t31 74.5v300h200v-600h-200v53q-11 -24 -44.5 -41t-80.5 -17z" />
    <glyph glyph-name="v" unicode="v" horiz-adv-x="580" 
d="M560 600l-120 -600h-300l-120 600h202l68 -426l68 426h202z" />
    <glyph glyph-name="w" unicode="w" horiz-adv-x="980" 
d="M960 600l-135 -600h-300l-35 315l-45 -315h-290l-135 600h202l92 -427l39 427h264l49 -427l92 427h202z" />
    <glyph glyph-name="x" unicode="x" horiz-adv-x="640" 
d="M595 335v-335h-200v155h-150v-155h-200v335h118l-123 265h210l70 -162l70 162h210l-122 -265h117z" />
    <glyph glyph-name="y" unicode="y" horiz-adv-x="601" 
d="M341 600h220v-600h-505v180h115l-156 420h215l131 -390z" />
    <glyph glyph-name="z" unicode="z" horiz-adv-x="540" 
d="M500 600v-200l-205 -200h205v-200h-460v200l200 200h-200v200h460z" />
    <glyph glyph-name="braceleft" unicode="{" horiz-adv-x="403" 
d="M280 1140h123v-190h-33q-22 0 -38.5 -16t-16.5 -39v-360q0 -35 -19 -65q19 -30 19 -65v-426q0 -23 16.5 -39t38.5 -16h33v-190h-123q-68 0 -116.5 49t-48.5 118v416q0 30 -18 54.5t-47 33.5v130q29 9 47 33.5t18 54.5v349q0 69 48 118.5t117 49.5z" />
    <glyph glyph-name="bar" unicode="|" horiz-adv-x="300" 
d="M50 860h200v-1126h-200v1126z" />
    <glyph glyph-name="braceright" unicode="}" horiz-adv-x="403" 
d="M123 1140q69 0 117 -49.5t48 -118.5v-349q0 -30 18 -54.5t47 -33.5v-130q-29 -9 -47 -33.5t-18 -54.5v-416q0 -69 -48.5 -118t-116.5 -49h-123v190h33q23 0 39 16t16 39v426q0 35 19 65q-19 30 -19 65v360q0 23 -16 39t-39 16h-33v190h123z" />
    <glyph glyph-name="asciitilde" unicode="~" horiz-adv-x="572" 
d="M521 497l1 -80q0 -62 -44 -106t-106 -44q-57 0 -87 23t-49 63q-12 24 -36 22q-17 -1 -28 -12t-12 -27h-110v82q0 61 44.5 104t105.5 43q20 0 36 -4q69 -18 99 -80q12 -24 37 -24q16 0 28 11.5t12 28.5h109z" />
    <glyph glyph-name="exclamdown" unicode="&#xa1;" horiz-adv-x="245" 
 />
    <glyph glyph-name="cent" unicode="&#xa2;" horiz-adv-x="661" 
 />
    <glyph glyph-name="sterling" unicode="&#xa3;" horiz-adv-x="741" 
 />
    <glyph glyph-name="currency" unicode="&#xa4;" 
 />
    <glyph glyph-name="yen" unicode="&#xa5;" horiz-adv-x="696" 
 />
    <glyph glyph-name="brokenbar" unicode="&#xa6;" 
 />
    <glyph glyph-name="section" unicode="&#xa7;" 
 />
    <glyph glyph-name="copyright" unicode="&#xa9;" 
 />
    <glyph glyph-name="guillemotleft" unicode="&#xab;" horiz-adv-x="726" 
d="M396 650l-180 -235l180 -235h-205l-141 170v130l141 170h205zM676 180l-180 235l180 235h-205l-180 -235l180 -235h205z" />
    <glyph glyph-name="logicalnot" unicode="&#xac;" 
 />
    <glyph glyph-name="registered" unicode="&#xae;" 
 />
    <glyph glyph-name="degree" unicode="&#xb0;" 
 />
    <glyph glyph-name="plusminus" unicode="&#xb1;" horiz-adv-x="565" 
d="M383 577h132v-200h-132v-132h-200v132h-133v200h133v133h200v-133zM50 0v200h465v-200h-465z" />
    <glyph glyph-name="paragraph" unicode="&#xb6;" 
 />
    <glyph glyph-name="periodcentered" unicode="&#xb7;" 
 />
    <glyph glyph-name="guillemotright" unicode="&#xbb;" horiz-adv-x="726" 
d="M50 180h205l180 235l-180 235h-205l180 -235zM330 650h205l141 -170v-130l-141 -170h-205l180 235z" />
    <glyph glyph-name="questiondown" unicode="&#xbf;" horiz-adv-x="675" 
 />
    <glyph glyph-name="Agrave" unicode="&#xc0;" horiz-adv-x="690" 
d="M360 1140l75 -210h-180l-105 210h210zM475 0l-40 190h-181l-39 -190h-200l180 860h300l180 -860h-200zM292 370h105l-52 251z" />
    <glyph glyph-name="Aacute" unicode="&#xc1;" horiz-adv-x="690" 
d="M326 1140h210l-105 -200h-180zM475 0l-40 190h-181l-39 -190h-200l180 860h300l180 -860h-200zM292 370h105l-52 251z" />
    <glyph glyph-name="Acircumflex" unicode="&#xc2;" horiz-adv-x="690" 
d="M100 930l150 210h196l150 -210h-200l-48 78l-48 -78h-200zM475 0l-40 190h-181l-39 -190h-200l180 860h300l180 -860h-200zM292 370h105l-52 251z" />
    <glyph glyph-name="Atilde" unicode="&#xc3;" horiz-adv-x="690" 
d="M581 1124l1 -72q0 -56 -44 -96t-106 -40q-57 0 -87 21t-49 57q-12 22 -36 20q-16 -1 -27.5 -11t-12.5 -24h-110v74q0 55 44.5 94t105.5 39q20 0 36 -4q70 -18 99 -72q12 -22 37 -22q17 0 28.5 10.5t11.5 25.5h109zM475 0l-40 190h-181l-39 -190h-200l180 860h300
l180 -860h-200zM292 370h105l-52 251z" />
    <glyph glyph-name="Adieresis" unicode="&#xc4;" horiz-adv-x="690" 
d="M221 940q-42 0 -71 29t-29 71q0 41 29 70.5t71 29.5q41 0 70.5 -29.5t29.5 -70.5q0 -42 -29.5 -71t-70.5 -29zM471 940q-42 0 -71 29t-29 71q0 41 29 70.5t71 29.5q41 0 70.5 -29.5t29.5 -70.5q0 -42 -29.5 -71t-70.5 -29zM475 0l-40 190h-181l-39 -190h-200l180 860h300
l180 -860h-200zM292 370h105l-52 251z" />
    <glyph glyph-name="Aring" unicode="&#xc5;" horiz-adv-x="690" 
d="M347 905q-49 0 -84.5 35.5t-35.5 84.5t35.5 84.5t84.5 35.5t84.5 -35.5t35.5 -84.5t-35.5 -84.5t-84.5 -35.5zM347 1005q8 0 14 6t6 14t-6 13.5t-14 5.5t-14 -5.5t-6 -13.5t6 -14t14 -6zM475 0l-40 190h-181l-39 -190h-200l180 860h300l180 -860h-200zM292 370h105
l-52 251z" />
    <glyph glyph-name="AE" unicode="&#xc6;" 
 />
    <glyph glyph-name="Ccedilla" unicode="&#xc7;" horiz-adv-x="913" 
d="M873 256q-41 -93 -119 -159t-176 -90l-36 -55l97 -60l-79 -200h-266v200h133l-88 59l33 56q-145 35 -238.5 153t-93.5 270q0 180 127 307.5t308 127.5q130 0 236.5 -70t158.5 -184l-189 -69q-27 55 -84 89t-122 34q-98 0 -166.5 -68.5t-68.5 -166.5t68.5 -166.5
t166.5 -68.5q67 0 123.5 35.5t86.5 94.5z" />
    <glyph glyph-name="Egrave" unicode="&#xc8;" 
d="M360 1140l75 -210h-180l-105 210h210zM550 200v-200h-500v860h500v-200h-300v-130h260v-200h-260v-130h300z" />
    <glyph glyph-name="Eacute" unicode="&#xc9;" 
d="M275 1140h210l-105 -200h-180zM550 200v-200h-500v860h500v-200h-300v-130h260v-200h-260v-130h300z" />
    <glyph glyph-name="Ecircumflex" unicode="&#xca;" 
d="M50 928l150 212h196l150 -212h-200l-48 78l-48 -78h-200zM550 200v-200h-500v860h500v-200h-300v-130h260v-200h-260v-130h300z" />
    <glyph glyph-name="Edieresis" unicode="&#xcb;" 
d="M177 940q-42 0 -71 29t-29 71q0 41 29 70.5t71 29.5q41 0 70.5 -29.5t29.5 -70.5q0 -42 -29.5 -71t-70.5 -29zM427 940q-42 0 -71 29t-29 71q0 41 29 70.5t71 29.5q41 0 70.5 -29.5t29.5 -70.5q0 -42 -29.5 -71t-70.5 -29zM550 200v-200h-500v860h500v-200h-300v-130h260
v-200h-260v-130h300z" />
    <glyph glyph-name="Igrave" unicode="&#xcc;" horiz-adv-x="485" 
d="M360 1140l75 -210h-180l-105 210h210zM330 660v-460h80v-200h-360v200h80v460h-80v200h360v-200h-80z" />
    <glyph glyph-name="Iacute" unicode="&#xcd;" horiz-adv-x="485" 
d="M205 1140h210l-105 -210h-180zM330 660v-460h80v-200h-360v200h80v460h-80v200h360v-200h-80z" />
    <glyph glyph-name="Icircumflex" unicode="&#xce;" horiz-adv-x="536" 
d="M20 928l150 212h196l150 -212h-200l-48 78l-48 -78h-200zM376 660v-460h80v-200h-360v200h80v460h-80v200h360v-200h-80z" />
    <glyph glyph-name="Idieresis" unicode="&#xcf;" horiz-adv-x="490" 
d="M120 940q-42 0 -71 29t-29 71q0 41 29 70.5t71 29.5q41 0 70.5 -29.5t29.5 -70.5q0 -42 -29.5 -71t-70.5 -29zM370 940q-42 0 -71 29t-29 71q0 41 29 70.5t71 29.5q41 0 70.5 -29.5t29.5 -70.5q0 -42 -29.5 -71t-70.5 -29zM349 660v-460h80v-200h-360v200h80v460h-80v200
h360v-200h-80z" />
    <glyph glyph-name="Eth" unicode="&#xd0;" horiz-adv-x="604" 
d="M254 860q178 0 304 -126t126 -304t-126 -304t-304 -126h-200v321h-74v200h74v339h200zM416 267q68 68 68 163t-68 163q-67 67 -162 67v-139h77v-200h-77v-121q95 0 162 67z" />
    <glyph glyph-name="Ntilde" unicode="&#xd1;" horiz-adv-x="700" 
d="M591 1124l1 -72q0 -56 -44 -96t-106 -40q-57 0 -87 21t-49 57q-12 22 -36 20q-16 -1 -27.5 -11t-12.5 -24h-110v74q0 55 44.5 94t105.5 39q20 0 36 -4q70 -18 99 -72q12 -22 37 -22q17 0 28.5 10.5t11.5 25.5h109zM450 860h200v-860h-240l-160 437v-437h-200v860h240
l160 -447v447z" />
    <glyph glyph-name="Ograve" unicode="&#xd2;" horiz-adv-x="950" 
d="M503 1140l75 -210h-180l-105 210h210zM910 430q0 -180 -127.5 -307.5t-307.5 -127.5t-307.5 127.5t-127.5 307.5t127.5 307.5t307.5 127.5t307.5 -127.5t127.5 -307.5zM475 195q99 0 166 69q69 67 69 166t-69 166q-67 69 -166 69t-166 -69q-69 -67 -69 -166t69 -166
q67 -69 166 -69z" />
    <glyph glyph-name="Oacute" unicode="&#xd3;" horiz-adv-x="950" 
d="M450 1140h210l-105 -210h-180zM910 430q0 -180 -127.5 -307.5t-307.5 -127.5t-307.5 127.5t-127.5 307.5t127.5 307.5t307.5 127.5t307.5 -127.5t127.5 -307.5zM475 195q99 0 166 69q69 67 69 166t-69 166q-67 69 -166 69t-166 -69q-69 -67 -69 -166t69 -166
q67 -69 166 -69z" />
    <glyph glyph-name="Ocircumflex" unicode="&#xd4;" horiz-adv-x="950" 
d="M219 930l150 210h196l150 -210h-200l-48 78l-48 -78h-200zM910 430q0 -180 -127.5 -307.5t-307.5 -127.5t-307.5 127.5t-127.5 307.5t127.5 307.5t307.5 127.5t307.5 -127.5t127.5 -307.5zM475 195q99 0 166 69q69 67 69 166t-69 166q-67 69 -166 69t-166 -69
q-69 -67 -69 -166t69 -166q67 -69 166 -69z" />
    <glyph glyph-name="Otilde" unicode="&#xd5;" horiz-adv-x="950" 
d="M714 1124l1 -72q0 -56 -44 -96t-106 -40q-57 0 -87 21t-49 57q-12 22 -36 20q-16 -1 -27.5 -11t-12.5 -24h-110v74q0 55 44.5 94t105.5 39q20 0 36 -4q70 -18 99 -72q12 -22 37 -22q17 0 28.5 10.5t11.5 25.5h109zM910 430q0 -180 -127.5 -307.5t-307.5 -127.5
t-307.5 127.5t-127.5 307.5t127.5 307.5t307.5 127.5t307.5 -127.5t127.5 -307.5zM475 195q99 0 166 69q69 67 69 166t-69 166q-67 69 -166 69t-166 -69q-69 -67 -69 -166t69 -166q67 -69 166 -69z" />
    <glyph glyph-name="Odieresis" unicode="&#xd6;" horiz-adv-x="950" 
d="M347 940q-42 0 -71 29t-29 71q0 41 29 70.5t71 29.5q41 0 70.5 -29.5t29.5 -70.5q0 -42 -29.5 -71t-70.5 -29zM597 940q-42 0 -71 29t-29 71q0 41 29 70.5t71 29.5q41 0 70.5 -29.5t29.5 -70.5q0 -42 -29.5 -71t-70.5 -29zM910 430q0 -180 -127.5 -307.5t-307.5 -127.5
t-307.5 127.5t-127.5 307.5t127.5 307.5t307.5 127.5t307.5 -127.5t127.5 -307.5zM475 195q99 0 166 69q69 67 69 166t-69 166q-67 69 -166 69t-166 -69q-69 -67 -69 -166t69 -166q67 -69 166 -69z" />
    <glyph glyph-name="multiply" unicode="&#xd7;" horiz-adv-x="571" 
d="M50 434l142 141l94 -94l94 94l141 -141l-94 -94l93 -93l-141 -142l-93 93l-94 -93l-141 142l93 93z" />
    <glyph glyph-name="Oslash" unicode="&#xd8;" 
d="M910 430q0 -180 -127.5 -307.5t-307.5 -127.5t-307.5 127.5t-127.5 307.5t127.5 307.5t307.5 127.5t307.5 -127.5t127.5 -307.5zM475 195q99 0 166 69q69 67 69 166t-69 166q-67 69 -166 69t-166 -69q-69 -67 -69 -166t69 -166q67 -69 166 -69z" />
    <glyph glyph-name="Ugrave" unicode="&#xd9;" horiz-adv-x="700" 
d="M370 1140l75 -210h-180l-105 210h210zM450 860h200v-565q0 -125 -88 -212.5t-212 -87.5t-212 87.5t-88 212.5v565h200v-565q0 -41 29.5 -70.5t70.5 -29.5t70.5 29.5t29.5 70.5v565z" />
    <glyph glyph-name="Uacute" unicode="&#xda;" horiz-adv-x="700" 
d="M333 1140h210l-105 -210h-180zM450 860h200v-565q0 -125 -88 -212.5t-212 -87.5t-212 87.5t-88 212.5v565h200v-565q0 -41 29.5 -70.5t70.5 -29.5t70.5 29.5t29.5 70.5v565z" />
    <glyph glyph-name="Ucircumflex" unicode="&#xdb;" horiz-adv-x="700" 
d="M100 930l150 210h196l150 -210h-200l-48 78l-48 -78h-200zM450 860h200v-565q0 -125 -88 -212.5t-212 -87.5t-212 87.5t-88 212.5v565h200v-565q0 -41 29.5 -70.5t70.5 -29.5t70.5 29.5t29.5 70.5v565z" />
    <glyph glyph-name="Udieresis" unicode="&#xdc;" horiz-adv-x="700" 
d="M222 940q-42 0 -71 29t-29 71q0 41 29 70.5t71 29.5q41 0 70.5 -29.5t29.5 -70.5q0 -42 -29.5 -71t-70.5 -29zM472 940q-42 0 -71 29t-29 71q0 41 29 70.5t71 29.5q41 0 70.5 -29.5t29.5 -70.5q0 -42 -29.5 -71t-70.5 -29zM450 860h200v-565q0 -125 -88 -212.5
t-212 -87.5t-212 87.5t-88 212.5v565h200v-565q0 -41 29.5 -70.5t70.5 -29.5t70.5 29.5t29.5 70.5v565z" />
    <glyph glyph-name="Yacute" unicode="&#xdd;" horiz-adv-x="680" 
d="M345 1140h210l-105 -210h-180zM440 860h200v-860h-600v200h200l-200 660h200l200 -660v660z" />
    <glyph glyph-name="Thorn" unicode="&#xde;" 
 />
    <glyph glyph-name="germandbls" unicode="&#xdf;" horiz-adv-x="640" 
d="M525 475q75 -83 75 -197q0 -115 -74 -196.5t-178 -81.5q-12 0 -18 1v-1h-18v200q39 0 63.5 21.5t24.5 56.5q0 34 -24.5 55.5t-63.5 21.5v200q21 0 34.5 15t13.5 38t-16.5 37.5t-42.5 14.5q-23 0 -37 -14t-14 -37v-609h-200v583q0 116 76.5 196.5t190.5 80.5h3
q96 0 168 -74.5t72 -177.5q0 -73 -35 -133z" />
    <glyph glyph-name="agrave" unicode="&#xe0;" horiz-adv-x="767" 
d="M360 858l75 -210h-180l-105 210h210zM35 300q0 125 89.5 215t215.5 90q41 0 87.5 -17.5t69.5 -46.5v59h200v-531l30 -69h-200l-30 58q-19 -29 -62 -46.5t-95 -17.5q-126 0 -215.5 90t-89.5 216zM350 195q43 0 74 31t31 74t-31 73.5t-74 30.5t-74 -30.5t-31 -73.5
q0 -44 30.5 -74.5t74.5 -30.5z" />
    <glyph glyph-name="aacute" unicode="&#xe1;" horiz-adv-x="767" 
d="M334 860h210l-105 -210h-180zM35 300q0 125 89.5 215t215.5 90q41 0 87.5 -17.5t69.5 -46.5v59h200v-531l30 -69h-200l-30 58q-19 -29 -62 -46.5t-95 -17.5q-126 0 -215.5 90t-89.5 216zM350 195q43 0 74 31t31 74t-31 73.5t-74 30.5t-74 -30.5t-31 -73.5
q0 -44 30.5 -74.5t74.5 -30.5z" />
    <glyph glyph-name="acircumflex" unicode="&#xe2;" horiz-adv-x="767" 
d="M126 649l150 210h196l150 -210h-200l-48 78l-48 -78h-200zM35 300q0 125 89.5 215t215.5 90q41 0 87.5 -17.5t69.5 -46.5v59h200v-531l30 -69h-200l-30 58q-19 -29 -62 -46.5t-95 -17.5q-126 0 -215.5 90t-89.5 216zM350 195q43 0 74 31t31 74t-31 73.5t-74 30.5
t-74 -30.5t-31 -73.5q0 -44 30.5 -74.5t74.5 -30.5z" />
    <glyph glyph-name="atilde" unicode="&#xe3;" horiz-adv-x="767" 
d="M607 859l1 -72q0 -56 -44 -96t-106 -40q-57 0 -87 21t-49 57q-12 22 -36 20q-16 -1 -27.5 -11t-12.5 -24h-110v74q0 55 44.5 94t105.5 39q20 0 36 -4q70 -18 99 -72q12 -22 37 -22q17 0 28.5 10.5t11.5 25.5h109zM35 300q0 125 89.5 215t215.5 90q41 0 87.5 -17.5
t69.5 -46.5v59h200v-531l30 -69h-200l-30 58q-19 -29 -62 -46.5t-95 -17.5q-126 0 -215.5 90t-89.5 216zM350 195q43 0 74 31t31 74t-31 73.5t-74 30.5t-74 -30.5t-31 -73.5q0 -44 30.5 -74.5t74.5 -30.5z" />
    <glyph glyph-name="adieresis" unicode="&#xe4;" horiz-adv-x="767" 
d="M248 664q-42 0 -71 29t-29 71q0 41 29 70.5t71 29.5q41 0 70.5 -29.5t29.5 -70.5q0 -42 -29.5 -71t-70.5 -29zM498 664q-42 0 -71 29t-29 71q0 41 29 70.5t71 29.5q41 0 70.5 -29.5t29.5 -70.5q0 -42 -29.5 -71t-70.5 -29zM35 300q0 125 89.5 215t215.5 90
q41 0 87.5 -17.5t69.5 -46.5v59h200v-531l30 -69h-200l-30 58q-19 -29 -62 -46.5t-95 -17.5q-126 0 -215.5 90t-89.5 216zM350 195q43 0 74 31t31 74t-31 73.5t-74 30.5t-74 -30.5t-31 -73.5q0 -44 30.5 -74.5t74.5 -30.5z" />
    <glyph glyph-name="aring" unicode="&#xe5;" horiz-adv-x="767" 
d="M340 626q-50 0 -85 35t-35 85q0 49 35.5 84.5t84.5 35.5t84.5 -35.5t35.5 -84.5q0 -50 -35 -85t-85 -35zM340 726q8 0 14 6t6 14t-6 13.5t-14 5.5t-14 -5.5t-6 -13.5t6 -14t14 -6zM35 300q0 125 89.5 215t215.5 90q41 0 87.5 -17.5t69.5 -46.5v59h200v-531l30 -69h-200
l-30 58q-19 -29 -62 -46.5t-95 -17.5q-126 0 -215.5 90t-89.5 216zM350 195q43 0 74 31t31 74t-31 73.5t-74 30.5t-74 -30.5t-31 -73.5q0 -44 30.5 -74.5t74.5 -30.5z" />
    <glyph glyph-name="ae" unicode="&#xe6;" 
 />
    <glyph glyph-name="ccedilla" unicode="&#xe7;" horiz-adv-x="680" 
d="M346 198q28 0 53 18.5t36 46.5l204 -74q-23 -60 -69.5 -106t-107.5 -69q-18 -29 -40 -62l97 -60l-79 -200h-266v200h133l-88 59l33 56q-94 30 -153 110t-59 183q0 129 89 217.5t218 88.5q100 0 180 -54t113 -144l-205 -74q-10 29 -35.5 48t-53.5 19q-43 0 -72 -29.5
t-30 -72.5q1 -43 30 -72t72 -29z" />
    <glyph glyph-name="egrave" unicode="&#xe8;" horiz-adv-x="679" 
d="M360 859l75 -210h-180l-105 210h210zM340 185q40 0 72 26l189 -69q-41 -67 -110 -107t-151 -40q-126 0 -215.5 89.5t-89.5 215.5q0 127 89.5 216t215.5 89q121 0 208.5 -82.5t95.5 -202.5l-52 -85h-347q35 -50 95 -50zM348 425q-34 0 -61.5 -17t-41.5 -51h206
q-14 34 -41.5 51t-61.5 17z" />
    <glyph glyph-name="eacute" unicode="&#xe9;" horiz-adv-x="679" 
d="M305 860h210l-105 -210h-180zM340 185q40 0 72 26l189 -69q-41 -67 -110 -107t-151 -40q-126 0 -215.5 89.5t-89.5 215.5q0 127 89.5 216t215.5 89q121 0 208.5 -82.5t95.5 -202.5l-52 -85h-347q35 -50 95 -50zM348 425q-34 0 -61.5 -17t-41.5 -51h206q-14 34 -41.5 51
t-61.5 17z" />
    <glyph glyph-name="ecircumflex" unicode="&#xea;" horiz-adv-x="679" 
d="M96 650l150 210h196l150 -210h-200l-48 78l-48 -78h-200zM340 185q40 0 72 26l189 -69q-41 -67 -110 -107t-151 -40q-126 0 -215.5 89.5t-89.5 215.5q0 127 89.5 216t215.5 89q121 0 208.5 -82.5t95.5 -202.5l-52 -85h-347q35 -50 95 -50zM348 425q-34 0 -61.5 -17
t-41.5 -51h206q-14 34 -41.5 51t-61.5 17z" />
    <glyph glyph-name="edieresis" unicode="&#xeb;" horiz-adv-x="679" 
d="M210 665q-42 0 -71 29t-29 71q0 41 29 70.5t71 29.5q41 0 70.5 -29.5t29.5 -70.5q0 -42 -29.5 -71t-70.5 -29zM460 665q-42 0 -71 29t-29 71q0 41 29 70.5t71 29.5q41 0 70.5 -29.5t29.5 -70.5q0 -42 -29.5 -71t-70.5 -29zM340 185q40 0 72 26l189 -69q-41 -67 -110 -107
t-151 -40q-126 0 -215.5 89.5t-89.5 215.5q0 127 89.5 216t215.5 89q121 0 208.5 -82.5t95.5 -202.5l-52 -85h-347q35 -50 95 -50zM348 425q-34 0 -61.5 -17t-41.5 -51h206q-14 34 -41.5 51t-61.5 17z" />
    <glyph glyph-name="igrave" unicode="&#xec;" horiz-adv-x="279" 
d="M150 850l75 -210h-180l-105 210h210zM39 600h200v-600h-200v600z" />
    <glyph glyph-name="iacute" unicode="&#xed;" horiz-adv-x="281" 
d="M121 860h210l-105 -210h-180zM40 600h200v-600h-200v600z" />
    <glyph glyph-name="icircumflex" unicode="&#xee;" horiz-adv-x="316" 
d="M-90 650l150 210h196l150 -210h-200l-48 77l-48 -77h-200zM58 600h200v-600h-200v600z" />
    <glyph glyph-name="idieresis" unicode="&#xef;" horiz-adv-x="290" 
d="M20 665q-42 0 -71 29t-29 71q0 41 29 70.5t71 29.5q41 0 70.5 -29.5t29.5 -70.5q0 -42 -29.5 -71t-70.5 -29zM270 665q-42 0 -71 29t-29 71q0 41 29 70.5t71 29.5q41 0 70.5 -29.5t29.5 -70.5q0 -42 -29.5 -71t-70.5 -29zM47 600h200v-600h-200v600z" />
    <glyph glyph-name="eth" unicode="&#xf0;" 
 />
    <glyph glyph-name="ntilde" unicode="&#xf1;" horiz-adv-x="690" 
d="M567 860l1 -72q0 -56 -44 -96t-106 -40q-57 0 -87 21t-49 57q-12 22 -36 20q-16 -1 -27.5 -11t-12.5 -24h-110v74q0 55 44.5 94t105.5 39q20 0 36 -4q70 -18 99 -72q12 -22 37 -22q17 0 28.5 10.5t11.5 25.5h109zM365 605q124 0 204.5 -88t80.5 -217v-300h-200v300
q0 44 -31 74.5t-74 30.5t-74 -30.5t-31 -74.5v-300h-200v600h200v-53q16 24 49 41t76 17z" />
    <glyph glyph-name="ograve" unicode="&#xf2;" horiz-adv-x="674" 
d="M350 860l75 -210h-180l-105 210h210zM337 602q125 0 213.5 -88.5t88.5 -213.5t-88.5 -213.5t-213.5 -88.5t-213.5 88.5t-88.5 213.5t88.5 213.5t213.5 88.5zM337 195q43 0 74 30.5t31 74.5t-31 74.5t-74 30.5t-74 -30.5t-31 -74.5t31 -74.5t74 -30.5z" />
    <glyph glyph-name="oacute" unicode="&#xf3;" horiz-adv-x="674" 
d="M305 859h210l-105 -210h-180zM337 602q125 0 213.5 -88.5t88.5 -213.5t-88.5 -213.5t-213.5 -88.5t-213.5 88.5t-88.5 213.5t88.5 213.5t213.5 88.5zM337 195q43 0 74 30.5t31 74.5t-31 74.5t-74 30.5t-74 -30.5t-31 -74.5t31 -74.5t74 -30.5z" />
    <glyph glyph-name="ocircumflex" unicode="&#xf4;" horiz-adv-x="674" 
d="M90 649l150 210h196l150 -210h-200l-48 78l-48 -78h-200zM337 602q125 0 213.5 -88.5t88.5 -213.5t-88.5 -213.5t-213.5 -88.5t-213.5 88.5t-88.5 213.5t88.5 213.5t213.5 88.5zM337 195q43 0 74 30.5t31 74.5t-31 74.5t-74 30.5t-74 -30.5t-31 -74.5t31 -74.5t74 -30.5z
" />
    <glyph glyph-name="otilde" unicode="&#xf5;" horiz-adv-x="674" 
d="M568 860l1 -72q0 -56 -44 -96t-106 -40q-57 0 -87 21t-49 57q-12 22 -36 20q-16 -1 -27.5 -11t-12.5 -24h-110v74q0 55 44.5 94t105.5 39q20 0 36 -4q70 -18 99 -72q12 -22 37 -22q17 0 28.5 10.5t11.5 25.5h109zM337 602q125 0 213.5 -88.5t88.5 -213.5t-88.5 -213.5
t-213.5 -88.5t-213.5 88.5t-88.5 213.5t88.5 213.5t213.5 88.5zM337 195q43 0 74 30.5t31 74.5t-31 74.5t-74 30.5t-74 -30.5t-31 -74.5t31 -74.5t74 -30.5z" />
    <glyph glyph-name="odieresis" unicode="&#xf6;" horiz-adv-x="674" 
d="M209 663q-42 0 -71 29t-29 71q0 41 29 70.5t71 29.5q41 0 70.5 -29.5t29.5 -70.5q0 -42 -29.5 -71t-70.5 -29zM459 663q-42 0 -71 29t-29 71q0 41 29 70.5t71 29.5q41 0 70.5 -29.5t29.5 -70.5q0 -42 -29.5 -71t-70.5 -29zM337 602q125 0 213.5 -88.5t88.5 -213.5
t-88.5 -213.5t-213.5 -88.5t-213.5 88.5t-88.5 213.5t88.5 213.5t213.5 88.5zM337 195q43 0 74 30.5t31 74.5t-31 74.5t-74 30.5t-74 -30.5t-31 -74.5t31 -74.5t74 -30.5z" />
    <glyph glyph-name="divide" unicode="&#xf7;" horiz-adv-x="585" 
d="M408 662q0 -49 -33.5 -82.5t-80.5 -33.5q-49 0 -82.5 33.5t-33.5 82.5q0 47 33.5 80.5t82.5 33.5q47 0 80.5 -33.5t33.5 -80.5zM50 503h485v-200h-485v200zM408 146q0 -49 -33.5 -82.5t-80.5 -33.5q-49 0 -82.5 33.5t-33.5 82.5q-2 49 32 82t84 32q47 0 80.5 -33.5
t33.5 -80.5z" />
    <glyph glyph-name="oslash" unicode="&#xf8;" 
d="M337 602q125 0 213.5 -88.5t88.5 -213.5t-88.5 -213.5t-213.5 -88.5t-213.5 88.5t-88.5 213.5t88.5 213.5t213.5 88.5zM337 195q43 0 74 30.5t31 74.5t-31 74.5t-74 30.5t-74 -30.5t-31 -74.5t31 -74.5t74 -30.5z" />
    <glyph glyph-name="ugrave" unicode="&#xf9;" horiz-adv-x="690" 
d="M360 860l75 -210h-180l-105 210h210zM325 -5q-124 0 -204.5 88t-80.5 217v300h200v-300q0 -44 31 -74.5t74 -30.5t74 30.5t31 74.5v300h200v-600h-200v53q-11 -24 -44.5 -41t-80.5 -17z" />
    <glyph glyph-name="uacute" unicode="&#xfa;" horiz-adv-x="690" 
d="M332 862h210l-105 -210h-180zM325 -5q-124 0 -204.5 88t-80.5 217v300h200v-300q0 -44 31 -74.5t74 -30.5t74 30.5t31 74.5v300h200v-600h-200v53q-11 -24 -44.5 -41t-80.5 -17z" />
    <glyph glyph-name="ucircumflex" unicode="&#xfb;" horiz-adv-x="690" 
d="M100 649l150 210h196l150 -210h-200l-48 78l-48 -78h-200zM325 -5q-124 0 -204.5 88t-80.5 217v300h200v-300q0 -44 31 -74.5t74 -30.5t74 30.5t31 74.5v300h200v-600h-200v53q-11 -24 -44.5 -41t-80.5 -17z" />
    <glyph glyph-name="udieresis" unicode="&#xfc;" horiz-adv-x="690" 
d="M233 667q-42 0 -71 29t-29 71q0 41 29 70.5t71 29.5q41 0 70.5 -29.5t29.5 -70.5q0 -42 -29.5 -71t-70.5 -29zM483 667q-42 0 -71 29t-29 71q0 41 29 70.5t71 29.5q41 0 70.5 -29.5t29.5 -70.5q0 -42 -29.5 -71t-70.5 -29zM325 -5q-124 0 -204.5 88t-80.5 217v300h200
v-300q0 -44 31 -74.5t74 -30.5t74 30.5t31 74.5v300h200v-600h-200v53q-11 -24 -44.5 -41t-80.5 -17z" />
    <glyph glyph-name="yacute" unicode="&#xfd;" horiz-adv-x="601" 
d="M225 859h210l-105 -210h-180zM341 600h220v-600h-505v180h115l-156 420h215l131 -390z" />
    <glyph glyph-name="thorn" unicode="&#xfe;" 
 />
    <glyph glyph-name="ydieresis" unicode="&#xff;" horiz-adv-x="601" 
d="M200 665q-42 0 -71 29t-29 71q0 41 29 70.5t71 29.5q41 0 70.5 -29.5t29.5 -70.5q0 -42 -29.5 -71t-70.5 -29zM450 665q-42 0 -71 29t-29 71q0 41 29 70.5t71 29.5q41 0 70.5 -29.5t29.5 -70.5q0 -42 -29.5 -71t-70.5 -29zM341 600h220v-600h-505v180h115l-156 420h215
l131 -390z" />
    <glyph glyph-name="Cacute" unicode="&#x106;" horiz-adv-x="913" 
d="M446 1140h210l-105 -210h-180zM685 325l188 -69q-51 -117 -158.5 -189t-239.5 -72q-181 0 -308 127.5t-127 307.5t127 307.5t308 127.5q130 0 236.5 -70t158.5 -184l-189 -69q-27 55 -84 89t-122 34q-98 0 -166.5 -68.5t-68.5 -166.5t68.5 -166.5t166.5 -68.5
q67 0 123.5 35.5t86.5 94.5z" />
    <glyph glyph-name="Dcroat" unicode="&#x110;" horiz-adv-x="604" 
d="M254 860q178 0 304 -126t126 -304t-126 -304t-304 -126h-200v321h-74v200h74v339h200zM416 267q68 68 68 163t-68 163q-67 67 -162 67v-139h77v-200h-77v-121q95 0 162 67z" />
    <glyph glyph-name="Edotaccent" unicode="&#x116;" 
d="M550 200v-200h-500v860h500v-200h-300v-130h260v-200h-260v-130h300z" />
    <glyph glyph-name="edotaccent" unicode="&#x117;" 
d="M340 185q40 0 72 26l189 -69q-41 -67 -110 -107t-151 -40q-126 0 -215.5 89.5t-89.5 215.5q0 127 89.5 216t215.5 89q121 0 208.5 -82.5t95.5 -202.5l-52 -85h-347q35 -50 95 -50zM348 425q-34 0 -61.5 -17t-41.5 -51h206q-14 34 -41.5 51t-61.5 17z" />
    <glyph glyph-name="Lacute" unicode="&#x139;" horiz-adv-x="570" 
d="M137 1140h210l-105 -210h-180zM530 200v-200h-480v860h200v-660h280z" />
    <glyph glyph-name="lacute" unicode="&#x13a;" horiz-adv-x="286" 
d="M126 1140h210l-105 -210h-180zM40 860h200v-860h-200v860z" />
    <glyph glyph-name="Nacute" unicode="&#x143;" horiz-adv-x="700" 
d="M319 1140h210l-105 -210h-180zM450 860h200v-860h-240l-160 437v-437h-200v860h240l160 -447v447z" />
    <glyph glyph-name="nacute" unicode="&#x144;" horiz-adv-x="690" 
d="M325 859h210l-105 -210h-180zM365 605q124 0 204.5 -88t80.5 -217v-300h-200v300q0 44 -31 74.5t-74 30.5t-74 -30.5t-31 -74.5v-300h-200v600h200v-53q16 24 49 41t76 17z" />
    <glyph glyph-name="OE" unicode="&#x152;" 
 />
    <glyph glyph-name="oe" unicode="&#x153;" 
 />
    <glyph glyph-name="Racute" unicode="&#x154;" 
d="M225 1140h210l-105 -210h-180zM650 560q0 -81 -40 -149t-107 -109l147 -302h-230l-132 260h-38v-260h-200v860h300q124 0 212 -88t88 -212zM450 560q0 41 -29.5 70.5t-70.5 29.5h-100v-200h100q41 0 70.5 29.5t29.5 70.5z" />
    <glyph glyph-name="racute" unicode="&#x155;" 
d="M225 1140h210l-105 -210h-180zM399 400q-7 5 -54 5q-43 0 -74 -30.5t-31 -74.5v-300h-200v600h200v-53q16 24 49 41t76 17q12 0 34 -2v-203z" />
    <glyph glyph-name="Sacute" unicode="&#x15a;" 
d="M225 1140h210l-105 -210h-180zM325 0q-79 0 -142.5 46t-88.5 119l178 69q13 -43 56 -43q24 0 40.5 17t16.5 42q0 24 -15.5 39.5t-41.5 17.5q-108 10 -151 33q-30 16 -47 29.5t-37 40.5q-53 73 -53 165q0 118 83.5 201.5t201.5 83.5q97 0 173.5 -59t101.5 -151l-190 -69
q-2 33 -26.5 56t-58.5 23q-35 0 -60 -25t-25 -60t26.5 -58.5t71.5 -27.5q105 -9 173 -84q32 -42 45.5 -77t13.5 -83q0 -101 -72 -173t-173 -72z" />
    <glyph glyph-name="sacute" unicode="&#x15b;" 
d="M255 860h210l-105 -210h-180zM515 184q0 -76 -65 -132.5t-159 -56.5q-111 0 -170.5 38.5t-78.5 94.5l184 67q17 -17 48 -17q34 0 34 21q0 16 -38 21q-132 18 -186 61t-54 128q0 82 76 138.5t192 56.5q91 0 146.5 -40.5t74.5 -102.5l-179 -65q-7 15 -17.5 22t-35.5 7
q-47 0 -47 -32q0 -15 14 -22t47 -9q94 -7 154 -57.5t60 -120.5z" />
    <glyph glyph-name="scedilla" unicode="&#x15f;" horiz-adv-x="549" 
d="M301 362q94 -7 154 -57.5t60 -120.5q0 -58 -39 -106t-102 -70l-45 -58q21 -13 33 -20.5t14 -8.5t5 -3t6.5 -4.5t18.5 -11.5q-3 -9 -4.5 -12.5t-3.5 -9t-3.5 -10l-6 -18l-10 -30t-16.5 -48.5t-25 -72h-206v200h83l-78 49l36 60q-101 31 -130 117l184 67q17 -17 48 -17
q34 0 34 21q0 16 -38 21q-132 18 -186 61t-54 128q0 82 76 138.5t192 56.5q91 0 146.5 -40.5t74.5 -102.5l-179 -65q-7 15 -17.5 22t-35.5 7q-47 0 -47 -32q0 -15 14 -22t47 -9z" />
    <glyph glyph-name="uni0162" unicode="&#x162;" horiz-adv-x="560" 
d="M380 660v-660l-46 -70l77 -48q-3 -9 -4.5 -12.5t-3.5 -9t-3.5 -10l-6 -18l-10 -30t-16.5 -48.5t-25 -72h-206v200h83l-78 49l39 69v660h-140v200h480v-200h-140z" />
    <glyph glyph-name="Tbar" unicode="&#x166;" horiz-adv-x="560" 
d="M520 660h-140v-139h76v-200h-76v-321h-200v321h-75v200h75v139h-140v200h480v-200z" />
    <glyph glyph-name="Uring" unicode="&#x16e;" horiz-adv-x="700" 
d="M350 905q-50 0 -85 35.5t-35 84.5t35.5 84.5t84.5 35.5t84.5 -35.5t35.5 -84.5t-35 -84.5t-85 -35.5zM350 1005q8 0 14 6t6 14t-6 13.5t-14 5.5t-14 -5.5t-6 -13.5t6 -14t14 -6zM450 860h200v-565q0 -125 -88 -212.5t-212 -87.5t-212 87.5t-88 212.5v565h200v-565
q0 -41 29.5 -70.5t70.5 -29.5t70.5 29.5t29.5 70.5v565z" />
    <glyph glyph-name="uring" unicode="&#x16f;" horiz-adv-x="690" 
d="M346 627q-50 0 -85 35.5t-35 84.5t35.5 84.5t84.5 35.5t84.5 -35.5t35.5 -84.5t-35 -84.5t-85 -35.5zM346 727q8 0 14 6t6 14t-6 13.5t-14 5.5t-14 -5.5t-6 -13.5t6 -14t14 -6zM325 -5q-124 0 -204.5 88t-80.5 217v300h200v-300q0 -44 31 -74.5t74 -30.5t74 30.5t31 74.5
v300h200v-600h-200v53q-11 -24 -44.5 -41t-80.5 -17z" />
    <glyph glyph-name="Wcircumflex" unicode="&#x174;" horiz-adv-x="1065" 
d="M284 930l150 210h196l150 -210h-200l-48 78l-48 -78h-200zM845 860h200l-185 -860h-240l-87 396l-88 -396h-240l-185 860h200l105 -555l108 555h200l107 -555z" />
    <glyph glyph-name="wcircumflex" unicode="&#x175;" horiz-adv-x="980" 
d="M239 649l150 210h196l150 -210h-200l-48 78l-48 -78h-200zM960 600l-135 -600h-300l-35 315l-45 -315h-290l-135 600h202l92 -427l39 427h264l49 -427l92 427h202z" />
    <glyph glyph-name="Ycircumflex" unicode="&#x176;" horiz-adv-x="680" 
d="M100 930l150 210h196l150 -210h-200l-48 78l-48 -78h-200zM440 860h200v-860h-600v200h200l-200 660h200l200 -660v660z" />
    <glyph glyph-name="ycircumflex" unicode="&#x177;" horiz-adv-x="601" 
d="M48 648l150 210h196l150 -210h-200l-48 78l-48 -78h-200zM341 600h220v-600h-505v180h115l-156 420h215l131 -390z" />
    <glyph glyph-name="Ydieresis" unicode="&#x178;" horiz-adv-x="680" 
d="M229 940q-42 0 -71 29t-29 71q0 41 29 70.5t71 29.5q41 0 70.5 -29.5t29.5 -70.5q0 -42 -29.5 -71t-70.5 -29zM479 940q-42 0 -71 29t-29 71q0 41 29 70.5t71 29.5q41 0 70.5 -29.5t29.5 -70.5q0 -42 -29.5 -71t-70.5 -29zM440 860h200v-860h-600v200h200l-200 660h200
l200 -660v660z" />
    <glyph glyph-name="Zacute" unicode="&#x179;" horiz-adv-x="700" 
d="M325 1140h210l-105 -210h-180zM650 860v-200l-360 -460h360v-200h-600v200l360 460h-360v200h600z" />
    <glyph glyph-name="zacute" unicode="&#x17a;" horiz-adv-x="540" 
d="M225 860h210l-105 -210h-180zM500 600v-200l-205 -200h205v-200h-460v200l200 200h-200v200h460z" />
    <glyph glyph-name="gravecomb" unicode="&#x300;" horiz-adv-x="0" 
d="M-75 1140l75 -210h-180l-105 210h210z" />
    <glyph glyph-name="acutecomb" unicode="&#x301;" horiz-adv-x="0" 
d="M-210 1140h210l-105 -210h-180z" />
    <glyph glyph-name="uni0302" unicode="&#x302;" horiz-adv-x="0" 
d="M-496 930l150 210h196l150 -210h-200l-48 78l-48 -78h-200z" />
    <glyph glyph-name="tildecomb" unicode="&#x303;" horiz-adv-x="0" 
d="M-51 1124l1 -72q0 -56 -44 -96t-106 -40q-57 0 -87 21t-49 57q-12 22 -36 20q-16 -1 -27.5 -11t-12.5 -24h-110v74q0 55 44.5 94t105.5 39q20 0 36 -4q70 -18 99 -72q12 -22 37 -22q17 0 28.5 10.5t11.5 25.5h109z" />
    <glyph glyph-name="uni0304" unicode="&#x304;" horiz-adv-x="0" 
 />
    <glyph glyph-name="uni0306" unicode="&#x306;" horiz-adv-x="0" 
 />
    <glyph glyph-name="uni0307" unicode="&#x307;" horiz-adv-x="0" 
 />
    <glyph glyph-name="uni0308" unicode="&#x308;" horiz-adv-x="0" 
d="M-400 940q-42 0 -71 29t-29 71q0 41 29 70.5t71 29.5q41 0 70.5 -29.5t29.5 -70.5q0 -42 -29.5 -71t-70.5 -29zM-150 940q-42 0 -71 29t-29 71q0 41 29 70.5t71 29.5q41 0 70.5 -29.5t29.5 -70.5q0 -42 -29.5 -71t-70.5 -29z" />
    <glyph glyph-name="uni030A" unicode="&#x30a;" horiz-adv-x="0" 
d="M-120 905q-50 0 -85 35.5t-35 84.5t35.5 84.5t84.5 35.5t84.5 -35.5t35.5 -84.5t-35 -84.5t-85 -35.5zM-120 1005q8 0 14 6t6 14t-6 13.5t-14 5.5t-14 -5.5t-6 -13.5t6 -14t14 -6z" />
    <glyph glyph-name="uni030B" unicode="&#x30b;" horiz-adv-x="0" 
d="M-375 1140h210l-105 -210h-180z" />
    <glyph glyph-name="uni030C" unicode="&#x30c;" horiz-adv-x="0" 
 />
    <glyph glyph-name="uni0312" unicode="&#x312;" horiz-adv-x="0" 
 />
    <glyph glyph-name="uni0326" unicode="&#x326;" horiz-adv-x="0" 
 />
    <glyph glyph-name="uni0327" unicode="&#x327;" horiz-adv-x="0" 
d="M-189 0h206l-54 -70q21 -13 33 -20.5t14 -8.5t5 -3t6.5 -4.5t18.5 -11.5l-69 -200h-206v200h83l-78 49z" />
    <glyph glyph-name="uni0328" unicode="&#x328;" horiz-adv-x="0" 
 />
    <glyph glyph-name="uni0335" unicode="&#x335;" horiz-adv-x="0" 
d="M-351 521h351v-200h-351v200z" />
    <glyph glyph-name="uni0337" unicode="&#x337;" horiz-adv-x="0" 
 />
    <glyph glyph-name="uni0338" unicode="&#x338;" horiz-adv-x="0" 
 />
    <glyph glyph-name="uni0401" unicode="&#x401;" 
d="M174 940q-42 0 -71 29t-29 71q0 41 29 70.5t71 29.5q41 0 70.5 -29.5t29.5 -70.5q0 -42 -29.5 -71t-70.5 -29zM424 940q-42 0 -71 29t-29 71q0 41 29 70.5t71 29.5q41 0 70.5 -29.5t29.5 -70.5q0 -42 -29.5 -71t-70.5 -29zM550 200v-200h-500v860h500v-200h-300v-130h260
v-200h-260v-130h300z" />
    <glyph glyph-name="uni0410" unicode="&#x410;" horiz-adv-x="690" 
d="M475 0l-40 190h-181l-39 -190h-200l180 860h300l180 -860h-200zM292 370h105l-52 251z" />
    <glyph glyph-name="uni0411" unicode="&#x411;" horiz-adv-x="640" 
d="M310 585q120 -1 205 -86.5t85 -205.5q0 -121 -85 -206.5t-205 -86.5h-260v860h480v-200h-280v-75h60zM373 227q27 27 27 66q0 38 -27 65t-65 27h-58v-185h61q35 0 62 27z" />
    <glyph glyph-name="uni0412" unicode="&#x412;" horiz-adv-x="720" 
d="M606 466q74 -80 74 -188q0 -115 -81.5 -196.5t-196.5 -81.5h-352v860h350q100 0 170 -79.5t70 -185.5q0 -67 -34 -129zM375 660h-125v-130h125q28 0 46.5 20t18.5 45q0 27 -19.5 46t-45.5 19zM402 200q32 0 55 23t23 55q0 31 -23.5 54t-54.5 23h-152v-155h152z" />
    <glyph glyph-name="uni0413" unicode="&#x413;" horiz-adv-x="510" 
d="M480 860v-200h-230v-660h-200v860h430z" />
    <glyph glyph-name="uni0414" unicode="&#x414;" horiz-adv-x="780" 
d="M658 200h102v-285h-200v85h-340v-85h-200v285h102l138 660h260zM326 200h128l-64 355z" />
    <glyph glyph-name="uni0415" unicode="&#x415;" horiz-adv-x="590" 
d="M550 200v-200h-500v860h500v-200h-300v-130h260v-200h-260v-130h300z" />
    <glyph glyph-name="uni0416" unicode="&#x416;" horiz-adv-x="870" 
d="M830 514v-514h-200v343h-95v-343h-200v343h-95v-343h-200v514h120l-140 346h205l110 -287v287h200v-287l110 287h205l-140 -346h120z" />
    <glyph glyph-name="uni0417" unicode="&#x417;" horiz-adv-x="700" 
d="M650 680l-3 -60l-123 -76q58 -41 92 -105.5t34 -138.5q0 -124 -88 -212t-212 -88q-105 0 -186.5 65t-105.5 164l192 70q0 -41 29.5 -70t70.5 -29t70.5 29.5t29.5 70.5t-29.5 70.5t-70.5 29.5h-38v230l96 50h-358v180h600v-180z" />
    <glyph glyph-name="uni0418" unicode="&#x418;" horiz-adv-x="650" 
d="M390 860h210v-860h-200v410l-140 -410h-210v860h200v-415z" />
    <glyph glyph-name="uni0419" unicode="&#x419;" horiz-adv-x="650" 
d="M315 908q-42 0 -71 29t-29 71q0 41 29 70.5t71 29.5q41 0 70.5 -29.5t29.5 -70.5q0 -42 -29.5 -71t-70.5 -29zM390 860h210v-860h-200v410l-140 -410h-210v860h200v-415z" />
    <glyph glyph-name="uni041A" unicode="&#x41a;" horiz-adv-x="690" 
d="M660 860l-204 -400h194v-460h-200v280h-200v-280h-200v860h200v-392l200 392h210z" />
    <glyph glyph-name="uni041B" unicode="&#x41b;" horiz-adv-x="650" 
d="M425 0l-100 555l-100 -555h-210l180 860h260l180 -860h-210z" />
    <glyph glyph-name="uni041C" unicode="&#x41c;" horiz-adv-x="880" 
d="M560 860h270v-860h-200v415l-90 -415h-200l-90 415v-415h-200v860h270l120 -585z" />
    <glyph glyph-name="uni041D" unicode="&#x41d;" horiz-adv-x="700" 
d="M450 860h200v-860h-200v340h-200v-340h-200v860h200v-340h200v340z" />
    <glyph glyph-name="uni041E" unicode="&#x41e;" horiz-adv-x="950" 
d="M910 430q0 -180 -127.5 -307.5t-307.5 -127.5t-307.5 127.5t-127.5 307.5t127.5 307.5t307.5 127.5t307.5 -127.5t127.5 -307.5zM475 195q99 0 166 69q69 67 69 166t-69 166q-67 69 -166 69t-166 -69q-69 -67 -69 -166t69 -166q67 -69 166 -69z" />
    <glyph glyph-name="uni041F" unicode="&#x41f;" horiz-adv-x="650" 
d="M600 860v-860h-200v660h-150v-660h-200v860h550z" />
    <glyph glyph-name="uni0420" unicode="&#x420;" horiz-adv-x="655" 
d="M320 860q126 0 215.5 -93t89.5 -224q0 -132 -89.5 -225t-215.5 -93h-70v-225h-200v860h270zM425 542q0 49 -31 83.5t-74 34.5h-70v-235h70q44 0 74.5 35t30.5 82z" />
    <glyph glyph-name="uni0421" unicode="&#x421;" horiz-adv-x="913" 
d="M685 325l188 -69q-51 -117 -158.5 -189t-239.5 -72q-181 0 -308 127.5t-127 307.5t127 307.5t308 127.5q130 0 236.5 -70t158.5 -184l-189 -69q-27 55 -84 89t-122 34q-98 0 -166.5 -68.5t-68.5 -166.5t68.5 -166.5t166.5 -68.5q67 0 123.5 35.5t86.5 94.5z" />
    <glyph glyph-name="uni0422" unicode="&#x422;" horiz-adv-x="560" 
d="M520 860v-200h-140v-660h-200v660h-140v200h480z" />
    <glyph glyph-name="uni0423" unicode="&#x423;" horiz-adv-x="690" 
d="M440 860h200v-860h-600v200h200l-200 660h200l200 -660v660z" />
    <glyph glyph-name="uni0424" unicode="&#x424;" horiz-adv-x="930" 
d="M900 430q0 -153 -95 -271t-240 -152v-183h-200v183q-145 34 -240 152t-95 271q0 180 127.5 307.5t307.5 127.5t307.5 -127.5t127.5 -307.5zM299 263q29 -29 66 -46v426q-41 -20 -66 -47q-69 -69 -69 -166q0 -96 69 -167zM631 263q69 71 69 167q0 97 -69 166
q-25 27 -66 47v-426q37 17 66 46z" />
    <glyph glyph-name="uni0425" unicode="&#x425;" horiz-adv-x="680" 
d="M40 0v460h160l-160 400h210l90 -215l90 215h210l-160 -400h160v-460h-200v260h-200v-260h-200z" />
    <glyph glyph-name="uni0426" unicode="&#x426;" horiz-adv-x="721" 
d="M600 200h101v-285h-200v85h-451v860h200v-660h150v660h200v-660z" />
    <glyph glyph-name="uni0427" unicode="&#x427;" horiz-adv-x="650" 
d="M400 860h200v-860h-200v270h-350v590h200v-410h150v410z" />
    <glyph glyph-name="uni0428" unicode="&#x428;" horiz-adv-x="890" 
d="M640 860h200v-860h-790v860h200v-660h95v660h200v-660h95v660z" />
    <glyph glyph-name="uni0429" unicode="&#x429;" horiz-adv-x="963" 
d="M840 200h103v-285h-200v85h-693v860h200v-660h95v660h200v-660h95v660h200v-660z" />
    <glyph glyph-name="uni042A" unicode="&#x42a;" horiz-adv-x="698" 
d="M373 585q120 -1 205 -86.5t85 -205.5q0 -121 -85 -206.5t-205 -86.5h-260v660h-93v200h293v-275h60zM374 200q37 0 63 27.5t26 65.5t-27 65t-65 27h-58v-185h61z" />
    <glyph glyph-name="uni042B" unicode="&#x42b;" horiz-adv-x="933" 
d="M250 860v-275h60q120 -1 205 -86.5t85 -205.5q0 -121 -85 -206.5t-205 -86.5h-260v860h200zM883 860v-860h-200v860h200zM400 293q0 38 -27 65t-65 27h-58v-185h61q37 0 63 27.5t26 65.5z" />
    <glyph glyph-name="uni042C" unicode="&#x42c;" horiz-adv-x="635" 
d="M250 860v-275h60q120 -1 205 -86.5t85 -205.5q0 -121 -85 -206.5t-205 -86.5h-260v860h200zM400 293q0 38 -27 65t-65 27h-58v-185h61q37 0 63 27.5t26 65.5z" />
    <glyph glyph-name="uni042D" unicode="&#x42d;" horiz-adv-x="893" 
d="M428 865q181 0 308 -127.5t127 -307.5t-127 -307.5t-308 -127.5q-132 0 -239.5 72t-158.5 189l188 69q30 -59 86.5 -94.5t123.5 -35.5q73 0 131.5 40t85.5 105h-233v180h233q-27 65 -85.5 105t-131.5 40q-65 0 -122 -34t-84 -89l-189 69q52 114 158.5 184t236.5 70z" />
    <glyph glyph-name="uni042E" unicode="&#x42e;" horiz-adv-x="1180" 
d="M732 865q170 0 291.5 -127.5t121.5 -307.5t-121.5 -307.5t-291.5 -127.5q-142 0 -254 93t-147 235h-81v-323h-200v860h200v-322h82q35 142 146.5 234.5t253.5 92.5zM732 194q89 0 151 69t62 167t-61.5 167t-151.5 69q-89 0 -151 -69t-62 -167t62 -167t151 -69z" />
    <glyph glyph-name="uni042F" unicode="&#x42f;" horiz-adv-x="635" 
d="M585 860v-860h-200v275h-18l-95 -275h-202l109 315q-66 39 -105 106t-39 147q0 120 85 205.5t205 86.5h260zM235 567q0 -38 27 -65t66 -27h57v185h-58q-38 0 -65 -27t-27 -66z" />
    <glyph glyph-name="uni0430" unicode="&#x430;" horiz-adv-x="767" 
d="M35 300q0 125 89.5 215t215.5 90q41 0 87.5 -17.5t69.5 -46.5v59h200v-531l30 -69h-200l-30 58q-19 -29 -62 -46.5t-95 -17.5q-126 0 -215.5 90t-89.5 216zM350 195q43 0 74 31t31 74t-31 73.5t-74 30.5t-74 -30.5t-31 -73.5q0 -44 30.5 -74.5t74.5 -30.5z" />
    <glyph glyph-name="uni0431" unicode="&#x431;" horiz-adv-x="695" 
d="M353 600q125 0 213.5 -88.5t88.5 -213.5q0 -126 -88.5 -214.5t-213.5 -88.5q-122 0 -209 83t-94 204v1q-2 15 0 32v545h400v70h204v-270h-404v-78q48 18 103 18zM353 193q43 0 74 31t31 74t-31 74t-74 31t-74 -31t-31 -74q0 -44 31 -74.5t74 -30.5z" />
    <glyph glyph-name="uni0432" unicode="&#x432;" horiz-adv-x="589" 
d="M554 423q0 -71 -49 -123q49 -52 49 -122q0 -73 -51 -125t-124 -53h-329v600h329q73 -1 124 -52.5t51 -124.5zM250 354h35q38 0 54 11t16 40q0 27 -16 38t-54 11h-35v-100zM250 146h35q38 0 54 11t16 40q0 27 -16 38t-54 11h-35v-100z" />
    <glyph glyph-name="uni0433" unicode="&#x433;" horiz-adv-x="485" 
d="M455 600v-200h-215v-400h-200v600h415z" />
    <glyph glyph-name="uni0434" unicode="&#x434;" horiz-adv-x="762" 
d="M626 180h116v-301h-200v121h-322v-121h-200v301h118l84 420h320zM343 180h78l-39 246z" />
    <glyph glyph-name="uni0435" unicode="&#x435;" horiz-adv-x="679" 
d="M340 185q40 0 72 26l189 -69q-41 -67 -110 -107t-151 -40q-126 0 -215.5 89.5t-89.5 215.5q0 127 89.5 216t215.5 89q121 0 208.5 -82.5t95.5 -202.5l-52 -85h-347q35 -50 95 -50zM348 425q-34 0 -61.5 -17t-41.5 -51h206q-14 34 -41.5 51t-61.5 17z" />
    <glyph glyph-name="uni0436" unicode="&#x436;" horiz-adv-x="880" 
d="M875 600l-186 -245h131v-355h-200v175h-80v-175h-200v175h-80v-175h-200v355h131l-186 245h235l100 -141v141h200v-141l100 141h235z" />
    <glyph glyph-name="uni0437" unicode="&#x437;" horiz-adv-x="500" 
d="M460 600v-185l-79 -40q79 -64 79 -166q0 -89 -61.5 -152t-148.5 -62q-86 1 -147.5 62t-62.5 148h167q0 -20 13 -33.5t32 -13.5q20 0 33 13t13 33q0 19 -13 32t-33 13h-42v176h-170v175h420z" />
    <glyph glyph-name="uni0438" unicode="&#x438;" horiz-adv-x="650" 
d="M400 600h200v-600h-200v270l-150 -270h-200v600h200v-285z" />
    <glyph glyph-name="uni0439" unicode="&#x439;" horiz-adv-x="650" 
d="M426 761q0 -43 -29 -72t-71 -29t-71 29t-29 72q0 41 29 70t71 29q41 0 70.5 -29t29.5 -70zM400 600h200v-600h-200v270l-150 -270h-200v600h200v-285z" />
    <glyph glyph-name="uni043A" unicode="&#x43a;" horiz-adv-x="580" 
d="M530 355v-355h-200v175h-90v-175h-200v600h200v-141l100 141h235l-186 -245h141z" />
    <glyph glyph-name="uni043B" unicode="&#x43b;" horiz-adv-x="580" 
d="M570 0h-212l-68 426l-68 -426h-212l110 600h340z" />
    <glyph glyph-name="uni043C" unicode="&#x43c;" horiz-adv-x="940" 
d="M600 600h290v-600h-200v275l-120 -275h-200l-120 275v-275h-200v600h290l130 -345z" />
    <glyph glyph-name="uni043D" unicode="&#x43d;" horiz-adv-x="650" 
d="M400 600h200v-600h-200v210h-150v-210h-200v600h200v-210h150v210z" />
    <glyph glyph-name="uni043E" unicode="&#x43e;" horiz-adv-x="674" 
d="M337 602q125 0 213.5 -88.5t88.5 -213.5t-88.5 -213.5t-213.5 -88.5t-213.5 88.5t-88.5 213.5t88.5 213.5t213.5 88.5zM337 195q43 0 74 30.5t31 74.5t-31 74.5t-74 30.5t-74 -30.5t-31 -74.5t31 -74.5t74 -30.5z" />
    <glyph glyph-name="uni043F" unicode="&#x43f;" horiz-adv-x="630" 
d="M590 600v-600h-200v400h-150v-400h-200v600h550z" />
    <glyph glyph-name="uni0440" unicode="&#x440;" horiz-adv-x="694" 
d="M40 -180v780h200v-61q20 32 57 50t80 18q123 0 202.5 -89.5t79.5 -217.5q0 -126 -88.5 -216.5t-213.5 -90.5q-75 0 -117 38v-211h-200zM357 195q43 0 74 30.5t31 74.5t-31 74.5t-74 30.5t-74 -30.5t-31 -74.5t31 -74.5t74 -30.5z" />
    <glyph glyph-name="uni0441" unicode="&#x441;" horiz-adv-x="680" 
d="M40 300q0 129 89 217.5t218 88.5q100 0 180 -54t113 -144l-205 -74q-10 29 -35.5 48t-53.5 19q-43 0 -72 -29.5t-30 -72.5q1 -43 30 -72t72 -29q28 0 53 18.5t36 46.5l204 -74q-33 -88 -113 -142t-179 -54q-129 0 -218 89t-89 218z" />
    <glyph glyph-name="uni0442" unicode="&#x442;" horiz-adv-x="890" 
d="M640 0v400h-95v-400h-200v400h-95v-400h-200v600h790v-600h-200z" />
    <glyph glyph-name="uni0443" unicode="&#x443;" horiz-adv-x="601" 
d="M341 600h220v-600h-505v180h115l-156 420h215l131 -390z" />
    <glyph glyph-name="uni0444" unicode="&#x444;" horiz-adv-x="1060" 
d="M30 300q0 130 74 217.5t196 87.5q37 0 76.5 -16t55.5 -42v53h200v-52q15 25 53.5 41t74.5 16q122 0 196 -87.5t74 -217.5q0 -128 -79 -217t-201 -88q-30 0 -67 13t-51 34v-219h-200v220q-15 -21 -53 -34.5t-69 -13.5q-122 1 -201 89t-79 216zM330 193q41 0 70.5 29.5
t29.5 71.5q0 44 -29 71.5t-71 27.5t-71 -27.5t-29 -71.5q0 -42 29.5 -71.5t70.5 -29.5zM730 193q41 0 70.5 29.5t29.5 71.5q0 44 -29 71.5t-71 27.5t-71 -27.5t-29 -71.5q0 -42 29.5 -71.5t70.5 -29.5z" />
    <glyph glyph-name="uni0445" unicode="&#x445;" horiz-adv-x="640" 
d="M595 335v-335h-200v155h-150v-155h-200v335h118l-123 265h210l70 -162l70 162h210l-122 -265h117z" />
    <glyph glyph-name="uni0446" unicode="&#x446;" horiz-adv-x="721" 
d="M600 200h101v-285h-200v85h-451v600h200v-400h150v400h200v-400z" />
    <glyph glyph-name="uni0447" unicode="&#x447;" horiz-adv-x="630" 
d="M390 600h200v-600h-200v150h-350v450h200v-270h150v270z" />
    <glyph glyph-name="uni0448" unicode="&#x448;" horiz-adv-x="890" 
d="M640 600h200v-600h-790v600h200v-400h95v400h200v-400h95v400z" />
    <glyph glyph-name="uni0449" unicode="&#x449;" horiz-adv-x="963" 
d="M840 200h103v-285h-200v85h-693v600h200v-400h95v400h200v-400h95v400h200v-400z" />
    <glyph glyph-name="uni044A" unicode="&#x44a;" horiz-adv-x="653" 
d="M388 460q95 0 162.5 -67.5t67.5 -162.5t-67.5 -162.5t-162.5 -67.5h-275v420h-93v180h293v-140h75zM355 162q28 0 47.5 20t19.5 48q0 27 -19.5 46t-47.5 19h-42v-133h42z" />
    <glyph glyph-name="uni044B" unicode="&#x44b;" horiz-adv-x="865" 
d="M325 460q95 0 162.5 -67.5t67.5 -162.5t-67.5 -162.5t-162.5 -67.5h-275v600h200v-140h75zM615 600h200v-600h-200v600zM292 162q28 0 47.5 20t19.5 48q0 27 -19.5 46t-47.5 19h-42v-133h42z" />
    <glyph glyph-name="uni044C" unicode="&#x44c;" horiz-adv-x="590" 
d="M325 460q95 0 162.5 -67.5t67.5 -162.5t-67.5 -162.5t-162.5 -67.5h-275v600h200v-140h75zM292 162q28 0 47.5 20t19.5 48q0 27 -19.5 46t-47.5 19h-42v-133h42z" />
    <glyph glyph-name="uni044D" unicode="&#x44d;" horiz-adv-x="670" 
d="M328 606q129 0 218 -88.5t89 -217.5t-89 -218t-218 -89q-99 0 -179 54t-113 142l199 73q11 -29 37.5 -49t55.5 -20q55 0 86 43h-76v126h78q-31 45 -88 45q-30 0 -57 -21t-38 -52l-198 74q33 90 113 144t180 54z" />
    <glyph glyph-name="uni044E" unicode="&#x44e;" horiz-adv-x="920" 
d="M585 605q126 0 215.5 -89.5t89.5 -215.5t-89.5 -215.5t-215.5 -89.5q-98 0 -175.5 55.5t-110.5 144.5h-59v-195h-200v600h200v-205h55q30 93 110 151.5t180 58.5zM585 195q43 0 73.5 30.5t30.5 74.5t-30.5 74.5t-73.5 30.5t-73.5 -30.5t-30.5 -74.5t30.5 -74.5
t73.5 -30.5z" />
    <glyph glyph-name="uni044F" unicode="&#x44f;" horiz-adv-x="579" 
d="M264 600h275v-600h-200v140h-28l-43 -140h-209l65 187q-44 31 -69 79.5t-25 103.5q0 95 69 162.5t165 67.5zM339 305v133h-42q-28 0 -47.5 -20t-19.5 -48q0 -27 19.5 -46t47.5 -19h42z" />
    <glyph glyph-name="uni0451" unicode="&#x451;" horiz-adv-x="679" 
d="M214 660q-42 0 -71 29t-29 71q0 41 29 70.5t71 29.5q41 0 70.5 -29.5t29.5 -70.5q0 -42 -29.5 -71t-70.5 -29zM464 660q-42 0 -71 29t-29 71q0 41 29 70.5t71 29.5q41 0 70.5 -29.5t29.5 -70.5q0 -42 -29.5 -71t-70.5 -29zM340 185q40 0 72 26l189 -69q-41 -67 -110 -107
t-151 -40q-126 0 -215.5 89.5t-89.5 215.5q0 127 89.5 216t215.5 89q121 0 208.5 -82.5t95.5 -202.5l-52 -85h-347q35 -50 95 -50zM340 415q-65 0 -98 -55h196q-33 55 -98 55z" />
    <glyph glyph-name="Wgrave" unicode="&#x1e80;" horiz-adv-x="1065" 
d="M549 1140l75 -210h-180l-105 210h210zM845 860h200l-185 -860h-240l-87 396l-88 -396h-240l-185 860h200l105 -555l108 555h200l107 -555z" />
    <glyph glyph-name="wgrave" unicode="&#x1e81;" horiz-adv-x="980" 
d="M499 860l75 -210h-180l-105 210h210zM960 600l-135 -600h-300l-35 315l-45 -315h-290l-135 600h202l92 -427l39 427h264l49 -427l92 427h202z" />
    <glyph glyph-name="Wacute" unicode="&#x1e82;" horiz-adv-x="1065" 
d="M514 1140h210l-105 -210h-180zM845 860h200l-185 -860h-240l-87 396l-88 -396h-240l-185 860h200l105 -555l108 555h200l107 -555z" />
    <glyph glyph-name="wacute" unicode="&#x1e83;" horiz-adv-x="980" 
d="M472 859h210l-105 -210h-180zM960 600l-135 -600h-300l-35 315l-45 -315h-290l-135 600h202l92 -427l39 427h264l49 -427l92 427h202z" />
    <glyph glyph-name="Wdieresis" unicode="&#x1e84;" horiz-adv-x="1065" 
d="M408 940q-42 0 -71 29t-29 71q0 41 29 70.5t71 29.5q41 0 70.5 -29.5t29.5 -70.5q0 -42 -29.5 -71t-70.5 -29zM658 940q-42 0 -71 29t-29 71q0 41 29 70.5t71 29.5q41 0 70.5 -29.5t29.5 -70.5q0 -42 -29.5 -71t-70.5 -29zM845 860h200l-185 -860h-240l-87 396l-88 -396
h-240l-185 860h200l105 -555l108 555h200l107 -555z" />
    <glyph glyph-name="wdieresis" unicode="&#x1e85;" horiz-adv-x="980" 
d="M365 666q-42 0 -71 29t-29 71q0 41 29 70.5t71 29.5q41 0 70.5 -29.5t29.5 -70.5q0 -42 -29.5 -71t-70.5 -29zM615 666q-42 0 -71 29t-29 71q0 41 29 70.5t71 29.5q41 0 70.5 -29.5t29.5 -70.5q0 -42 -29.5 -71t-70.5 -29zM960 600l-135 -600h-300l-35 315l-45 -315h-290
l-135 600h202l92 -427l39 427h264l49 -427l92 427h202z" />
    <glyph glyph-name="Ygrave" unicode="&#x1ef2;" horiz-adv-x="680" 
d="M360 1140l75 -210h-180l-105 210h210zM440 860h200v-860h-600v200h200l-200 660h200l200 -660v660z" />
    <glyph glyph-name="ygrave" unicode="&#x1ef3;" horiz-adv-x="601" 
d="M320 860l75 -210h-180l-105 210h210zM341 600h220v-600h-505v180h115l-156 420h215l131 -390z" />
    <glyph glyph-name="endash" unicode="&#x2013;" horiz-adv-x="565" 
d="M50 503h465v-200h-465v200z" />
    <glyph glyph-name="emdash" unicode="&#x2014;" horiz-adv-x="900" 
d="M50 503h800v-200h-800v200z" />
    <glyph glyph-name="quotedblleft" unicode="&#x201c;" horiz-adv-x="581" 
d="M40 860h200l98 -220h-171zM483 860l58 -220h-151l-97 220h190z" />
    <glyph glyph-name="quotedblright" unicode="&#x201d;" horiz-adv-x="581" 
d="M98 860h190l-97 -220h-151zM341 860h200l-127 -220h-171z" />
    <glyph glyph-name="quotedblbase" unicode="&#x201e;" 
d="M110 143h136l-105 -220h-101z" />
    <glyph glyph-name="dagger" unicode="&#x2020;" 
 />
    <glyph glyph-name="daggerdbl" unicode="&#x2021;" 
 />
    <glyph glyph-name="bullet" unicode="&#x2022;" 
 />
    <glyph glyph-name="ellipsis" unicode="&#x2026;" horiz-adv-x="692" 
 />
    <glyph glyph-name="perthousand" unicode="&#x2030;" 
 />
    <glyph glyph-name="guilsinglleft" unicode="&#x2039;" horiz-adv-x="485" 
d="M435 180l-190 235l190 235h-205l-180 -235l180 -235h205z" />
    <glyph glyph-name="guilsinglright" unicode="&#x203a;" horiz-adv-x="485" 
d="M50 180h205l180 235l-180 235h-205l190 -235z" />
    <glyph glyph-name="fraction" unicode="&#x2044;" 
 />
    <glyph glyph-name="Euro" unicode="&#x20ac;" horiz-adv-x="958" 
d="M730 325l188 -69q-51 -117 -158.5 -189t-239.5 -72q-144 0 -257.5 84t-156.5 216h-76v120h55v15v15h-55v120h76q43 132 156.5 216t257.5 84q130 0 236.5 -70t158.5 -184l-189 -69q-27 55 -84 89t-122 34q-59 0 -109.5 -26.5t-83.5 -73.5h113v-120h-155v-15v-15h155v-120
h-113q33 -47 83.5 -73.5t109.5 -26.5q67 0 123.5 35.5t86.5 94.5z" />
    <glyph glyph-name="uni20BD" unicode="&#x20bd;" horiz-adv-x="742" 
d="M327 225v-50h93v-175h-380v175h87v50h-87v200h87v435h270q126 0 215.5 -93t89.5 -224q0 -132 -89.5 -225t-215.5 -93h-70zM327 660v-235h70q44 0 74.5 35t30.5 82q0 49 -31 83.5t-74 34.5h-70z" />
    <glyph glyph-name="uni2116" unicode="&#x2116;" horiz-adv-x="1374" 
d="M450 860h200v-860h-240l-160 437v-437h-200v860h240l160 -447v447zM1037 602q125 0 213.5 -88.5t88.5 -213.5t-88.5 -213.5t-213.5 -88.5t-213.5 88.5t-88.5 213.5t88.5 213.5t213.5 88.5zM1037 195q43 0 74 30.5t31 74.5t-31 74.5t-74 30.5t-74 -30.5t-31 -74.5
t31 -74.5t74 -30.5z" />
    <glyph glyph-name="trademark" unicode="&#x2122;" horiz-adv-x="1440" 
d="M520 860v-200h-140v-660h-200v660h-140v200h480zM1120 860h270v-860h-200v415l-90 -415h-200l-90 415v-415h-200v860h270l120 -585z" />
    <glyph glyph-name="partialdiff" unicode="&#x2202;" 
 />
    <glyph glyph-name="emptyset" unicode="&#x2205;" 
 />
    <glyph glyph-name="product" unicode="&#x220f;" 
 />
    <glyph glyph-name="summation" unicode="&#x2211;" 
 />
    <glyph glyph-name="minus" unicode="&#x2212;" 
 />
    <glyph glyph-name="radical" unicode="&#x221a;" 
 />
    <glyph glyph-name="infinity" unicode="&#x221e;" 
 />
    <glyph glyph-name="integral" unicode="&#x222b;" 
 />
    <glyph glyph-name="approxequal" unicode="&#x2248;" 
 />
    <glyph glyph-name="notequal" unicode="&#x2260;" 
 />
    <glyph glyph-name="lessequal" unicode="&#x2264;" 
 />
    <glyph glyph-name="greaterequal" unicode="&#x2265;" 
 />
    <glyph glyph-name="lozenge" unicode="&#x25ca;" 
 />
    <glyph glyph-name="brevecombcy" horiz-adv-x="0" 
 />
    </font>
</defs>
</svg>
