<?xml version="1.0" standalone="no"?>
<!DOCTYPE svg PUBLIC "-//W3C//DTD SVG 1.1//EN" "http://www.w3.org/Graphics/SVG/1.1/DTD/svg11.dtd" >
<svg xmlns="http://www.w3.org/2000/svg" xmlns:xlink="http://www.w3.org/1999/xlink" version="1.1">
<metadata>
Created by FontForge 20190801 at Mon Jun 19 18:24:41 2017
 By www-data
Timur Zima
</metadata>
<defs>
<font id="FellazRegular" horiz-adv-x="600" >
  <font-face 
    font-family="FellazRegular"
    font-weight="400"
    font-stretch="normal"
    units-per-em="1000"
    panose-1="0 0 5 0 0 0 0 0 0 0"
    ascent="800"
    descent="-200"
    x-height="600"
    cap-height="860"
    bbox="-250 -231 1255 1180"
    underline-thickness="50"
    underline-position="-100"
    unicode-range="U+0020-25CA"
  />
<missing-glyph horiz-adv-x="610" 
d="M500 1040v-1220h-387v1220h387zM406 958h-201v-40h79v-45h-80v-40h202v40h-80v45h80v40zM326 801h-122v-127h202v41h-80v86zM284 759v-44h-40v44h40zM406 641h-202v-40h80v-45h-80v-41h122v86h80v40zM406 568h-40v-81h-162v-41h202v122zM406 419h-122v-68h42v28h40v-58
h-122v98h-40v-138h202v138zM406 208h-202v-138h202v138zM366 168v-58h-122v58h122zM406 42h-202v-40h85l-85 -58v-40h202v40h-124l85 58h39v40z" />
    <glyph glyph-name=".notdef" horiz-adv-x="610" 
d="M500 1040v-1220h-387v1220h387zM406 958h-201v-40h79v-45h-80v-40h202v40h-80v45h80v40zM326 801h-122v-127h202v41h-80v86zM284 759v-44h-40v44h40zM406 641h-202v-40h80v-45h-80v-41h122v86h80v40zM406 568h-40v-81h-162v-41h202v122zM406 419h-122v-68h42v28h40v-58
h-122v98h-40v-138h202v138zM406 208h-202v-138h202v138zM366 168v-58h-122v58h122zM406 42h-202v-40h85l-85 -58v-40h202v40h-124l85 58h39v40z" />
    <glyph glyph-name=".null" horiz-adv-x="0" 
 />
    <glyph glyph-name="nonmarkingreturn" horiz-adv-x="333" 
 />
    <glyph glyph-name="space" unicode=" " horiz-adv-x="400" 
 />
    <glyph glyph-name="exclam" unicode="!" horiz-adv-x="245" 
d="M70 190v670h110v-670h-110zM195 68q0 -31 -21 -52t-51 -21q-31 0 -52 21t-21 52q0 30 21 51t52 21q30 0 51 -21t21 -51z" />
    <glyph glyph-name="quotedbl" unicode="&#x22;" horiz-adv-x="421" 
d="M100 860h111l-80 -220h-81zM260 860h121l-115 -220h-86z" />
    <glyph glyph-name="numbersign" unicode="#" horiz-adv-x="740" 
d="M690 540h-116l-41 -200h102v-110h-125l-47 -230h-118l47 230h-135l-47 -230h-117l47 230h-90v110h113l41 200h-99v110h122l43 210h118l-44 -210h135l44 210h117l-43 -210h93v-110zM415 340l41 200h-135l-41 -200h135z" />
    <glyph glyph-name="dollar" unicode="$" 
d="M516 392q74 -66 74 -162q0 -85 -59.5 -149.5t-149.5 -81.5v-91h-110v93q-69 15 -120.5 59.5t-70.5 105.5l103 38q9 -34 37 -59q22 -19 51 -30v251q-80 15 -117 37q-58 35 -91 89.5t-33 117.5q0 92 68.5 162.5t172.5 87.5v96h110v-95q87 -13 152 -64t88 -123l-104 -38
q-10 41 -46 70q-35 31 -90 44v-294q84 -20 135 -64zM189 514q33 -28 82 -39v272q-45 -12 -82 -41q-49 -41 -49 -96t49 -96zM440 145q40 37 40 95q0 46 -40 75q-24 19 -59 28v-231q34 11 59 33z" />
    <glyph glyph-name="percent" unicode="%" horiz-adv-x="890" 
d="M248 470q-82 0 -140 58t-58 140t58 139.5t140 57.5t139.5 -57.5t57.5 -139.5t-57.5 -140t-139.5 -58zM675 860h135l-600 -860h-135zM248 755q-37 0 -62.5 -25.5t-25.5 -61.5q0 -37 25.5 -62.5t62.5 -25.5q36 0 61.5 25.5t25.5 62.5q0 36 -25.5 61.5t-61.5 25.5zM643 390
q82 0 139.5 -57.5t57.5 -139.5t-57.5 -140t-139.5 -58q-83 0 -140.5 57.5t-57.5 140.5q0 82 58 139.5t140 57.5zM643 105q36 0 61.5 25.5t25.5 62.5q0 36 -25.5 61.5t-61.5 25.5q-37 0 -62.5 -25.5t-25.5 -61.5q0 -37 25.5 -62.5t62.5 -25.5z" />
    <glyph glyph-name="ampersand" unicode="&#x26;" horiz-adv-x="745" 
d="M710 420v-110h-60v-55q-2 -108 -89.5 -184t-210.5 -76q-124 0 -212 77.5t-88 187.5q0 66 34.5 123t93.5 94q-76 66 -76 163q0 93 72.5 159t175.5 66q83 0 149 -45t89 -115l-104 -37q-7 26 -32 48q-43 38 -102 38t-102 -38q-36 -33 -36 -76t36 -76q43 -38 102 -38h5v-111
h-5q-83 0 -139 -50q-51 -45 -51 -105t51 -105q56 -50 139 -50t139 50q51 45 51 105v50h-65v110h235z" />
    <glyph glyph-name="quotesingle" unicode="'" horiz-adv-x="293" 
d="M120 860h133l-105 -220h-98z" />
    <glyph glyph-name="parenleft" unicode="(" horiz-adv-x="353" 
d="M283 -147l-104 -38q-138 274 -129 628q10 333 149 591l104 -38q-53 -97 -89 -214q-48 -162 -54 -342q-5 -184 36 -349q32 -132 87 -238z" />
    <glyph glyph-name="parenright" unicode=")" horiz-adv-x="333" 
d="M50 -147q55 106 87 238q41 165 36 349q-6 180 -54 342q-36 117 -89 214l104 38q139 -258 149 -591q9 -354 -129 -628z" />
    <glyph glyph-name="asterisk" unicode="*" horiz-adv-x="462" 
d="M50 633l91 47l-91 47l50 86l86 -57l-5 104h100l-5 -104l86 57l50 -86l-91 -47l91 -47l-50 -86l-86 57l5 -104h-100l5 104l-86 -57z" />
    <glyph glyph-name="plus" unicode="+" horiz-adv-x="465" 
d="M50 348v110h128v128h110v-128h127v-110h-127v-127h-110v127h-128z" />
    <glyph glyph-name="comma" unicode="," horiz-adv-x="296" 
d="M110 143h136l-105 -220h-101z" />
    <glyph glyph-name="hyphen" unicode="-" horiz-adv-x="465" 
d="M50 458h365v-110h-365v110z" />
    <glyph glyph-name="period" unicode="." horiz-adv-x="245" 
d="M195 73q0 -31 -21 -52t-52 -21q-30 0 -51 21t-21 52q0 30 21 51t51 21q31 0 52 -21t21 -51z" />
    <glyph glyph-name="slash" unicode="/" horiz-adv-x="314" 
d="M178 860h116l-178 -1040h-116z" />
    <glyph glyph-name="zero" unicode="0" horiz-adv-x="930" 
d="M465 865q180 0 307.5 -127.5t127.5 -307.5t-127.5 -307.5t-307.5 -127.5t-307.5 127.5t-127.5 307.5t127.5 307.5t307.5 127.5zM695 200q95 97 95 230t-95 230q-97 95 -230 95t-230 -95q-95 -97 -95 -230t95 -230q97 -95 230 -95t230 95z" />
    <glyph glyph-name="one" unicode="1" horiz-adv-x="487" 
d="M313 110h154v-110h-420v110h156v594l-79 -113l-104 38l163 231h130v-750z" />
    <glyph glyph-name="two" unicode="2" horiz-adv-x="700" 
d="M230 110q21 15 64 44t70 48t68.5 49t80.5 61q68 54 102.5 109t34.5 139q0 124 -88 212t-212 88q-109 0 -192 -69t-103 -173l106 -38q8 72 62 121t127 49q79 0 134.5 -55.5t55.5 -134.5q0 -84 -79 -154q-24 -21 -51.5 -42t-60.5 -43.5t-117 -81.5t-182 -129v-110h600v110
h-420z" />
    <glyph glyph-name="three" unicode="3" horiz-adv-x="690" 
d="M650 860v-110l-189 -176q84 -33 136.5 -109t52.5 -170q0 -125 -88 -212.5t-212 -87.5q-105 0 -186.5 65t-105.5 164l105 38q11 -67 64 -112t123 -45q79 0 134.5 55.5t55.5 134.5t-55.5 134.5t-134.5 55.5h-30v110l165 155h-435v110h600z" />
    <glyph glyph-name="four" unicode="4" horiz-adv-x="665" 
d="M625 270v-110h-90v-160h-110v160h-375v110l365 590h120v-590h90zM174 270h251v398z" />
    <glyph glyph-name="five" unicode="5" horiz-adv-x="705" 
d="M353 600q125 0 213.5 -88.5t88.5 -213.5q0 -126 -88.5 -214.5t-213.5 -88.5q-107 0 -189 66t-106 167l105 39q11 -69 65 -115t125 -46q79 0 135 56.5t56 135.5t-56 135t-135 56q-58 0 -105.5 -31.5t-70.5 -82.5h-127v485h144q58 -84 159 -84q48 0 89.5 22.5t68.5 60.5
l106 -38q-40 -71 -110.5 -113.5t-153.5 -42.5q-110 0 -193 69v-203q83 69 193 69z" />
    <glyph glyph-name="six" unicode="6" horiz-adv-x="680" 
d="M40 304q0 70 33 133l4 8l225 415h127l-149 -262q30 6 60 6q121 0 210.5 -89.5t89.5 -210.5t-89.5 -210.5t-210.5 -89.5t-210.5 89.5t-89.5 210.5zM150 304q0 -82 54.5 -136.5t135.5 -54.5t135.5 54.5t54.5 136.5t-54.5 136.5t-135.5 54.5t-135.5 -54.5t-54.5 -136.5z" />
    <glyph glyph-name="seven" unicode="7" horiz-adv-x="700" 
d="M650 860v-110l-295 -750h-120l295 750h-480v110h600z" />
    <glyph glyph-name="eight" unicode="8" horiz-adv-x="700" 
d="M522 477q59 -37 93.5 -94t34.5 -123q0 -110 -88 -187.5t-212 -77.5t-212 77.5t-88 187.5q0 66 34.5 123t93.5 94q-76 66 -76 163q0 93 72.5 159t175.5 66t175.5 -66t72.5 -159q0 -97 -76 -163zM248 716q-36 -33 -36 -76t36 -76q43 -38 102 -38t102 38q36 33 36 76t-36 76
q-43 38 -102 38t-102 -38zM489 155q51 45 51 105t-51 105q-56 50 -139 50t-139 -50q-51 -45 -51 -105t51 -105q56 -50 139 -50t139 50z" />
    <glyph glyph-name="nine" unicode="9" horiz-adv-x="680" 
d="M40 556q0 121 89.5 210.5t210.5 89.5t210.5 -89.5t89.5 -210.5q0 -70 -33 -133l-7 -13l-222 -410h-127l146 262q-27 -6 -57 -6q-121 0 -210.5 89.5t-89.5 210.5zM150 556q0 -81 54.5 -135.5t135.5 -54.5t135.5 54.5t54.5 135.5t-54.5 135.5t-135.5 54.5t-135.5 -54.5
t-54.5 -135.5z" />
    <glyph glyph-name="colon" unicode=":" horiz-adv-x="245" 
d="M195 453q0 -31 -21 -52t-52 -21q-30 0 -51 21t-21 52q0 30 21 51t51 21q31 0 52 -21t21 -51zM195 173q0 -31 -21 -52t-52 -21q-30 0 -51 21t-21 52q0 30 21 51t51 21q31 0 52 -21t21 -51z" />
    <glyph glyph-name="semicolon" unicode=";" horiz-adv-x="286" 
d="M245 453q0 -31 -21 -52t-52 -21q-30 0 -51 21t-21 52q0 30 21 51t51 21q31 0 52 -21t21 -51zM110 242h136l-105 -220h-101z" />
    <glyph glyph-name="less" unicode="&#x3c;" horiz-adv-x="488" 
d="M438 611l-292 -196l292 -196l-107 -44l-281 175v130l281 175z" />
    <glyph glyph-name="equal" unicode="=" horiz-adv-x="565" 
d="M50 536h465v-110h-465v110zM50 356h465v-110h-465v110z" />
    <glyph glyph-name="greater" unicode="&#x3e;" horiz-adv-x="488" 
d="M50 611l107 44l281 -175v-130l-281 -175l-107 44l292 196z" />
    <glyph glyph-name="question" unicode="?" horiz-adv-x="695" 
d="M645 565q0 -109 -70 -192t-175 -103v-80h-110v185h55q79 0 134.5 55.5t55.5 134.5t-55.5 134.5t-134.5 55.5q-74 0 -128 -49.5t-61 -122.5l-106 39q21 106 104 174.5t191 68.5q124 0 212 -88t88 -212zM343 140q30 0 51 -21t21 -51t-21.5 -51.5t-50.5 -21.5
q-30 0 -51.5 21t-21.5 52q0 30 21 51t52 21z" />
    <glyph glyph-name="at" unicode="@" horiz-adv-x="1040" 
d="M518 760h472v-732q0 -46 -33 -79.5t-80 -33.5h-51q-48 0 -82 34t-34 82v29q-84 -70 -195 -70q-126 0 -215.5 89.5t-89.5 215.5t89.5 215.5t215.5 89.5q111 0 195 -71v61h110v-555q0 -17 12 -28.5t28 -11.5t28 11.5t12 28.5v635h-385q-160 0 -272.5 -112.5t-112.5 -272.5
q0 -153 108.5 -261.5t261.5 -108.5v-90h-3q-189 0 -323 134t-134 323q0 198 140 338t338 140zM515 102q80 0 136.5 56.5t56.5 136.5t-56.5 136.5t-136.5 56.5t-136.5 -56.5t-56.5 -136.5t56.5 -136.5t136.5 -56.5z" />
    <glyph glyph-name="A" unicode="A" horiz-adv-x="593" 
d="M474 0l-74 310h-209l-72 -310h-115l205 860h170l210 -860h-115zM217 420h157l-79 330h-2z" />
    <glyph glyph-name="B" unicode="B" horiz-adv-x="550" 
d="M400 461q50 -34 80 -89.5t30 -118.5q0 -105 -74 -179t-178 -74h-18h-190v860h190q95 -1 162.5 -69t67.5 -163q0 -99 -70 -167zM160 750v-245h85q48 3 81.5 38.5t33.5 84.5t-33.5 84t-81.5 38h-85zM265 110q57 3 96 44.5t39 98.5t-39.5 98t-95.5 44h-105v-285h105z" />
    <glyph glyph-name="C" unicode="C" horiz-adv-x="902" 
d="M695 200q38 40 63 89l104 -38q-52 -115 -159 -185.5t-238 -70.5q-180 0 -307.5 127.5t-127.5 307.5t127.5 307.5t307.5 127.5q138 0 249 -78t158 -203l-103 -38q-27 67 -74 114q-95 95 -230 95q-137 0 -230 -95q-95 -97 -95 -230q0 -137 95 -230q97 -95 230 -95
q140 0 230 95z" />
    <glyph glyph-name="D" unicode="D" horiz-adv-x="685" 
d="M220 860q178 0 304 -126t126 -304t-126 -304t-304 -126h-170v860h170zM446 204q94 92 94 226t-94 226q-92 94 -226 94h-60v-640h60q134 0 226 94z" />
    <glyph glyph-name="E" unicode="E" horiz-adv-x="550" 
d="M160 400v-290h350v-110h-460v860h460v-110h-350v-240h290v-110h-290z" />
    <glyph glyph-name="F" unicode="F" horiz-adv-x="545" 
d="M510 750h-350v-240h290v-110h-290v-400h-110v860h460v-110z" />
    <glyph glyph-name="G" unicode="G" horiz-adv-x="950" 
d="M910 436v-5q0 -180 -127.5 -307.5t-307.5 -127.5t-307.5 127.5t-127.5 307.5t127.5 307.5t307.5 127.5q138 0 249 -78t158 -203l-103 -38q-27 67 -74 114q-95 95 -230 95q-137 0 -230 -95q-95 -97 -95 -230q0 -137 95 -230q97 -95 230 -95q135 0 230 95q53 53 78 125
h-253v110h380z" />
    <glyph glyph-name="H" unicode="H" horiz-adv-x="560" 
d="M400 860h110v-860h-110v375h-240v-375h-110v860h110v-375h240v375z" />
    <glyph glyph-name="I" unicode="I" horiz-adv-x="340" 
d="M305 750h-80v-640h80v-110h-270v110h80v640h-80v110h270v-110z" />
    <glyph glyph-name="J" unicode="J" horiz-adv-x="691" 
d="M641 280q-6 -120 -93 -202.5t-207 -82.5q-104 0 -185 64t-106 162l105 38q13 -66 65 -110t121 -44q79 0 134.5 55.5t55.5 134.5v440h-210v125h320v-580z" />
    <glyph glyph-name="K" unicode="K" horiz-adv-x="690" 
d="M585 485v-485h-110v375h-315v-375h-110v860h110v-374l345 374h140l-340 -375h280z" />
    <glyph glyph-name="L" unicode="L" horiz-adv-x="565" 
d="M515 110v-110h-465v860h110v-750h355z" />
    <glyph glyph-name="M" unicode="M" horiz-adv-x="700" 
d="M650 860v-860h-110v565l-110 -565h-160l-110 565v-565h-110v860h165l135 -720l125 720h175z" />
    <glyph glyph-name="N" unicode="N" horiz-adv-x="560" 
d="M400 860h110v-860h-110l-240 570v-570h-110v860h110l240 -570v570z" />
    <glyph glyph-name="O" unicode="O" horiz-adv-x="940" 
d="M470 865q180 0 307.5 -127.5t127.5 -307.5t-127.5 -307.5t-307.5 -127.5t-307.5 127.5t-127.5 307.5t127.5 307.5t307.5 127.5zM700 200q95 97 95 230t-95 230q-97 95 -230 95t-230 -95q-95 -97 -95 -230t95 -230q97 -95 230 -95t230 95z" />
    <glyph glyph-name="P" unicode="P" horiz-adv-x="545" 
d="M220 860q120 -1 205 -86.5t85 -205.5q0 -121 -85 -206.5t-205 -86.5h-60v-275h-110v860h170zM220 385q74 1 127 54.5t53 128.5q0 74 -53 127.5t-127 54.5h-60v-365h60z" />
    <glyph glyph-name="Q" unicode="Q" horiz-adv-x="970" 
d="M920 431q0 -170 -115 -295l115 -135h-140l-58 65q-108 -70 -237 -70q-180 0 -307.5 127.5t-127.5 307.5t127.5 307.5t307.5 127.5t307.5 -127.5t127.5 -307.5zM715 661q-97 95 -230 95q-91 0 -170 -48l417 -488q78 90 78 211q0 133 -95 230zM485 106q90 0 164 44
l-421 480q-68 -88 -68 -199q0 -133 95 -230q97 -95 230 -95z" />
    <glyph glyph-name="R" unicode="R" horiz-adv-x="560" 
d="M510 568q0 -92 -51.5 -166t-133.5 -106l185 -296h-130l-172 275h-48v-275h-110v860h170q120 -1 205 -86.5t85 -205.5zM220 750h-60v-365h60q74 1 127 54.5t53 128.5q0 74 -53 127.5t-127 54.5z" />
    <glyph glyph-name="S" unicode="S" horiz-adv-x="651" 
d="M516 392q74 -66 74 -162q0 -98 -76 -166.5t-184 -68.5q-88 0 -157.5 48.5t-92.5 122.5l103 38q9 -34 37 -59q45 -40 110 -40t110 40q40 37 40 95q0 46 -40 75q-36 26 -105 40q-17 3 -49 8.5t-49.5 9t-41 11.5t-41.5 19q-58 35 -91 89.5t-33 117.5q0 106 88 180.5
t212 74.5q104 0 184.5 -54t106.5 -137l-104 -38q-10 41 -46 70q-57 49 -141 49q-81 0 -141 -49q-49 -41 -49 -96t49 -96q45 -38 141 -49q118 -13 186 -73z" />
    <glyph glyph-name="T" unicode="T" horiz-adv-x="520" 
d="M490 860v-110h-175v-750h-110v750h-175v110h460z" />
    <glyph glyph-name="U" unicode="U" horiz-adv-x="560" 
d="M400 860h110v-640q-2 -94 -69 -159.5t-161 -65.5t-161 65.5t-69 159.5v640h110v-635q0 -49 35 -84.5t85 -35.5t85 35.5t35 84.5v635z" />
    <glyph glyph-name="V" unicode="V" horiz-adv-x="530" 
d="M385 860h110l-140 -860h-180l-140 860h110l120 -737z" />
    <glyph glyph-name="W" unicode="W" horiz-adv-x="936" 
d="M789 860h112l-140 -860h-176l-116 640l-117 -640h-179l-138 860h113l116 -715l135 715h139l136 -715z" />
    <glyph glyph-name="X" unicode="X" horiz-adv-x="560" 
d="M510 415v-415h-110v305h-240v-305h-110v415h106l-104 445h123l104 -445h2l104 445h122l-104 -445h107z" />
    <glyph glyph-name="Y" unicode="Y" horiz-adv-x="545" 
d="M495 860v-860h-460v110h233l-223 750h120l220 -742v742h110z" />
    <glyph glyph-name="Z" unicode="Z" horiz-adv-x="700" 
d="M650 750l-465 -640h465v-110h-600v110l467 640h-467v110h600v-110z" />
    <glyph glyph-name="bracketleft" unicode="[" horiz-adv-x="298" 
d="M248 930h-87v-1000h87v-110h-198v1220h198v-110z" />
    <glyph glyph-name="backslash" unicode="\" horiz-adv-x="374" 
d="M156 860l178 -1040h-116l-178 1040h116z" />
    <glyph glyph-name="bracketright" unicode="]" horiz-adv-x="298" 
d="M50 930v110h198v-1220h-198v110h87v1000h-87z" />
    <glyph glyph-name="asciicircum" unicode="^" horiz-adv-x="487" 
d="M20 330l137 530h173l137 -530h-114l-109 432l-109 -432h-115z" />
    <glyph glyph-name="underscore" unicode="_" horiz-adv-x="565" 
d="M50 110h465v-110h-465v110z" />
    <glyph glyph-name="a" unicode="a" horiz-adv-x="710" 
d="M640 126l40 -126h-118l-27 89v1q-30 -43 -86 -69t-114 -26q-126 0 -215.5 89.5t-89.5 215.5t89.5 215.5t215.5 89.5q56 0 110 -25t85 -65v85h110v-474zM335 107q80 0 136.5 56.5t56.5 136.5t-56.5 136.5t-136.5 56.5t-136.5 -56.5t-56.5 -136.5t56.5 -136.5t136.5 -56.5z
" />
    <glyph glyph-name="b" unicode="b" horiz-adv-x="720" 
d="M375 605q126 0 215.5 -89.5t89.5 -215.5t-89.5 -215.5t-215.5 -89.5q-60 0 -118 26.5t-82 68.5l-32 -90h-113l40 148v712h110v-345q82 90 195 90zM375 107q80 0 136.5 56.5t56.5 136.5t-56.5 136.5t-136.5 56.5t-136.5 -56.5t-56.5 -136.5t56.5 -136.5t136.5 -56.5z" />
    <glyph glyph-name="c" unicode="c" horiz-adv-x="661" 
d="M340 105q61 0 110.5 34.5t71.5 89.5l103 -37q-33 -87 -111 -142t-174 -55q-126 0 -215.5 89.5t-89.5 215.5t89.5 215.5t215.5 89.5q97 0 175 -55.5t111 -144.5l-103 -37q-21 56 -71 91.5t-112 35.5q-81 0 -138 -57t-57 -138t57 -138t138 -57z" />
    <glyph glyph-name="d" unicode="d" horiz-adv-x="720" 
d="M345 605q113 0 195 -90v345h110v-712l40 -148h-113l-32 98q-23 -37 -79 -70t-121 -33q-126 0 -215.5 89.5t-89.5 215.5t89.5 215.5t215.5 89.5zM345 107q80 0 136.5 56.5t56.5 136.5t-56.5 136.5t-136.5 56.5t-136.5 -56.5t-56.5 -136.5t56.5 -136.5t136.5 -56.5z" />
    <glyph glyph-name="e" unicode="e" horiz-adv-x="679" 
d="M340 107q101 0 159 84l107 -39q-40 -72 -111 -114.5t-155 -42.5q-127 0 -216 89.5t-89 215.5t89 215.5t216 89.5q121 0 209 -83.5t95 -203.5l-36 -58h-457q14 -66 67 -109.5t122 -43.5zM340 493q-61 0 -110 -34t-70 -89h360q-21 55 -70 89t-110 34z" />
    <glyph glyph-name="f" unicode="f" horiz-adv-x="320" 
d="M290 750h-75v-150h60v-110h-60v-490h-110v490h-65v110h65v260h185v-110z" />
    <glyph glyph-name="g" unicode="g" horiz-adv-x="722" 
d="M572 600h110l-32 -105v-205q0 -109 -74.5 -191.5t-183.5 -99.5l-27 -69h280v-110h-600v110h200l29 74q-102 24 -168 106.5t-66 189.5q0 127 89.5 216t215.5 89q115 0 200 -75zM345 105q81 0 138 57.5t57 137.5q0 81 -57 138t-138 57t-138 -57t-57 -138q0 -80 57 -137.5
t138 -57.5z" />
    <glyph glyph-name="h" unicode="h" horiz-adv-x="690" 
d="M650 313v-313h-112v301q0 80 -57 137t-137 57q-81 0 -137.5 -62t-56.5 -142v-291h-110v860h112v-344q34 41 86 65t107 24q123 0 211.5 -85t93.5 -207z" />
    <glyph glyph-name="i" unicode="i" horiz-adv-x="192" 
d="M151 790v-110h-110v110h110zM40 600h112v-600h-112v600z" />
    <glyph glyph-name="j" unicode="j" horiz-adv-x="225" 
d="M185 790v-110h-110v110h110zM75 600h110v-780h-205v110h95v670z" />
    <glyph glyph-name="k" unicode="k" horiz-adv-x="515" 
d="M440 320v-320h-110v210h-180v-210h-110v860h110v-455l175 195h155l-256 -280h216z" />
    <glyph glyph-name="l" unicode="l" horiz-adv-x="192" 
d="M40 860h112v-860h-112v860z" />
    <glyph glyph-name="m" unicode="m" horiz-adv-x="730" 
d="M690 600v-600h-110v490h-160v-490h-110v490h-160v-490h-110v600h650z" />
    <glyph glyph-name="n" unicode="n" horiz-adv-x="690" 
d="M650 313v-313h-112v301q0 80 -57 137t-137 57q-82 0 -138 -59t-56 -145v-291h-110v600h112v-84q74 89 193 89q123 0 211.5 -85t93.5 -207z" />
    <glyph glyph-name="o" unicode="o" horiz-adv-x="674" 
d="M337 602q125 0 213.5 -88.5t88.5 -213.5t-88.5 -213.5t-213.5 -88.5t-213.5 88.5t-88.5 213.5t88.5 213.5t213.5 88.5zM337 109q79 0 135 55.5t56 135.5t-56 135.5t-135 55.5t-135 -55.5t-56 -135.5t56 -135.5t135 -55.5z" />
    <glyph glyph-name="p" unicode="p" horiz-adv-x="675" 
d="M340 605q124 0 212 -90t88 -215q0 -124 -88 -214.5t-212 -90.5q-55 0 -107 24.5t-81 67.5v-267h-112v780h112v-86q30 40 82.5 65.5t105.5 25.5zM340 105q78 0 134 58t56 137t-56 137t-134 58t-134 -58t-56 -137q0 -78 56.5 -136.5t133.5 -58.5z" />
    <glyph glyph-name="q" unicode="q" horiz-adv-x="720" 
d="M562 600h118l-40 -146v-634h-112v266q-30 -44 -81 -67.5t-107 -23.5q-124 0 -212 90t-88 215q0 124 88 214.5t212 90.5q57 0 110.5 -25.5t84.5 -71.5zM340 105q71 0 124.5 49t63.5 119q2 14 2 32q-2 77 -57.5 133.5t-132.5 56.5q-78 0 -134 -58t-56 -137t56 -137t134 -58
z" />
    <glyph glyph-name="r" unicode="r" horiz-adv-x="385" 
d="M345 605h15v-111q-5 1 -16 1q-73 0 -127.5 -48t-64.5 -119q-2 -18 -2 -27v-301h-110v600h112v-84q32 40 85 64.5t108 24.5z" />
    <glyph glyph-name="s" unicode="s" horiz-adv-x="520" 
d="M495 165q0 -77 -61.5 -123.5t-158.5 -46.5q-80 0 -145 33.5t-87 91.5l99 36q11 -28 48.5 -42t84.5 -14q49 0 82 18.5t33 46.5q0 18 -23 32t-44.5 19.5t-57.5 13.5q-9 2 -31 6.5t-31.5 6.5t-27 7t-27.5 9t-22.5 11t-22.5 15q-68 55 -68 133q0 80 69 133.5t161 53.5
q77 0 139.5 -38t83.5 -101l-99 -36q-9 31 -45 50.5t-79 19.5q-59 0 -96 -31q-29 -24 -29 -51q0 -35 33 -53t97 -30q113 -21 158 -55q29 -20 48 -50.5t19 -64.5z" />
    <glyph glyph-name="t" unicode="t" horiz-adv-x="320" 
d="M290 110v-110h-185v490h-65v110h65v260h110v-260h60v-110h-60v-380h75z" />
    <glyph glyph-name="u" unicode="u" horiz-adv-x="690" 
d="M650 600v-600h-112v84q-30 -45 -82 -67t-111 -22q-123 0 -211.5 85t-93.5 207v313h112v-301q0 -80 57 -137t137 -57q82 0 138 55.5t56 138.5v301h110z" />
    <glyph glyph-name="v" unicode="v" horiz-adv-x="480" 
d="M470 600l-140 -600h-180l-140 600h112l118 -506l118 506h112z" />
    <glyph glyph-name="w" unicode="w" horiz-adv-x="840" 
d="M800 600l-135 -600h-180l-65 325l-65 -325h-180l-135 600h112l112 -497l99 497h114l99 -497l112 497h112z" />
    <glyph glyph-name="x" unicode="x" horiz-adv-x="540" 
d="M500 300v-300h-110v190h-240v-195h-110v305h163l-163 300h130l100 -182l100 182h130l-162 -300h162z" />
    <glyph glyph-name="y" unicode="y" horiz-adv-x="535" 
d="M385 600h110v-600h-460v110h225l-225 490h125l225 -490v490z" />
    <glyph glyph-name="z" unicode="z" horiz-adv-x="540" 
d="M500 600v-110l-315 -380h315v-110h-460v110l310 380h-310v110h460z" />
    <glyph glyph-name="braceleft" unicode="{" horiz-adv-x="363" 
d="M280 1040h33v-110h-33q-22 0 -38.5 -16t-16.5 -39v-380q0 -35 -19 -65q19 -30 19 -65v-380q0 -23 16.5 -39t38.5 -16h33v-110h-33q-68 1 -116.5 49.5t-48.5 117.5v320q0 30 -18 54.5t-47 33.5v70q29 9 47 33.5t18 54.5v319q0 69 48 118.5t117 49.5z" />
    <glyph glyph-name="bar" unicode="|" horiz-adv-x="210" 
d="M50 860h110v-1040h-110v1040z" />
    <glyph glyph-name="braceright" unicode="}" horiz-adv-x="363" 
d="M83 1040q69 0 117 -49.5t48 -118.5v-319q0 -30 18 -54.5t47 -33.5v-70q-29 -9 -47 -33.5t-18 -54.5v-320q0 -69 -48.5 -117.5t-116.5 -49.5h-33v110h33q23 0 39 16t16 39v380q0 35 19 65q-19 30 -19 65v380q0 23 -16 39t-39 16h-33v110h33z" />
    <glyph glyph-name="asciitilde" unicode="~" horiz-adv-x="572" 
d="M522 417q0 -62 -44 -106t-106 -44q-57 0 -87 23t-49 63q-12 24 -36 22q-17 -1 -28 -12t-12 -27h-110q1 62 44.5 105.5t105.5 43.5q20 0 36 -4q69 -18 99 -80q10 -24 37 -24q16 0 28 11.5t12 28.5h110z" />
    <glyph glyph-name="exclamdown" unicode="&#xa1;" horiz-adv-x="245" 
d="M195 612q0 -30 -21 -51t-51 -21q-31 0 -52 21t-21 51q0 31 21 52t52 21q30 0 51 -21t21 -52zM70 490h110v-670h-110v670z" />
    <glyph glyph-name="cent" unicode="&#xa2;" horiz-adv-x="661" 
d="M35 300q0 112 72 196.5t179 103.5v92h110v-92q79 -15 140.5 -67.5t89.5 -127.5l-103 -37q-21 56 -71 91.5t-112 35.5q-81 0 -138 -57t-57 -138t57 -138t138 -57q61 0 110.5 34.5t71.5 89.5l103 -37q-28 -74 -89.5 -125.5t-139.5 -66.5v-96h-110v96q-107 19 -179 103.5
t-72 196.5z" />
    <glyph glyph-name="sterling" unicode="&#xa3;" horiz-adv-x="741" 
d="M559 200h110v-200h-628v110h88l35 52q30 43 34.5 95.5t-18.5 99.5l-30 63h-110v110h70v35q0 125 88 212.5t212 87.5q105 0 186 -64.5t105 -163.5l-104 -38q-12 67 -65 111.5t-122 44.5q-79 0 -134.5 -55.5t-55.5 -134.5v-35h204v-110h-163l12 -25q35 -69 28.5 -146
t-52.5 -139h310v90z" />
    <glyph glyph-name="currency" unicode="&#xa4;" 
 />
    <glyph glyph-name="yen" unicode="&#xa5;" horiz-adv-x="696" 
d="M50 860h130l168 -325l168 325h130l-152 -279h104v-110l-164 1l-30 -55v-6h194v-110h-194v-301h-110v301h-196v110h196v2l-32 58h-164v110h104z" />
    <glyph glyph-name="brokenbar" unicode="&#xa6;" 
 />
    <glyph glyph-name="section" unicode="&#xa7;" 
 />
    <glyph glyph-name="copyright" unicode="&#xa9;" 
 />
    <glyph glyph-name="guillemotleft" unicode="&#xab;" horiz-adv-x="551" 
d="M306 650l-180 -235l180 -235h-125l-141 170v130l141 170h125zM506 180l-180 235l180 235h-125l-180 -235l180 -235h125z" />
    <glyph glyph-name="logicalnot" unicode="&#xac;" 
 />
    <glyph glyph-name="registered" unicode="&#xae;" 
 />
    <glyph glyph-name="degree" unicode="&#xb0;" 
 />
    <glyph glyph-name="plusminus" unicode="&#xb1;" horiz-adv-x="465" 
d="M50 362v110h128v128h110v-128h127v-110h-127v-127h-110v127h-128zM50 182h365v-110h-365v110z" />
    <glyph glyph-name="paragraph" unicode="&#xb6;" 
d="M346 760v-860h-110v395h-4q-96 0 -164 68t-68 165q0 96 68 164t164 68h114zM416 760h110v-860h-110v860z" />
    <glyph glyph-name="periodcentered" unicode="&#xb7;" 
 />
    <glyph glyph-name="guillemotright" unicode="&#xbb;" horiz-adv-x="551" 
d="M45 180h125l180 235l-180 235h-125l180 -235zM245 650h125l141 -170v-130l-141 -170h-125l180 235z" />
    <glyph glyph-name="questiondown" unicode="&#xbf;" horiz-adv-x="675" 
d="M333 545q-31 0 -52 21t-21 51q0 31 21.5 52t51.5 21q29 0 50.5 -21.5t21.5 -51.5t-21 -51t-51 -21zM335 -180q-108 0 -191 68.5t-104 174.5l106 39q7 -73 61 -122.5t128 -49.5q79 0 134.5 55.5t55.5 134.5t-55.5 134.5t-134.5 55.5h-55v185h110v-80q105 -20 175 -103
t70 -192q0 -124 -88 -212t-212 -88z" />
    <glyph glyph-name="Agrave" unicode="&#xc0;" horiz-adv-x="593" 
d="M272 1040l75 -120h-110l-105 120h140zM474 0l-74 310h-209l-72 -310h-115l205 860h170l210 -860h-115zM217 420h157l-79 330h-2z" />
    <glyph glyph-name="Aacute" unicode="&#xc1;" horiz-adv-x="593" 
d="M317 1040h140l-105 -120h-110zM474 0l-74 310h-209l-72 -310h-115l205 860h170l210 -860h-115zM217 420h157l-79 330h-2z" />
    <glyph glyph-name="Acircumflex" unicode="&#xc2;" horiz-adv-x="593" 
d="M148 920l97 120h104l97 -120h-120l-29 52l-29 -52h-120zM474 0l-74 310h-209l-72 -310h-115l205 860h170l210 -860h-115zM218 420h157l-79 330h-2z" />
    <glyph glyph-name="Atilde" unicode="&#xc3;" horiz-adv-x="593" 
d="M490 1029q0 -49 -34.5 -84t-82.5 -35q-28 0 -50 13.5t-33.5 30t-25.5 30t-28 13.5q-31 0 -31 -32h-88q1 49 36 83.5t83 34.5q30 0 51.5 -13.5t31.5 -29t24 -29t30 -13.5q12 0 21.5 9t9.5 22h86zM474 0l-74 310h-209l-72 -310h-115l205 860h170l210 -860h-115zM217 420
h157l-79 330h-2z" />
    <glyph glyph-name="Adieresis" unicode="&#xc4;" horiz-adv-x="593" 
d="M204 910q-27 0 -46 19t-19 46t19 46t46 19t46 -19t19 -46t-19 -46t-46 -19zM384 910q-27 0 -46 19t-19 46t19 46t46 19t46 -19t19 -46t-19 -46t-46 -19zM474 0l-74 310h-209l-72 -310h-115l205 860h170l210 -860h-115zM217 420h157l-79 330h-2z" />
    <glyph glyph-name="Aring" unicode="&#xc5;" horiz-adv-x="593" 
d="M293 1180q53 0 91.5 -38t38.5 -92q0 -53 -38.5 -91.5t-91.5 -38.5q-54 0 -92 38.5t-38 91.5q0 54 38 92t92 38zM293 1010q17 0 28.5 12t11.5 28q0 17 -11.5 28.5t-28.5 11.5t-28.5 -11.5t-11.5 -28.5t11.5 -28.5t28.5 -11.5zM474 0l-74 310h-209l-72 -310h-115l205 860
h170l210 -860h-115zM217 420h157l-79 330h-2z" />
    <glyph glyph-name="AE" unicode="&#xc6;" horiz-adv-x="895" 
d="M40 0l186 860h629v-110h-350v-240h290v-110h-290v-290h350v-110h-460v310h-179l-66 -310h-110zM234 420h161v330h-89z" />
    <glyph glyph-name="Ccedilla" unicode="&#xc7;" horiz-adv-x="902" 
d="M695 200q38 40 63 89l104 -38q-47 -104 -140.5 -172.5t-210.5 -81.5l-26 -33q13 -15 38.5 -44t38.5 -44l-69 -107h-166v94h123l-78 92l24 46q-156 25 -261 146.5t-105 282.5q0 180 127.5 307.5t307.5 127.5q138 0 249 -78t158 -203l-103 -38q-27 67 -74 114
q-95 95 -230 95q-137 0 -230 -95q-95 -97 -95 -230q0 -137 95 -230q97 -95 230 -95q140 0 230 95z" />
    <glyph glyph-name="Egrave" unicode="&#xc8;" horiz-adv-x="550" 
d="M272 1040l75 -120h-110l-105 120h140zM160 400v-290h350v-110h-460v860h460v-110h-350v-240h290v-110h-290z" />
    <glyph glyph-name="Eacute" unicode="&#xc9;" horiz-adv-x="550" 
d="M287 1040h140l-105 -120h-110zM160 400v-290h350v-110h-460v860h460v-110h-350v-240h290v-110h-290z" />
    <glyph glyph-name="Ecircumflex" unicode="&#xca;" horiz-adv-x="550" 
d="M128 920l97 120h104l97 -120h-120l-29 52l-29 -52h-120zM160 400v-290h350v-110h-460v860h460v-110h-350v-240h290v-110h-290z" />
    <glyph glyph-name="Edieresis" unicode="&#xcb;" horiz-adv-x="550" 
d="M190 910q-27 0 -46 19t-19 46t19 46t46 19t46 -19t19 -46t-19 -46t-46 -19zM370 910q-27 0 -46 19t-19 46t19 46t46 19t46 -19t19 -46t-19 -46t-46 -19zM160 400v-290h350v-110h-460v860h460v-110h-350v-240h290v-110h-290z" />
    <glyph glyph-name="Igrave" unicode="&#xcc;" horiz-adv-x="340" 
d="M145 1040l75 -120h-110l-105 120h140zM305 750h-80v-640h80v-110h-270v110h80v640h-80v110h270v-110z" />
    <glyph glyph-name="Iacute" unicode="&#xcd;" horiz-adv-x="340" 
d="M198 1040h140l-105 -120h-110zM305 750h-80v-640h80v-110h-270v110h80v640h-80v110h270v-110z" />
    <glyph glyph-name="Icircumflex" unicode="&#xce;" horiz-adv-x="368" 
d="M35 920l97 120h104l97 -120h-120l-29 52l-29 -52h-120zM319 750h-80v-640h80v-110h-270v110h80v640h-80v110h270v-110z" />
    <glyph glyph-name="Idieresis" unicode="&#xcf;" horiz-adv-x="340" 
d="M80 910q-27 0 -46 19t-19 46t19 46t46 19t46 -19t19 -46t-19 -46t-46 -19zM260 910q-27 0 -46 19t-19 46t19 46t46 19t46 -19t19 -46t-19 -46t-46 -19zM305 750h-80v-640h80v-110h-270v110h80v640h-80v110h270v-110z" />
    <glyph glyph-name="Eth" unicode="&#xd0;" horiz-adv-x="685" 
d="M-1 435v110h51v315h170q178 0 304 -126t126 -304t-126 -304t-304 -126h-170v435h-51zM160 110h60q134 0 226 94q94 92 94 226t-94 226q-92 94 -226 94h-60v-205h116v-110h-116v-325z" />
    <glyph glyph-name="Ntilde" unicode="&#xd1;" horiz-adv-x="560" 
d="M467 1029q0 -49 -34.5 -84t-82.5 -35q-28 0 -50 13.5t-33.5 30t-25.5 30t-28 13.5q-31 0 -31 -32h-88q1 49 36 83.5t83 34.5q30 0 51.5 -13.5t31.5 -29t24 -29t30 -13.5q12 0 21.5 9t9.5 22h86zM400 860h110v-860h-110l-240 540v-540h-110v860h110l240 -540v540z" />
    <glyph glyph-name="Ograve" unicode="&#xd2;" horiz-adv-x="940" 
d="M451 1040l75 -120h-110l-105 120h140zM470 865q180 0 307.5 -127.5t127.5 -307.5t-127.5 -307.5t-307.5 -127.5t-307.5 127.5t-127.5 307.5t127.5 307.5t307.5 127.5zM700 200q95 97 95 230t-95 230q-97 95 -230 95t-230 -95q-95 -97 -95 -230t95 -230q97 -95 230 -95
t230 95z" />
    <glyph glyph-name="Oacute" unicode="&#xd3;" horiz-adv-x="940" 
d="M485 1040h140l-105 -120h-110zM470 865q180 0 307.5 -127.5t127.5 -307.5t-127.5 -307.5t-307.5 -127.5t-307.5 127.5t-127.5 307.5t127.5 307.5t307.5 127.5zM700 200q95 97 95 230t-95 230q-97 95 -230 95t-230 -95q-95 -97 -95 -230t95 -230q97 -95 230 -95t230 95z
" />
    <glyph glyph-name="Ocircumflex" unicode="&#xd4;" horiz-adv-x="940" 
d="M321 920l97 120h104l97 -120h-120l-29 52l-29 -52h-120zM470 865q180 0 307.5 -127.5t127.5 -307.5t-127.5 -307.5t-307.5 -127.5t-307.5 127.5t-127.5 307.5t127.5 307.5t307.5 127.5zM700 200q95 97 95 230t-95 230q-97 95 -230 95t-230 -95q-95 -97 -95 -230t95 -230
q97 -95 230 -95t230 95z" />
    <glyph glyph-name="Otilde" unicode="&#xd5;" horiz-adv-x="940" 
d="M657 1029q0 -49 -34.5 -84t-82.5 -35q-28 0 -50 13.5t-33.5 30t-25.5 30t-28 13.5q-31 0 -31 -32h-88q1 49 36 83.5t83 34.5q30 0 51.5 -13.5t31.5 -29t24 -29t30 -13.5q12 0 21.5 9t9.5 22h86zM470 865q180 0 307.5 -127.5t127.5 -307.5t-127.5 -307.5t-307.5 -127.5
t-307.5 127.5t-127.5 307.5t127.5 307.5t307.5 127.5zM700 200q95 97 95 230t-95 230q-97 95 -230 95t-230 -95q-95 -97 -95 -230t95 -230q97 -95 230 -95t230 95z" />
    <glyph glyph-name="Odieresis" unicode="&#xd6;" horiz-adv-x="940" 
d="M360 910q-27 0 -46 19t-19 46t19 46t46 19t46 -19t19 -46t-19 -46t-46 -19zM580 910q-27 0 -46 19t-19 46t19 46t46 19t46 -19t19 -46t-19 -46t-46 -19zM470 865q180 0 307.5 -127.5t127.5 -307.5t-127.5 -307.5t-307.5 -127.5t-307.5 127.5t-127.5 307.5t127.5 307.5
t307.5 127.5zM700 200q95 97 95 230t-95 230q-97 95 -230 95t-230 -95q-95 -97 -95 -230t95 -230q97 -95 230 -95t230 95z" />
    <glyph glyph-name="multiply" unicode="&#xd7;" horiz-adv-x="437" 
d="M50 504l78 78l91 -91l90 91l78 -78l-91 -91l90 -90l-78 -77l-89 90l-90 -90l-78 77l90 90z" />
    <glyph glyph-name="Oslash" unicode="&#xd8;" horiz-adv-x="940" 
d="M35 430q0 180 127.5 307.5t307.5 127.5q143 0 258 -85l71 80h130l-130 -146q106 -122 106 -284q0 -180 -127.5 -307.5t-307.5 -127.5q-133 0 -242 74l-61 -69h-130l117 132q-119 125 -119 298zM145 430q0 -123 82 -216l428 483q-82 58 -185 58q-133 0 -230 -95
q-95 -97 -95 -230zM302 152q76 -47 168 -47q133 0 230 95q95 97 95 230q0 110 -69 201z" />
    <glyph glyph-name="Ugrave" unicode="&#xd9;" horiz-adv-x="560" 
d="M258 1040l75 -120h-110l-105 120h140zM400 860h110v-640q-2 -94 -69 -159.5t-161 -65.5t-161 65.5t-69 159.5v640h110v-635q0 -49 35 -84.5t85 -35.5t85 35.5t35 84.5v635z" />
    <glyph glyph-name="Uacute" unicode="&#xda;" horiz-adv-x="560" 
d="M297 1040h140l-105 -120h-110zM400 860h110v-640q-2 -94 -69 -159.5t-161 -65.5t-161 65.5t-69 159.5v640h110v-635q0 -49 35 -84.5t85 -35.5t85 35.5t35 84.5v635z" />
    <glyph glyph-name="Ucircumflex" unicode="&#xdb;" horiz-adv-x="560" 
d="M131 920l97 120h104l97 -120h-120l-29 52l-29 -52h-120zM400 860h110v-640q-2 -94 -69 -159.5t-161 -65.5t-161 65.5t-69 159.5v640h110v-635q0 -49 35 -84.5t85 -35.5t85 35.5t35 84.5v635z" />
    <glyph glyph-name="Udieresis" unicode="&#xdc;" horiz-adv-x="560" 
d="M187 910q-27 0 -46 19t-19 46t19 46t46 19t46 -19t19 -46t-19 -46t-46 -19zM367 910q-27 0 -46 19t-19 46t19 46t46 19t46 -19t19 -46t-19 -46t-46 -19zM400 860h110v-640q-2 -94 -69 -159.5t-161 -65.5t-161 65.5t-69 159.5v640h110v-635q0 -49 35 -84.5t85 -35.5
t85 35.5t35 84.5v635z" />
    <glyph glyph-name="Yacute" unicode="&#xdd;" horiz-adv-x="545" 
d="M293 1040h140l-105 -120h-110zM495 860v-860h-460v110h233l-223 750h120l220 -742v742h110z" />
    <glyph glyph-name="Thorn" unicode="&#xde;" 
d="M50 0v1040h110v-220h60q120 0 205 -86t85 -206q0 -121 -85 -207t-205 -86h-60v-235h-110zM160 345h60q74 0 127 54t53 129q0 74 -53 128t-127 54h-60v-365z" />
    <glyph glyph-name="germandbls" unicode="&#xdf;" horiz-adv-x="565" 
d="M424 443q86 -76 86 -191q0 -104 -74 -178t-178 -74h-38v110h45q56 3 95.5 44t39.5 98q0 65 -46.5 104.5t-133.5 38.5v110q185 0 185 122q0 51 -36 87t-86 36q-20 0 -38 -6q-37 -12 -61 -43.5t-24 -70.5v-630h-110v627q0 68 35 123q29 46 75 75q56 35 120 35h3
q96 0 164 -68t68 -165q0 -55 -24.5 -103.5t-66.5 -80.5z" />
    <glyph glyph-name="agrave" unicode="&#xe0;" horiz-adv-x="715" 
d="M315 860l75 -120h-110l-105 120h140zM645 126l40 -126h-118l-27 89v1q-30 -43 -86 -69t-114 -26q-126 0 -215.5 89.5t-89.5 215.5t89.5 215.5t215.5 89.5q56 0 110 -25t85 -65v85h110v-474zM340 107q80 0 136.5 56.5t56.5 136.5t-56.5 136.5t-136.5 56.5t-136.5 -56.5
t-56.5 -136.5t56.5 -136.5t136.5 -56.5z" />
    <glyph glyph-name="aacute" unicode="&#xe1;" horiz-adv-x="715" 
d="M355 860h140l-105 -120h-110zM645 126l40 -126h-118l-27 89v1q-30 -43 -86 -69t-114 -26q-126 0 -215.5 89.5t-89.5 215.5t89.5 215.5t215.5 89.5q56 0 110 -25t85 -65v85h110v-474zM340 107q80 0 136.5 56.5t56.5 136.5t-56.5 136.5t-136.5 56.5t-136.5 -56.5
t-56.5 -136.5t56.5 -136.5t136.5 -56.5z" />
    <glyph glyph-name="acircumflex" unicode="&#xe2;" horiz-adv-x="715" 
d="M192 740l97 120h104l97 -120h-120l-29 52l-29 -52h-120zM645 126l40 -126h-118l-27 89v1q-30 -43 -86 -69t-114 -26q-126 0 -215.5 89.5t-89.5 215.5t89.5 215.5t215.5 89.5q56 0 110 -25t85 -65v85h110v-474zM340 107q80 0 136.5 56.5t56.5 136.5t-56.5 136.5
t-136.5 56.5t-136.5 -56.5t-56.5 -136.5t56.5 -136.5t136.5 -56.5z" />
    <glyph glyph-name="atilde" unicode="&#xe3;" horiz-adv-x="715" 
d="M544 860q0 -49 -34.5 -84t-82.5 -35q-28 0 -50 13.5t-33.5 30t-25.5 30t-28 13.5q-31 0 -31 -32h-88q1 49 36 83.5t83 34.5q30 0 51.5 -13.5t31.5 -29t24 -29t30 -13.5q12 0 21.5 9t9.5 22h86zM645 126l40 -126h-118l-27 89v1q-30 -43 -86 -69t-114 -26
q-126 0 -215.5 89.5t-89.5 215.5t89.5 215.5t215.5 89.5q56 0 110 -25t85 -65v85h110v-474zM340 107q80 0 136.5 56.5t56.5 136.5t-56.5 136.5t-136.5 56.5t-136.5 -56.5t-56.5 -136.5t56.5 -136.5t136.5 -56.5z" />
    <glyph glyph-name="adieresis" unicode="&#xe4;" horiz-adv-x="715" 
d="M229 729q-27 0 -46 19t-19 46t19 46t46 19t46 -19t19 -46t-19 -46t-46 -19zM449 729q-27 0 -46 19t-19 46t19 46t46 19t46 -19t19 -46t-19 -46t-46 -19zM645 126l40 -126h-118l-27 89v1q-30 -43 -86 -69t-114 -26q-126 0 -215.5 89.5t-89.5 215.5t89.5 215.5t215.5 89.5
q56 0 110 -25t85 -65v85h110v-474zM340 107q80 0 136.5 56.5t56.5 136.5t-56.5 136.5t-136.5 56.5t-136.5 -56.5t-56.5 -136.5t56.5 -136.5t136.5 -56.5z" />
    <glyph glyph-name="aring" unicode="&#xe5;" horiz-adv-x="715" 
d="M340 955q53 0 91.5 -38t38.5 -92q0 -53 -38.5 -91.5t-91.5 -38.5q-54 0 -92 38.5t-38 91.5q0 54 38 92t92 38zM340 785q16 0 28 11.5t12 28.5t-11.5 28.5t-28.5 11.5t-28.5 -11.5t-11.5 -28.5t11.5 -28.5t28.5 -11.5zM645 126l40 -126h-118l-27 89v1q-30 -43 -86 -69
t-114 -26q-126 0 -215.5 89.5t-89.5 215.5t89.5 215.5t215.5 89.5q56 0 110 -25t85 -65v85h110v-474zM340 107q80 0 136.5 56.5t56.5 136.5t-56.5 136.5t-136.5 56.5t-136.5 -56.5t-56.5 -136.5t56.5 -136.5t136.5 -56.5z" />
    <glyph glyph-name="ae" unicode="&#xe6;" horiz-adv-x="1177" 
d="M35 300q0 126 89.5 215.5t215.5 89.5q56 0 110 -25t85 -65v85h110v-64q83 69 193 69q121 0 209 -83.5t95 -203.5l-36 -58h-457q14 -66 67 -109.5t122 -43.5q101 0 159 84l107 -39q-40 -72 -111 -114.5t-155 -42.5q-80 0 -147.5 38t-108.5 102q-81 -140 -242 -140
q-126 0 -215.5 89.5t-89.5 215.5zM147 300q0 -80 56.5 -136.5t136.5 -56.5t136.5 56.5t56.5 136.5t-56.5 136.5t-136.5 56.5t-136.5 -56.5t-56.5 -136.5zM658 370h360q-21 55 -70 89t-110 34t-110 -34t-70 -89z" />
    <glyph glyph-name="ccedilla" unicode="&#xe7;" horiz-adv-x="661" 
d="M340 105q61 0 110.5 34.5t71.5 89.5l103 -37q-29 -77 -93.5 -129.5t-147.5 -64.5q-15 -20 -26 -34q13 -15 38.5 -44t38.5 -44l-69 -107h-166v94h123l-78 92l25 48q-102 24 -168.5 107t-66.5 190q0 126 89.5 215.5t215.5 89.5q97 0 175 -55.5t111 -144.5l-103 -37
q-21 56 -71 91.5t-112 35.5q-81 0 -138 -57t-57 -138t57 -138t138 -57z" />
    <glyph glyph-name="egrave" unicode="&#xe8;" horiz-adv-x="679" 
d="M315 860l75 -120h-110l-105 120h140zM340 107q101 0 159 84l107 -39q-40 -72 -111 -114.5t-155 -42.5q-127 0 -216 89.5t-89 215.5t89 215.5t216 89.5q121 0 209 -83.5t95 -203.5l-36 -58h-457q14 -66 67 -109.5t122 -43.5zM340 493q-61 0 -110 -34t-70 -89h360
q-21 55 -70 89t-110 34z" />
    <glyph glyph-name="eacute" unicode="&#xe9;" horiz-adv-x="679" 
d="M355 860h140l-105 -120h-110zM340 107q101 0 159 84l107 -39q-40 -72 -111 -114.5t-155 -42.5q-127 0 -216 89.5t-89 215.5t89 215.5t216 89.5q121 0 209 -83.5t95 -203.5l-36 -58h-457q14 -66 67 -109.5t122 -43.5zM340 493q-61 0 -110 -34t-70 -89h360q-21 55 -70 89
t-110 34z" />
    <glyph glyph-name="ecircumflex" unicode="&#xea;" horiz-adv-x="679" 
d="M191 740l97 120h104l97 -120h-120l-29 52l-29 -52h-120zM340 107q101 0 159 84l107 -39q-40 -72 -111 -114.5t-155 -42.5q-127 0 -216 89.5t-89 215.5t89 215.5t216 89.5q121 0 209 -83.5t95 -203.5l-36 -58h-457q14 -66 67 -109.5t122 -43.5zM340 493q-61 0 -110 -34
t-70 -89h360q-21 55 -70 89t-110 34z" />
    <glyph glyph-name="edieresis" unicode="&#xeb;" horiz-adv-x="679" 
d="M228 729q-27 0 -46 19t-19 46t19 46t46 19t46 -19t19 -46t-19 -46t-46 -19zM448 729q-27 0 -46 19t-19 46t19 46t46 19t46 -19t19 -46t-19 -46t-46 -19zM340 107q101 0 159 84l107 -39q-40 -72 -111 -114.5t-155 -42.5q-127 0 -216 89.5t-89 215.5t89 215.5t216 89.5
q121 0 209 -83.5t95 -203.5l-36 -58h-457q14 -66 67 -109.5t122 -43.5zM340 493q-61 0 -110 -34t-70 -89h360q-21 55 -70 89t-110 34z" />
    <glyph glyph-name="igrave" unicode="&#xec;" horiz-adv-x="192" 
d="M76 800l75 -120h-110l-105 120h140zM40 600h112v-600h-112v600z" />
    <glyph glyph-name="iacute" unicode="&#xed;" horiz-adv-x="192" 
d="M117 800h140l-105 -120h-110zM40 600h112v-600h-112v600z" />
    <glyph glyph-name="icircumflex" unicode="&#xee;" horiz-adv-x="192" 
d="M-53 680l97 120h104l97 -120h-120l-29 52l-29 -52h-120zM40 600h112v-600h-112v600z" />
    <glyph glyph-name="idieresis" unicode="&#xef;" horiz-adv-x="192" 
d="M8 680q-27 0 -46 19t-19 46t19 46t46 19t46 -19t19 -46t-19 -46t-46 -19zM188 680q-27 0 -46 19t-19 46t19 46t46 19t46 -19t19 -46t-19 -46t-46 -19zM40 600h112v-600h-112v600z" />
    <glyph glyph-name="eth" unicode="&#xf0;" horiz-adv-x="670" 
d="M635 295q0 -125 -87.5 -212.5t-212.5 -87.5t-212.5 87.5t-87.5 212.5q0 124 88 212t212 88q13 0 20 -1l-44 62l-59 -34l-47 83l51 29l-86 121h140l44 -64l59 34l47 -83l-51 -29q25 -36 59 -84t49 -69.5t37 -54t30.5 -46t20.5 -36t15.5 -33.5t8 -29t5.5 -32t1 -34z
M335 105q79 0 134.5 55.5t55.5 134.5q0 78 -56 134t-134 56q-79 0 -134.5 -55.5t-55.5 -134.5t55.5 -134.5t134.5 -55.5z" />
    <glyph glyph-name="ntilde" unicode="&#xf1;" horiz-adv-x="690" 
d="M544 860q0 -49 -34.5 -84t-82.5 -35q-28 0 -50 13.5t-33.5 30t-25.5 30t-28 13.5q-31 0 -31 -32h-88q1 49 36 83.5t83 34.5q30 0 51.5 -13.5t31.5 -29t24 -29t30 -13.5q12 0 21.5 9t9.5 22h86zM650 313v-313h-112v291q0 84 -57 144t-137 60q-82 0 -138 -59t-56 -145v-291
h-110v600h112v-84q74 89 193 89q123 0 211.5 -85t93.5 -207z" />
    <glyph glyph-name="ograve" unicode="&#xf2;" horiz-adv-x="674" 
d="M315 860l75 -120h-110l-105 120h140zM337 602q125 0 213.5 -88.5t88.5 -213.5t-88.5 -213.5t-213.5 -88.5t-213.5 88.5t-88.5 213.5t88.5 213.5t213.5 88.5zM337 109q79 0 135 55.5t56 135.5t-56 135.5t-135 55.5t-135 -55.5t-56 -135.5t56 -135.5t135 -55.5z" />
    <glyph glyph-name="oacute" unicode="&#xf3;" horiz-adv-x="674" 
d="M355 860h140l-105 -120h-110zM337 602q125 0 213.5 -88.5t88.5 -213.5t-88.5 -213.5t-213.5 -88.5t-213.5 88.5t-88.5 213.5t88.5 213.5t213.5 88.5zM337 109q79 0 135 55.5t56 135.5t-56 135.5t-135 55.5t-135 -55.5t-56 -135.5t56 -135.5t135 -55.5z" />
    <glyph glyph-name="ocircumflex" unicode="&#xf4;" horiz-adv-x="674" 
d="M192 740l97 120h104l97 -120h-120l-29 52l-29 -52h-120zM337 602q125 0 213.5 -88.5t88.5 -213.5t-88.5 -213.5t-213.5 -88.5t-213.5 88.5t-88.5 213.5t88.5 213.5t213.5 88.5zM337 109q79 0 135 55.5t56 135.5t-56 135.5t-135 55.5t-135 -55.5t-56 -135.5t56 -135.5
t135 -55.5z" />
    <glyph glyph-name="otilde" unicode="&#xf5;" horiz-adv-x="674" 
d="M528 860q0 -49 -34.5 -84t-82.5 -35q-28 0 -50 13.5t-33.5 30t-25.5 30t-28 13.5q-31 0 -31 -32h-88q1 49 36 83.5t83 34.5q30 0 51.5 -13.5t31.5 -29t24 -29t30 -13.5q12 0 21.5 9t9.5 22h86zM337 602q125 0 213.5 -88.5t88.5 -213.5t-88.5 -213.5t-213.5 -88.5
t-213.5 88.5t-88.5 213.5t88.5 213.5t213.5 88.5zM337 109q79 0 135 55.5t56 135.5t-56 135.5t-135 55.5t-135 -55.5t-56 -135.5t56 -135.5t135 -55.5z" />
    <glyph glyph-name="odieresis" unicode="&#xf6;" horiz-adv-x="674" 
d="M227 729q-27 0 -46 19t-19 46t19 46t46 19t46 -19t19 -46t-19 -46t-46 -19zM447 729q-27 0 -46 19t-19 46t19 46t46 19t46 -19t19 -46t-19 -46t-46 -19zM337 602q125 0 213.5 -88.5t88.5 -213.5t-88.5 -213.5t-213.5 -88.5t-213.5 88.5t-88.5 213.5t88.5 213.5
t213.5 88.5zM337 109q79 0 135 55.5t56 135.5t-56 135.5t-135 55.5t-135 -55.5t-56 -135.5t56 -135.5t135 -55.5z" />
    <glyph glyph-name="divide" unicode="&#xf7;" horiz-adv-x="465" 
d="M305 571q0 -31 -21 -52t-52 -21q-30 0 -51 21t-21 52q0 30 21 51t51 21q31 0 52 -21t21 -51zM50 458h365v-110h-365v110zM305 227q0 -31 -21 -52t-52 -21q-30 0 -51 21t-21 52q0 30 21 51t51 21q31 0 52 -21t21 -51z" />
    <glyph glyph-name="oslash" unicode="&#xf8;" horiz-adv-x="674" 
d="M0 0l101 111q-66 84 -66 189q0 125 88.5 213.5t213.5 88.5q89 0 164 -48l42 46h131l-101 -111q66 -84 66 -189q0 -125 -88.5 -213.5t-213.5 -88.5q-89 0 -164 48l-42 -46h-131zM146 300q0 -58 31 -105l248 275q-42 21 -88 21q-79 0 -135 -55.5t-56 -135.5zM249 130
q42 -21 88 -21q79 0 135 55.5t56 135.5q0 58 -31 105z" />
    <glyph glyph-name="ugrave" unicode="&#xf9;" horiz-adv-x="690" 
d="M335 860l75 -120h-110l-105 120h140zM650 600v-600h-112v84q-30 -45 -82 -67t-111 -22q-123 0 -211.5 85t-93.5 207v313h112v-301q0 -80 57 -137t137 -57q82 0 138 55.5t56 138.5v301h110z" />
    <glyph glyph-name="uacute" unicode="&#xfa;" horiz-adv-x="690" 
d="M355 860h140l-105 -120h-110zM650 600v-600h-112v84q-30 -45 -82 -67t-111 -22q-123 0 -211.5 85t-93.5 207v313h112v-301q0 -80 57 -137t137 -57q82 0 138 55.5t56 138.5v301h110z" />
    <glyph glyph-name="ucircumflex" unicode="&#xfb;" horiz-adv-x="690" 
d="M192 740l97 120h104l97 -120h-120l-29 52l-29 -52h-120zM650 600v-600h-112v84q-30 -45 -82 -67t-111 -22q-123 0 -211.5 85t-93.5 207v313h112v-301q0 -80 57 -137t137 -57q82 0 138 55.5t56 138.5v301h110z" />
    <glyph glyph-name="udieresis" unicode="&#xfc;" horiz-adv-x="690" 
d="M231 729q-27 0 -46 19t-19 46t19 46t46 19t46 -19t19 -46t-19 -46t-46 -19zM451 729q-27 0 -46 19t-19 46t19 46t46 19t46 -19t19 -46t-19 -46t-46 -19zM650 600v-600h-112v84q-30 -45 -82 -67t-111 -22q-123 0 -211.5 85t-93.5 207v313h112v-301q0 -80 57 -137t137 -57
q82 0 138 55.5t56 138.5v301h110z" />
    <glyph glyph-name="yacute" unicode="&#xfd;" horiz-adv-x="535" 
d="M286 860h140l-105 -120h-110zM385 600h110v-600h-460v110h225l-225 490h125l225 -490v490z" />
    <glyph glyph-name="thorn" unicode="&#xfe;" 
d="M340 605q124 0 212 -90t88 -215q0 -124 -88 -214.5t-212 -90.5q-101 0 -188 72v-247h-112v1040h112v-326q88 71 188 71zM340 105q78 0 134 58t56 137t-56 137t-134 58t-134 -58t-56 -137q0 -78 56.5 -136.5t133.5 -58.5z" />
    <glyph glyph-name="ydieresis" unicode="&#xff;" horiz-adv-x="535" 
d="M151 729q-27 0 -46 19t-19 46t19 46t46 19t46 -19t19 -46t-19 -46t-46 -19zM371 729q-27 0 -46 19t-19 46t19 46t46 19t46 -19t19 -46t-19 -46t-46 -19zM385 600h110v-600h-460v110h225l-225 490h125l225 -490v490z" />
    <glyph glyph-name="OE" unicode="&#x152;" horiz-adv-x="1290" 
d="M35 430q0 180 127.5 307.5t307.5 127.5q95 0 179.5 -38.5t145.5 -107.5v141h460v-110h-350v-240h290v-110h-290v-290h350v-110h-460v141q-61 -69 -145.5 -107.5t-179.5 -38.5q-180 0 -307.5 127.5t-127.5 307.5zM145 430q0 -133 95 -230q97 -95 230 -95t230 95
q95 97 95 230t-95 230q-97 95 -230 95t-230 -95q-95 -97 -95 -230z" />
    <glyph glyph-name="oe" unicode="&#x153;" horiz-adv-x="1172" 
d="M35 300q0 125 88.5 213.5t213.5 88.5q75 0 140 -34t106 -93q42 60 107.5 95t142.5 35q121 0 209 -83.5t95 -203.5l-36 -58h-457q14 -66 67 -109.5t122 -43.5q101 0 159 84l107 -39q-40 -72 -111 -114.5t-155 -42.5q-77 0 -142.5 35t-107.5 95q-41 -59 -106 -93t-140 -34
q-125 0 -213.5 88.5t-88.5 213.5zM653 370h360q-21 55 -70 89t-110 34t-110 -34t-70 -89zM146 300q0 -80 56 -135.5t135 -55.5t135 55.5t56 135.5t-56 135.5t-135 55.5t-135 -55.5t-56 -135.5z" />
    <glyph glyph-name="Wcircumflex" unicode="&#x174;" horiz-adv-x="830" 
d="M266 920l97 120h104l97 -120h-120l-29 52l-29 -52h-120zM676 860h114l-125 -860h-173l-76 620l-76 -620h-177l-123 860h115l106 -715l74 715h160l76 -715z" />
    <glyph glyph-name="wcircumflex" unicode="&#x175;" horiz-adv-x="840" 
d="M271 740l97 120h104l97 -120h-120l-29 52l-29 -52h-120zM800 600l-135 -600h-180l-65 325l-65 -325h-180l-135 600h112l112 -497l99 497h114l99 -497l112 497h112z" />
    <glyph glyph-name="Ycircumflex" unicode="&#x176;" horiz-adv-x="545" 
d="M119 920l97 120h104l97 -120h-120l-29 52l-29 -52h-120zM495 860v-860h-460v110h233l-223 750h120l220 -742v742h110z" />
    <glyph glyph-name="ycircumflex" unicode="&#x177;" horiz-adv-x="535" 
d="M120 740l97 120h104l97 -120h-120l-29 52l-29 -52h-120zM385 600h110v-600h-460v110h225l-225 490h125l225 -490v490z" />
    <glyph glyph-name="Ydieresis" unicode="&#x178;" horiz-adv-x="545" 
d="M190 910q-27 0 -46 19t-19 46t19 46t46 19t46 -19t19 -46t-19 -46t-46 -19zM370 910q-27 0 -46 19t-19 46t19 46t46 19t46 -19t19 -46t-19 -46t-46 -19zM495 860v-860h-460v110h233l-223 750h120l220 -742v742h110z" />
    <glyph glyph-name="gravecomb" unicode="&#x300;" horiz-adv-x="0" 
d="M-110 1040l75 -120h-110l-105 120h140z" />
    <glyph glyph-name="acutecomb" unicode="&#x301;" horiz-adv-x="0" 
 />
    <glyph glyph-name="uni0302" unicode="&#x302;" horiz-adv-x="0" 
 />
    <glyph glyph-name="tildecomb" unicode="&#x303;" horiz-adv-x="0" 
 />
    <glyph glyph-name="uni0307" unicode="&#x307;" horiz-adv-x="0" 
 />
    <glyph glyph-name="uni0308" unicode="&#x308;" horiz-adv-x="0" 
 />
    <glyph glyph-name="uni030A" unicode="&#x30a;" horiz-adv-x="0" 
 />
    <glyph glyph-name="uni0327" unicode="&#x327;" horiz-adv-x="0" 
 />
    <glyph glyph-name="uni0335" unicode="&#x335;" horiz-adv-x="0" 
 />
    <glyph glyph-name="uni0338" unicode="&#x338;" horiz-adv-x="0" 
 />
    <glyph glyph-name="uni0401" unicode="&#x401;" horiz-adv-x="550" 
d="M190 910q-27 0 -46 19t-19 46t19 46t46 19t46 -19t19 -46t-19 -46t-46 -19zM370 910q-27 0 -46 19t-19 46t19 46t46 19t46 -19t19 -46t-19 -46t-46 -19zM160 400v-290h350v-110h-460v860h460v-110h-350v-240h290v-110h-290z" />
    <glyph glyph-name="uni0410" unicode="&#x410;" horiz-adv-x="593" 
d="M474 0l-74 310h-209l-72 -310h-115l205 860h170l210 -860h-115zM217 420h157l-79 330h-2z" />
    <glyph glyph-name="uni0411" unicode="&#x411;" horiz-adv-x="540" 
d="M220 585q120 0 205 -86t85 -206q0 -121 -85 -207t-205 -86h-170v860h415v-110h-305v-165h60zM220 110q74 0 127 54t53 129q0 74 -53 128t-127 54h-60v-365h60z" />
    <glyph glyph-name="uni0412" unicode="&#x412;" horiz-adv-x="550" 
d="M400 461q50 -34 80 -89.5t30 -118.5q0 -105 -74 -179t-178 -74h-18h-190v860h190q95 -1 162.5 -69t67.5 -163q0 -99 -70 -167zM160 750v-245h85q48 3 81.5 38.5t33.5 84.5t-33.5 84t-81.5 38h-85zM265 110q57 3 96 44.5t39 98.5t-39.5 98t-95.5 44h-105v-285h105z" />
    <glyph glyph-name="uni0413" unicode="&#x413;" horiz-adv-x="470" 
d="M435 860v-110h-275v-750h-110v860h385z" />
    <glyph glyph-name="uni0414" unicode="&#x414;" horiz-adv-x="740" 
d="M605 -70v70h-470v-70h-110v180h76l174 750h190l179 -750h71v-180h-110zM369 749l-148 -639h303z" />
    <glyph glyph-name="uni0415" unicode="&#x415;" horiz-adv-x="550" 
d="M160 400v-290h350v-110h-460v860h460v-110h-350v-240h290v-110h-290z" />
    <glyph glyph-name="uni0416" unicode="&#x416;" horiz-adv-x="870" 
d="M785 485v-485h-110v375h-185v-375h-110v375h-185v-375h-110v485h165l-230 375h135l225 -369v369h110v-369l225 369h135l-230 -375h165z" />
    <glyph glyph-name="uni0417" unicode="&#x417;" horiz-adv-x="680" 
d="M640 860v-110l-189 -176q84 -33 136.5 -109t52.5 -170q0 -125 -88 -212.5t-212 -87.5q-105 0 -186.5 65t-105.5 164l105 38q11 -67 64 -112t123 -45q79 0 134.5 55.5t55.5 134.5t-55.5 134.5t-134.5 55.5h-30v110l165 155h-435v110h600z" />
    <glyph glyph-name="uni0418" unicode="&#x418;" horiz-adv-x="560" 
d="M400 860h110v-860h-110v570l-240 -570h-110v860h110v-575z" />
    <glyph glyph-name="uni0419" unicode="&#x419;" horiz-adv-x="560" 
d="M278 915q-31 0 -52 21t-21 52q0 30 21 51t52 21q30 0 51 -21t21 -51q0 -31 -21 -52t-51 -21zM400 860h110v-860h-110v570l-240 -570h-110v860h110v-575z" />
    <glyph glyph-name="uni041A" unicode="&#x41a;" horiz-adv-x="665" 
d="M585 485v-485h-110v375h-315v-375h-110v860h110v-374l345 374h145l-340 -375h275z" />
    <glyph glyph-name="uni041B" unicode="&#x41b;" horiz-adv-x="603" 
d="M479 0l-179 750h-2l-174 -750h-114l200 860h178l205 -860h-114z" />
    <glyph glyph-name="uni041C" unicode="&#x41c;" horiz-adv-x="700" 
d="M650 860v-860h-110v565l-110 -565h-160l-110 565v-565h-110v860h165l135 -720l125 720h175z" />
    <glyph glyph-name="uni041D" unicode="&#x41d;" horiz-adv-x="560" 
d="M400 860h110v-860h-110v375h-240v-375h-110v860h110v-375h240v375z" />
    <glyph glyph-name="uni041E" unicode="&#x41e;" horiz-adv-x="940" 
d="M470 865q180 0 307.5 -127.5t127.5 -307.5t-127.5 -307.5t-307.5 -127.5t-307.5 127.5t-127.5 307.5t127.5 307.5t307.5 127.5zM700 200q95 97 95 230t-95 230q-97 95 -230 95t-230 -95q-95 -97 -95 -230t95 -230q97 -95 230 -95t230 95z" />
    <glyph glyph-name="uni041F" unicode="&#x41f;" horiz-adv-x="560" 
d="M510 860v-860h-110v750h-240v-750h-110v860h460z" />
    <glyph glyph-name="uni0420" unicode="&#x420;" horiz-adv-x="545" 
d="M220 860q120 -1 205 -86.5t85 -205.5q0 -121 -85 -206.5t-205 -86.5h-60v-275h-110v860h170zM220 385q74 1 127 54.5t53 128.5q0 74 -53 127.5t-127 54.5h-60v-365h60z" />
    <glyph glyph-name="uni0421" unicode="&#x421;" horiz-adv-x="902" 
d="M695 200q38 40 63 89l104 -38q-52 -115 -159 -185.5t-238 -70.5q-180 0 -307.5 127.5t-127.5 307.5t127.5 307.5t307.5 127.5q138 0 249 -78t158 -203l-103 -38q-27 67 -74 114q-95 95 -230 95q-137 0 -230 -95q-95 -97 -95 -230q0 -137 95 -230q97 -95 230 -95
q140 0 230 95z" />
    <glyph glyph-name="uni0422" unicode="&#x422;" horiz-adv-x="520" 
d="M490 860v-110h-175v-750h-110v750h-175v110h460z" />
    <glyph glyph-name="uni0423" unicode="&#x423;" horiz-adv-x="530" 
d="M480 860v-860h-460v110h233l-223 750h120l220 -742v742h110z" />
    <glyph glyph-name="uni0424" unicode="&#x424;" horiz-adv-x="930" 
d="M900 430q0 -165 -109.5 -288t-270.5 -143v-179h-110v179q-161 20 -270.5 143t-109.5 288q0 180 127.5 307.5t307.5 127.5t307.5 -127.5t127.5 -307.5zM235 200q73 -73 175 -90v641q-103 -19 -175 -91q-95 -95 -95 -230q0 -133 95 -230zM520 110q102 17 175 90
q95 97 95 230q0 135 -95 230q-72 72 -175 91v-641z" />
    <glyph glyph-name="uni0425" unicode="&#x425;" horiz-adv-x="560" 
d="M510 415v-415h-110v305h-240v-305h-110v415h106l-104 445h123l104 -445h2l104 445h122l-104 -445h107z" />
    <glyph glyph-name="uni0426" unicode="&#x426;" horiz-adv-x="620" 
d="M595 -70h-110v70h-435v860h110v-750h240v750h110v-750h85v-180z" />
    <glyph glyph-name="uni0427" unicode="&#x427;" horiz-adv-x="560" 
d="M400 860h110v-860h-110v305h-350v555h110v-445h240v445z" />
    <glyph glyph-name="uni0428" unicode="&#x428;" horiz-adv-x="700" 
d="M540 860h110v-860h-600v860h110v-750h135v750h110v-750h135v750z" />
    <glyph glyph-name="uni0429" unicode="&#x429;" horiz-adv-x="755" 
d="M735 110v-180h-110v70h-575v860h110v-750h135v750h110v-750h135v750h110v-750h85z" />
    <glyph glyph-name="uni042A" unicode="&#x42a;" horiz-adv-x="580" 
d="M260 585q120 -1 205 -86.5t85 -206.5q0 -120 -85 -205.5t-205 -86.5h-170v750h-70v110h180v-275h60zM260 110q74 1 127 54.5t53 127.5q0 75 -53 128.5t-127 54.5h-60v-365h60z" />
    <glyph glyph-name="uni042B" unicode="&#x42b;" horiz-adv-x="720" 
d="M220 585q121 -2 205.5 -87t84.5 -206q0 -120 -84.5 -205.5t-205.5 -86.5h-170v860h110v-275h60zM670 860v-860h-110v860h110zM220 110q75 1 127.5 54t52.5 128t-52.5 128t-127.5 55h-60v-365h60z" />
    <glyph glyph-name="uni042C" unicode="&#x42c;" horiz-adv-x="540" 
d="M220 585q120 -1 205 -86.5t85 -206.5q0 -120 -85 -205.5t-205 -86.5h-170v860h110v-275h60zM220 110q74 1 127 54.5t53 127.5q0 75 -53 128.5t-127 54.5h-60v-365h60z" />
    <glyph glyph-name="uni042D" unicode="&#x42d;" horiz-adv-x="902" 
d="M437 865q180 0 307.5 -127t127.5 -308q0 -180 -127.5 -307.5t-307.5 -127.5q-131 0 -238 71t-159 186l104 38q22 -48 63 -89q94 -96 230 -96q134 0 230 96q73 73 90 174h-340v110h340q-17 102 -90 175q-95 95 -230 95q-137 0 -230 -95q-49 -48 -74 -113l-103 38
q47 125 158 202.5t249 77.5z" />
    <glyph glyph-name="uni042E" unicode="&#x42e;" horiz-adv-x="1070" 
d="M50 0v860h100v-375h62q20 161 137.5 270.5t272.5 109.5q170 0 291.5 -127.5t121.5 -307.5t-121.5 -307.5t-291.5 -127.5q-155 0 -272.5 109.5t-137.5 270.5h-62v-375h-100zM319 430q0 -135 88.5 -230t214.5 -95q127 0 215 95t88 230t-88 230t-215 95q-126 0 -214.5 -95
t-88.5 -230z" />
    <glyph glyph-name="uni042F" unicode="&#x42f;" horiz-adv-x="540" 
d="M490 860v-860h-110v275h-58l-107 -275h-115l115 295q-82 33 -133.5 107t-51.5 165q0 121 85 207t205 86h170zM140 567q0 -74 53 -128t127 -54h60v365h-60q-74 0 -127 -54t-53 -129z" />
    <glyph glyph-name="uni0430" unicode="&#x430;" horiz-adv-x="710" 
d="M640 126l40 -126h-118l-27 89v1q-30 -43 -86 -69t-114 -26q-126 0 -215.5 89.5t-89.5 215.5t89.5 215.5t215.5 89.5q56 0 110 -25t85 -65v85h110v-474zM335 107q80 0 136.5 56.5t56.5 136.5t-56.5 136.5t-136.5 56.5t-136.5 -56.5t-56.5 -136.5t56.5 -136.5t136.5 -56.5z
" />
    <glyph glyph-name="uni0431" unicode="&#x431;" horiz-adv-x="695" 
d="M655 675h-505v-144q83 69 193 69q125 0 213.5 -88.5t88.5 -213.5q0 -126 -88.5 -214.5t-213.5 -88.5q-126 0 -214.5 88.5t-88.5 214.5v487h505v75h110v-185zM343 489q-79 0 -135.5 -56t-56.5 -135q0 -80 56.5 -136t135.5 -56t135 56.5t56 135.5t-56 135t-135 56z" />
    <glyph glyph-name="uni0432" unicode="&#x432;" horiz-adv-x="530" 
d="M500 423q0 -71 -49 -123q49 -52 49 -122q0 -73 -51 -125t-124 -53h-285v600h285q73 -1 124 -52.5t51 -124.5zM150 355h173q28 0 47.5 20t19.5 48t-19.5 47.5t-47.5 19.5h-173v-135zM323 110q28 0 47.5 20t19.5 48t-19.5 47.5t-47.5 19.5h-173v-135h173z" />
    <glyph glyph-name="uni0433" unicode="&#x433;" horiz-adv-x="440" 
d="M410 600v-110h-260v-490h-110v600h370z" />
    <glyph glyph-name="uni0434" unicode="&#x434;" horiz-adv-x="555" 
d="M535 -70h-110v70h-295v-70h-110v180h51l114 490h180l114 -490h56v-180zM186 110h178l-88 380h-2z" />
    <glyph glyph-name="uni0435" unicode="&#x435;" horiz-adv-x="679" 
d="M340 107q101 0 159 84l107 -39q-40 -72 -111 -114.5t-155 -42.5q-127 0 -216 89.5t-89 215.5t89 215.5t216 89.5q121 0 209 -83.5t95 -203.5l-36 -58h-457q14 -66 67 -109.5t122 -43.5zM340 493q-61 0 -110 -34t-70 -89h360q-21 55 -70 89t-110 34z" />
    <glyph glyph-name="uni0436" unicode="&#x436;" horiz-adv-x="660" 
d="M595 310v-310h-110v200h-100v-200h-110v200h-100v-200h-110v310h153l-188 290h130l115 -180v180h110v-180l115 180h130l-188 -290h153z" />
    <glyph glyph-name="uni0437" unicode="&#x437;" horiz-adv-x="530" 
d="M495 480l-136 -70q61 -24 98.5 -78.5t37.5 -121.5q0 -89 -63 -152t-152 -63q-80 0 -139.5 51.5t-72.5 128.5l107 39v-4q0 -44 30.5 -74.5t74.5 -30.5t74.5 30.5t30.5 74.5t-30.5 74.5t-74.5 30.5h-95v110l115 65h-265v110h460v-120z" />
    <glyph glyph-name="uni0438" unicode="&#x438;" horiz-adv-x="540" 
d="M390 600h110v-600h-110v380l-240 -380h-110v600h110v-395z" />
    <glyph glyph-name="uni0439" unicode="&#x439;" horiz-adv-x="540" 
d="M210 705q0 -27 19 -46t46 -19t46 19t19 46t-19 46t-46 19t-46 -19t-19 -46zM390 600h110v-600h-110v380l-240 -380h-110v600h110v-395z" />
    <glyph glyph-name="uni043A" unicode="&#x43a;" horiz-adv-x="510" 
d="M440 320v-320h-110v210h-180v-210h-110v600h110v-195l175 195h155l-256 -280h216z" />
    <glyph glyph-name="uni043B" unicode="&#x43b;" horiz-adv-x="500" 
d="M365 0l-114 490h-2l-114 -490h-113l135 600h186l135 -600h-113z" />
    <glyph glyph-name="uni043C" unicode="&#x43c;" horiz-adv-x="740" 
d="M700 600v-600h-110v435l-150 -435h-140l-150 435v-435h-110v600h174l156 -455l155 455h175z" />
    <glyph glyph-name="uni043D" unicode="&#x43d;" horiz-adv-x="540" 
d="M390 600h110v-600h-110v245h-240v-245h-110v600h110v-245h240v245z" />
    <glyph glyph-name="uni043E" unicode="&#x43e;" horiz-adv-x="674" 
d="M337 602q125 0 213.5 -88.5t88.5 -213.5t-88.5 -213.5t-213.5 -88.5t-213.5 88.5t-88.5 213.5t88.5 213.5t213.5 88.5zM337 109q79 0 135 55.5t56 135.5t-56 135.5t-135 55.5t-135 -55.5t-56 -135.5t56 -135.5t135 -55.5z" />
    <glyph glyph-name="uni043F" unicode="&#x43f;" horiz-adv-x="540" 
d="M500 600v-600h-110v490h-240v-490h-110v600h460z" />
    <glyph glyph-name="uni0440" unicode="&#x440;" horiz-adv-x="675" 
d="M340 605q124 0 212 -90t88 -215q0 -124 -88 -214.5t-212 -90.5q-55 0 -107 24.5t-81 67.5v-267h-112v780h112v-86q30 40 82.5 65.5t105.5 25.5zM340 105q78 0 134 58t56 137t-56 137t-134 58t-134 -58t-56 -137q0 -78 56.5 -136.5t133.5 -58.5z" />
    <glyph glyph-name="uni0441" unicode="&#x441;" horiz-adv-x="661" 
d="M340 105q61 0 110.5 34.5t71.5 89.5l103 -37q-33 -87 -111 -142t-174 -55q-126 0 -215.5 89.5t-89.5 215.5t89.5 215.5t215.5 89.5q97 0 175 -55.5t111 -144.5l-103 -37q-21 56 -71 91.5t-112 35.5q-81 0 -138 -57t-57 -138t57 -138t138 -57z" />
    <glyph glyph-name="uni0442" unicode="&#x442;" horiz-adv-x="730" 
d="M690 600v-600h-110v490h-160v-490h-110v490h-160v-490h-110v600h650z" />
    <glyph glyph-name="uni0443" unicode="&#x443;" horiz-adv-x="535" 
d="M385 600h110v-600h-460v110h225l-225 490h125l225 -490v490z" />
    <glyph glyph-name="uni0444" unicode="&#x444;" horiz-adv-x="1098" 
d="M30 300q0 128 80 216.5t204 88.5q55 0 105.5 -24.5t79.5 -64.5v84h100v-84q29 40 79.5 64.5t104.5 24.5q125 0 205 -88.5t80 -216.5t-80 -216.5t-205 -88.5q-54 0 -104.5 24.5t-79.5 64.5v-264h-100v264q-29 -40 -79.5 -64.5t-105.5 -24.5q-124 0 -204 88.5t-80 216.5z
M314 96q81 0 133 61t52 143q0 83 -52 144t-133 61q-80 0 -132 -61.5t-52 -143.5t52 -143t132 -61zM783 96q81 0 132.5 60.5t51.5 143.5t-51.5 144t-132.5 61q-80 0 -132 -61.5t-52 -143.5t52 -143t132 -61z" />
    <glyph glyph-name="uni0445" unicode="&#x445;" horiz-adv-x="540" 
d="M500 300v-300h-110v190h-240v-195h-110v305h163l-163 300h130l100 -182l100 182h130l-162 -300h162z" />
    <glyph glyph-name="uni0446" unicode="&#x446;" horiz-adv-x="610" 
d="M500 110h90v-180h-110v70h-440v600h110v-490h240v490h110v-490z" />
    <glyph glyph-name="uni0447" unicode="&#x447;" horiz-adv-x="540" 
d="M390 600h110v-600h-110v185h-350v415h110v-305h240v305z" />
    <glyph glyph-name="uni0448" unicode="&#x448;" horiz-adv-x="730" 
d="M690 0h-650v600h110v-490h160v490h110v-490h160v490h110v-600z" />
    <glyph glyph-name="uni0449" unicode="&#x449;" horiz-adv-x="800" 
d="M690 110h90v-180h-110v70h-630v600h110v-490h160v490h110v-490h160v490h110v-490z" />
    <glyph glyph-name="uni044A" unicode="&#x44a;" horiz-adv-x="580" 
d="M320 460q95 0 162.5 -67.5t67.5 -162.5t-67.5 -162.5t-162.5 -67.5h-230v490h-70v110h180v-140h120zM320 110q50 0 85 35t35 85t-35 85t-85 35h-120v-240h120z" />
    <glyph glyph-name="uni044B" unicode="&#x44b;" horiz-adv-x="695" 
d="M270 460q95 0 162.5 -67.5t67.5 -162.5t-67.5 -162.5t-162.5 -67.5h-230v600h110v-140h120zM545 600h110v-600h-110v600zM270 110q50 0 85 35t35 85t-35 85t-85 35h-120v-240h120z" />
    <glyph glyph-name="uni044C" unicode="&#x44c;" horiz-adv-x="530" 
d="M270 460q95 0 162.5 -67.5t67.5 -162.5t-67.5 -162.5t-162.5 -67.5h-230v600h110v-140h120zM270 110q50 0 85 35t35 85t-35 85t-85 35h-120v-240h120z" />
    <glyph glyph-name="uni044D" unicode="&#x44d;" horiz-adv-x="651" 
d="M316 606q126 0 215.5 -89.5t89.5 -215.5t-89.5 -215.5t-215.5 -89.5q-96 0 -174 55t-111 142l105 38q21 -55 70 -89t110 -34q64 0 114 37t70 96h-165v110h168q-17 62 -69 102.5t-118 40.5q-62 0 -111.5 -35t-69.5 -91l-105 38q33 89 111 144.5t175 55.5z" />
    <glyph glyph-name="uni044E" unicode="&#x44e;" horiz-adv-x="835" 
d="M500 605q126 0 215.5 -89.5t89.5 -215.5t-89.5 -215.5t-215.5 -89.5q-110 0 -194 69.5t-105 175.5h-51v-240h-110v600h110v-250h49q18 109 103 182t198 73zM500 107q80 0 136.5 56.5t56.5 136.5t-56.5 136.5t-136.5 56.5t-136.5 -56.5t-56.5 -136.5t56.5 -136.5
t136.5 -56.5z" />
    <glyph glyph-name="uni044F" unicode="&#x44f;" horiz-adv-x="530" 
d="M490 600v-600h-110v140l-138 1l-82 -141h-130l103 178q-47 31 -75 82t-28 110q0 95 67.5 162.5t162.5 67.5h230zM260 490q-50 0 -85 -35t-35 -85t35 -85t85 -35h120v240h-120z" />
    <glyph glyph-name="uni0451" unicode="&#x451;" horiz-adv-x="679" 
d="M247 660q-27 0 -46 19t-19 46t19 46t46 19t46 -19t19 -46t-19 -46t-46 -19zM432 660q-27 0 -46 19t-19 46t19 46t46 19t46 -19t19 -46t-19 -46t-46 -19zM340 107q101 0 159 84l107 -39q-40 -72 -111 -114.5t-155 -42.5q-127 0 -216 89.5t-89 215.5t89 215.5t216 89.5
q121 0 209 -83.5t95 -203.5l-36 -58h-457q14 -66 67 -109.5t122 -43.5zM340 493q-61 0 -110 -34t-70 -89h360q-21 55 -70 89t-110 34z" />
    <glyph glyph-name="Wgrave" unicode="&#x1e80;" horiz-adv-x="830" 
d="M676 860h114l-125 -860h-173l-76 620l-76 -620h-177l-123 860h115l106 -715l74 715h160l76 -715z" />
    <glyph glyph-name="wgrave" unicode="&#x1e81;" horiz-adv-x="840" 
d="M390 860l75 -120h-110l-105 120h140zM800 600l-135 -600h-180l-65 325l-65 -325h-180l-135 600h112l112 -497l99 497h114l99 -497l112 497h112z" />
    <glyph glyph-name="Wacute" unicode="&#x1e82;" horiz-adv-x="830" 
d="M437 1040h140l-105 -120h-110zM676 860h114l-125 -860h-173l-76 620l-76 -620h-177l-123 860h115l106 -715l74 715h160l76 -715z" />
    <glyph glyph-name="wacute" unicode="&#x1e83;" horiz-adv-x="840" 
d="M441 860h140l-105 -120h-110zM800 600l-135 -600h-180l-65 325l-65 -325h-180l-135 600h112l112 -497l99 497h114l99 -497l112 497h112z" />
    <glyph glyph-name="Wdieresis" unicode="&#x1e84;" horiz-adv-x="830" 
d="M324 910q-27 0 -46 19t-19 46t19 46t46 19t46 -19t19 -46t-19 -46t-46 -19zM504 910q-27 0 -46 19t-19 46t19 46t46 19t46 -19t19 -46t-19 -46t-46 -19zM676 860h114l-125 -860h-173l-76 620l-76 -620h-177l-123 860h115l106 -715l74 715h160l76 -715z" />
    <glyph glyph-name="wdieresis" unicode="&#x1e85;" horiz-adv-x="840" 
d="M309 729q-27 0 -46 19t-19 46t19 46t46 19t46 -19t19 -46t-19 -46t-46 -19zM529 729q-27 0 -46 19t-19 46t19 46t46 19t46 -19t19 -46t-19 -46t-46 -19zM800 600l-135 -600h-180l-65 325l-65 -325h-180l-135 600h112l112 -497l99 497h114l99 -497l112 497h112z" />
    <glyph glyph-name="Ygrave" unicode="&#x1ef2;" horiz-adv-x="545" 
d="M252 1040l75 -120h-110l-105 120h140zM495 860v-860h-460v110h233l-223 750h120l220 -742v742h110z" />
    <glyph glyph-name="ygrave" unicode="&#x1ef3;" horiz-adv-x="535" 
d="M237 860l75 -120h-110l-105 120h140zM385 600h110v-600h-460v110h225l-225 490h125l225 -490v490z" />
    <glyph glyph-name="endash" unicode="&#x2013;" horiz-adv-x="565" 
d="M50 458h465v-110h-465v110z" />
    <glyph glyph-name="emdash" unicode="&#x2014;" horiz-adv-x="900" 
d="M50 458h800v-110h-800v110z" />
    <glyph glyph-name="quoteleft" unicode="&#x2018;" horiz-adv-x="303" 
d="M120 860h133l-105 -220h-98z" />
    <glyph glyph-name="quoteright" unicode="&#x2019;" horiz-adv-x="303" 
d="M120 860h133l-105 -220h-98z" />
    <glyph glyph-name="quotesinglbase" unicode="&#x201a;" 
d="M110 143h136l-105 -220h-101z" />
    <glyph glyph-name="quotedblleft" unicode="&#x201c;" horiz-adv-x="431" 
d="M171 860l80 -220h-86l-115 220h121zM331 860l50 -220h-81l-80 220h111z" />
    <glyph glyph-name="quotedblright" unicode="&#x201d;" horiz-adv-x="431" 
d="M100 860h111l-80 -220h-81zM260 860h121l-115 -220h-86z" />
    <glyph glyph-name="quotedblbase" unicode="&#x201e;" 
d="M110 143h136l-105 -220h-101z" />
    <glyph glyph-name="dagger" unicode="&#x2020;" 
 />
    <glyph glyph-name="daggerdbl" unicode="&#x2021;" 
 />
    <glyph glyph-name="bullet" unicode="&#x2022;" 
 />
    <glyph glyph-name="ellipsis" unicode="&#x2026;" horiz-adv-x="692" 
d="M195 73q0 -31 -21 -52t-52 -21q-30 0 -51 21t-21 52q0 30 21 51t51 21q31 0 52 -21t21 -51zM419 73q0 -31 -21 -52t-52 -21q-30 0 -51 21t-21 52q0 30 21 51t51 21q31 0 52 -21t21 -51zM642 73q0 -31 -21 -52t-52 -21q-30 0 -51 21t-21 52q0 30 21 51t51 21q31 0 52 -21
t21 -51z" />
    <glyph glyph-name="perthousand" unicode="&#x2030;" 
 />
    <glyph glyph-name="guilsinglleft" unicode="&#x2039;" horiz-adv-x="405" 
d="M355 180l-180 235l180 235h-125l-180 -235l180 -235h125z" />
    <glyph glyph-name="guilsinglright" unicode="&#x203a;" horiz-adv-x="405" 
d="M50 180h125l180 235l-180 235h-125l180 -235z" />
    <glyph glyph-name="fraction" unicode="&#x2044;" 
 />
    <glyph glyph-name="Euro" unicode="&#x20ac;" horiz-adv-x="765" 
d="M421 104q67 0 118.5 41t66.5 105l104 -38q-27 -96 -107 -157t-182 -61q-117 0 -203 79t-96 195h-82v110h81v99h-81v110h82q9 117 95 197t204 80q108 0 190 -67.5t104 -171.5l-105 -38q-9 71 -63 119t-126 48t-126 -48t-63 -119h148v-110h-149v-99h149v-110h-147
q10 -70 63 -117t125 -47z" />
    <glyph glyph-name="uni20BD" unicode="&#x20bd;" horiz-adv-x="662" 
d="M50 94v100h102v81h-102v110h102v475h170q120 -1 205 -86.5t85 -205.5q0 -121 -85 -206.5t-205 -86.5h-60v-81h242v-100h-242v-94h-110v94h-102zM262 385h60q74 1 127 54.5t53 128.5q0 74 -53 127.5t-127 54.5h-60v-365z" />
    <glyph glyph-name="uni2116" unicode="&#x2116;" horiz-adv-x="1234" 
d="M400 860h110v-860h-110l-240 570v-570h-110v860h110l240 -570v570zM897 602q125 0 213.5 -88.5t88.5 -213.5t-88.5 -213.5t-213.5 -88.5t-213.5 88.5t-88.5 213.5t88.5 213.5t213.5 88.5zM897 109q79 0 135 55.5t56 135.5t-56 135.5t-135 55.5t-135 -55.5t-56 -135.5
t56 -135.5t135 -55.5z" />
    <glyph glyph-name="trademark" unicode="&#x2122;" horiz-adv-x="1220" 
d="M490 860v-110h-175v-750h-110v750h-175v110h460zM1170 860v-860h-110v565l-110 -565h-160l-110 565v-565h-110v860h165l135 -720l125 720h175z" />
    <glyph glyph-name="partialdiff" unicode="&#x2202;" 
 />
    <glyph glyph-name="emptyset" unicode="&#x2205;" 
 />
    <glyph glyph-name="product" unicode="&#x220f;" 
 />
    <glyph glyph-name="summation" unicode="&#x2211;" 
 />
    <glyph glyph-name="minus" unicode="&#x2212;" 
 />
    <glyph glyph-name="radical" unicode="&#x221a;" 
 />
    <glyph glyph-name="infinity" unicode="&#x221e;" 
 />
    <glyph glyph-name="integral" unicode="&#x222b;" 
 />
    <glyph glyph-name="approxequal" unicode="&#x2248;" 
 />
    <glyph glyph-name="notequal" unicode="&#x2260;" 
 />
    <glyph glyph-name="lessequal" unicode="&#x2264;" 
 />
    <glyph glyph-name="greaterequal" unicode="&#x2265;" 
 />
    <glyph glyph-name="lozenge" unicode="&#x25ca;" 
 />
    <glyph glyph-name="brevecombcy" horiz-adv-x="0" 
 />
    </font>
</defs>
</svg>
