<?xml version="1.0" encoding="utf-8"?>
<!-- Generator: Adobe Illustrator 17.1.0, SVG Export Plug-In . SVG Version: 6.00 Build 0)  -->
<!DOCTYPE svg PUBLIC "-//W3C//DTD SVG 1.1//EN" "http://www.w3.org/Graphics/SVG/1.1/DTD/svg11.dtd">
<svg version="1.1" id="bold" xmlns="http://www.w3.org/2000/svg" xmlns:xlink="http://www.w3.org/1999/xlink" x="0px" y="0px"
	 viewBox="0 0 512 512" enable-background="new 0 0 512 512" xml:space="preserve">
<linearGradient id="SVGID_1_" gradientUnits="userSpaceOnUse" x1="7.4392" y1="177.4659" x2="130.8526" y2="54.0526">
	<stop  offset="0" style="stop-color:#FD035F"/>
	<stop  offset="1" style="stop-color:#6C2C8C"/>
</linearGradient>
<path fill="url(#SVGID_1_)" d="M96,133.3v-96c0-5.5,0.6-10.9,2.1-16H37.3C16.9,21.3,0,38.2,0,58.7v96C0,175.1,16.9,192,37.3,192h7.9
	l27.3,36.3c3,3.8,7.5,6.2,12.2,6.4h0.6c4.7,0,9-1.9,11.9-5.5l32-36.5C109.4,180.3,96,158.3,96,133.3z"/>
<linearGradient id="SVGID_2_" gradientUnits="userSpaceOnUse" x1="372.0548" y1="186.5585" x2="513.6533" y2="44.96">
	<stop  offset="0" style="stop-color:#FD035F"/>
	<stop  offset="1" style="stop-color:#6C2C8C"/>
</linearGradient>
<path fill="url(#SVGID_2_)" d="M474.7,21.3h-60.8c1.5,5.1,2.1,10.5,2.1,16v96c0,25-13.4,46.9-33.3,59.3l32,36.5
	c3,3.6,7.3,5.5,11.9,5.5h0.6c4.7-0.2,9.2-2.6,12.2-6.4l27.1-36.3h8.1c20.5,0,37.3-16.9,37.3-37.3v-96
	C512,38.2,495.1,21.3,474.7,21.3z"/>
<linearGradient id="SVGID_3_" gradientUnits="userSpaceOnUse" x1="160.28" y1="181.0533" x2="351.72" y2="-10.3867">
	<stop  offset="0" style="stop-color:#FD035F"/>
	<stop  offset="1" style="stop-color:#6C2C8C"/>
</linearGradient>
<path fill="url(#SVGID_3_)" d="M256,213.3c-0.2,0-0.4,0-0.6,0c-4.8-0.2-9.3-2.5-12.2-6.4L216,170.7h-50.7
	c-20.6,0-37.3-16.7-37.3-37.3v-96C128,16.7,144.7,0,165.3,0h181.3C367.3,0,384,16.7,384,37.3v96c0,20.6-16.7,37.3-37.3,37.3h-46.1
	L268,207.9C265,211.3,260.6,213.3,256,213.3L256,213.3z"/>
<linearGradient id="SVGID_4_" gradientUnits="userSpaceOnUse" x1="55.1634" y1="350.1699" x2="115.5032" y2="289.8301">
	<stop  offset="0" style="stop-color:#FD035F"/>
	<stop  offset="1" style="stop-color:#6C2C8C"/>
</linearGradient>
<circle fill="url(#SVGID_4_)" cx="85.3" cy="320" r="42.7"/>
<linearGradient id="SVGID_5_" gradientUnits="userSpaceOnUse" x1="18.64" y1="478.5334" x2="123.4667" y2="373.7067">
	<stop  offset="0" style="stop-color:#FD035F"/>
	<stop  offset="1" style="stop-color:#6C2C8C"/>
</linearGradient>
<path fill="url(#SVGID_5_)" d="M142.3,392.5c-21.5,16.2-35.6,42.2-35.6,71.5v5.3H16c-8.7,0-16-7.3-16-16v-10.7
	C0,410.2,26.2,384,58.7,384H112C123.1,384,133.5,387.2,142.3,392.5z"/>
<linearGradient id="SVGID_6_" gradientUnits="userSpaceOnUse" x1="396.4968" y1="350.1699" x2="456.8366" y2="289.8301">
	<stop  offset="0" style="stop-color:#FD035F"/>
	<stop  offset="1" style="stop-color:#6C2C8C"/>
</linearGradient>
<circle fill="url(#SVGID_6_)" cx="426.7" cy="320" r="42.7"/>
<linearGradient id="SVGID_7_" gradientUnits="userSpaceOnUse" x1="401.5334" y1="465.5334" x2="480.36" y2="386.7067">
	<stop  offset="0" style="stop-color:#FD035F"/>
	<stop  offset="1" style="stop-color:#6C2C8C"/>
</linearGradient>
<path fill="url(#SVGID_7_)" d="M512,442.7v10.7c0,8.7-7.3,16-16,16h-90.7V464c0-29.2-14.1-55.3-35.6-71.5c8.7-5.3,19.2-8.5,30.3-8.5
	h53.3C485.8,384,512,410.2,512,442.7z"/>
<linearGradient id="SVGID_8_" gradientUnits="userSpaceOnUse" x1="210.7452" y1="354.5882" x2="301.2549" y2="264.0785">
	<stop  offset="0" style="stop-color:#FD035F"/>
	<stop  offset="1" style="stop-color:#6C2C8C"/>
</linearGradient>
<circle fill="url(#SVGID_8_)" cx="256" cy="309.3" r="64"/>
<linearGradient id="SVGID_9_" gradientUnits="userSpaceOnUse" x1="181.6093" y1="545.5667" x2="330.3907" y2="396.7853">
	<stop  offset="0" style="stop-color:#FD035F"/>
	<stop  offset="1" style="stop-color:#6C2C8C"/>
</linearGradient>
<path fill="url(#SVGID_9_)" d="M314.7,405.3H197.3c-32.4,0-58.7,26.3-58.7,58.7v32c0,8.8,7.2,16,16,16h202.7c8.8,0,16-7.2,16-16v-32
	C373.3,431.6,347,405.3,314.7,405.3z"/>
</svg>
