<?xml version="1.0" encoding="utf-8"?>
<!-- Generator: Adobe Illustrator 17.1.0, SVG Export Plug-In . SVG Version: 6.00 Build 0)  -->
<!DOCTYPE svg PUBLIC "-//W3C//DTD SVG 1.1//EN" "http://www.w3.org/Graphics/SVG/1.1/DTD/svg11.dtd">
<svg version="1.1" id="Capa_1" xmlns="http://www.w3.org/2000/svg" xmlns:xlink="http://www.w3.org/1999/xlink" x="0px" y="0px"
	 viewBox="0 0 512 512" enable-background="new 0 0 512 512" xml:space="preserve">
<g>
	<g id="Flying_Money_1_">
		<linearGradient id="SVGID_1_" gradientUnits="userSpaceOnUse" x1="107.6669" y1="269.548" x2="377.2437" y2="269.548">
			<stop  offset="0" style="stop-color:#FD035F"/>
			<stop  offset="1" style="stop-color:#6C2C8C"/>
		</linearGradient>
		<path fill="url(#SVGID_1_)" d="M337.8,174.2c-53.1-53.2-138.8-52-190.7,0c-52.2,52.1-52.9,137.8,0,190.7c53,53,138.5,52.1,190.7,0
			C390.1,312.6,390.6,227,337.8,174.2z M316.7,216.5l-12.5,12.5c2.8,6,4.5,12.5,4.5,19.3c0,8.3-6.7,15-15,15s-15-6.7-15-15
			c0-4-1.6-7.8-4.4-10.6c-5.9-5.9-15.4-5.8-21.2,0c-5.9,5.9-5.9,15.4,0,21.2c1.5,1.5,2.6,3.2,3.3,5c13.4,17.6,12.8,42.6-3.3,58.7
			c-12.3,12.3-31.5,17.6-50.9,8.5l-12.8,12.8c-5.9,5.9-15.4,5.9-21.2,0c-5.9-5.9-5.9-15.4,0-21.2l12.5-12.5
			c-2.8-6-4.5-12.5-4.5-19.3c0-8.3,6.7-15,15-15s15,6.7,15,15c0,4,1.6,7.8,4.4,10.6c5.9,5.9,15.4,5.9,21.2,0
			c5.9-5.8,5.9-15.4,0-21.2c-8.5-8.5-13.2-19.8-13.2-31.8c0-12,4.7-23.3,13.2-31.8c13.8-13.8,34.2-16.3,50.9-8.4l12.8-12.8
			c5.9-5.9,15.4-5.9,21.2,0C322.5,201.2,322.5,210.7,316.7,216.5L316.7,216.5z"/>
		<g>
			<linearGradient id="SVGID_2_" gradientUnits="userSpaceOnUse" x1="7.498264e-004" y1="450.9985" x2="122.0002" y2="450.9985">
				<stop  offset="0" style="stop-color:#FD035F"/>
				<stop  offset="1" style="stop-color:#6C2C8C"/>
			</linearGradient>
			<path fill="url(#SVGID_2_)" d="M4.4,507.6c-5.9-5.9-5.9-15.4,0-21.2l92-92c5.9-5.9,15.4-5.9,21.2,0s5.9,15.4,0,21.2l-92,92
				C19.7,513.5,10.3,513.5,4.4,507.6z"/>
		</g>
		<g>
			<linearGradient id="SVGID_3_" gradientUnits="userSpaceOnUse" x1="90.0007" y1="465.9985" x2="182.0002" y2="465.9985">
				<stop  offset="0" style="stop-color:#FD035F"/>
				<stop  offset="1" style="stop-color:#6C2C8C"/>
			</linearGradient>
			<path fill="url(#SVGID_3_)" d="M94.4,507.6c-5.9-5.9-5.9-15.4,0-21.2l62-62c5.9-5.9,15.4-5.9,21.2,0s5.9,15.4,0,21.2l-62,62
				C109.7,513.5,100.3,513.5,94.4,507.6z"/>
		</g>
		<g>
			<linearGradient id="SVGID_4_" gradientUnits="userSpaceOnUse" x1="7.498264e-004" y1="375.9985" x2="92.0002" y2="375.9985">
				<stop  offset="0" style="stop-color:#FD035F"/>
				<stop  offset="1" style="stop-color:#6C2C8C"/>
			</linearGradient>
			<path fill="url(#SVGID_4_)" d="M4.4,417.6c-5.9-5.9-5.9-15.4,0-21.2l62-62c5.9-5.9,15.4-5.9,21.2,0s5.9,15.4,0,21.2l-62,62
				C19.7,423.5,10.3,423.5,4.4,417.6z"/>
		</g>
	</g>
	<linearGradient id="SVGID_5_" gradientUnits="userSpaceOnUse" x1="40.262" y1="127.1114" x2="227.777" y2="127.1114">
		<stop  offset="0" style="stop-color:#FD035F"/>
		<stop  offset="1" style="stop-color:#6C2C8C"/>
	</linearGradient>
	<path fill="url(#SVGID_5_)" d="M125.9,153c27.5-27.5,63.3-43.3,101.9-46.8L125.7,4.4c-5.9-5.8-15.4-5.8-21.2,0
		c-17.3,17.3-24.3,41-21.2,63.5c0,0-0.1,0.1-0.1,0.1C65.8,85.4,58.8,109.2,62,131.8c-14,14.1-21.8,32.9-21.8,52.9
		c0,20.1,7.8,38.9,21.9,53l16.4,16.6C82.2,216.1,98.7,180.2,125.9,153L125.9,153z"/>
	<linearGradient id="SVGID_6_" gradientUnits="userSpaceOnUse" x1="257.26" y1="378.2585" x2="512.0001" y2="378.2585">
		<stop  offset="0" style="stop-color:#FD035F"/>
		<stop  offset="1" style="stop-color:#6C2C8C"/>
	</linearGradient>
	<path fill="url(#SVGID_6_)" d="M507.6,386.3L406.3,284.8c-3.6,38.1-20,74.1-47.3,101.4c-27.5,27.5-63.3,43.3-101.8,46.7l17,16.9
		c14.1,14.1,33,21.9,53.1,21.9c20,0,38.8-7.7,52.9-21.8c22.8,3.3,46.4-3.8,63.8-21.2l0.1-0.1c22.7,3.2,46.3-3.9,63.5-21.2
		C513.5,401.7,513.5,392.2,507.6,386.3L507.6,386.3z"/>
</g>
</svg>
