<?xml version="1.0" encoding="utf-8"?>
<!-- Generator: Adobe Illustrator 17.1.0, SVG Export Plug-In . SVG Version: 6.00 Build 0)  -->
<!DOCTYPE svg PUBLIC "-//W3C//DTD SVG 1.1//EN" "http://www.w3.org/Graphics/SVG/1.1/DTD/svg11.dtd">
<svg version="1.1" id="Layer_1" xmlns="http://www.w3.org/2000/svg" xmlns:xlink="http://www.w3.org/1999/xlink" x="0px" y="0px"
	 viewBox="2.2 4.6 508.1 501.6" enable-background="new 2.2 4.6 508.1 501.6" xml:space="preserve">
<g>
	<path fill="#FFFFFF" d="M491,330.5c-10.7,0-19.4,8.7-19.4,19.4v90.2L315.2,283.7c-3.8-3.8-8.7-5.7-13.7-5.7c-5,0-9.9,1.9-13.7,5.7
		c-7.6,7.6-7.6,19.8,0,27.4l156.4,156.4H354c-10.7,0-19.4,8.7-19.4,19.4c0,10.7,8.7,19.4,19.4,19.4h137c10.7,0,19.4-8.7,19.4-19.4
		v-137C510.3,339.1,501.7,330.5,491,330.5L491,330.5z"/>
	<path fill="#FFFFFF" d="M70.5,43.3h90.2c10.7,0,19.4-8.7,19.4-19.4s-8.7-19.4-19.4-19.4h-137C13,4.6,4.4,13.2,4.4,23.9v137
		c0,10.7,8.7,19.4,19.4,19.4s19.4-8.7,19.4-19.4V70.7l158.5,158.5c7.6,7.6,19.8,7.6,27.4,0s7.6-19.8,0-27.4L70.5,43.3z"/>
	<path fill="#FFFFFF" d="M211.1,278c-5,0-9.9,1.9-13.7,5.7L41,440.1v-90.2c0-10.7-8.7-19.4-19.4-19.4s-19.4,8.7-19.4,19.4v137
		c0,10.7,8.7,19.4,19.4,19.4h137c10.7,0,19.4-8.7,19.4-19.4c0-10.7-8.7-19.4-19.4-19.4H68.4l156.4-156.4c7.6-7.6,7.6-19.8,0-27.4
		C221,279.9,216,278,211.1,278L211.1,278z"/>
	<path fill="#FFFFFF" d="M310.9,229.3L469.4,70.7v90.2c0,10.7,8.7,19.4,19.4,19.4s19.4-8.7,19.4-19.4v-137
		c0-10.7-8.7-19.4-19.4-19.4h-137c-10.7,0-19.4,8.7-19.4,19.4s8.7,19.4,19.4,19.4H442L283.5,201.9c-7.6,7.6-7.6,19.8,0,27.4
		S303.3,236.8,310.9,229.3L310.9,229.3z"/>
</g>
</svg>
