<svg width="19" height="13" viewBox="0 0 19 13" fill="none" xmlns="http://www.w3.org/2000/svg">
<path d="M11.9604 1.27121H16.5253V2.38276H11.9604V1.27121ZM9.10735 10.4373C8.89384 10.8426 8.58894 11.1927 8.21679 11.4598C7.82759 11.7303 7.39551 11.9282 6.93704 12.0436C6.45737 12.1722 5.96255 12.2354 5.46597 12.2316H0.00390625V0.980957H5.31425C5.85188 0.980957 6.34003 1.03043 6.78531 1.12279C7.22729 1.21514 7.6033 1.37346 7.91994 1.58785C8.23329 1.80225 8.48066 2.0892 8.65547 2.44542C8.82699 2.79835 8.91604 3.24033 8.91604 3.76476C8.91604 4.33208 8.78741 4.80044 8.53014 5.17975C8.26957 5.55906 7.89356 5.86581 7.38231 6.10659C8.07826 6.30449 8.58951 6.65742 8.92594 7.15217C9.26897 7.65352 9.43718 8.25381 9.43718 8.95966C9.43718 9.53357 9.32834 10.025 9.10735 10.4373ZM18.3031 8.69579H12.4189C12.4189 9.33567 12.6399 9.94917 12.973 10.279C13.3094 10.6055 13.791 10.7705 14.421 10.7705C14.8762 10.7705 15.2621 10.655 15.5919 10.4274C15.9184 10.1998 16.1163 9.95906 16.1889 9.70839H18.1613C17.8447 10.688 17.3631 11.3872 16.71 11.8094C16.0636 12.2316 15.272 12.4427 14.3517 12.4427C13.7085 12.4427 13.1313 12.3372 12.6135 12.136C12.1154 11.9414 11.6669 11.6445 11.2975 11.2619C10.9332 10.869 10.6517 10.4069 10.4696 9.90299C10.2684 9.34557 10.1694 8.75846 10.176 8.16806C10.176 7.55786 10.2783 6.99055 10.4762 6.46281C10.8555 5.43703 11.6438 4.61574 12.6498 4.19025C13.1874 3.96596 13.7646 3.85382 14.3484 3.86041C15.0411 3.86041 15.6414 3.99235 16.1625 4.26281C16.6642 4.52108 17.0998 4.89123 17.4357 5.34467C17.7688 5.79654 18.003 6.31109 18.1514 6.8916C18.2932 7.46221 18.3427 8.06251 18.3031 8.69579ZM14.2792 5.54257C13.9229 5.54257 13.6228 5.60524 13.3919 5.72728C13.161 5.84932 12.9697 6.00104 12.8246 6.17586C12.6864 6.34464 12.5842 6.53997 12.5244 6.74977C12.4717 6.92458 12.4354 7.10269 12.4222 7.2841H16.0669C16.0141 6.71349 15.8162 6.2913 15.5523 5.99445C15.2753 5.70089 14.83 5.54257 14.2792 5.54257ZM6.08276 5.20944C6.36972 5.00164 6.50825 4.65861 6.50825 4.18695C6.51815 3.96266 6.47197 3.74168 6.37302 3.54048C6.28396 3.37886 6.15203 3.24362 5.99041 3.14797C5.82283 3.04635 5.63671 2.97907 5.44288 2.95007C5.23179 2.91049 5.0174 2.8907 4.8063 2.894H2.48756V5.52278H4.99761C5.42969 5.52608 5.79581 5.42053 6.08276 5.20944ZM6.47197 7.58425C6.14873 7.33687 5.71665 7.21483 5.17902 7.21483H2.48097V10.3153H5.12624C5.37362 10.3153 5.6012 10.2922 5.82219 10.246C6.04318 10.1998 6.24108 10.1207 6.4093 10.0085C6.57752 9.89969 6.71275 9.75127 6.815 9.55996C6.91395 9.36866 6.96342 9.12458 6.96342 8.83103C6.96342 8.24722 6.7985 7.83492 6.47197 7.58425Z" fill="white"/>
</svg>
