<svg version="1.1" id="Gift_Card_x2C_" xmlns="http://www.w3.org/2000/svg" xmlns:xlink="http://www.w3.org/1999/xlink" x="0px"
	 y="0px" viewBox="0 0 512 512" style="enable-background:new 0 0 512 512;" xml:space="preserve">
<style type="text/css">
	.st0{fill:url(#_x37__1_);}
	.st1{fill:url(#_x36__1_);}
	.st2{fill:url(#_x35__1_);}
	.st3{fill:url(#_x34__1_);}
	.st4{fill:url(#_x33__1_);}
	.st5{fill:url(#_x32__1_);}
	.st6{fill:url(#_x31__1_);}
</style>
<g>
	<linearGradient id="_x37__1_" gradientUnits="userSpaceOnUse" x1="-1" y1="140.598" x2="501.8369" y2="140.598">
		<stop  offset="4.475343e-07" style="stop-color:#C1207F"/>
		<stop  offset="0.5019" style="stop-color:#EF33EE"/>
		<stop  offset="1" style="stop-color:#8209B7"/>
	</linearGradient>
	<path id="_x37_" class="st0" d="M269,265.1c4.4,0,8,3.6,8,8.1s-3.6,8-8,8H32.6c-8.2,0-15.2-3.4-20.2-8.7c-5-5.3-7.9-12.8-7.9-20.9
		v-222c0-8,3.3-15.5,8.7-20.9C18.6,3.3,26,0,34,0h377.5c8.2,0,15.5,3.3,21,8.7c0.1,0.1,0.2,0.3,0.5,0.5c5.1,5.3,8.2,12.6,8.2,20.4
		v222c0,8.2-3.7,15.5-9.4,20.9c-5.8,5.3-13.6,8.7-21.7,8.7h-6.6c-4.4,0-8.1-3.6-8.1-8s3.6-8.1,8.1-8.1h6.6c4,0,7.9-1.6,10.8-4.3
		c2.6-2.5,4.3-5.7,4.3-9.2v-222c0-3.6-1.4-6.8-3.6-9.3c-0.1-0.1-0.2-0.2-0.3-0.3c-2.5-2.4-5.9-4-9.6-4H34c-3.7,0-7.1,1.6-9.6,4
		c-2.4,2.5-4,5.9-4,9.6v222c0,4,1.4,7.5,3.6,10c2,2.2,5,3.5,8.5,3.5H269z"/>
	<linearGradient id="_x36__1_" gradientUnits="userSpaceOnUse" x1="-1" y1="290.6432" x2="501.8369" y2="290.6432">
		<stop  offset="4.475343e-07" style="stop-color:#C1207F"/>
		<stop  offset="0.5019" style="stop-color:#EF33EE"/>
		<stop  offset="1" style="stop-color:#8209B7"/>
	</linearGradient>
	<path id="_x36_" class="st1" d="M426.5,140.9c-2.5-3.7-1.5-8.6,2.3-11.1c3.6-2.4,8.6-1.4,11,2.3l50.7,76c2.9,4.4,5.1,8.8,6.8,13.6
		c1.6,4.6,2.6,9.6,3.1,14.9l7.3,82.5c0.1,1.1-0.1,2.1-0.3,3.1l-28,124.4c-0.9,3.6-4.2,6.2-7.8,6.2H322.8c-2,0-4-0.8-5.4-2.2
		c-20.3-16.9-32-37.3-35.4-62.5c-3.3-24.1,1.2-52.5,13.2-86.4l3.2-89.1C299,191.4,310,177.9,324,172c5.4-2.3,11.4-3.3,17.5-3.1
		c6,0.2,11.9,1.7,17.3,4.4c13.8,7,24.3,22,23.5,44.9l-1.6,102.3c0,4.4-3.6,7.9-8.1,7.9c-4.4-0.1-7.9-3.7-7.8-8l1.5-102.3
		c-0.3-12.5-2.5-24.3-14.7-30.5c-3.4-1.7-7-2.6-10.7-2.8c-3.6-0.1-7.4,0.6-10.8,1.9c-8.6,3.6-15.4,12.4-15.8,26.4l-3.2,89.9
		c0,0.9-0.1,1.9-0.5,2.8c-11.3,32-15.8,58.3-12.8,80.2c2.7,20.1,11.9,36.6,27.9,50.7H465l26.4-117.5l-7-81.4
		c-0.3-4.1-1.1-7.7-2.3-11c-1.1-3.4-2.8-6.7-5-10L426.5,140.9z"/>
	<linearGradient id="_x35__1_" gradientUnits="userSpaceOnUse" x1="-1" y1="102.048" x2="501.8369" y2="102.048">
		<stop  offset="4.475343e-07" style="stop-color:#C1207F"/>
		<stop  offset="0.5019" style="stop-color:#EF33EE"/>
		<stop  offset="1" style="stop-color:#8209B7"/>
	</linearGradient>
	<path id="_x35_" class="st2" d="M433.1,94.2c4.4,0,7.9,3.5,7.9,7.9s-3.5,8.1-7.9,8.1h-239c-4.4,0-7.9-3.6-7.9-8.1s3.5-7.9,7.9-7.9
		H433.1z M44.9,93.9c4.4,0,8.1,3.6,8.1,8.1s-3.6,7.9-8.1,7.9H12.5c-4.4,0-8.1-3.5-8.1-7.9s3.6-8.1,8.1-8.1H44.9z"/>
	<linearGradient id="_x34__1_" gradientUnits="userSpaceOnUse" x1="-1" y1="140.598" x2="501.8369" y2="140.598">
		<stop  offset="4.475343e-07" style="stop-color:#C1207F"/>
		<stop  offset="0.5019" style="stop-color:#EF33EE"/>
		<stop  offset="1" style="stop-color:#8209B7"/>
	</linearGradient>
	<path id="_x34_" class="st3" d="M127.6,273.1c0,4.4-3.6,8-8.1,8c-4.4,0-7.9-3.6-7.9-8V146.7c0-4.4,3.5-8.1,7.9-8.1s8.1,3.6,8.1,8.1
		V273.1z M127.6,34.7c0,4.4-3.6,8.1-8.1,8.1c-4.4,0-7.9-3.6-7.9-8.1V8c0-4.4,3.5-8,7.9-8s8.1,3.6,8.1,8V34.7z"/>
	<linearGradient id="_x33__1_" gradientUnits="userSpaceOnUse" x1="-1" y1="99.226" x2="501.8369" y2="99.226">
		<stop  offset="4.475343e-07" style="stop-color:#C1207F"/>
		<stop  offset="0.5019" style="stop-color:#EF33EE"/>
		<stop  offset="1" style="stop-color:#8209B7"/>
	</linearGradient>
	<path id="_x33_" class="st4" d="M166.6,146.6c1.1,4.2-1.4,8.6-5.7,9.8c-4.2,1.1-8.6-1.4-9.8-5.6c-2.5-9.1-5.3-17.6-10.3-24.6
		c-4.5-6.2-11.1-11.7-21.3-15.9c-10.2,4.2-16.7,9.6-21.2,15.9c-5.1,7-7.9,15.5-10.3,24.6c-1.2,4.2-5.6,6.7-9.9,5.6
		c-4.2-1.1-6.7-5.6-5.6-9.8c2.8-10.5,6.2-20.6,12.8-29.7c2.2-3.1,4.8-6,7.7-8.7C74.9,100.8,64,88.9,59.3,77.8
		c-2-4.9-2.8-9.8-2.7-14.2c0.2-5,1.7-9.4,4.3-13c4.6-6.6,12.7-10.1,23.2-8.3c9.3,1.6,19.5,7.1,28,19.2c2.6,3.6,5.1,8,7.4,13.2
		c2.3-5.1,4.8-9.5,7.5-13.2c8.5-12,18.6-17.6,27.9-19.2c10.7-1.8,18.6,1.7,23.4,8.3c2.6,3.6,4.1,8.1,4.3,13
		c0.1,4.4-0.8,9.3-2.7,14.2c-4.6,11.1-15.5,23-33.8,30.4c2.9,2.7,5.4,5.7,7.7,8.7C160.2,126,163.6,136.1,166.6,146.6L166.6,146.6z
		 M110.3,96.9c-2.9-11.6-6.8-20.2-11.2-26.3c-5.7-8.1-12-11.7-17.6-12.6c-3.9-0.7-6.5,0.1-7.7,1.8c-0.8,1.1-1.2,2.6-1.2,4.3
		c-0.1,2.3,0.3,4.8,1.5,7.5C78.1,81.4,89.6,92.1,110.3,96.9z M139.9,70.6c-4.3,6.1-8.3,14.7-11.1,26.3c20.8-4.9,32.2-15.5,36.2-25.3
		c1.1-2.7,1.7-5.2,1.6-7.5c-0.1-1.7-0.5-3.2-1.2-4.3c-1.2-1.7-3.9-2.5-7.8-1.8C152,59,145.7,62.6,139.9,70.6L139.9,70.6z"/>
	<linearGradient id="_x32__1_" gradientUnits="userSpaceOnUse" x1="-1" y1="407.3142" x2="501.8369" y2="407.3142">
		<stop  offset="4.475343e-07" style="stop-color:#C1207F"/>
		<stop  offset="0.5019" style="stop-color:#EF33EE"/>
		<stop  offset="1" style="stop-color:#8209B7"/>
	</linearGradient>
	<path id="_x32_" class="st5" d="M33,351.3h35.3c-4.3-4.6-7.3-9.6-9-14.6c-2.9-8.7-2.3-18.6,3.7-25.9c5.2-6.2,13.4-9.5,23.8-7.7
		c8.7,1.5,18.4,6.7,26.3,18c2.3,3.3,4.4,7,6.3,11.2c2-4.2,4.1-7.9,6.3-11.2c8.1-11.3,17.6-16.6,26.3-18c10.5-1.8,18.7,1.5,23.8,7.7
		c6.1,7.3,6.7,17.1,3.9,25.9c-1.7,5-4.6,10-9.1,14.6H206c9.4,0,17.2,7.7,17.2,17.1v28.9c0,7-4.3,13.3-10.7,15.9v83.3
		c0,8.5-7,15.5-15.4,15.5h-61.1h-33H42c-8.5,0-15.4-7-15.4-15.5v-83.3c-6.3-2.6-10.7-9-10.7-15.9v-28.9
		C15.9,359,23.6,351.3,33,351.3z M129.6,351.3h10.9c14.1-4.4,21.7-12.4,24.2-19.6c1.1-3.4,1.5-7.8-0.9-10.8
		c-1.6-1.8-4.5-2.8-8.8-2.2c-5,0.9-10.8,4.2-15.9,11.6C135.4,335.4,132.2,342.2,129.6,351.3L129.6,351.3z M98.7,351.3h10.8
		c-2.5-9.1-5.8-15.9-9.3-21c-5.2-7.4-10.9-10.7-16-11.6c-4.2-0.7-7.1,0.3-8.8,2.2c-2.4,2.9-1.9,7.4-0.9,10.8
		C76.9,338.9,84.5,346.8,98.7,351.3z M153.3,367.3v31.2h51.3h1.5c0.7,0,1.1-0.5,1.1-1.1v-28.9c0-0.6-0.5-1.1-1.1-1.1H153.3z
		 M85.7,398.4v-31.2H33c-0.6,0-1.1,0.5-1.1,1.1v28.9c0,0.7,0.6,1.1,1.1,1.1h1.5H85.7z M101.7,367.3v31.2h35.6v-31.2H101.7z
		 M131,496.1v-81.5h-22.9v81.5H131z M92.1,496.1v-81.5H42.5v81.5H92.1z M147,414.5v81.5h49.7v-81.5H147z"/>
	<linearGradient id="_x31__1_" gradientUnits="userSpaceOnUse" x1="-1" y1="474.4" x2="501.8369" y2="474.4">
		<stop  offset="4.475343e-07" style="stop-color:#C1207F"/>
		<stop  offset="0.5019" style="stop-color:#EF33EE"/>
		<stop  offset="1" style="stop-color:#8209B7"/>
	</linearGradient>
	<path id="_x31_" class="st6" d="M311.5,436.8h167.8c8.7,0,16,7.1,16,16v43.3c0,4.3-1.8,8.4-4.8,11.2c-2.8,2.9-6.9,4.8-11.2,4.8
		H311.5c-8.7,0-16-7.3-16-16v-43.3C295.5,443.9,302.8,436.8,311.5,436.8L311.5,436.8z M479.3,452.8H311.5v43.3h167.8V452.8z"/>
</g>
</svg>
