<svg width="33" height="38" viewBox="0 0 33 38" fill="none" xmlns="http://www.w3.org/2000/svg">
<path fill-rule="evenodd" clip-rule="evenodd" d="M16.3863 11.5209C13.9282 11.5209 11.9171 13.532 11.9171 15.9901C11.9171 18.4481 13.9282 20.4592 16.3863 20.4592C17.5716 20.4592 18.7084 19.9884 19.5465 19.1502C20.3846 18.3121 20.8555 17.1754 20.8555 15.9901C20.8555 14.8048 20.3846 13.668 19.5465 12.8299C18.7084 11.9917 17.5716 11.5209 16.3863 11.5209ZM16.3863 0.3479C23.6934 0.3479 32.0285 5.845 32.0285 16.3252C32.0285 22.9843 27.2688 30.001 17.7494 37.3081C16.9449 37.9338 15.8277 37.9338 15.0232 37.3081C5.50383 29.9786 0.744141 22.9843 0.744141 16.3252C0.744141 5.845 9.07918 0.3479 16.3863 0.3479Z" fill="#2F80ED"/>
</svg>
