<svg enable-background="new 0 0 128 128" height="512" viewBox="0 0 128 128" width="512" xmlns="http://www.w3.org/2000/svg">
	<g fill="#fff">
		<path id="_x37_" d="m67.242 66.273c1.105 0 2.012.908 2.012 2.014s-.906 2.012-2.012 2.012h-59.103c-2.041 0-3.798-.85-5.045-2.182-1.247-1.334-1.984-3.203-1.984-5.217v-55.502c0-2.012.822-3.883 2.183-5.215 1.36-1.361 3.202-2.183 5.215-2.183h94.365c2.041 0 3.884.822 5.244 2.183.028.028.057.085.113.113 1.275 1.332 2.041 3.146 2.041 5.102v55.502c0 2.041-.936 3.883-2.353 5.217-1.445 1.332-3.401 2.182-5.414 2.182h-1.645c-1.105 0-2.013-.906-2.013-2.012s.907-2.014 2.013-2.014h1.645c.992 0 1.984-.396 2.692-1.076.652-.625 1.077-1.418 1.077-2.297v-55.502c0-.907-.34-1.701-.906-2.324-.028-.028-.058-.057-.086-.085-.623-.595-1.474-.992-2.409-.992h-94.364c-.936 0-1.786.397-2.409.992-.596.623-.993 1.474-.993 2.409v55.502c0 .992.34 1.871.907 2.494.51.539 1.248.879 2.126.879z"/>
		<path id="_x36_" d="m106.615 35.234c-.624-.936-.369-2.154.566-2.778.907-.595 2.154-.34 2.75.567l12.671 18.992c.737 1.105 1.275 2.211 1.7 3.401.397 1.162.652 2.41.766 3.713l1.814 20.637c.028.283-.028.537-.085.764l-7.002 31.098c-.227.906-1.049 1.559-1.956 1.559h-37.133c-.51 0-.992-.199-1.36-.539-5.074-4.223-7.994-9.326-8.844-15.619-.822-6.037.312-13.123 3.288-21.6l.793-22.28c.171-5.301 2.92-8.674 6.407-10.148 1.36-.567 2.862-.822 4.365-.766 1.502.057 2.976.425 4.337 1.105 3.458 1.758 6.065 5.5 5.867 11.226l-.396 25.568c0 1.105-.907 1.984-2.013 1.984-1.105-.027-1.984-.936-1.956-2.012l.368-25.569c-.085-3.118-.623-6.066-3.685-7.625-.851-.425-1.758-.652-2.665-.708-.906-.028-1.842.142-2.692.482-2.154.907-3.855 3.09-3.94 6.604l-.794 22.48c0 .227-.028.482-.113.709-2.834 7.994-3.939 14.57-3.203 20.041.681 5.018 2.977 9.156 6.974 12.67h34.81l6.604-29.365-1.758-20.354c-.085-1.021-.283-1.928-.566-2.75-.283-.851-.709-1.673-1.247-2.495z"/>
		<path id="_x35_" d="m108.287 23.556c1.105 0 1.984.879 1.984 1.984s-.879 2.013-1.984 2.013h-59.754c-1.105 0-1.984-.907-1.984-2.013s.879-1.984 1.984-1.984zm-97.058-.085c1.105 0 2.013.907 2.013 2.013s-.907 1.984-2.013 1.984h-8.107c-1.105 0-2.013-.878-2.013-1.984s.907-2.013 2.013-2.013z"/>
		<path id="_x34_" d="m31.894 68.287c0 1.105-.907 2.012-2.013 2.012-1.105 0-1.984-.906-1.984-2.012v-31.607c0-1.105.878-2.013 1.984-2.013s2.013.907 2.013 2.013zm0-59.613c0 1.105-.907 2.013-2.013 2.013-1.105 0-1.984-.907-1.984-2.013v-6.662c0-1.105.878-2.012 1.984-2.012s2.013.907 2.013 2.012z"/>
		<path id="_x33_" d="m41.645 36.652c.283 1.049-.34 2.154-1.417 2.438-1.049.284-2.154-.34-2.438-1.389-.624-2.268-1.332-4.394-2.579-6.151-1.134-1.559-2.778-2.919-5.33-3.968-2.551 1.049-4.167 2.409-5.301 3.968-1.275 1.757-1.984 3.883-2.579 6.151-.312 1.049-1.389 1.672-2.466 1.389-1.049-.283-1.672-1.389-1.389-2.438.709-2.636 1.559-5.159 3.203-7.427.539-.766 1.191-1.502 1.928-2.183-4.564-1.843-7.285-4.819-8.447-7.597-.51-1.219-.708-2.438-.68-3.543.057-1.248.425-2.353 1.077-3.26 1.162-1.644 3.175-2.522 5.811-2.069 2.324.397 4.875 1.786 7.001 4.791.652.907 1.275 2.012 1.842 3.288.567-1.276 1.191-2.381 1.871-3.288 2.126-3.005 4.649-4.394 6.973-4.791 2.665-.453 4.649.425 5.839 2.069.652.907 1.021 2.013 1.077 3.26.028 1.105-.198 2.324-.68 3.543-1.162 2.778-3.883 5.754-8.447 7.597.737.68 1.361 1.417 1.928 2.183 1.616 2.268 2.466 4.791 3.203 7.427zm-14.06-12.416c-.737-2.891-1.701-5.045-2.806-6.576-1.417-2.013-3.005-2.92-4.394-3.146-.964-.17-1.616.028-1.928.454-.198.283-.312.652-.312 1.077-.028.567.085 1.19.369 1.871 1.021 2.437 3.883 5.101 9.071 6.32zm7.398-6.576c-1.077 1.531-2.069 3.685-2.778 6.576 5.188-1.219 8.05-3.883 9.042-6.321.283-.68.425-1.304.397-1.871-.028-.425-.114-.794-.312-1.077-.312-.425-.964-.624-1.956-.454-1.388.227-2.947 1.134-4.393 3.147z"/>
		<path id="_x32_" d="m8.253 87.816h8.815c-1.077-1.162-1.814-2.408-2.239-3.656-.737-2.182-.567-4.648.936-6.463 1.304-1.559 3.345-2.381 5.953-1.928 2.183.369 4.592 1.672 6.576 4.508.567.822 1.106 1.758 1.587 2.807.51-1.049 1.021-1.984 1.587-2.807 2.013-2.836 4.394-4.139 6.577-4.508 2.636-.453 4.677.369 5.953 1.928 1.531 1.814 1.672 4.281.964 6.463-.425 1.248-1.162 2.494-2.268 3.656h8.815c2.353 0 4.309 1.928 4.309 4.281v7.229c0 1.758-1.077 3.316-2.665 3.969v20.834c0 2.127-1.757 3.883-3.855 3.883h-15.278-8.249-15.279c-2.126 0-3.855-1.756-3.855-3.883v-20.834c-1.587-.652-2.665-2.24-2.665-3.969v-7.229c.001-2.353 1.928-4.281 4.281-4.281zm24.151 0h2.721c3.515-1.105 5.415-3.09 6.038-4.902.283-.852.368-1.957-.227-2.693-.396-.453-1.134-.709-2.211-.539-1.247.227-2.693 1.049-3.968 2.891-.907 1.275-1.701 2.976-2.353 5.243zm-7.738 0h2.693c-.624-2.268-1.446-3.969-2.325-5.244-1.304-1.842-2.721-2.664-3.997-2.891-1.049-.17-1.786.086-2.211.539-.596.736-.482 1.842-.227 2.693.624 1.814 2.523 3.798 6.067 4.903zm13.662 3.998v7.795h12.813.368c.17 0 .284-.113.284-.283v-7.229c0-.143-.113-.283-.284-.283zm-16.894 7.795v-7.795h-13.181c-.142 0-.284.113-.284.283v7.229c0 .17.142.283.284.283h.368zm3.997-7.795v7.795h8.901v-7.795zm7.313 32.202v-20.381h-5.726v20.381zm-9.723 0v-20.381h-12.387v20.381zm13.72-20.381v20.381h12.416v-20.381z"/>
		<path id="_x31_" d="m77.872 109.189h41.952c2.183 0 3.997 1.787 3.997 3.998v10.828c0 1.076-.453 2.098-1.19 2.807-.709.736-1.729 1.189-2.807 1.189h-41.952c-2.183 0-3.997-1.814-3.997-3.996v-10.828c0-2.21 1.814-3.998 3.997-3.998zm41.952 3.999h-41.952v10.828h41.952z"/>
	</g>
</svg>