<svg width="176" height="150" viewBox="0 0 176 150" fill="none" xmlns="http://www.w3.org/2000/svg">
<g opacity="0.2" clip-path="url(#clip0)">
<path fill-rule="evenodd" clip-rule="evenodd" d="M0.771866 126.477C27.0171 113.549 40.1395 98.3579 40.1395 80.9045C28.953 79.6116 19.7028 75.0329 12.3885 67.168C5.0743 59.3032 1.41725 50.1995 1.41725 39.8568C1.41725 28.8675 4.96675 19.6023 12.0659 12.0607C19.165 4.51904 28.0925 0.748291 38.8488 0.748291C50.8958 0.748291 61.3292 5.65027 70.1493 15.4544C78.9694 25.2585 83.3794 37.1633 83.3794 51.1691C83.3794 93.1867 59.9312 126.046 13.0339 149.748L0.771866 126.477ZM93.3924 126.477C119.853 113.549 133.083 98.3579 133.083 80.9045C121.681 79.6116 112.323 75.0329 105.009 67.168C97.6949 59.3032 94.0378 50.1995 94.0378 39.8568C94.0378 28.8675 97.6411 19.6023 104.848 12.0607C112.054 4.51904 121.036 0.748291 131.792 0.748291C143.839 0.748291 154.219 5.65027 162.931 15.4544C171.644 25.2585 176 37.1633 176 51.1691C176 93.1867 152.659 126.046 105.977 149.748L93.3924 126.477Z" fill="#2F80ED"/>
</g>
<defs>
<clipPath id="clip0">
<rect width="176" height="149" fill="white" transform="translate(176 149.748) rotate(-180)"/>
</clipPath>
</defs>
</svg>
