<svg width="32" height="33" viewBox="0 0 32 33" fill="none" xmlns="http://www.w3.org/2000/svg">
<g clip-path="url(#clip0)">
<path d="M28 32.9641H16C15.6463 32.9641 15.3072 32.8236 15.0571 32.5735C14.8071 32.3235 14.6666 31.9844 14.6666 31.6307V28.9641C14.6666 28.6104 14.8071 28.2713 15.0571 28.0213C15.3072 27.7712 15.6463 27.6307 16 27.6307H28C28.3536 27.6307 28.6927 27.7712 28.9428 28.0213C29.1928 28.2713 29.3333 28.6104 29.3333 28.9641V31.6307C29.3333 31.9844 29.1928 32.3235 28.9428 32.5735C28.6927 32.8236 28.3536 32.9641 28 32.9641Z" fill="#2D9CDB"/>
<path d="M28 0.964111H3.99996C3.64634 0.964111 3.3072 1.10459 3.05715 1.35463C2.8071 1.60468 2.66663 1.94382 2.66663 2.29744V4.96411C2.66663 5.31773 2.8071 5.65687 3.05715 5.90692C3.3072 6.15697 3.64634 6.29744 3.99996 6.29744H28C28.3536 6.29744 28.6927 6.15697 28.9428 5.90692C29.1928 5.65687 29.3333 5.31773 29.3333 4.96411V2.29744C29.3333 1.94382 29.1928 1.60468 28.9428 1.35463C28.6927 1.10459 28.3536 0.964111 28 0.964111Z" fill="#56CCF2"/>
<path d="M28 8.96411H3.99996C3.64634 8.96411 3.3072 9.10459 3.05715 9.35463C2.8071 9.60468 2.66663 9.94382 2.66663 10.2974V23.6308C2.66663 23.9844 2.8071 24.3235 3.05715 24.5736C3.3072 24.8236 3.64634 24.9641 3.99996 24.9641H28C28.3536 24.9641 28.6927 24.8236 28.9428 24.5736C29.1928 24.3235 29.3333 23.9844 29.3333 23.6308V10.2974C29.3333 9.94382 29.1928 9.60468 28.9428 9.35463C28.6927 9.10459 28.3536 8.96411 28 8.96411Z" fill="#2F80ED"/>
</g>
<defs>
<clipPath id="clip0">
<rect width="32" height="32" fill="white" transform="translate(0 0.964111)"/>
</clipPath>
</defs>
</svg>
