<svg width="32" height="33" viewBox="0 0 32 33" fill="none" xmlns="http://www.w3.org/2000/svg">
<path d="M30.6666 8.96415V3.63082C30.6666 3.2772 30.5261 2.93806 30.2761 2.68801C30.026 2.43796 29.6869 2.29749 29.3333 2.29749H2.66659C2.31296 2.29749 1.97382 2.43796 1.72378 2.68801C1.47373 2.93806 1.33325 3.2772 1.33325 3.63082V8.96415H30.6666Z" fill="#56CCF2"/>
<path d="M1.33325 11.6309V30.2975C1.33325 30.6511 1.47373 30.9903 1.72378 31.2403C1.97382 31.4904 2.31296 31.6309 2.66659 31.6309H9.33325V11.6309H1.33325Z" fill="#2D9CDB"/>
<path d="M12 31.6309H29.3333C29.687 31.6309 30.0261 31.4904 30.2761 31.2403C30.5262 30.9903 30.6667 30.6511 30.6667 30.2975V11.6309H12V31.6309Z" fill="#2F80ED"/>
</svg>
