<svg width="15" height="15" viewBox="0 0 15 15" fill="none" xmlns="http://www.w3.org/2000/svg">
<path d="M7.25665 5.20684C5.9471 5.20684 4.8784 6.27554 4.8784 7.5851C4.8784 8.89466 5.9471 9.96336 7.25665 9.96336C8.56621 9.96336 9.63491 8.89466 9.63491 7.5851C9.63491 6.27554 8.56621 5.20684 7.25665 5.20684ZM14.3896 7.5851C14.3896 6.60026 14.3986 5.62433 14.3433 4.64127C14.2879 3.49942 14.0275 2.48603 13.1925 1.65106C12.3557 0.814296 11.3441 0.555596 10.2023 0.500287C9.21742 0.444979 8.2415 0.4539 7.25844 0.4539C6.27359 0.4539 5.29767 0.444979 4.31461 0.500287C3.17276 0.555596 2.15937 0.81608 1.3244 1.65106C0.487636 2.48782 0.228936 3.49942 0.173627 4.64127C0.118319 5.62612 0.12724 6.60204 0.12724 7.5851C0.12724 8.56816 0.118319 9.54587 0.173627 10.5289C0.228936 11.6708 0.48942 12.6842 1.3244 13.5191C2.16116 14.3559 3.17276 14.6146 4.31461 14.6699C5.29946 14.7252 6.27538 14.7163 7.25844 14.7163C8.24328 14.7163 9.21921 14.7252 10.2023 14.6699C11.3441 14.6146 12.3575 14.3541 13.1925 13.5191C14.0292 12.6824 14.2879 11.6708 14.3433 10.5289C14.4003 9.54587 14.3896 8.56994 14.3896 7.5851ZM7.25665 11.2444C5.23166 11.2444 3.59739 9.6101 3.59739 7.5851C3.59739 5.5601 5.23166 3.92583 7.25665 3.92583C9.28165 3.92583 10.9159 5.5601 10.9159 7.5851C10.9159 9.6101 9.28165 11.2444 7.25665 11.2444ZM11.0658 4.63057C10.593 4.63057 10.2112 4.24876 10.2112 3.77596C10.2112 3.30317 10.593 2.92136 11.0658 2.92136C11.5386 2.92136 11.9204 3.30317 11.9204 3.77596C11.9205 3.88823 11.8985 3.99942 11.8556 4.10317C11.8127 4.20692 11.7498 4.30119 11.6704 4.38057C11.591 4.45996 11.4967 4.5229 11.393 4.5658C11.2893 4.6087 11.1781 4.63071 11.0658 4.63057Z" fill="white"/>
</svg>
