<svg xmlns="http://www.w3.org/2000/svg" xmlns:xlink="http://www.w3.org/1999/xlink" viewBox="0 0 480 472.8">
	<defs>
		<style>.cls-1{fill:url(#Безымянный_градиент_30);}.cls-2{fill:url(#Безымянный_градиент_30-2);}.cls-3{fill:url(#Безымянный_градиент_30-3);}.cls-4{fill:url(#Безымянный_градиент_30-4);}.cls-5{fill:url(#Безымянный_градиент_30-5);}.cls-6{fill:url(#Безымянный_градиент_30-6);}.cls-7{fill:url(#Безымянный_градиент_30-8);}.cls-8{fill:url(#Безымянный_градиент_30-9);}.cls-9{fill:url(#Безымянный_градиент_30-10);}.cls-10{fill:url(#Безымянный_градиент_30-11);}.cls-11{fill:url(#Безымянный_градиент_30-12);}.cls-12{fill:url(#Безымянный_градиент_30-13);}.cls-13{fill:url(#Безымянный_градиент_30-14);}.cls-14{fill:url(#Безымянный_градиент_30-15);}.cls-15{fill:url(#Безымянный_градиент_30-16);}.cls-16{fill:url(#Безымянный_градиент_30-17);}.cls-17{fill:url(#Безымянный_градиент_30-18);}.cls-18{fill:url(#Безымянный_градиент_30-19);}</style>
		<linearGradient id="Безымянный_градиент_30" x1="-9.33" y1="382.94" x2="496.22" y2="378.8" gradientUnits="userSpaceOnUse">
			<stop offset="0" stop-color="#c1207f"/>
			<stop offset="0.5" stop-color="#ef33ee"/>
			<stop offset="1" stop-color="#8209b7"/>
		</linearGradient>
		<linearGradient id="Безымянный_градиент_30-2" x1="-9.37" y1="378.58" x2="496.18" y2="374.44" xlink:href="#Безымянный_градиент_30"/>
		<linearGradient id="Безымянный_градиент_30-3" x1="-8.63" y1="468.74" x2="496.92" y2="464.6" xlink:href="#Безымянный_градиент_30"/>
		<linearGradient id="Безымянный_градиент_30-4" x1="-10.95" y1="185.58" x2="494.6" y2="181.43" xlink:href="#Безымянный_градиент_30"/>
		<linearGradient id="Безымянный_градиент_30-5" x1="-10.95" y1="185.49" x2="494.6" y2="181.34" xlink:href="#Безымянный_градиент_30"/>
		<linearGradient id="Безымянный_градиент_30-6" x1="-10.93" y1="188.17" x2="494.62" y2="184.02" xlink:href="#Безымянный_градиент_30"/>
		<linearGradient id="Безымянный_градиент_30-8" x1="-11.79" y1="82.93" x2="493.76" y2="78.79" xlink:href="#Безымянный_градиент_30"/>
		<linearGradient id="Безымянный_градиент_30-9" x1="-11.79" y1="82.93" x2="493.76" y2="78.79" xlink:href="#Безымянный_градиент_30"/>
		<linearGradient id="Безымянный_градиент_30-10" x1="-10.61" y1="226.85" x2="494.94" y2="222.71" xlink:href="#Безымянный_градиент_30"/>
		<linearGradient id="Безымянный_градиент_30-11" x1="-10.48" y1="243.25" x2="495.08" y2="239.1" xlink:href="#Безымянный_градиент_30"/>
		<linearGradient id="Безымянный_градиент_30-12" x1="-10.55" y1="234.53" x2="495" y2="230.38" xlink:href="#Безымянный_градиент_30"/>
		<linearGradient id="Безымянный_градиент_30-13" x1="-12.09" y1="46.06" x2="493.46" y2="41.92" xlink:href="#Безымянный_градиент_30"/>
		<linearGradient id="Безымянный_градиент_30-14" x1="-12.27" y1="25.1" x2="493.29" y2="20.95" xlink:href="#Безымянный_градиент_30"/>
		<linearGradient id="Безымянный_градиент_30-15" x1="-11.94" y1="65.55" x2="493.62" y2="61.41" xlink:href="#Безымянный_градиент_30"/>
		<linearGradient id="Безымянный_градиент_30-16" x1="-10.17" y1="281.01" x2="495.38" y2="276.87" xlink:href="#Безымянный_градиент_30"/>
		<linearGradient id="Безымянный_градиент_30-17" x1="-10.14" y1="284.75" x2="495.42" y2="280.61" xlink:href="#Безымянный_градиент_30"/>
		<linearGradient id="Безымянный_градиент_30-18" x1="-12.31" y1="19.85" x2="493.24" y2="15.71" xlink:href="#Безымянный_градиент_30"/>
		<linearGradient id="Безымянный_градиент_30-19" x1="-11.85" y1="76.5" x2="493.71" y2="72.36" xlink:href="#Безымянный_градиент_30"/>
	</defs>
	<g id="Слой_2" data-name="Слой 2">
		<g id="Слой_1-2" data-name="Слой 1">
			<g id="Expand">
				<path class="cls-1" d="M448,456.8H432v-72h24v-16H432v-16h40a8,8,0,0,0,5.66-13.66l-48-48A8,8,0,0,0,424,288.8H56a8,8,0,0,0-5.66,2.34l-48,48A8,8,0,0,0,8,352.8H40v104H0v16H448Zm-32,0H320v-72h96Zm-272-128v128H128V332.11l24-24,42.34,42.35A8,8,0,0,0,200,352.8h64v16H232v16h32v72H160v-128Zm-40,24a8,8,0,0,0,5.66-2.34l2.34-2.35V456.8H88v-104Zm200,0v16H280v-16Zm-24,32h24v72H280Zm136-16H320v-16h96Zm4.69-64,32,32H203.31l-32-32Zm-361.38,0h73.38l-32,32H27.31ZM56,352.8H72v104H56Z"/>
				<rect class="cls-2" x="200" y="368.8" width="16" height="16"/>
				<rect class="cls-3" x="464" y="456.8" width="16" height="16"/>
				<path class="cls-4" d="M58.89,189.6a22.7,22.7,0,0,0,23.37,5.51l16.55-5.51a6.83,6.83,0,0,1,7,11.31l-1.66,1.66a6.84,6.84,0,0,1-9.66,0l-.8-.8L82.37,213.08l.8.8a22.54,22.54,0,0,0,26.64,4l6.48,6.48,11.31-11.31-6.48-6.48a22.74,22.74,0,0,0-27.38-32.15l-16.55,5.51a6.83,6.83,0,0,1-7-11.31L71.86,167a6.83,6.83,0,0,1,9.66,0l.8.8,11.31-11.31-.8-.8a22.76,22.76,0,0,0-26.64-4l-6.48-6.48L48.4,156.51,54.88,163A22.79,22.79,0,0,0,58.89,189.6Z"/>
				<path class="cls-5" d="M8,184.8a80.25,80.25,0,1,0,23.93-57.07l-.5.5A79.48,79.48,0,0,0,8,184.8Zm80-64a64,64,0,1,1-45.26,18.74A64,64,0,0,1,88,120.8Z"/>
				<path class="cls-6" d="M428.29,145.2l-6.48,6.48a22.74,22.74,0,0,0-32.15,27.38l5.51,16.55a6.83,6.83,0,0,1-11.31,7l-1.66-1.66a6.83,6.83,0,0,1,0-9.66l.8-.8-11.31-11.31-.8.8a22.79,22.79,0,0,0-4,26.64l-6.48,6.48,11.31,11.31,6.48-6.48a22.74,22.74,0,0,0,32.15-27.38L404.8,174a6.83,6.83,0,0,1,11.31-7l1.66,1.66a6.84,6.84,0,0,1,0,9.66l-.8.8,11.31,11.31.8-.8a22.79,22.79,0,0,0,4-26.64l6.48-6.48Z"/>
				<path class="cls-6" d="M400,104.8a80,80,0,1,0,56.57,23.43A80,80,0,0,0,400,104.8Zm45.26,125.26A64,64,0,1,1,464,184.8,64,64,0,0,1,445.26,230.06Z"/>
				<path class="cls-7" d="M256,42V32.8H240V42a22.76,22.76,0,0,0-3.38,42.1l15.6,7.79a6.83,6.83,0,0,1-3.05,13h-2.34A6.83,6.83,0,0,1,240,98V96.8H224V98a22.79,22.79,0,0,0,16,21.67v9.16h16v-9.16a22.76,22.76,0,0,0,3.38-42.1l-15.6-7.79a6.83,6.83,0,0,1,3.05-13h2.34A6.83,6.83,0,0,1,256,63.63V64.8h16V63.63A22.79,22.79,0,0,0,256,42Z"/>
				<path class="cls-8" d="M328,80.8a80,80,0,1,0-80,80A80,80,0,0,0,328,80.8Zm-80,64a64,64,0,1,1,64-64A64,64,0,0,1,248,144.8Z"/>
				<rect class="cls-9" x="232" y="176.8" width="16" height="96"/>
				<path class="cls-10" d="M264,272.8h16v-32a16,16,0,0,1,16-16v-16a32,32,0,0,0-32,32Z"/>
				<path class="cls-11" d="M216,272.8v-48a32,32,0,0,0-32-32v16a16,16,0,0,1,16,16v48Z"/>
				<path class="cls-12" d="M170.46,0A111.09,111.09,0,0,0,136,80.8q0,4.35.33,8.62l15.95-1.24Q152,84.54,152,80.8a95.2,95.2,0,0,1,29.54-69.27Z"/>
				<rect class="cls-13" x="16" y="16.8" width="16" height="16"/>
				<rect class="cls-14" x="72" y="56.8" width="16" height="16"/>
				<rect class="cls-15" x="8" y="272.8" width="16" height="16"/>
				<rect class="cls-16" x="464" y="272.8" width="16" height="16"/>
				<rect class="cls-17" x="352" y="8.8" width="16" height="16"/>
				<rect class="cls-18" x="432" y="64.8" width="16" height="16"/>
			</g>
		</g>
	</g>
</svg>