<svg version="1.1" id="Слой_1" xmlns="http://www.w3.org/2000/svg" xmlns:xlink="http://www.w3.org/1999/xlink" x="0px" y="0px"
	 viewBox="0 0 512 512" style="enable-background:new 0 0 512 512;" xml:space="preserve">
<style type="text/css">
	.st0{fill:url(#SVGID_1_);}
	.st1{fill:url(#SVGID_2_);}
	.st2{fill:url(#SVGID_3_);}
	.st3{fill:url(#SVGID_4_);}
</style>
<linearGradient id="SVGID_1_" gradientUnits="userSpaceOnUse" x1="-4.6583" y1="254.8216" x2="500.3416" y2="257.8216">
	<stop  offset="4.475343e-07" style="stop-color:#C1207F"/>
	<stop  offset="0.5019" style="stop-color:#EF33EE"/>
	<stop  offset="1" style="stop-color:#8209B7"/>
</linearGradient>
<path class="st0" d="M358.1,496l-61.4-32.3c-25.5-13.4-55.9-13.4-81.4,0L153.9,496c-17.6,9.2-38.5,7.7-54.5-3.9S75.4,461,78.8,441.4
	L90.5,373c4.9-28.4-4.5-57.3-25.2-77.4l-49.7-48.4C1.5,233.3-3.6,213,2.6,194.1c6.1-18.9,22.1-32.4,41.8-35.2l68.7-10
	c28.5-4.1,53.1-22,65.9-47.9l30.7-62.2C218.4,21.1,236.2,10,256,10c19.8,0,37.6,11.1,46.4,28.9l16.7,33.8c1.8,3.7,0.3,8.2-3.4,10
	c-3.7,1.8-8.2,0.3-10-3.4L289,45.5C282.6,32.7,270.3,25,256,25s-26.6,7.7-33,20.5l-30.7,62.2c-14.9,30.2-43.8,51.2-77.2,56.1
	l-68.7,10c-14.2,2.1-25.2,11.4-29.7,25c-4.4,13.6-0.9,27.7,9.3,37.7l49.7,48.4c24.2,23.5,35.2,57.4,29.5,90.7L93.6,444
	c-2.4,14.1,3.1,27.5,14.6,35.9c11.6,8.4,26,9.5,38.7,2.8l61.4-32.3c29.9-15.7,65.5-15.7,95.4,0l61.4,32.3
	c12.7,6.7,27.1,5.6,38.7-2.8c11.6-8.4,17-21.8,14.6-35.9l-11.7-68.4c-5.7-33.2,5.3-67.2,29.5-90.7l49.7-48.4
	c10.2-10,13.7-24.1,9.3-37.7c-4.4-13.6-15.5-23-29.7-25l-68.7-10c-33.4-4.9-62.2-25.8-77.2-56.1c-1.8-3.7-0.3-8.2,3.4-10
	s8.2-0.3,10,3.4c12.7,25.8,37.4,43.7,65.9,47.9l68.7,10c19.6,2.9,35.6,16.4,41.8,35.2s1.1,39.2-13.1,53.1l-49.7,48.4
	c-20.6,20.1-30,49-25.2,77.4l11.7,68.4c3.4,19.6-4.5,39-20.6,50.6C403.6,498.6,381.1,507.6,358.1,496z"/>
<linearGradient id="SVGID_2_" gradientUnits="userSpaceOnUse" x1="-4.8041" y1="279.3533" x2="500.1959" y2="282.3533">
	<stop  offset="4.475343e-07" style="stop-color:#C1207F"/>
	<stop  offset="0.5019" style="stop-color:#EF33EE"/>
	<stop  offset="1" style="stop-color:#8209B7"/>
</linearGradient>
<path class="st1" d="M167.1,360.6c-9.8,0-18.4-6.3-21.4-15.6l-4.9-15.3c-1.3-3.9,0.9-8.2,4.8-9.4c3.9-1.3,8.2,0.9,9.4,4.8l4.9,15.3
	c1,3.1,3.9,5.2,7.1,5.2s6.1-2.1,7.1-5.2l37.3-115.2c1.3-3.9-0.9-8.2-4.8-9.4c-6.3-1.9-8.8,2.9-9.4,4.8l-23.1,71.2
	c-1,3.1-3.9,5.2-7.1,5.2c-3.2,0-6.1-2.1-7.1-5.2l-23.1-71.2c-0.6-1.9-3.3-6.6-9.4-4.8c-4,1.1-6.1,5.5-4.8,9.4l22.2,68.5
	c1.3,3.9-0.9,8.2-4.8,9.4s-8.2-0.9-9.4-4.8l-22.2-68.5c-1.9-5.7-3.8-22.5,14.5-28.3s26.5,8.8,28.3,14.5l15.9,49.2l15.9-49.2
	c1.9-5.7,9.6-19.7,28.3-14.5c18.8,5.2,16.3,22.6,14.5,28.3l-37.3,115.2C185.5,354.4,176.9,360.6,167.1,360.6z"/>
<linearGradient id="SVGID_3_" gradientUnits="userSpaceOnUse" x1="-4.8017" y1="278.955" x2="500.1983" y2="281.955">
	<stop  offset="4.475343e-07" style="stop-color:#C1207F"/>
	<stop  offset="0.5019" style="stop-color:#EF33EE"/>
	<stop  offset="1" style="stop-color:#8209B7"/>
</linearGradient>
<path class="st2" d="M256,360.6c-12.4,0-22.5-10.1-22.5-22.5V222.9c0-12.4,10.1-22.5,22.5-22.5s22.5,10.1,22.5,22.5v115.2
	C278.5,350.5,268.4,360.6,256,360.6z M256,215.4c-4.1,0-7.5,3.4-7.5,7.5v115.2c0,4.1,3.4,7.5,7.5,7.5s7.5-3.4,7.5-7.5V222.9
	C263.5,218.7,260.1,215.4,256,215.4z"/>
<linearGradient id="SVGID_4_" gradientUnits="userSpaceOnUse" x1="-4.799" y1="278.496" x2="500.201" y2="281.496">
	<stop  offset="4.475343e-07" style="stop-color:#C1207F"/>
	<stop  offset="0.5019" style="stop-color:#EF33EE"/>
	<stop  offset="1" style="stop-color:#8209B7"/>
</linearGradient>
<path class="st3" d="M313.5,360.6c-12.4,0-22.5-10.1-22.5-22.5V222.9c0-12.4,10.1-22.5,22.5-22.5H353c27.8,0,50.4,22.6,50.4,50.4
	v16.4c0,27.8-22.6,50.4-50.4,50.4h-17v20.4C336,350.5,325.9,360.6,313.5,360.6z M313.5,215.4c-4.1,0-7.5,3.4-7.5,7.5v115.2
	c0,4.1,3.4,7.5,7.5,7.5s7.5-3.4,7.5-7.5v-27.9c0-4.1,3.4-7.5,7.5-7.5H353c19.5,0,35.4-15.9,35.4-35.4v-16.4
	c0-19.5-15.9-35.4-35.4-35.4H313.5z M353,287.7h-24.5c-4.1,0-7.5-3.4-7.5-7.5v-42.3c0-4.1,3.4-7.5,7.5-7.5H353
	c11.3,0,20.4,9.2,20.4,20.4v16.4C373.4,278.5,364.2,287.7,353,287.7z M336,272.7h17c3,0,5.4-2.4,5.4-5.4v-16.4c0-3-2.4-5.4-5.4-5.4
	h-17V272.7z"/>
</svg>
