<?xml version="1.0" encoding="utf-8"?>
<!-- Generator: Adobe Illustrator 17.1.0, SVG Export Plug-In . SVG Version: 6.00 Build 0)  -->
<!DOCTYPE svg PUBLIC "-//W3C//DTD SVG 1.1//EN" "http://www.w3.org/Graphics/SVG/1.1/DTD/svg11.dtd">
<svg version="1.1" id="Capa_1" xmlns="http://www.w3.org/2000/svg" xmlns:xlink="http://www.w3.org/1999/xlink" x="0px" y="0px"
	 viewBox="2.1 2.5 10.9 15" enable-background="new 2.1 2.5 10.9 15" xml:space="preserve">
<g>
	<g>
		<path fill="#FFFFFF" d="M11.9,2.5H3.1c-0.6,0-1,0.5-1,1v13c0,0.6,0.5,1,1,1h8.9c0.6,0,1-0.5,1-1v-13C12.9,3,12.5,2.5,11.9,2.5z
			 M12.6,16.5c0,0.3-0.3,0.6-0.6,0.6H3.1c-0.3,0-0.6-0.3-0.6-0.6v-1.7h10.1C12.6,14.8,12.6,16.5,12.6,16.5z M12.6,14.4H2.4V4.6h10.1
			C12.6,4.6,12.6,14.4,12.6,14.4z M12.6,4.2H2.4V3.5c0-0.3,0.3-0.6,0.6-0.6h8.9c0.3,0,0.6,0.3,0.6,0.6V4.2z"/>
	</g>
</g>
<g>
	<g>
		<path fill="#FFFFFF" d="M7.5,15.2c-0.4,0-0.8,0.3-0.8,0.8c0,0,0,0,0,0c0,0.4,0.3,0.8,0.8,0.8c0.4,0,0.8-0.3,0.8-0.8
			C8.3,15.6,7.9,15.2,7.5,15.2z M7.5,16.4c-0.2,0-0.4-0.2-0.4-0.4c0-0.2,0.2-0.4,0.4-0.4s0.4,0.2,0.4,0.4
			C7.9,16.2,7.7,16.4,7.5,16.4z"/>
	</g>
</g>
</svg>
