<svg id="Layer_1" data-name="Layer 1" xmlns="http://www.w3.org/2000/svg" xmlns:xlink="http://www.w3.org/1999/xlink" viewBox="0 0 500 500"><defs><style>.cls-1{fill:none;}.cls-2{fill:#3d2600;}.cls-3{fill:#115417;}.cls-4{fill:#020202;}.cls-5{fill:#d3b775;}.cls-6{opacity:0.88;}.cls-7{clip-path:url(#clip-path);}.cls-8{clip-path:url(#clip-path-7);}.cls-9{fill:#d2b77f;}</style><clipPath id="clip-path"><rect class="cls-1" x="123.04" y="300.53" width="252.16" height="49.93"/></clipPath><clipPath id="clip-path-7"><rect class="cls-1" x="124.8" y="298.77" width="252.16" height="49.93"/></clipPath></defs><title>207_500x500_dark</title><circle class="cls-2" cx="243.25" cy="148.55" r="3.3"/><path class="cls-2" d="M281.74,157a63.2,63.2,0,0,0-29.43-11.6l-.59,7a56.25,56.25,0,0,1,25.4,10Z"/><path class="cls-2" d="M201.38,169.81a3.3,3.3,0,1,0,0-6.6,3.24,3.24,0,0,0-2.22.87c-.13.13-.25.28-.39.42a3.34,3.34,0,0,0-.69,2A3.3,3.3,0,0,0,201.38,169.81Z"/><path class="cls-2" d="M235,152.78l-.92-6.95a63.17,63.17,0,0,0-28,12.22l4.29,5.46A56.2,56.2,0,0,1,235,152.78Z"/><path class="cls-2" d="M300.35,199.7l7-.61a63.14,63.14,0,0,0-12.64-29.54l-5.25,4.73A56.32,56.32,0,0,1,300.35,199.7Z"/><path class="cls-2" d="M198.55,175.53,193,171.36a63.14,63.14,0,0,0-11.31,27.73l6.84.78A56.54,56.54,0,0,1,198.55,175.53Z"/><circle class="cls-2" cx="286.19" cy="165.45" r="3.3"/><path class="cls-2" d="M304.59,204.92a3.31,3.31,0,1,0,3.3,3.3A3.3,3.3,0,0,0,304.59,204.92Z"/><path class="cls-2" d="M286.5,248.3a3.3,3.3,0,1,0,2.22,5.73l.22-.21a3.3,3.3,0,0,0-2.44-5.52Z"/><path class="cls-2" d="M184.54,211.56a3.3,3.3,0,0,0,3.3-3.22s0-.08,0-.11a3.31,3.31,0,1,0-3.31,3.33Z"/><path class="cls-2" d="M252,264.66l.3,6.8a63.19,63.19,0,0,0,29.61-11.69l-4.65-5.11A56.28,56.28,0,0,1,252,264.66Z"/><path class="cls-2" d="M289.59,242.63l5.29,4.47A63.22,63.22,0,0,0,307.45,217l-7-.29A56.33,56.33,0,0,1,289.59,242.63Z"/><path class="cls-2" d="M243.25,265.3a3.31,3.31,0,1,0,3.31,3.31A3.31,3.31,0,0,0,243.25,265.3Z"/><path class="cls-2" d="M205.57,258.59a63.28,63.28,0,0,0,28.73,12.57l.58-6.78a56.38,56.38,0,0,1-24.71-10.83Z"/><path class="cls-2" d="M188.47,217l-6.82.29A63.08,63.08,0,0,0,193.1,245.7l5.18-4.39A56.15,56.15,0,0,1,188.47,217Z"/><path class="cls-2" d="M201.34,246.87a3.3,3.3,0,1,0,3.31,3.3A3.3,3.3,0,0,0,201.34,246.87Z"/><path class="cls-3" d="M295.88,208.59A51.43,51.43,0,1,0,244.45,260,51.49,51.49,0,0,0,295.88,208.59Z"/><path class="cls-4" d="M242.29,141.77a68.94,68.94,0,1,0,68.93,68.93A69,69,0,0,0,242.29,141.77Zm50.14,30a63.2,63.2,0,0,1,12.65,29.54l-7,.61a56.39,56.39,0,0,0-10.93-25.41Zm13.23,38.68a3.31,3.31,0,1,1-3.31-3.3A3.29,3.29,0,0,1,305.66,210.46ZM196.54,166.73c.13-.13.25-.28.39-.42a3.24,3.24,0,0,1,2.22-.87,3.31,3.31,0,1,1-2.61,1.29Zm45.68-7.34a51.43,51.43,0,1,1-51.43,51.43A51.49,51.49,0,0,1,242.22,159.39Zm41.73,5a3.3,3.3,0,1,1-3.3,3.3A3.3,3.3,0,0,1,284,164.38Zm-33.87-16.7a63.16,63.16,0,0,1,29.42,11.6l-4.62,5.4a56.27,56.27,0,0,0-25.4-10Zm-9.06-.2a3.31,3.31,0,1,1-3.3,3.31A3.3,3.3,0,0,1,241,147.48Zm-8.3,7.53a56.2,56.2,0,0,0-24.66,10.73l-4.3-5.46a63.25,63.25,0,0,1,28-12.22ZM190.79,173.6l5.53,4.16a56.43,56.43,0,0,0-10,24.34l-6.84-.77A63.22,63.22,0,0,1,190.79,173.6Zm-8.48,33.58a3.29,3.29,0,0,1,3.3,3.28s0,.07,0,.11a3.3,3.3,0,1,1-3.29-3.39Zm8.55,40.75a63.13,63.13,0,0,1-11.44-28.46l6.81-.28a56.39,56.39,0,0,0,9.82,24.36Zm8.25,7.78a3.3,3.3,0,1,1,3.3-3.3A3.3,3.3,0,0,1,199.11,255.71Zm33,17.68a63.17,63.17,0,0,1-28.73-12.57l4.6-5a56.51,56.51,0,0,0,24.71,10.84Zm9,.75a3.3,3.3,0,1,1,3.3-3.3A3.29,3.29,0,0,1,241,274.14Zm9.07-.44-.3-6.8a56.31,56.31,0,0,0,25.25-10l4.66,5.1A63.2,63.2,0,0,1,250.09,273.7Zm36.61-17.65-.21.22a3.34,3.34,0,0,1-2.23.87,3.31,3.31,0,1,1,3.31-3.3A3.26,3.26,0,0,1,286.7,256.05Zm5.95-6.72-5.29-4.47A56.16,56.16,0,0,0,298.24,219l7,.29A63.18,63.18,0,0,1,292.65,249.33Z"/><path class="cls-5" d="M244.52,139.54a68.93,68.93,0,1,0,68.94,68.93A69,69,0,0,0,244.52,139.54Zm50.15,30a63.14,63.14,0,0,1,12.64,29.54l-7,.61a56.32,56.32,0,0,0-10.93-25.42Zm13.22,38.68a3.3,3.3,0,1,1-3.3-3.31A3.3,3.3,0,0,1,307.89,208.23ZM198.77,164.5c.14-.14.26-.29.39-.42a3.26,3.26,0,0,1,2.22-.87,3.3,3.3,0,1,1-3.3,3.3A3.34,3.34,0,0,1,198.77,164.5Zm45.68-7.35A51.44,51.44,0,1,1,193,208.59,51.49,51.49,0,0,1,244.45,157.15Zm41.74,5a3.31,3.31,0,1,1-3.31,3.31A3.3,3.3,0,0,1,286.19,162.14Zm-33.88-16.7A63.2,63.2,0,0,1,281.74,157l-4.62,5.41a56.24,56.24,0,0,0-25.41-10Zm-9.06-.19a3.3,3.3,0,1,1-3.3,3.3A3.31,3.31,0,0,1,243.25,145.25Zm-8.3,7.53a56.2,56.2,0,0,0-24.66,10.73L206,158.05a63.17,63.17,0,0,1,28-12.22ZM193,171.36l5.53,4.17a56.54,56.54,0,0,0-10,24.34l-6.84-.78A63.14,63.14,0,0,1,193,171.36ZM184.54,205a3.31,3.31,0,0,1,3.31,3.27s0,.08,0,.12a3.3,3.3,0,1,1-3.3-3.39Zm8.56,40.75a63.08,63.08,0,0,1-11.45-28.46l6.82-.29a56.15,56.15,0,0,0,9.81,24.36Zm8.24,7.77a3.3,3.3,0,1,1,3.31-3.3A3.3,3.3,0,0,1,201.34,253.47Zm33,17.69a63.28,63.28,0,0,1-28.73-12.57l4.6-5a56.28,56.28,0,0,0,24.71,10.84Zm8.95.75a3.3,3.3,0,1,1,3.31-3.3A3.3,3.3,0,0,1,243.25,271.91Zm9.07-.44-.3-6.81a56.26,56.26,0,0,0,25.26-10l4.65,5.1A63.2,63.2,0,0,1,252.32,271.47Zm36.62-17.65-.22.21a3.3,3.3,0,1,1-2.22-5.73,3.3,3.3,0,0,1,2.44,5.52Zm5.94-6.72-5.29-4.47a56.33,56.33,0,0,0,10.89-25.89l7,.29A63.33,63.33,0,0,1,294.88,247.1Z"/><polygon class="cls-4" points="286.24 208.28 284.38 210.8 282.59 210.36 286.24 208.28"/><polygon class="cls-4" points="200.5 208.28 198.64 210.8 202.38 209.2 200.5 208.28"/><path class="cls-2" d="M243.37,238.36,200.5,208.28l42.87-30.08,42.87,30.08Z"/><path class="cls-4" d="M241.51,240.87,198.64,210.8l42.87-30.08,42.87,30.08ZM207,210.8,241.51,235,276,210.8l-34.49-24.2Z"/><path class="cls-5" d="M243.37,238.36,200.5,208.28l42.87-30.08,42.87,30.08Zm-34.48-30.08,34.48,24.2,34.49-24.2-34.49-24.19Z"/><path class="cls-4" d="M241.27,219.15a8.88,8.88,0,1,1,8.88-8.88A8.89,8.89,0,0,1,241.27,219.15Zm0-13a4.07,4.07,0,1,0,4.07,4.07A4.08,4.08,0,0,0,241.27,206.2Z"/><path class="cls-5" d="M243.5,216.92a8.89,8.89,0,1,1,8.89-8.89A8.89,8.89,0,0,1,243.5,216.92Zm0-12.95a4.07,4.07,0,1,0,4.07,4.07A4.07,4.07,0,0,0,243.5,204Z"/><polygon class="cls-1" points="243.37 184.09 208.89 208.28 243.37 232.48 265.83 216.72 265.83 211.85 272.77 211.85 277.86 208.28 243.37 184.09"/><path class="cls-4" d="M274.09,222a11.83,11.83,0,0,0-2.74-2.51l-4.57,3.21a6.34,6.34,0,0,1,3.51,2.3,6,6,0,0,1,.8,6.17,7.41,7.41,0,0,1-8.12,4.13c-1.52-.4-5-2-5-7.69s-1.49-9-4.85-10.6c7.94-4.35,13.42-12.52,13.42-21.66,0-15.26-13.7-24.7-26.39-24.7a28,28,0,0,0-22.87,12.69,11,11,0,0,0-10.06,4.52,11.92,11.92,0,0,0-2,9.74A10.33,10.33,0,0,0,208.1,203l4.06-2.85a5.91,5.91,0,0,1-2.26-3.67,7.05,7.05,0,0,1,1.22-5.84c2.6-3.65,7.37-2.58,8.95-1.51,1.22.84,3.06,2.1,3.06,6.29,0,3.08-.09,12.3-.17,20.41-.06,6.37-.12,12.06-.12,13.55,0,2.38-2.07,4.78-5,5.82a6.79,6.79,0,0,1-7.87-4c-1.35-3.28.6-7.36,3.75-9.87l-4.06-2.84c-.39.37-1.68,1.72-2,2.12A11.66,11.66,0,0,0,205.47,233a11.93,11.93,0,0,0,10.88,7.26,9.26,9.26,0,0,0,3.06-.5c5-1.74,8.27-5.91,8.27-10.38,0-1.43.06-6.76.11-12.84a24.56,24.56,0,0,0,12.46,3.78,26.41,26.41,0,0,0,7.57-1.12c3.64.77,5.27,3.37,5.27,8.39,0,7.43,4.46,11.26,8.64,12.37a10.19,10.19,0,0,0,2.63.34,12.42,12.42,0,0,0,11.06-7A10.86,10.86,0,0,0,274.09,222Zm-33.84-6.51c-3.87,0-7.93-1.53-12.4-4.66.06-6.58.12-12.94.12-15.4,0-6.73-3.62-9.21-5.2-10.29-.19-.13-.41-.26-.63-.38a23.41,23.41,0,0,1,18-9.27c10.36,0,21.54,7.59,21.54,19.86C261.66,206.22,251.86,215.44,240.25,215.44Z"/><path class="cls-5" d="M277.39,218.93a11.89,11.89,0,0,0-2.74-2.52l-4.57,3.21a6.31,6.31,0,0,1,3.51,2.31,6,6,0,0,1,.8,6.16,7.43,7.43,0,0,1-8.12,4.14c-1.52-.4-5-2-5-7.7s-1.49-9-4.85-10.6c7.94-4.35,13.42-12.52,13.42-21.65,0-15.26-13.7-24.71-26.39-24.71a28,28,0,0,0-22.86,12.7,11,11,0,0,0-10.06,4.51,11.91,11.91,0,0,0-2,9.74,12.29,12.29,0,0,0,3.27,5.86l4.07-2.85a7.48,7.48,0,0,1-2.63-4.11,7,7,0,0,1,1.22-5.83c2.6-3.66,7.37-2.59,9-1.51,1.22.83,3.06,2.1,3.06,6.28,0,3.08-.09,12.3-.17,20.41-.06,6.38-.12,12.06-.12,13.55,0,2.39-2.07,4.78-5,5.82a6.78,6.78,0,0,1-7.87-4c-1.35-3.27-.33-6.38,2.83-8.89L212,216.36c-4,3.76-5.23,8.74-3.24,13.58a11.92,11.92,0,0,0,10.88,7.26,9.26,9.26,0,0,0,3.06-.49c4.95-1.74,8.27-5.92,8.27-10.39,0-1.43.06-6.76.11-12.84a24.45,24.45,0,0,0,12.45,3.78,26.42,26.42,0,0,0,7.58-1.11c3.64.76,5.27,3.37,5.27,8.39,0,7.43,4.46,11.26,8.64,12.37a10.19,10.19,0,0,0,2.63.33,12.41,12.41,0,0,0,11.06-7A10.86,10.86,0,0,0,277.39,218.93Zm-33.84-6.51c-3.87,0-7.93-1.54-12.4-4.66.07-6.59.13-12.95.13-15.4,0-6.74-3.63-9.21-5.21-10.29a5.58,5.58,0,0,0-.63-.39,23.41,23.41,0,0,1,18-9.27c10.36,0,21.55,7.6,21.55,19.87C265,203.19,255.16,212.42,243.55,212.42Z"/><path class="cls-5" d="M222.34,217.71l2,1.4V225l-2.65-1.88Z"/><path class="cls-5" d="M223,198.38c.74-.49,1.41-.91,1.41-.91v-6l-1.76,1.3Z"/><path class="cls-5" d="M253.46,231.25c.66-.45,1.47-1.05,1.47-1.05a20.54,20.54,0,0,1-.49-2.93,19,19,0,0,1,0-2.58s-1.36,1-1.91,1.4S253.46,231.25,253.46,231.25Z"/><path class="cls-5" d="M260.23,195.9l2.06,1.43a19.45,19.45,0,0,0,.49-2.82,19.15,19.15,0,0,0,.07-2.65l-2.16-1.51Z"/><path class="cls-4" d="M267.93,201.38c.19-.51.89-2.32.89-2.32l.37,3.49Z"/><path class="cls-4" d="M261.32,226.09c-.09-1-.13-3.45-.13-3.45l1.16,2.47Z"/><path class="cls-4" d="M230.43,229.44a8,8,0,0,0,.42-2.15c0-.93.14-1,.14-1l.75,4Z"/><path class="cls-4" d="M231.27,192.68c-.05-.88-.09-2.84-.09-2.84l1.07,2.37Z"/><g class="cls-6"><g class="cls-7"><path d="M123,347.15V303.84a3.54,3.54,0,0,1,.25-1.3,3.35,3.35,0,0,1,.71-1.06,3.23,3.23,0,0,1,2.35-1H138.4a14.71,14.71,0,0,1,5.94,1.21,15.53,15.53,0,0,1,8.16,8.2,14.72,14.72,0,0,1,1.22,5.94,15.37,15.37,0,0,1-.52,4,14.65,14.65,0,0,1-1.52,3.68,15.4,15.4,0,0,1-2.53,3.22,17,17,0,0,1-3.51,2.6l10,15.95a3.36,3.36,0,0,1,.53,1.81,3.29,3.29,0,0,1-.25,1.31,3.18,3.18,0,0,1-.7,1,3.24,3.24,0,0,1-1.06.71,3.53,3.53,0,0,1-1.29.25,3.32,3.32,0,0,1-2.85-1.63l-11-17.62h-9.3v15.94a3.31,3.31,0,0,1-6.62,0m6.62-40v17.45h8.74a8.47,8.47,0,0,0,3.4-.69,8.56,8.56,0,0,0,2.76-1.88,9.28,9.28,0,0,0,1.86-2.78,8.44,8.44,0,0,0,.68-3.36,8.64,8.64,0,0,0-.68-3.4,8.81,8.81,0,0,0-4.65-4.65,8.41,8.41,0,0,0-3.38-.69Z"/></g><g class="cls-7"><path d="M175.71,347.15a3.31,3.31,0,1,1-6.61,0V303.84a3.31,3.31,0,1,1,6.61,0Z"/></g><g class="cls-7"><path d="M238.34,325.5A25,25,0,1,1,231,307.86a25.15,25.15,0,0,1,5.51,8.06,24.7,24.7,0,0,1,1.82,9.58m-25-18.36a18,18,0,0,0-7.07,1.35,19.45,19.45,0,0,0-10,9.95,18.22,18.22,0,0,0-1.33,7.05,18.34,18.34,0,1,0,18.36-18.35"/></g><g class="cls-7"><path d="M262.49,300.53a12.63,12.63,0,0,1,5,1,13,13,0,0,1,6.9,6.9,13.06,13.06,0,0,1-1.92,13.28,16.08,16.08,0,0,1,3.34,2.59,15.85,15.85,0,0,1,2.42,3.2,15,15,0,0,1,1.48,3.65,15.78,15.78,0,0,1,.5,3.95,14.72,14.72,0,0,1-1.22,5.94,16,16,0,0,1-3.29,4.89,15.53,15.53,0,0,1-4.87,3.3,14.73,14.73,0,0,1-5.95,1.22h-12a3,3,0,0,1-1.28-.27,3.45,3.45,0,0,1-1-.7,3.15,3.15,0,0,1-.71-1,3.19,3.19,0,0,1-.27-1.3V303.84a3.19,3.19,0,0,1,.27-1.3,3.05,3.05,0,0,1,.71-1,3.47,3.47,0,0,1,1-.71,3.18,3.18,0,0,1,1.28-.26Zm-6.33,6.61v12.64h6.33a5.9,5.9,0,0,0,2.45-.5,6.3,6.3,0,0,0,2-1.37,6.79,6.79,0,0,0,1.36-2,6.1,6.1,0,0,0,.5-2.45,6,6,0,0,0-.5-2.42,6.33,6.33,0,0,0-1.38-2,6.49,6.49,0,0,0-2-1.38,6,6,0,0,0-2.42-.5Zm0,19.26v17.45h8.73a8.62,8.62,0,0,0,6.17-2.57,8.88,8.88,0,0,0,1.86-2.77,8.65,8.65,0,0,0,.68-3.41,8.51,8.51,0,0,0-.68-3.36A8.92,8.92,0,0,0,271,329a8.62,8.62,0,0,0-2.78-1.87,8.36,8.36,0,0,0-3.37-.69Z"/></g><g class="cls-7"><path d="M323.12,343.84a3.31,3.31,0,1,1,0,6.62H294.26a3.34,3.34,0,0,1-1.32-.25,3.18,3.18,0,0,1-1-.7,3.12,3.12,0,0,1-.7-1.05,3.26,3.26,0,0,1-.25-1.31V303.84a3.34,3.34,0,0,1,.25-1.3,3.16,3.16,0,0,1,.7-1.06,3.23,3.23,0,0,1,2.36-1h28.86a3.31,3.31,0,0,1,2.34,5.65,3.19,3.19,0,0,1-2.34,1H297.56v15h18.35a3.31,3.31,0,0,1,2.34,5.65,3.19,3.19,0,0,1-2.34,1H297.56v15h25.56Z"/></g><g class="cls-7"><path d="M371.89,307.14H359.57v40a3.31,3.31,0,1,1-6.62,0v-40H340.62a3.31,3.31,0,1,1,0-6.61h31.27a3.31,3.31,0,1,1,0,6.61"/></g></g><g class="cls-8"><path class="cls-9" d="M124.8,345.39V302.08a3.32,3.32,0,0,1,1-2.36,3.27,3.27,0,0,1,2.36-1h12A14.73,14.73,0,0,1,146.1,300a15.65,15.65,0,0,1,4.87,3.3,16,16,0,0,1,3.29,4.89,14.72,14.72,0,0,1,1.22,5.94,15.32,15.32,0,0,1-.52,4,14.32,14.32,0,0,1-1.53,3.68,15.35,15.35,0,0,1-2.52,3.22,16.38,16.38,0,0,1-3.52,2.6l10,15.95a3.39,3.39,0,0,1,.53,1.81,3.27,3.27,0,0,1-.95,2.36,3.34,3.34,0,0,1-5.2-.67l-11-17.63h-9.3v15.94a3.29,3.29,0,0,1-3.31,3.31,3.29,3.29,0,0,1-3.31-3.31m6.62-40v17.44h8.73a8.51,8.51,0,0,0,6.17-2.57,9.07,9.07,0,0,0,1.85-2.78,8.27,8.27,0,0,0,.69-3.35,8.48,8.48,0,0,0-.69-3.41A8.68,8.68,0,0,0,146.3,308a8.81,8.81,0,0,0-2.78-1.88,8.53,8.53,0,0,0-3.37-.68Z"/></g><g class="cls-8"><path class="cls-9" d="M177.47,345.4a3.32,3.32,0,0,1-5.65,2.34,3.23,3.23,0,0,1-1-2.34V302.08a3.31,3.31,0,0,1,3.31-3.31,3.31,3.31,0,0,1,3.31,3.31Z"/></g><g class="cls-8"><path class="cls-9" d="M240.1,323.74a25.06,25.06,0,1,1-7.34-17.63,25,25,0,0,1,5.51,8.05,24.52,24.52,0,0,1,1.83,9.58m-25-18.35a18.21,18.21,0,0,0-7.07,1.34,18.4,18.4,0,0,0-5.91,4.06,17.39,17.39,0,0,0-5.37,12.95,18.34,18.34,0,1,0,18.35-18.35"/></g><g class="cls-8"><path class="cls-9" d="M264.25,298.77a12.47,12.47,0,0,1,5,1,12.91,12.91,0,0,1,6.89,6.89A13,13,0,0,1,274.23,320a15.82,15.82,0,0,1,3.34,2.59,15.4,15.4,0,0,1,2.42,3.2,14.65,14.65,0,0,1,1.48,3.65,15.34,15.34,0,0,1,.51,4,14.8,14.8,0,0,1-1.22,5.95,15.84,15.84,0,0,1-3.29,4.88,15.68,15.68,0,0,1-4.87,3.31,14.76,14.76,0,0,1-6,1.21h-12a3.18,3.18,0,0,1-1.28-.26,3.47,3.47,0,0,1-1.05-.71,3.22,3.22,0,0,1-.72-1,3.35,3.35,0,0,1-.26-1.3V302.08a3.2,3.2,0,0,1,1-2.34,3.45,3.45,0,0,1,1.05-.7,3,3,0,0,1,1.28-.27Zm-6.34,6.62V318h6.34a6.1,6.1,0,0,0,2.45-.5,6.5,6.5,0,0,0,3.35-3.39,5.93,5.93,0,0,0,.5-2.45,5.86,5.86,0,0,0-.5-2.42,6.46,6.46,0,0,0-1.37-2,6.67,6.67,0,0,0-2-1.38,6,6,0,0,0-2.42-.49Zm0,19.25v17.45h8.74a8.44,8.44,0,0,0,3.4-.69,8.57,8.57,0,0,0,2.77-1.87,8.84,8.84,0,0,0,1.85-2.78,8.47,8.47,0,0,0,.69-3.4,8.36,8.36,0,0,0-.69-3.37,8.73,8.73,0,0,0-1.87-2.78,8.89,8.89,0,0,0-2.78-1.87,8.36,8.36,0,0,0-3.37-.69Z"/></g><g class="cls-8"><path class="cls-9" d="M324.88,342.09a3.31,3.31,0,1,1,0,6.61H296a3.47,3.47,0,0,1-1.31-.24,3.54,3.54,0,0,1-1.05-.71,3.34,3.34,0,0,1-.7-1,3.44,3.44,0,0,1-.25-1.31V302.08a3.54,3.54,0,0,1,.25-1.3,3.32,3.32,0,0,1,.7-1.06,3.51,3.51,0,0,1,1.05-.7,3.29,3.29,0,0,1,1.31-.25h28.87a3.31,3.31,0,0,1,0,6.62H299.32v15h18.35a3.31,3.31,0,0,1,0,6.62H299.32v15Z"/></g><g class="cls-8"><path class="cls-9" d="M373.65,305.39H361.32v40a3.32,3.32,0,0,1-5.65,2.35,3.23,3.23,0,0,1-1-2.35v-40H342.38a3.31,3.31,0,0,1-3.31-3.31,3.31,3.31,0,0,1,3.31-3.31h31.27a3.31,3.31,0,0,1,3.31,3.31,3.31,3.31,0,0,1-3.31,3.31"/></g></svg>