<?xml version="1.0" encoding="utf-8"?>
<!-- Generator: Adobe Illustrator 17.1.0, SVG Export Plug-In . SVG Version: 6.00 Build 0)  -->
<!DOCTYPE svg PUBLIC "-//W3C//DTD SVG 1.1//EN" "http://www.w3.org/Graphics/SVG/1.1/DTD/svg11.dtd">
<svg version="1.1" id="Capa_1" xmlns="http://www.w3.org/2000/svg" xmlns:xlink="http://www.w3.org/1999/xlink" x="0px" y="0px"
	 viewBox="0 20.8 115.4 73.8" enable-background="new 0 20.8 115.4 73.8" xml:space="preserve">
<g>
	<path fill="#FFFFFF" d="M11,87.8h93.3c1.9,0,3.5-1.6,3.5-3.5v-60c0-1.9-1.6-3.5-3.5-3.5H11c-1.9,0-3.5,1.6-3.5,3.5v60
		C7.5,86.2,9.1,87.8,11,87.8z M10.5,24.3c0-0.3,0.2-0.5,0.5-0.5h93.3c0.3,0,0.5,0.2,0.5,0.5v60c0,0.3-0.2,0.5-0.5,0.5H11
		c-0.3,0-0.5-0.2-0.5-0.5V24.3z M115.4,90.5v2.8c0,0.7-0.6,1.3-1.3,1.3H1.3C0.6,94.6,0,94,0,93.3v-2.8h47.4c0.2,0.8,1,1.4,1.8,1.4
		h17c0.9,0,1.6-0.6,1.8-1.4H115.4z"/>
</g>
</svg>
