<?xml version="1.0" encoding="utf-8"?>
<!-- Generator: Adobe Illustrator 17.1.0, SVG Export Plug-In . SVG Version: 6.00 Build 0)  -->
<!DOCTYPE svg PUBLIC "-//W3C//DTD SVG 1.1//EN" "http://www.w3.org/Graphics/SVG/1.1/DTD/svg11.dtd">
<svg version="1.1" id="Capa_1" xmlns="http://www.w3.org/2000/svg" xmlns:xlink="http://www.w3.org/1999/xlink" x="0px" y="0px"
	 viewBox="0 0 512 512" enable-background="new 0 0 512 512" xml:space="preserve">
<g>
	<linearGradient id="SVGID_1_" gradientUnits="userSpaceOnUse" x1="211" y1="256" x2="301" y2="256">
		<stop  offset="0" style="stop-color:#FD035F"/>
		<stop  offset="1" style="stop-color:#6C2C8C"/>
	</linearGradient>
	<path fill="url(#SVGID_1_)" d="M241,151v32.8c-17.4,6.2-30,22.7-30,42.2c0,24.8,20.2,45,45,45c8.3,0,15,6.7,15,15s-6.7,15-15,15
		s-15-6.7-15-15h-30c0,19.5,12.6,36,30,42.2V361h30v-32.8c17.4-6.2,30-22.7,30-42.2c0-24.8-20.2-45-45-45c-8.3,0-15-6.7-15-15
		s6.7-15,15-15s15,6.7,15,15h30c0-19.5-12.6-36-30-42.2V151H241z"/>
	<linearGradient id="SVGID_2_" gradientUnits="userSpaceOnUse" x1="271" y1="120.5" x2="512" y2="120.5">
		<stop  offset="0" style="stop-color:#FD035F"/>
		<stop  offset="1" style="stop-color:#6C2C8C"/>
	</linearGradient>
	<path fill="url(#SVGID_2_)" d="M271,0v122.5c62.3,7,111.6,56.2,118.6,118.5H512C504.5,112.2,399.8,7.5,271,0z"/>
	<linearGradient id="SVGID_3_" gradientUnits="userSpaceOnUse" x1="0" y1="212.5995" x2="241" y2="212.5995">
		<stop  offset="0" style="stop-color:#FD035F"/>
		<stop  offset="1" style="stop-color:#6C2C8C"/>
	</linearGradient>
	<path fill="url(#SVGID_3_)" d="M151,339.8c-18.5-23.1-30-52-30-83.8c0-69.3,52.7-125.9,120-133.5V0C107.2,7.8,0,120.2,0,256
		c0,65,25.5,124.2,65.6,169.2L151,339.8z"/>
	<linearGradient id="SVGID_4_" gradientUnits="userSpaceOnUse" x1="86.801" y1="391.5" x2="511.973" y2="391.5">
		<stop  offset="0" style="stop-color:#FD035F"/>
		<stop  offset="1" style="stop-color:#6C2C8C"/>
	</linearGradient>
	<path fill="url(#SVGID_4_)" d="M512,271H389.5c-7.6,67.3-64.2,120-133.5,120c-31.8,0-60.7-11.5-83.8-30l-85.4,85.4
		C131.8,486.5,191,512,256,512C391.8,512,504.2,404.8,512,271L512,271z"/>
</g>
</svg>
