<?xml version="1.0" encoding="utf-8"?>
<!-- Generator: Adobe Illustrator 17.1.0, SVG Export Plug-In . SVG Version: 6.00 Build 0)  -->
<!DOCTYPE svg PUBLIC "-//W3C//DTD SVG 1.1//EN" "http://www.w3.org/Graphics/SVG/1.1/DTD/svg11.dtd">
<svg version="1.1" id="Capa_1" xmlns="http://www.w3.org/2000/svg" xmlns:xlink="http://www.w3.org/1999/xlink" x="0px" y="0px"
	 viewBox="3.4 2.5 8.2 15" enable-background="new 3.4 2.5 8.2 15" xml:space="preserve">
<g>
	<g>
		<linearGradient id="SVGID_1_" gradientUnits="userSpaceOnUse" x1="3.3829" y1="10" x2="11.6171" y2="10">
			<stop  offset="0" style="stop-color:#FD035F"/>
			<stop  offset="1" style="stop-color:#6C2C8C"/>
		</linearGradient>
		<path fill="url(#SVGID_1_)" d="M10.6,2.5H4.4c-0.6,0-1,0.5-1,1v13c0,0.6,0.5,1,1,1h6.2l0,0c0.6,0,1-0.5,1-1v-13
			C11.6,3,11.2,2.5,10.6,2.5z M11.2,16.5c0,0.3-0.3,0.6-0.6,0.6H4.4c-0.3,0-0.6-0.3-0.6-0.6v-1.7h7.5V16.5z M11.2,14.4H3.8V4.6h7.5
			V14.4z M11.2,4.2H3.8V3.5c0-0.3,0.3-0.6,0.6-0.6h6.2c0.3,0,0.6,0.3,0.6,0.6C11.2,3.5,11.2,4.2,11.2,4.2z"/>
	</g>
</g>
<g>
	<g>
		<linearGradient id="SVGID_2_" gradientUnits="userSpaceOnUse" x1="6.7281" y1="15.9954" x2="8.2719" y2="15.9954">
			<stop  offset="0" style="stop-color:#FD035F"/>
			<stop  offset="1" style="stop-color:#6C2C8C"/>
		</linearGradient>
		<path fill="url(#SVGID_2_)" d="M7.5,15.2c-0.4,0-0.8,0.3-0.8,0.8s0.3,0.8,0.8,0.8s0.8-0.3,0.8-0.8C8.3,15.6,7.9,15.2,7.5,15.2z
			 M7.5,16.4c-0.2,0-0.4-0.2-0.4-0.4s0.2-0.4,0.4-0.4c0.2,0,0.4,0.2,0.4,0.4S7.7,16.4,7.5,16.4z"/>
	</g>
</g>
</svg>
