<svg height="512pt" viewBox="0 -10 512.00081 512" width="512pt" xmlns="http://www.w3.org/2000/svg"><path d="m358.121094 485.988281-61.417969-32.289062c-25.488281-13.398438-55.921875-13.398438-81.40625 0l-61.417969 32.289062c-17.566406 9.234375-38.453125 7.726563-54.507812-3.9375-16.054688-11.664062-23.945313-31.0625-20.589844-50.621093l11.730469-68.390626c4.867187-28.378906-4.535157-57.324218-25.15625-77.421874l-49.6875-48.433594c-14.210938-13.851563-19.230469-34.183594-13.097657-53.058594 6.132813-18.871094 22.144532-32.371094 41.78125-35.222656l68.667969-9.976563c28.496094-4.144531 53.117188-22.03125 65.859375-47.851562l30.707032-62.222657c8.785156-17.792968 26.570312-28.851562 46.414062-28.851562 19.847656 0 37.628906 11.054688 46.414062 28.851562l16.703126 33.847657c1.832031 3.714843.308593 8.214843-3.40625 10.046875-3.71875 1.832031-8.210938.308594-10.042969-3.40625l-16.707031-33.847656c-6.332032-12.828126-18.652344-20.488282-32.960938-20.488282s-26.628906 7.65625-32.960938 20.488282l-30.707031 62.222656c-14.929687 30.25-43.773437 51.203125-77.15625 56.054687l-68.664062 9.976563c-14.160157 2.058594-25.25 11.410156-29.671875 25.019531-4.421875 13.605469-.945313 27.691406 9.300781 37.675781l49.6875 48.4375c24.15625 23.542969 35.171875 57.449219 29.46875 90.699219l-11.730469 68.386719c-2.417968 14.101562 3.050782 27.542968 14.625 35.949218 11.574219 8.410157 26.046875 9.457032 38.707032 2.796876l61.417968-32.289063c29.855469-15.695313 65.507813-15.695313 95.367188 0l61.417968 32.289063c12.664063 6.660156 27.136719 5.613281 38.710938-2.796876 11.574219-8.40625 17.039062-21.847656 14.621094-35.949218l-11.730469-68.386719c-5.703125-33.25 5.316406-67.15625 29.46875-90.699219l49.691406-48.4375c10.242188-9.984375 13.722657-24.070312 9.300781-37.675781-4.421874-13.609375-15.515624-22.960937-29.671874-25.019531l-68.667969-9.976563c-33.382813-4.851562-62.226563-25.804687-77.152344-56.054687-1.832031-3.714844-.308594-8.214844 3.40625-10.046875s8.210937-.304688 10.042969 3.40625c12.746094 25.820312 37.363281 43.710937 65.859375 47.851562l68.667969 9.976563c19.640624 2.855468 35.648437 16.351562 41.78125 35.226562 6.132812 18.875 1.113281 39.203125-13.097657 53.054688l-49.6875 48.433594c-20.621093 20.101562-30.023437 49.042968-25.15625 77.421874l11.730469 68.390626c3.355469 19.558593-4.535156 38.957031-20.589844 50.621093-9.074218 6.589844-31.550781 15.589844-54.507812 3.9375zm0 0"/><path d="m167.085938 350.625c-9.785157 0-18.386719-6.257812-21.40625-15.566406l-4.941407-15.261719c-1.273437-3.9375.882813-8.167969 4.824219-9.445313 3.941406-1.273437 8.171875.882813 9.445312 4.824219l4.945313 15.257813c1.003906 3.105468 3.871094 5.191406 7.132813 5.191406 3.261718 0 6.132812-2.085938 7.136718-5.191406l37.324219-115.238282c1.277344-3.933593-.867187-8.234374-4.824219-9.445312-6.265625-1.921875-8.828125 2.917969-9.445312 4.820312l-23.054688 71.183594c-1.003906 3.09375-3.882812 5.1875-7.136718 5.1875-3.25 0-6.132813-2.09375-7.132813-5.1875l-23.058594-71.183594c-.617187-1.90625-3.3125-6.558593-9.445312-4.824218-3.980469 1.128906-6.097657 5.511718-4.824219 9.449218l22.191406 68.511719c1.277344 3.941407-.882812 8.167969-4.824218 9.445313-3.941407 1.277344-8.167969-.882813-9.445313-4.824219l-22.191406-68.511719c-1.851563-5.71875-3.753907-22.511718 14.472656-28.339844 18.226563-5.828124 26.488281 8.753907 28.339844 14.472657l15.917969 49.152343 15.921874-49.152343c1.851563-5.714844 9.574219-19.671875 28.339844-14.46875 18.769532 5.199219 16.324219 22.621093 14.472656 28.335937l-37.328124 115.242188c-3.015626 9.308594-11.617188 15.566406-21.40625 15.566406zm0 0"/><path d="m256 350.625c-12.40625 0-22.5-10.09375-22.5-22.5v-115.242188c0-12.40625 10.09375-22.5 22.5-22.5s22.5 10.09375 22.5 22.5v115.242188c0 12.40625-10.09375 22.5-22.5 22.5zm0-145.242188c-4.136719 0-7.5 3.363282-7.5 7.5v115.242188c0 4.136719 3.363281 7.5 7.5 7.5s7.5-3.363281 7.5-7.5v-115.242188c0-4.136718-3.363281-7.5-7.5-7.5zm0 0"/><path d="m313.46875 350.625c-12.40625 0-22.5-10.09375-22.5-22.5v-115.242188c0-12.40625 10.09375-22.5 22.5-22.5h39.507812c27.8125 0 50.4375 22.625 50.4375 50.433594v16.449219c0 27.808594-22.625 50.433594-50.4375 50.433594h-17.007812v20.425781c0 12.40625-10.09375 22.5-22.5 22.5zm0-145.242188c-4.136719 0-7.5 3.363282-7.5 7.5v115.242188c0 4.136719 3.363281 7.5 7.5 7.5s7.5-3.363281 7.5-7.5v-27.925781c0-4.140625 3.355469-7.5 7.5-7.5h24.507812c19.539063 0 35.4375-15.894531 35.4375-35.433594v-16.449219c0-19.539062-15.898437-35.433594-35.4375-35.433594zm39.507812 72.316407h-24.507812c-4.144531 0-7.5-3.359375-7.5-7.5v-42.316407c0-4.140624 3.355469-7.5 7.5-7.5h24.507812c11.269532 0 20.433594 9.167969 20.433594 20.433594v16.449219c0 11.265625-9.164062 20.433594-20.433594 20.433594zm-17.007812-15h17.007812c2.996094 0 5.433594-2.4375 5.433594-5.433594v-16.449219c0-2.996094-2.4375-5.433594-5.433594-5.433594h-17.007812zm0 0"/></svg>