<?xml version="1.0" standalone="no"?>
<!DOCTYPE svg PUBLIC "-//W3C//DTD SVG 1.1//EN" "http://www.w3.org/Graphics/SVG/1.1/DTD/svg11.dtd" >
<svg xmlns="http://www.w3.org/2000/svg" xmlns:xlink="http://www.w3.org/1999/xlink" version="1.1">
<metadata>
Created by FontForge 20190801 at Wed Jan 24 09:53:57 2018
 By www-data
Copyright (c) 2016 by Zetafonts. All rights reserved.
</metadata>
<defs>
<font id="AristotelicaDisplayRegular" horiz-adv-x="0" >
  <font-face 
    font-family="AristotelicaDisplayRegular"
    font-weight="400"
    font-stretch="normal"
    units-per-em="2000"
    panose-1="2 0 5 6 2 0 0 2 0 4"
    ascent="1600"
    descent="-400"
    x-height="924.5"
    cap-height="1280"
    bbox="-221 -649 2420 1763.33"
    underline-thickness="100"
    underline-position="-200"
    unicode-range="U+000D-FB06"
  />
<missing-glyph horiz-adv-x="450" 
 />
    <glyph glyph-name=".notdef" horiz-adv-x="450" 
 />
    <glyph glyph-name=".null" 
 />
    <glyph glyph-name="nonmarkingreturn" unicode="&#xd;" horiz-adv-x="450" 
 />
    <glyph glyph-name="NULL" 
 />
    <glyph glyph-name="NULL" 
 />
    <glyph glyph-name="space" unicode=" " horiz-adv-x="450" 
 />
    <glyph glyph-name="exclam" unicode="!" horiz-adv-x="431" 
d="M311 95q0 -20 -7.5 -37.5t-20.5 -30t-30.5 -20t-36.5 -7.5q-40 0 -67.5 27.5t-27.5 67.5q0 19 7.5 36.5t20 30.5t30 20.5t37.5 7.5q19 0 36.5 -7.5t30.5 -20.5t20.5 -30.5t7.5 -36.5zM127 1192q0 37 25.5 62.5t61.5 25.5t61 -25.5t25 -62.5v-809q0 -38 -25 -63t-63 -25
q-18 0 -33.5 6.5t-27 18.5t-18 28t-6.5 35v809z" />
    <glyph glyph-name="quotedbl" unicode="&#x22;" horiz-adv-x="646" 
d="M569 889q0 -18 -7 -33.5t-19 -27t-27.5 -18.5t-33.5 -7t-33.5 7t-27 18.5t-18.5 27t-7 33.5v305q0 18 6.5 34t18.5 27t27.5 17.5t33.5 6.5q37 0 62 -24t25 -61v-305zM251 889q0 -18 -7 -33.5t-19 -27t-28 -18.5t-33 -7q-18 0 -33.5 7t-27.5 18.5t-18.5 27t-6.5 33.5v305
q-1 37 24.5 61t61.5 24q18 0 33.5 -6.5t27.5 -17.5t19 -27t7 -34v-305z" />
    <glyph glyph-name="numbersign" unicode="#" horiz-adv-x="1201" 
d="M948 787l-64 -268h116q38 0 59.5 -23.5t22.5 -60.5q0 -39 -21.5 -65t-59.5 -26h-159l-67 -279q-4 -17 -14.5 -30.5t-25.5 -21.5t-33 -10.5t-36 2.5q-38 9 -55.5 38t-9.5 64l56 237h-272l-67 -279q-9 -35 -40.5 -51t-70.5 -8q-37 8 -54.5 34.5t-9.5 61.5l57 242h-97
q-37 0 -59 23.5t-22 59.5q0 18 5.5 34.5t16 29.5t25.5 20.5t33 7.5h139l64 268h-101q-35 0 -57 24t-22 62q-1 37 21 63t58 26h142l61 256q4 17 16 31t28.5 23t36 11.5t37.5 -3.5q35 -10 50.5 -43t5.5 -75l-48 -200h270l60 249q4 17 14.5 32t25.5 24.5t32.5 14t36.5 0.5
q38 -8 57.5 -41t8.5 -79l-48 -200h103q36 0 57 -22.5t24 -59.5q1 -18 -4 -35t-16 -29.5t-26.5 -20.5t-33.5 -8h-146zM427 519h271l64 268h-271z" />
    <glyph glyph-name="dollar" unicode="$" horiz-adv-x="957" 
d="M412 1239v123q0 31 21.5 53t53.5 22q30 0 51 -22t21 -53v-123h-147zM559 43v-137q0 -32 -21.5 -53t-51.5 -21q-31 0 -52.5 21t-21.5 53v137h147zM486 572q-84 17 -159 45.5t-132 72t-90 103t-33 139.5q0 81 34.5 147t91.5 113t131 72.5t152 25.5q58 0 114.5 -12
t105.5 -35.5t89.5 -58.5t67.5 -81q14 -25 7 -50.5t-23 -40.5q-18 -17 -48.5 -21t-59.5 17q-28 29 -55 50t-57 34t-63.5 19t-75.5 6q-45 0 -88 -12.5t-76.5 -36t-54 -57.5t-20.5 -78q0 -48 25.5 -79.5t67 -53t94.5 -35.5t107 -27q72 -20 140.5 -48t121.5 -70t85.5 -101
t32.5 -141q0 -86 -34.5 -157.5t-94 -123t-139.5 -80.5t-171 -29q-73 0 -140.5 19t-124 52t-99 78t-65.5 96q-20 43 -7 73.5t41 44.5q32 17 61 7t58 -48q41 -70 115.5 -110t168.5 -40q47 0 93.5 13.5t83 40t59.5 65.5t23 90q0 50 -23 83t-60 55t-83.5 36.5t-93.5 28.5z" />
    <glyph glyph-name="percent" unicode="%" horiz-adv-x="1496" 
d="M192 969q0 -33 12.5 -62t34 -50.5t50.5 -34t62 -12.5t62 12.5t51 34t34.5 50.5t12.5 62t-12.5 62t-34.5 50.5t-51 34t-62 12.5t-62 -12.5t-50.5 -34t-34 -50.5t-12.5 -62zM32 969q0 66 25 124t68.5 101.5t101.5 69t124 25.5t124 -25.5t101.5 -69t68.5 -101.5t25 -124
t-25 -124t-68.5 -101.5t-101.5 -68.5t-124 -25t-124 25t-101.5 68.5t-68.5 101.5t-25 124zM984 307q0 -33 12.5 -62t34.5 -50.5t50.5 -34t61.5 -12.5t62.5 12.5t51 34t34 50.5t12.5 62t-12.5 62t-34 50.5t-51 34t-62.5 12.5t-61.5 -12.5t-50.5 -34t-34.5 -50.5t-12.5 -62z
M825 307q0 66 25 124t68.5 101.5t101 69t123.5 25.5t124.5 -25.5t102 -69t68.5 -101.5t25 -124t-25 -124t-68.5 -101.5t-102 -68.5t-124.5 -25t-123.5 25t-101 68.5t-68.5 101.5t-25 124zM548 42q-7 -15 -18 -25t-25 -15.5t-29 -5t-30 7.5q-29 14 -40.5 44t2.5 60l526 1126
q15 29 45.5 40.5t60.5 -2.5q14 -7 23.5 -19.5t14 -28.5t4 -32.5t-7.5 -31.5z" />
    <glyph glyph-name="ampersand" unicode="&#x26;" horiz-adv-x="1142" 
d="M34 377q0 57 14.5 105t40 87.5t59 71.5t71.5 57l-22 21q-21 19 -42 45.5t-37.5 58t-27 67t-10.5 73.5q0 67 25.5 126.5t69.5 103.5t103 69.5t127 25.5t127 -25t103 -69t69 -103t25 -127q0 -104 -57 -181t-163 -126l248 -225l137 158q24 26 59.5 31t62.5 -20
q13 -12 20.5 -27.5t9 -32t-4 -33t-17.5 -30.5l-141 -161l186 -170q35 -30 38.5 -60t-14.5 -53q-26 -32 -58.5 -36t-61.5 21l-196 177l-66 -75q-56 -60 -132 -96.5t-157 -36.5q-80 0 -151 31t-123.5 84t-83 123.5t-30.5 150.5zM651 309l-315 284q-65 -32 -104 -84t-39 -123
q0 -46 17 -87.5t47 -73t70.5 -50t87.5 -18.5t92 22.5t77 52.5zM383 772l13 4q39 11 71.5 30.5t55.5 44t35.5 52.5t12.5 57q0 33 -12 62.5t-33.5 51t-51 34.5t-64.5 13q-33 0 -61.5 -12t-49.5 -33.5t-33 -50.5t-12 -62q0 -21 7 -41t18.5 -38.5t24.5 -34.5t25 -27l5 -4z" />
    <glyph glyph-name="quotesingle" unicode="'" horiz-adv-x="328" 
d="M250 892q0 -18 -7 -34t-19 -27.5t-27.5 -18.5t-32.5 -7q-36 0 -61 25.5t-25 61.5v305q0 37 25 61t61 24t61 -24t25 -61v-305z" />
    <glyph glyph-name="parenleft" unicode="(" horiz-adv-x="668" 
d="M656 -232q0 -37 -24 -61t-61 -24h-4h-1q-107 1 -189.5 31.5t-139.5 85t-86.5 129.5t-29.5 165v775v10q3 87 34 160t87.5 126.5t138 83.5t184.5 31h6q37 0 61 -24.5t24 -62.5q0 -35 -24 -60t-61 -25h-54q-46 0 -86.5 -19.5t-71 -52.5t-48 -76t-17.5 -91v-775q0 -47 17 -90
t47.5 -76.5t71.5 -53.5t88 -20h49h4q37 0 61 -25t24 -61z" />
    <glyph glyph-name="parenright" unicode=")" horiz-adv-x="668" 
d="M-30 -232q0 36 23.5 61t61.5 25h3h50q47 0 87.5 19.5t70.5 52.5t47.5 75.5t18.5 88.5v4v3v769q0 48 -17.5 92t-47.5 77.5t-71 53t-87 19.5h-54q-38 0 -61.5 25t-23.5 60q0 38 23.5 62.5t61.5 24.5h5q103 -1 184.5 -31t138.5 -83.5t88 -127.5t33 -161q1 -3 1 -8v-775
q0 -90 -29.5 -165t-86.5 -129.5t-140 -85t-189 -31.5h-2h-3q-38 0 -61.5 24t-23.5 61z" />
    <glyph glyph-name="asterisk" unicode="*" horiz-adv-x="634" 
d="M489 1040l69 -41q15 -10 23.5 -25t11.5 -31.5t-1 -33.5t-14 -32q-21 -29 -56 -35t-65 16l-49 29v-64q0 -18 -7 -34t-18.5 -28t-27 -19t-33.5 -7q-37 0 -62.5 25.5t-25.5 62.5v65l-52 -31q-15 -11 -32 -14.5t-33.5 -1t-31 11.5t-24.5 23q-22 30 -16 65.5t36 56.5l70 42
l-69 41q-16 9 -25 23.5t-12 31t1 34t15 32.5q10 14 25 23t31.5 12t33.5 -0.5t32 -14.5l51 -30v64q0 37 25.5 62.5t63.5 25.5q18 0 33.5 -7t27 -19t18 -28t6.5 -34v-64l48 29q15 11 32 15t33.5 1t31.5 -12t26 -24q10 -15 13.5 -32.5t1 -34t-12 -30.5t-24.5 -23z" />
    <glyph glyph-name="plus" unicode="+" horiz-adv-x="796" 
d="M485 703h212q36 0 61.5 -25.5t25.5 -63.5q0 -36 -25.5 -60.5t-61.5 -24.5h-212v-212q0 -36 -25.5 -61.5t-61.5 -25.5q-37 0 -62 25.5t-25 61.5v212h-212q-18 0 -34 7t-28 18.5t-18.5 27t-6.5 33.5q0 37 25 62.5t62 25.5h212v212q0 37 25.5 62t61.5 25q37 0 62 -25t25 -62
v-212z" />
    <glyph glyph-name="comma" unicode="," horiz-adv-x="387" 
d="M93 128q0 38 25.5 64t62.5 26q38 0 61.5 -26t23.5 -64v-295q0 -38 -23.5 -63.5t-61.5 -25.5q-37 0 -62.5 25.5t-25.5 63.5v295z" />
    <glyph glyph-name="hyphen" unicode="-" horiz-adv-x="891" 
d="M145 481q-18 0 -34 7t-28 19t-19 27.5t-7 33.5q0 37 25.5 62.5t62.5 25.5h583q19 0 35 -7t28 -19t19 -28t7 -34q0 -36 -25.5 -61.5t-63.5 -25.5h-583z" />
    <glyph glyph-name="period" unicode="." horiz-adv-x="502" 
d="M204 186h92v-186h-92v186z" />
    <glyph glyph-name="slash" unicode="/" horiz-adv-x="555" 
d="M183 63q-12 -35 -43.5 -51.5t-66.5 -6.5q-34 12 -50.5 44t-5.5 67l354 1102q13 35 45.5 51t67.5 5q17 -6 29.5 -19t20 -29.5t9 -35.5t-4.5 -36z" />
    <glyph glyph-name="zero" unicode="0" horiz-adv-x="2472" 
d="M1884 704q4 -4 8 -9t6 -9q0 -6 1 -11t1 -11q0 -12 -2 -22q-2 -6 -6 -10t-8 -6q-4 -4 -8 -7t-8 -7q-12 -4 -22 -4q-6 0 -12 1t-10 3q-6 4 -10 7t-8 7q-4 2 -7 6t-3 10q-4 6 -5 11t-1 11q0 10 6 22q0 4 3 9t7 9t8 7t10 5q8 4 22 4q6 0 10 -1l12 -3q4 -2 8 -5t8 -7zM506 686
q0 -2 -4 -8q-2 0 -3 -2t-5 -2q-2 -2 -8 -2h-32v46h32q4 0 8 -2q4 0 5 -1l3 -3l4 -8q2 -2 2 -10q0 -6 -2 -8zM782 704q4 -4 8 -9t6 -9q2 -6 3 -11t1 -11t-1 -11t-3 -11t-6 -10t-8 -6q-2 -4 -6 -7t-10 -7q-4 -2 -10 -3t-12 -1q-12 0 -22 4q-4 4 -9 7t-9 7l-6 6t-6 10t-4 11
t-2 11q0 10 6 22q2 4 6 9t6 9q4 4 9 7t9 5q6 2 12 3t10 1q12 0 22 -4q6 -2 10 -5t6 -7zM1064 716q0 -4 1 -6t1 -4l28 -62h-58l28 62v4v6zM264 712q2 -2 3 -5t3 -5q2 -4 2 -10v-5t-2 -5t-3 -5t-3 -3l-8 -8h-10h-36v52h36q6 0 10 -2q2 0 5 -2zM2420 1066v-572h-2348v572h890
q0 30 5 57t17 53t27 50t37 42q36 38 88 60q28 12 55 17t55 5q32 0 60 -6t52 -18q28 -12 51 -28t41 -34q36 -36 60 -92q20 -52 20 -106h890zM1006 1164q-22 -46 -22 -98q0 -56 22 -102q10 -22 24 -44t30 -40q18 -18 39 -32t45 -24q46 -22 102 -22q28 0 53 4t49 14
q24 12 44 25t38 33q18 18 32 39t26 43q22 50 22 106q0 22 -4 45t-14 43q-12 40 -40 74q-14 16 -30 30t-32 24q-18 10 -37 19t-39 17q-14 4 -31 6t-37 2q-28 0 -54 -5t-50 -17q-48 -18 -84 -56q-16 -18 -29 -40t-23 -44zM288 674q6 10 6 18q0 4 -1 9t-5 11q0 2 -4 6l-6 6
q-2 4 -5 7t-9 3q-4 2 -9 4t-9 2h-52v-150h16v56h36q4 0 9 1t9 3q10 4 14 8q2 4 6 8t4 8zM400 740h-92v-150h92v18h-70v46h58v20h-58v44h70v22zM546 590l-46 64q2 2 5 2t5 4q8 4 10 10q2 2 4 5t4 7v12v10t-2 8q-4 8 -10 14q-4 8 -14 8q-2 2 -7 4t-9 2h-54v-150h22v62h22
l40 -54q2 -4 6 -6q2 -2 4 -2h6h14zM648 616q0 4 1 8t1 8q0 12 -4 20t-12 14q-2 0 -3 2t-5 4h-1t-5 2h-2t-2 4q-6 0 -8 2q-6 0 -8 1l-6 3q-8 2 -8 4q-6 4 -6 6v8v8q2 0 4 2t2 4l3 1t5 1q4 2 6 2h4l2 -1t4 -1q8 0 8 -4q2 -2 4 -2h4q8 0 14 4l4 2q0 2 -2 4l-4 4q-4 2 -6 4t-6 4
q-2 0 -4 1t-6 5q-6 0 -7 1t-5 1t-9 -1t-9 -1q-4 -4 -7 -6t-7 -2q-2 -4 -5 -7t-5 -7t-3 -7t-1 -9v-9t4 -7q2 -4 5 -7t3 -5q4 -2 8 -5t8 -3q4 -2 7 -4t7 -4q2 -2 5 -2h5q6 -2 7 -2t3 -2q4 -2 4 -3t2 -5q2 -2 2 -5v-7v-3t-2 -5q-2 -4 -2 -5t-4 -3q-2 -4 -5 -5t-5 -3h-5h-5h-7
h-5q-2 2 -5 3t-3 5l-2 2q-6 4 -12 4h-4t-4 -2l-6 -2q0 -4 2 -4q0 -4 4 -6q0 -2 2 -4l2 -2h2q8 -8 17 -10t19 -2h9t9 2t9 4t7 6q6 2 9 5t5 9zM818 644q2 6 2 10v10q0 12 -2 20q0 6 -3 10t-5 10q-4 6 -12 14q-4 4 -8 6t-10 8q-2 0 -6 2t-10 6q-6 0 -10 1t-10 1q-4 0 -10 -1
t-10 -1q-6 -4 -10 -6t-8 -2q-4 -6 -8 -8t-8 -6l-7 -7t-5 -7q-4 -6 -5 -10t-3 -10q-2 -8 -2 -20q0 -8 2 -15t4 -15q2 -6 6 -12t10 -14l12 -8t14 -4q12 -6 28 -6h10h10q10 4 16 8q14 6 18 10q6 8 12 18q2 4 5 9t3 9zM974 740h-20v-116q0 2 -1 5l-1 3l-72 102q-4 0 -8 6h-4h-4
h-14v-150h20v126v-4l2 -2v0v-4l86 -116h16v150zM1142 590l-66 150h-22l-64 -150h12q6 0 8 2l3 3t5 3l8 26h78l10 -26q2 -4 6 -6q0 -2 8 -2h14zM1240 608h-64v132h-22v-150h86v18zM1444 740h-20v-90v-10t-2 -8q-2 -8 -10 -12q-2 -2 -5 -4t-5 -6q-6 -2 -9 -2h-7q-10 0 -14 2
q-6 4 -10 6t-4 4q-2 2 -4 5t-6 7q0 4 -1 8t-1 10v90h-20v-90v-11t2 -7q0 -8 4 -14q4 -10 12 -14q2 -2 5 -4t7 -4q2 -2 6 -3t6 -3q6 0 9 -2t9 -2q4 0 7 2t9 2q4 2 7 3t7 3l12 8q4 4 5 7t3 7q2 2 5 6t3 8v18v90zM1560 616q6 8 6 16q0 12 -4 20t-12 14q-6 4 -6 6h-5t-5 2h-3
t-5 4h-2t-4 2q-2 0 -4 1l-6 3q-8 2 -8 4q-4 2 -5 4t-3 2q0 2 -1 3t-1 5t4 8l6 6q2 0 3 1t5 1q0 2 10 2l2 -1t4 -1q2 -2 8 -4q8 -2 10 -2q6 0 8 4l6 2l-4 4l-4 4q0 2 -3 4t-5 4q-4 0 -6 1t-6 5q-4 0 -7 1l-3 1q-6 0 -10 -1t-8 -1q-4 -4 -8 -6t-6 -2q-4 -4 -6 -7t-6 -7
q0 -4 -2 -7t-2 -9t2 -9t2 -7q4 -8 10 -12q4 -2 7 -5t5 -3q6 -2 9 -4t7 -4t6 -2h4q2 -2 5 -2t5 -2t5 -3t3 -5q2 -2 2 -5v-7v-3t-2 -5q-2 -6 -8 -8q-4 -4 -6 -5t-4 -3h-5h-5h-7h-5q-4 2 -10 8v2q-6 4 -12 4h-3t-5 -2l-6 -2q2 -2 2 -3t2 -1q0 -2 1 -3t1 -3l1 -1t1 -3q4 -2 6 -2
q6 -8 15 -10t19 -2h10t10 2l8 4t8 6l5 5t5 9zM1682 740h-92v-150h92v18h-72v46h60v20h-60v44h72v22zM1920 644v10v10v11v9q-4 10 -10 20q-4 6 -12 14q-2 4 -6 6t-8 8q-4 0 -9 2t-9 6q-6 0 -10 1t-10 1t-11 -1t-9 -1q-12 -6 -20 -8q-4 -6 -7 -8t-7 -6l-7 -7l-7 -7
q-2 -6 -4 -10t-2 -10q-4 -8 -4 -20q0 -8 2 -15t4 -15q6 -14 18 -26q4 -4 10 -8t14 -4q12 -6 30 -6h10h10q4 2 9 4t9 4q4 4 8 6t6 4q8 8 12 18q6 8 10 18zM2076 740h-22v-116q0 2 -1 5t-3 3l-72 102l-1 1t-3 5h-5h-5h-16v-150h24v126v-4v-2v-2l2 -2l84 -116h18v150zM2198 608
h-64v132h-22v-150h86v18zM2318 740h-18q-4 0 -8 -4q-8 -4 -8 -8l-34 -46l-2 -2h-2v-2v2l-2 2l-36 46q-2 4 -6 8t-10 4h-16l54 -74l2 -2q0 -2 2 -2v-2v-2q0 -2 2 -2v-2v-64h22v64v2v4q2 0 2 4v2h2zM1160 844q-18 8 -37 19t-33 25h314q-16 -14 -34 -25t-38 -19q-20 -6 -42 -12
t-44 -6q-24 0 -45 6t-41 12zM1114 914l308 310q28 -38 44 -78t16 -80q0 -22 -3 -43t-11 -41q-8 -18 -18 -35t-22 -33h-314zM1068 906q-26 34 -44 72q-6 20 -10 42t-4 46q0 20 4 40t10 40q6 18 16 35t24 33h312zM1332 1284q20 -8 38 -20t32 -22h-316q36 28 74 42q38 18 86 18
t86 -18zM76 342q-4 4 -5 8t-3 8q-2 6 -3 10t-1 10t4 16q2 4 3 9t5 7l3 9t7 7q0 2 5 5t7 5q6 4 9 5l9 3q2 0 8 1t10 1q8 0 14 -1t14 -5q8 -2 13 -6t9 -8q-2 -2 -4 -2v-4h-2h-2h-4h-6q-4 2 -8 5t-8 3h-7h-9h-10h-8q-8 -4 -12 -7t-8 -5q-4 -6 -7 -10t-5 -8q-4 -6 -4 -12v-8
q0 -8 2 -14l3 -9t1 -7q2 -2 5 -4t5 -6q4 -2 6 -5t6 -3q2 -2 6 -4t8 -2q2 -2 6 -2h6h10t8 2q4 0 9 2t9 4v28h-12h-2l-2 2l-3 3l-3 3l-1 1t-1 3v1v3v0h38v-52l-5 -5l-5 -5q-6 -2 -12 -2q-6 -2 -14 -2h-14h-10h-8q-6 2 -9 4l-9 6q-2 0 -7 3t-5 7q-6 2 -7 6t-3 8zM234 428v-44
h54v-14h-54v-46h66v-16h-82v136h82v-16h-66zM360 308v120h-44v16h104v-16h-46v-120h-14zM520 428v-48h58v-12h-58v-60h-16v136h82v-16h-66zM626 444v-84q0 -4 2 -7t4 -5q2 -6 5 -9t5 -7q0 -2 3 -4t5 -4q6 -2 10 -2h8h7t5 2q6 2 9 4t7 4q0 4 3 7t5 9q4 4 4 12v84h14v-84
q0 -6 -1 -10t-3 -10t-5 -10t-7 -8t-8 -7t-8 -5q-12 -2 -22 -2q-12 0 -24 2q-2 2 -7 5t-9 7q-6 6 -10 18q-2 6 -4 10t-2 10v84h14zM766 444v-120h60v-16h-76v136h16zM856 444v-120h64v-16h-78v136h14zM1044 308l-60 136h8q4 0 8 -2q2 -2 3 -2t3 -4l42 -102v-4q2 -2 2 -6v6
l1 2l1 2q6 14 12 26l12 24q4 16 10 28l12 24q0 4 2 4t2 2q2 2 3 2h5h8q-8 -16 -15 -33t-17 -33q-6 -20 -13 -36t-15 -34h-14zM1144 428v-44h56v-14h-56v-46h66v-16h-82v136h82v-16h-66zM1310 372q-2 -2 -10 -4l46 -60h-10q-2 0 -5 1l-3 1q-2 2 -4 3t-4 5l-38 50h-24v-60h-14
v136h50h5t7 -2q8 -2 14 -8q2 -4 4 -7t4 -7q2 -2 2 -7v-5v-9t-2 -5q0 -4 -2 -8t-4 -6l-4 -4t-8 -4zM1294 380q4 0 6 4q2 0 4 1t4 1l3 6t3 4q0 2 1 4t1 8l-1 2t-1 6l-3 3t-3 5q-2 0 -4 1t-4 3h-6h-36v-48h36zM1418 328q2 2 4 8q2 2 3 6t1 6q0 6 -2 10q-2 0 -3 3t-3 5t-8 4
q-4 0 -6 1l-6 3q-4 0 -8 2t-4 4q-10 0 -14 6q-4 0 -5 4t-3 6v14v9t2 7q0 6 8 10q4 4 6 5t8 3q4 0 6 1t8 1q2 0 5 -1t5 -1t4 -1l6 -3q2 0 4 -2t2 -4q4 -2 5 -4t3 -2l-4 -2q-2 -2 -8 -2h-6q-4 2 -4 4h-2h-2h-2h-3h-1h-2h-8q-8 0 -8 -2q-6 -6 -6 -8q-4 0 -4 -8q0 -6 4 -6
q0 -4 2 -6t5 -3l3 -1q4 -4 6 -4t8 -4h3t3 -2h4t4 -4h2h1h1q2 0 4 -1l2 -1q4 -4 6 -7t6 -5q2 -10 2 -18v-10t-6 -8q0 -6 -8 -12q-2 -2 -6 -4l-8 -4t-8 -2h-10q-10 0 -17 2t-13 8q-2 0 -4 2l-4 4q0 2 -1 4l-1 2l2 2l1 1t5 1h2q2 0 4 -1t4 -3q4 -2 6 -4t6 -2q0 -2 4 -2h6
q8 0 10 2q8 0 12 4zM1488 444v-136h-16v136h16zM1542 328q-12 8 -18 20q-4 14 -4 30v7v9q6 10 8 16q6 8 14 16q6 6 12 10q4 4 9 5t9 3q4 0 8 1t10 1q4 0 9 -1t11 -1q4 -2 8 -3t8 -5l5 -5t7 -5q4 -4 6 -7l6 -9q2 -6 6 -16q2 -4 3 -9t1 -7q0 -8 -2 -15t-6 -15q-2 -6 -5 -11
t-9 -9q-6 -6 -11 -9t-11 -7q-10 -4 -26 -4q-8 0 -15 1t-11 3q-16 4 -22 16zM1542 398q-4 -6 -6 -12t-2 -8q0 -4 1 -8t1 -6q2 -8 8 -16q0 -2 2 -4t4 -6l5 -5t9 -3q2 -2 5 -4t5 -2q4 -2 8 -2h8h7t7 2q2 0 6 2l8 4q2 0 5 3l5 5q2 4 4 6l4 4q2 4 3 7l3 9q0 2 1 6t1 8q0 2 -1 8
t-5 12q0 4 -4 8t-6 10q-4 2 -8 5t-10 7h-9h-11h-12h-10q-4 -4 -9 -7t-9 -5q-2 -6 -5 -10t-3 -8zM1700 308h-16v136h12h5t5 -4l70 -100q2 0 2 -4l2 -2v-2v112h16v-136h-14l-80 112v4h-2v4v-120zM1910 428v-48h56v-12h-56v-60h-14v136h82v-16h-68zM2064 372q-8 -2 -12 -4
l44 -60h-12q-4 0 -8 2q0 2 -1 3t-3 5l-38 50h-24v-60h-16v136h50h6t8 -2t7 -4t5 -4q2 -4 4 -7t6 -7q0 -2 1 -7l1 -5q0 -6 -1 -9t-1 -5l-4 -8t-2 -6zM2052 384q2 0 3 1t3 1q6 8 6 10q2 4 2 12q0 2 -2 8q0 2 -6 8q-2 0 -3 1l-3 3h-8h-34v-48h34q4 0 8 4zM2228 328
q-4 -6 -10 -9t-12 -7q-6 -2 -12 -3t-14 -1t-15 1t-13 3q-12 4 -22 16q-4 4 -8 9t-6 11q-2 8 -5 15t-3 15q0 2 1 7t3 9t3 9t3 7q4 6 7 9t5 7q4 2 8 5t8 5q4 4 8 5t8 3q6 0 9 1t9 1q4 0 9 -1t9 -1l9 -3t7 -5q4 -2 8 -5t6 -5q2 -4 5 -7t5 -9q6 -6 8 -16q2 -4 3 -9t1 -7
q0 -8 -1 -15t-5 -15q-2 -6 -6 -11t-10 -9zM2180 322h7t9 2q2 0 5 2t5 4q2 0 6 3t8 5l3 6t3 4q2 4 3 7t1 9q2 2 2 6v8q0 2 -1 8t-1 12q-2 4 -5 8t-5 10q-6 2 -11 5t-9 7h-10h-10h-11h-11q-6 -4 -9 -7t-7 -5q-6 -6 -8 -10l-4 -8q-2 -6 -2 -12v-8v-14q0 -6 1 -9t5 -7q0 -2 3 -4
t5 -6l5 -5t5 -3q2 -2 5 -4t9 -2q2 -2 6 -2h8zM2402 442q2 2 3 2h3h12v-136h-14v112l-2 -2v0v-2q-4 -8 -6 -17t-6 -15t-7 -12l-7 -14q-2 -8 -4 -14l-4 -12q-4 -6 -7 -11t-5 -13h-14q-10 12 -15 26t-11 26q-4 14 -11 28t-11 28v2l-4 2v-112h-16v136h14q6 0 8 -2l2 -2v-4
l48 -106q0 -2 2 -2v-4q0 2 1 4t1 4q0 4 4 8l42 96q0 4 1 4t3 2zM72 256h154v-20v-4v-4q0 -4 -2 -6l-4 -4l-104 -142h2v2h4h2h102v-36h-162v12q0 10 2 12q0 2 4 8q2 2 2 4t2 4t3 4l3 6l92 126h-100v38zM254 256h136v-38h-98v-48h78v-40h-78v-52h98v-36h-136v214zM558 218h-58
v-176h-42v176h-62v38h162v-38zM656 256l92 -214h-24q-8 0 -16 4q-4 2 -5 6t-5 8l-12 28h-98l-10 -28q-2 -4 -3 -5t-3 -1q0 -4 -1 -5t-5 -3q-2 0 -4 -1t-4 -1q0 -2 -2 -2h-4h-24l92 214h36zM668 126l-26 66q0 2 -1 3t-1 3q0 4 -2 6v-6q0 -2 -2 -3t-2 -3l-26 -66h60zM756 256
h136v-38h-98v-54h80v-38h-80v-84h-38v214zM1106 202q4 -6 6 -12t6 -12q2 -8 2 -15v-13v-16t-2 -14q-4 -6 -6 -13t-6 -13q-4 -4 -8 -10l-8 -12q-8 -4 -12 -9t-10 -7q-6 -6 -13 -8t-13 -4q-8 -2 -15 -3t-15 -1q-10 0 -21 3t-21 5q-12 6 -19 12t-17 12q-14 16 -20 34
q-6 12 -8 22t-2 22q0 6 1 13t3 15q4 16 12 24q4 8 7 13t7 11q8 4 13 8t11 8t12 6t14 6q6 0 13 1t15 1t15 -1t15 -1q6 -4 13 -6t13 -6t10 -8t12 -8q4 -6 8 -11t8 -13zM1078 124q2 6 3 12t1 14q0 12 -4 24q-4 10 -8 15t-10 9q-4 4 -9 8t-11 6q-12 6 -28 6t-28 -6q-4 -2 -9 -6
t-11 -8t-9 -9t-7 -15q-4 -4 -4 -11v-13v-14t4 -12l7 -14t9 -10t11 -8t9 -8q8 -2 14 -4t14 -2t14 2t14 4q6 4 11 8t9 8q6 4 10 10t8 14zM1298 256h38v-214h-36l-100 144q-2 0 -2 1t-2 3q-2 4 -2 6q-4 0 -4 4l-1 1l-3 3v-162h-38v214h34q4 0 8 -1t4 -3l6 -3t4 -3
q10 -16 21 -31t21 -33q12 -14 23 -29t25 -29q0 -4 1 -6t1 -6q0 -2 1 -4t1 -4v152zM1356 256h162v-38h-64v-176h-38v176h-60v38zM1650 146q2 -4 5 -8t5 -8q0 -4 2 -9t2 -13q0 -12 -6 -26l-8 -12t-8 -10q-8 -4 -12 -8t-12 -6t-15 -4t-13 -2q-8 0 -15 2t-17 4q-6 2 -11 6
t-13 12q-4 2 -6 5t-4 7q-4 2 -4 12l1 1l3 3q2 0 2 1t2 1t4 1l2 1h10h3t3 -2q6 0 10 -2q4 -4 8 -6t6 -4q2 0 6 -2t10 -2q2 0 5 1t7 3q6 2 12 6l8 8q2 4 4 6t2 6q0 8 -6 12q-4 6 -8 6q-4 4 -7 5t-5 1q-6 2 -16 8q-4 0 -9 1t-9 5q-8 2 -12 5t-8 7q-6 4 -9 8t-5 8q-6 12 -6 24
q0 18 6 26q2 6 6 10t10 8q4 4 9 6t13 6q4 0 10 1t14 1q4 0 8 -1t10 -1q4 -2 7 -4t9 -4q2 -2 6 -5t8 -7l5 -5t5 -7l-8 -4q-2 -2 -5 -4t-3 -4h-8h-4h-4h-2q-6 0 -6 2l-8 4q-2 0 -3 1l-1 1h-6h-12q-4 0 -5 -1t-5 -3q-2 -2 -4 -8q-2 -2 -2 -8t2 -6q2 -2 3 -4t1 -6q4 0 7 -1t5 -1
q6 -2 11 -4t7 -4l10 -2q4 -4 9 -5t11 -7q10 -2 16 -12zM1714 78q6 0 6 -6q2 0 2 -3v-5q0 -6 -2 -10q0 -4 -6 -8q-4 0 -6 -4q-2 0 -4 -1t-6 -1q-2 0 -4 1t-4 1q-2 2 -4 3t-4 1q-2 2 -3 4t-3 4q-2 4 -2 10v5t2 3q2 4 3 5t3 1q6 6 8 6q2 2 4 3t4 1q4 0 6 -1t4 -3q2 0 6 -6z
M1796 198q-8 -8 -16 -24q-2 -4 -4 -11t-2 -13q0 -8 2 -14l4 -12l7 -14t9 -10q4 -4 9 -8t13 -8q8 -2 14 -4t14 -2q6 0 10 2t10 2q4 2 9 5t9 7q4 0 8 2h6h6t6 -2q6 -2 10 -6l6 -10q-6 -8 -16 -14q-6 -4 -10 -7t-10 -5q-6 -4 -11 -5t-11 -3t-11 -3t-11 -1q-14 0 -24 3t-20 5
q-20 10 -34 24q-16 16 -24 34q-2 12 -5 22t-3 22q0 6 1 13t3 15l4 12t6 12q6 8 9 13t9 11q6 4 11 8t13 8q4 4 10 6t16 6q4 0 12 1t16 1h11t11 -2t11 -4t11 -4t10 -5t10 -7q10 -8 16 -16l-6 -8l-5 -5t-5 -3h-7h-5h-7t-7 2q-4 4 -9 7t-9 5q-6 2 -10 2h-10q-16 0 -28 -6
q-8 -2 -13 -6t-9 -8zM2144 202q2 -6 5 -12t5 -12q2 -8 2 -15v-13v-16t-2 -14t-5 -13t-5 -13q-8 -10 -16 -22q-8 -4 -14 -9t-10 -7q-6 -6 -13 -8t-15 -4q-6 -2 -13 -3t-15 -1q-20 0 -42 8q-8 6 -17 12t-15 12q-8 8 -14 16t-10 18q-4 12 -6 22t-2 22q0 6 1 13t1 15q2 6 6 12
t6 12q4 8 8 13t10 11q4 4 10 8l12 8q4 4 11 6t13 6q8 0 15 1t13 1q8 0 15 -1t13 -1q8 -4 15 -6t13 -6q4 -4 10 -8t14 -8q2 -6 8 -11t8 -13zM2114 124q4 10 4 26q0 6 -1 13t-3 11q-4 10 -7 15t-7 9q-10 10 -24 14q-6 4 -13 5t-15 1q-14 0 -26 -6q-6 -2 -11 -6t-11 -8
q-4 -4 -8 -9t-8 -15q-2 -4 -3 -11t-1 -13q0 -8 1 -14t3 -12q8 -16 16 -24q6 -4 11 -8t11 -8q6 -2 14 -4t12 -2q8 0 15 2t13 4q6 4 13 8t11 8q8 8 14 24zM2376 254l1 1t5 1h38v-214h-38v156q0 -2 -1 -4l-3 -6v-6t-2 -4q-6 -18 -14 -35t-14 -33t-13 -33t-13 -35h-38l-54 136
q-2 2 -2 10q-2 4 -3 5t-1 3v-154h-40v214h38q4 0 6 -1l2 -1q4 -2 5 -2t3 -2l6 -4l4 -4t2 -4q4 -16 11 -31t13 -33q6 -16 13 -32t13 -32v-2v-4v-4q4 0 4 -4v4v4q0 2 1 4l1 2l8 16l44 112q0 2 1 4t1 4q2 2 5 3l3 1q2 2 4 2t4 2z" />
    <glyph glyph-name="one" unicode="1" horiz-adv-x="2472" 
d="M1884 704q4 -4 8 -9t6 -9q0 -6 1 -11t1 -11q0 -12 -2 -22q-2 -6 -6 -10t-8 -6q-4 -4 -8 -7t-8 -7q-12 -4 -22 -4q-6 0 -12 1t-10 3q-6 4 -10 7t-8 7q-4 2 -7 6t-3 10q-4 6 -5 11t-1 11q0 10 6 22q0 4 3 9t7 9t8 7t10 5q8 4 22 4q6 0 10 -1l12 -3q4 -2 8 -5t8 -7zM506 686
q0 -2 -4 -8q-2 0 -3 -2t-5 -2q-2 -2 -8 -2h-32v46h32q4 0 8 -2q4 0 5 -1l3 -3l4 -8q2 -2 2 -10q0 -6 -2 -8zM782 704q4 -4 8 -9t6 -9q2 -6 3 -11t1 -11t-1 -11t-3 -11t-6 -10t-8 -6q-2 -4 -6 -7t-10 -7q-4 -2 -10 -3t-12 -1q-12 0 -22 4q-4 4 -9 7t-9 7l-6 6t-6 10t-4 11
t-2 11q0 10 6 22q2 4 6 9t6 9q4 4 9 7t9 5q6 2 12 3t10 1q12 0 22 -4q6 -2 10 -5t6 -7zM1064 716q0 -4 1 -6t1 -4l28 -62h-58l28 62v4v6zM264 712q2 -2 3 -5t3 -5q2 -4 2 -10v-5t-2 -5t-3 -5t-3 -3l-8 -8h-10h-36v52h36q6 0 10 -2q2 0 5 -2zM2420 1066v-572h-2348v572h890
q0 30 5 57t17 53t27 50t37 42q36 38 88 60q28 12 55 17t55 5q32 0 60 -6t52 -18q28 -12 51 -28t41 -34q36 -36 60 -92q20 -52 20 -106h890zM1006 1164q-22 -46 -22 -98q0 -56 22 -102q10 -22 24 -44t30 -40q18 -18 39 -32t45 -24q46 -22 102 -22q28 0 53 4t49 14
q24 12 44 25t38 33q18 18 32 39t26 43q22 50 22 106q0 22 -4 45t-14 43q-12 40 -40 74q-14 16 -30 30t-32 24q-18 10 -37 19t-39 17q-14 4 -31 6t-37 2q-28 0 -54 -5t-50 -17q-48 -18 -84 -56q-16 -18 -29 -40t-23 -44zM288 674q6 10 6 18q0 4 -1 9t-5 11q0 2 -4 6l-6 6
q-2 4 -5 7t-9 3q-4 2 -9 4t-9 2h-52v-150h16v56h36q4 0 9 1t9 3q10 4 14 8q2 4 6 8t4 8zM400 740h-92v-150h92v18h-70v46h58v20h-58v44h70v22zM546 590l-46 64q2 2 5 2t5 4q8 4 10 10q2 2 4 5t4 7v12v10t-2 8q-4 8 -10 14q-4 8 -14 8q-2 2 -7 4t-9 2h-54v-150h22v62h22
l40 -54q2 -4 6 -6q2 -2 4 -2h6h14zM648 616q0 4 1 8t1 8q0 12 -4 20t-12 14q-2 0 -3 2t-5 4h-1t-5 2h-2t-2 4q-6 0 -8 2q-6 0 -8 1l-6 3q-8 2 -8 4q-6 4 -6 6v8v8q2 0 4 2t2 4l3 1t5 1q4 2 6 2h4l2 -1t4 -1q8 0 8 -4q2 -2 4 -2h4q8 0 14 4l4 2q0 2 -2 4l-4 4q-4 2 -6 4t-6 4
q-2 0 -4 1t-6 5q-6 0 -7 1t-5 1t-9 -1t-9 -1q-4 -4 -7 -6t-7 -2q-2 -4 -5 -7t-5 -7t-3 -7t-1 -9v-9t4 -7q2 -4 5 -7t3 -5q4 -2 8 -5t8 -3q4 -2 7 -4t7 -4q2 -2 5 -2h5q6 -2 7 -2t3 -2q4 -2 4 -3t2 -5q2 -2 2 -5v-7v-3t-2 -5q-2 -4 -2 -5t-4 -3q-2 -4 -5 -5t-5 -3h-5h-5h-7
h-5q-2 2 -5 3t-3 5l-2 2q-6 4 -12 4h-4t-4 -2l-6 -2q0 -4 2 -4q0 -4 4 -6q0 -2 2 -4l2 -2h2q8 -8 17 -10t19 -2h9t9 2t9 4t7 6q6 2 9 5t5 9zM818 644q2 6 2 10v10q0 12 -2 20q0 6 -3 10t-5 10q-4 6 -12 14q-4 4 -8 6t-10 8q-2 0 -6 2t-10 6q-6 0 -10 1t-10 1q-4 0 -10 -1
t-10 -1q-6 -4 -10 -6t-8 -2q-4 -6 -8 -8t-8 -6l-7 -7t-5 -7q-4 -6 -5 -10t-3 -10q-2 -8 -2 -20q0 -8 2 -15t4 -15q2 -6 6 -12t10 -14l12 -8t14 -4q12 -6 28 -6h10h10q10 4 16 8q14 6 18 10q6 8 12 18q2 4 5 9t3 9zM974 740h-20v-116q0 2 -1 5l-1 3l-72 102q-4 0 -8 6h-4h-4
h-14v-150h20v126v-4l2 -2v0v-4l86 -116h16v150zM1142 590l-66 150h-22l-64 -150h12q6 0 8 2l3 3t5 3l8 26h78l10 -26q2 -4 6 -6q0 -2 8 -2h14zM1240 608h-64v132h-22v-150h86v18zM1444 740h-20v-90v-10t-2 -8q-2 -8 -10 -12q-2 -2 -5 -4t-5 -6q-6 -2 -9 -2h-7q-10 0 -14 2
q-6 4 -10 6t-4 4q-2 2 -4 5t-6 7q0 4 -1 8t-1 10v90h-20v-90v-11t2 -7q0 -8 4 -14q4 -10 12 -14q2 -2 5 -4t7 -4q2 -2 6 -3t6 -3q6 0 9 -2t9 -2q4 0 7 2t9 2q4 2 7 3t7 3l12 8q4 4 5 7t3 7q2 2 5 6t3 8v18v90zM1560 616q6 8 6 16q0 12 -4 20t-12 14q-6 4 -6 6h-5t-5 2h-3
t-5 4h-2t-4 2q-2 0 -4 1l-6 3q-8 2 -8 4q-4 2 -5 4t-3 2q0 2 -1 3t-1 5t4 8l6 6q2 0 3 1t5 1q0 2 10 2l2 -1t4 -1q2 -2 8 -4q8 -2 10 -2q6 0 8 4l6 2l-4 4l-4 4q0 2 -3 4t-5 4q-4 0 -6 1t-6 5q-4 0 -7 1l-3 1q-6 0 -10 -1t-8 -1q-4 -4 -8 -6t-6 -2q-4 -4 -6 -7t-6 -7
q0 -4 -2 -7t-2 -9t2 -9t2 -7q4 -8 10 -12q4 -2 7 -5t5 -3q6 -2 9 -4t7 -4t6 -2h4q2 -2 5 -2t5 -2t5 -3t3 -5q2 -2 2 -5v-7v-3t-2 -5q-2 -6 -8 -8q-4 -4 -6 -5t-4 -3h-5h-5h-7h-5q-4 2 -10 8v2q-6 4 -12 4h-3t-5 -2l-6 -2q2 -2 2 -3t2 -1q0 -2 1 -3t1 -3l1 -1t1 -3q4 -2 6 -2
q6 -8 15 -10t19 -2h10t10 2l8 4t8 6l5 5t5 9zM1682 740h-92v-150h92v18h-72v46h60v20h-60v44h72v22zM1920 644v10v10v11v9q-4 10 -10 20q-4 6 -12 14q-2 4 -6 6t-8 8q-4 0 -9 2t-9 6q-6 0 -10 1t-10 1t-11 -1t-9 -1q-12 -6 -20 -8q-4 -6 -7 -8t-7 -6l-7 -7l-7 -7
q-2 -6 -4 -10t-2 -10q-4 -8 -4 -20q0 -8 2 -15t4 -15q6 -14 18 -26q4 -4 10 -8t14 -4q12 -6 30 -6h10h10q4 2 9 4t9 4q4 4 8 6t6 4q8 8 12 18q6 8 10 18zM2076 740h-22v-116q0 2 -1 5t-3 3l-72 102l-1 1t-3 5h-5h-5h-16v-150h24v126v-4v-2v-2l2 -2l84 -116h18v150zM2198 608
h-64v132h-22v-150h86v18zM2318 740h-18q-4 0 -8 -4q-8 -4 -8 -8l-34 -46l-2 -2h-2v-2v2l-2 2l-36 46q-2 4 -6 8t-10 4h-16l54 -74l2 -2q0 -2 2 -2v-2v-2q0 -2 2 -2v-2v-64h22v64v2v4q2 0 2 4v2h2zM1160 844q-18 8 -37 19t-33 25h314q-16 -14 -34 -25t-38 -19q-20 -6 -42 -12
t-44 -6q-24 0 -45 6t-41 12zM1114 914l308 310q28 -38 44 -78t16 -80q0 -22 -3 -43t-11 -41q-8 -18 -18 -35t-22 -33h-314zM1068 906q-26 34 -44 72q-6 20 -10 42t-4 46q0 20 4 40t10 40q6 18 16 35t24 33h312zM1332 1284q20 -8 38 -20t32 -22h-316q36 28 74 42q38 18 86 18
t86 -18zM76 342q-4 4 -5 8t-3 8q-2 6 -3 10t-1 10t4 16q2 4 3 9t5 7l3 9t7 7q0 2 5 5t7 5q6 4 9 5l9 3q2 0 8 1t10 1q8 0 14 -1t14 -5q8 -2 13 -6t9 -8q-2 -2 -4 -2v-4h-2h-2h-4h-6q-4 2 -8 5t-8 3h-7h-9h-10h-8q-8 -4 -12 -7t-8 -5q-4 -6 -7 -10t-5 -8q-4 -6 -4 -12v-8
q0 -8 2 -14l3 -9t1 -7q2 -2 5 -4t5 -6q4 -2 6 -5t6 -3q2 -2 6 -4t8 -2q2 -2 6 -2h6h10t8 2q4 0 9 2t9 4v28h-12h-2l-2 2l-3 3l-3 3l-1 1t-1 3v1v3v0h38v-52l-5 -5l-5 -5q-6 -2 -12 -2q-6 -2 -14 -2h-14h-10h-8q-6 2 -9 4l-9 6q-2 0 -7 3t-5 7q-6 2 -7 6t-3 8zM234 428v-44
h54v-14h-54v-46h66v-16h-82v136h82v-16h-66zM360 308v120h-44v16h104v-16h-46v-120h-14zM520 428v-48h58v-12h-58v-60h-16v136h82v-16h-66zM626 444v-84q0 -4 2 -7t4 -5q2 -6 5 -9t5 -7q0 -2 3 -4t5 -4q6 -2 10 -2h8h7t5 2q6 2 9 4t7 4q0 4 3 7t5 9q4 4 4 12v84h14v-84
q0 -6 -1 -10t-3 -10t-5 -10t-7 -8t-8 -7t-8 -5q-12 -2 -22 -2q-12 0 -24 2q-2 2 -7 5t-9 7q-6 6 -10 18q-2 6 -4 10t-2 10v84h14zM766 444v-120h60v-16h-76v136h16zM856 444v-120h64v-16h-78v136h14zM1044 308l-60 136h8q4 0 8 -2q2 -2 3 -2t3 -4l42 -102v-4q2 -2 2 -6v6
l1 2l1 2q6 14 12 26l12 24q4 16 10 28l12 24q0 4 2 4t2 2q2 2 3 2h5h8q-8 -16 -15 -33t-17 -33q-6 -20 -13 -36t-15 -34h-14zM1144 428v-44h56v-14h-56v-46h66v-16h-82v136h82v-16h-66zM1310 372q-2 -2 -10 -4l46 -60h-10q-2 0 -5 1l-3 1q-2 2 -4 3t-4 5l-38 50h-24v-60h-14
v136h50h5t7 -2q8 -2 14 -8q2 -4 4 -7t4 -7q2 -2 2 -7v-5v-9t-2 -5q0 -4 -2 -8t-4 -6l-4 -4t-8 -4zM1294 380q4 0 6 4q2 0 4 1t4 1l3 6t3 4q0 2 1 4t1 8l-1 2t-1 6l-3 3t-3 5q-2 0 -4 1t-4 3h-6h-36v-48h36zM1418 328q2 2 4 8q2 2 3 6t1 6q0 6 -2 10q-2 0 -3 3t-3 5t-8 4
q-4 0 -6 1l-6 3q-4 0 -8 2t-4 4q-10 0 -14 6q-4 0 -5 4t-3 6v14v9t2 7q0 6 8 10q4 4 6 5t8 3q4 0 6 1t8 1q2 0 5 -1t5 -1t4 -1l6 -3q2 0 4 -2t2 -4q4 -2 5 -4t3 -2l-4 -2q-2 -2 -8 -2h-6q-4 2 -4 4h-2h-2h-2h-3h-1h-2h-8q-8 0 -8 -2q-6 -6 -6 -8q-4 0 -4 -8q0 -6 4 -6
q0 -4 2 -6t5 -3l3 -1q4 -4 6 -4t8 -4h3t3 -2h4t4 -4h2h1h1q2 0 4 -1l2 -1q4 -4 6 -7t6 -5q2 -10 2 -18v-10t-6 -8q0 -6 -8 -12q-2 -2 -6 -4l-8 -4t-8 -2h-10q-10 0 -17 2t-13 8q-2 0 -4 2l-4 4q0 2 -1 4l-1 2l2 2l1 1t5 1h2q2 0 4 -1t4 -3q4 -2 6 -4t6 -2q0 -2 4 -2h6
q8 0 10 2q8 0 12 4zM1488 444v-136h-16v136h16zM1542 328q-12 8 -18 20q-4 14 -4 30v7v9q6 10 8 16q6 8 14 16q6 6 12 10q4 4 9 5t9 3q4 0 8 1t10 1q4 0 9 -1t11 -1q4 -2 8 -3t8 -5l5 -5t7 -5q4 -4 6 -7l6 -9q2 -6 6 -16q2 -4 3 -9t1 -7q0 -8 -2 -15t-6 -15q-2 -6 -5 -11
t-9 -9q-6 -6 -11 -9t-11 -7q-10 -4 -26 -4q-8 0 -15 1t-11 3q-16 4 -22 16zM1542 398q-4 -6 -6 -12t-2 -8q0 -4 1 -8t1 -6q2 -8 8 -16q0 -2 2 -4t4 -6l5 -5t9 -3q2 -2 5 -4t5 -2q4 -2 8 -2h8h7t7 2q2 0 6 2l8 4q2 0 5 3l5 5q2 4 4 6l4 4q2 4 3 7l3 9q0 2 1 6t1 8q0 2 -1 8
t-5 12q0 4 -4 8t-6 10q-4 2 -8 5t-10 7h-9h-11h-12h-10q-4 -4 -9 -7t-9 -5q-2 -6 -5 -10t-3 -8zM1700 308h-16v136h12h5t5 -4l70 -100q2 0 2 -4l2 -2v-2v112h16v-136h-14l-80 112v4h-2v4v-120zM1910 428v-48h56v-12h-56v-60h-14v136h82v-16h-68zM2064 372q-8 -2 -12 -4
l44 -60h-12q-4 0 -8 2q0 2 -1 3t-3 5l-38 50h-24v-60h-16v136h50h6t8 -2t7 -4t5 -4q2 -4 4 -7t6 -7q0 -2 1 -7l1 -5q0 -6 -1 -9t-1 -5l-4 -8t-2 -6zM2052 384q2 0 3 1t3 1q6 8 6 10q2 4 2 12q0 2 -2 8q0 2 -6 8q-2 0 -3 1l-3 3h-8h-34v-48h34q4 0 8 4zM2228 328
q-4 -6 -10 -9t-12 -7q-6 -2 -12 -3t-14 -1t-15 1t-13 3q-12 4 -22 16q-4 4 -8 9t-6 11q-2 8 -5 15t-3 15q0 2 1 7t3 9t3 9t3 7q4 6 7 9t5 7q4 2 8 5t8 5q4 4 8 5t8 3q6 0 9 1t9 1q4 0 9 -1t9 -1l9 -3t7 -5q4 -2 8 -5t6 -5q2 -4 5 -7t5 -9q6 -6 8 -16q2 -4 3 -9t1 -7
q0 -8 -1 -15t-5 -15q-2 -6 -6 -11t-10 -9zM2180 322h7t9 2q2 0 5 2t5 4q2 0 6 3t8 5l3 6t3 4q2 4 3 7t1 9q2 2 2 6v8q0 2 -1 8t-1 12q-2 4 -5 8t-5 10q-6 2 -11 5t-9 7h-10h-10h-11h-11q-6 -4 -9 -7t-7 -5q-6 -6 -8 -10l-4 -8q-2 -6 -2 -12v-8v-14q0 -6 1 -9t5 -7q0 -2 3 -4
t5 -6l5 -5t5 -3q2 -2 5 -4t9 -2q2 -2 6 -2h8zM2402 442q2 2 3 2h3h12v-136h-14v112l-2 -2v0v-2q-4 -8 -6 -17t-6 -15t-7 -12l-7 -14q-2 -8 -4 -14l-4 -12q-4 -6 -7 -11t-5 -13h-14q-10 12 -15 26t-11 26q-4 14 -11 28t-11 28v2l-4 2v-112h-16v136h14q6 0 8 -2l2 -2v-4
l48 -106q0 -2 2 -2v-4q0 2 1 4t1 4q0 4 4 8l42 96q0 4 1 4t3 2zM72 256h154v-20v-4v-4q0 -4 -2 -6l-4 -4l-104 -142h2v2h4h2h102v-36h-162v12q0 10 2 12q0 2 4 8q2 2 2 4t2 4t3 4l3 6l92 126h-100v38zM254 256h136v-38h-98v-48h78v-40h-78v-52h98v-36h-136v214zM558 218h-58
v-176h-42v176h-62v38h162v-38zM656 256l92 -214h-24q-8 0 -16 4q-4 2 -5 6t-5 8l-12 28h-98l-10 -28q-2 -4 -3 -5t-3 -1q0 -4 -1 -5t-5 -3q-2 0 -4 -1t-4 -1q0 -2 -2 -2h-4h-24l92 214h36zM668 126l-26 66q0 2 -1 3t-1 3q0 4 -2 6v-6q0 -2 -2 -3t-2 -3l-26 -66h60zM756 256
h136v-38h-98v-54h80v-38h-80v-84h-38v214zM1106 202q4 -6 6 -12t6 -12q2 -8 2 -15v-13v-16t-2 -14q-4 -6 -6 -13t-6 -13q-4 -4 -8 -10l-8 -12q-8 -4 -12 -9t-10 -7q-6 -6 -13 -8t-13 -4q-8 -2 -15 -3t-15 -1q-10 0 -21 3t-21 5q-12 6 -19 12t-17 12q-14 16 -20 34
q-6 12 -8 22t-2 22q0 6 1 13t3 15q4 16 12 24q4 8 7 13t7 11q8 4 13 8t11 8t12 6t14 6q6 0 13 1t15 1t15 -1t15 -1q6 -4 13 -6t13 -6t10 -8t12 -8q4 -6 8 -11t8 -13zM1078 124q2 6 3 12t1 14q0 12 -4 24q-4 10 -8 15t-10 9q-4 4 -9 8t-11 6q-12 6 -28 6t-28 -6q-4 -2 -9 -6
t-11 -8t-9 -9t-7 -15q-4 -4 -4 -11v-13v-14t4 -12l7 -14t9 -10t11 -8t9 -8q8 -2 14 -4t14 -2t14 2t14 4q6 4 11 8t9 8q6 4 10 10t8 14zM1298 256h38v-214h-36l-100 144q-2 0 -2 1t-2 3q-2 4 -2 6q-4 0 -4 4l-1 1l-3 3v-162h-38v214h34q4 0 8 -1t4 -3l6 -3t4 -3
q10 -16 21 -31t21 -33q12 -14 23 -29t25 -29q0 -4 1 -6t1 -6q0 -2 1 -4t1 -4v152zM1356 256h162v-38h-64v-176h-38v176h-60v38zM1650 146q2 -4 5 -8t5 -8q0 -4 2 -9t2 -13q0 -12 -6 -26l-8 -12t-8 -10q-8 -4 -12 -8t-12 -6t-15 -4t-13 -2q-8 0 -15 2t-17 4q-6 2 -11 6
t-13 12q-4 2 -6 5t-4 7q-4 2 -4 12l1 1l3 3q2 0 2 1t2 1t4 1l2 1h10h3t3 -2q6 0 10 -2q4 -4 8 -6t6 -4q2 0 6 -2t10 -2q2 0 5 1t7 3q6 2 12 6l8 8q2 4 4 6t2 6q0 8 -6 12q-4 6 -8 6q-4 4 -7 5t-5 1q-6 2 -16 8q-4 0 -9 1t-9 5q-8 2 -12 5t-8 7q-6 4 -9 8t-5 8q-6 12 -6 24
q0 18 6 26q2 6 6 10t10 8q4 4 9 6t13 6q4 0 10 1t14 1q4 0 8 -1t10 -1q4 -2 7 -4t9 -4q2 -2 6 -5t8 -7l5 -5t5 -7l-8 -4q-2 -2 -5 -4t-3 -4h-8h-4h-4h-2q-6 0 -6 2l-8 4q-2 0 -3 1l-1 1h-6h-12q-4 0 -5 -1t-5 -3q-2 -2 -4 -8q-2 -2 -2 -8t2 -6q2 -2 3 -4t1 -6q4 0 7 -1t5 -1
q6 -2 11 -4t7 -4l10 -2q4 -4 9 -5t11 -7q10 -2 16 -12zM1714 78q6 0 6 -6q2 0 2 -3v-5q0 -6 -2 -10q0 -4 -6 -8q-4 0 -6 -4q-2 0 -4 -1t-6 -1q-2 0 -4 1t-4 1q-2 2 -4 3t-4 1q-2 2 -3 4t-3 4q-2 4 -2 10v5t2 3q2 4 3 5t3 1q6 6 8 6q2 2 4 3t4 1q4 0 6 -1t4 -3q2 0 6 -6z
M1796 198q-8 -8 -16 -24q-2 -4 -4 -11t-2 -13q0 -8 2 -14l4 -12l7 -14t9 -10q4 -4 9 -8t13 -8q8 -2 14 -4t14 -2q6 0 10 2t10 2q4 2 9 5t9 7q4 0 8 2h6h6t6 -2q6 -2 10 -6l6 -10q-6 -8 -16 -14q-6 -4 -10 -7t-10 -5q-6 -4 -11 -5t-11 -3t-11 -3t-11 -1q-14 0 -24 3t-20 5
q-20 10 -34 24q-16 16 -24 34q-2 12 -5 22t-3 22q0 6 1 13t3 15l4 12t6 12q6 8 9 13t9 11q6 4 11 8t13 8q4 4 10 6t16 6q4 0 12 1t16 1h11t11 -2t11 -4t11 -4t10 -5t10 -7q10 -8 16 -16l-6 -8l-5 -5t-5 -3h-7h-5h-7t-7 2q-4 4 -9 7t-9 5q-6 2 -10 2h-10q-16 0 -28 -6
q-8 -2 -13 -6t-9 -8zM2144 202q2 -6 5 -12t5 -12q2 -8 2 -15v-13v-16t-2 -14t-5 -13t-5 -13q-8 -10 -16 -22q-8 -4 -14 -9t-10 -7q-6 -6 -13 -8t-15 -4q-6 -2 -13 -3t-15 -1q-20 0 -42 8q-8 6 -17 12t-15 12q-8 8 -14 16t-10 18q-4 12 -6 22t-2 22q0 6 1 13t1 15q2 6 6 12
t6 12q4 8 8 13t10 11q4 4 10 8l12 8q4 4 11 6t13 6q8 0 15 1t13 1q8 0 15 -1t13 -1q8 -4 15 -6t13 -6q4 -4 10 -8t14 -8q2 -6 8 -11t8 -13zM2114 124q4 10 4 26q0 6 -1 13t-3 11q-4 10 -7 15t-7 9q-10 10 -24 14q-6 4 -13 5t-15 1q-14 0 -26 -6q-6 -2 -11 -6t-11 -8
q-4 -4 -8 -9t-8 -15q-2 -4 -3 -11t-1 -13q0 -8 1 -14t3 -12q8 -16 16 -24q6 -4 11 -8t11 -8q6 -2 14 -4t12 -2q8 0 15 2t13 4q6 4 13 8t11 8q8 8 14 24zM2376 254l1 1t5 1h38v-214h-38v156q0 -2 -1 -4l-3 -6v-6t-2 -4q-6 -18 -14 -35t-14 -33t-13 -33t-13 -35h-38l-54 136
q-2 2 -2 10q-2 4 -3 5t-1 3v-154h-40v214h38q4 0 6 -1l2 -1q4 -2 5 -2t3 -2l6 -4l4 -4t2 -4q4 -16 11 -31t13 -33q6 -16 13 -32t13 -32v-2v-4v-4q4 0 4 -4v4v4q0 2 1 4l1 2l8 16l44 112q0 2 1 4t1 4q2 2 5 3l3 1q2 2 4 2t4 2z" />
    <glyph glyph-name="two" unicode="2" horiz-adv-x="2472" 
d="M1884 704q4 -4 8 -9t6 -9q0 -6 1 -11t1 -11q0 -12 -2 -22q-2 -6 -6 -10t-8 -6q-4 -4 -8 -7t-8 -7q-12 -4 -22 -4q-6 0 -12 1t-10 3q-6 4 -10 7t-8 7q-4 2 -7 6t-3 10q-4 6 -5 11t-1 11q0 10 6 22q0 4 3 9t7 9t8 7t10 5q8 4 22 4q6 0 10 -1l12 -3q4 -2 8 -5t8 -7zM506 686
q0 -2 -4 -8q-2 0 -3 -2t-5 -2q-2 -2 -8 -2h-32v46h32q4 0 8 -2q4 0 5 -1l3 -3l4 -8q2 -2 2 -10q0 -6 -2 -8zM782 704q4 -4 8 -9t6 -9q2 -6 3 -11t1 -11t-1 -11t-3 -11t-6 -10t-8 -6q-2 -4 -6 -7t-10 -7q-4 -2 -10 -3t-12 -1q-12 0 -22 4q-4 4 -9 7t-9 7l-6 6t-6 10t-4 11
t-2 11q0 10 6 22q2 4 6 9t6 9q4 4 9 7t9 5q6 2 12 3t10 1q12 0 22 -4q6 -2 10 -5t6 -7zM1064 716q0 -4 1 -6t1 -4l28 -62h-58l28 62v4v6zM264 712q2 -2 3 -5t3 -5q2 -4 2 -10v-5t-2 -5t-3 -5t-3 -3l-8 -8h-10h-36v52h36q6 0 10 -2q2 0 5 -2zM2420 1066v-572h-2348v572h890
q0 30 5 57t17 53t27 50t37 42q36 38 88 60q28 12 55 17t55 5q32 0 60 -6t52 -18q28 -12 51 -28t41 -34q36 -36 60 -92q20 -52 20 -106h890zM1006 1164q-22 -46 -22 -98q0 -56 22 -102q10 -22 24 -44t30 -40q18 -18 39 -32t45 -24q46 -22 102 -22q28 0 53 4t49 14
q24 12 44 25t38 33q18 18 32 39t26 43q22 50 22 106q0 22 -4 45t-14 43q-12 40 -40 74q-14 16 -30 30t-32 24q-18 10 -37 19t-39 17q-14 4 -31 6t-37 2q-28 0 -54 -5t-50 -17q-48 -18 -84 -56q-16 -18 -29 -40t-23 -44zM288 674q6 10 6 18q0 4 -1 9t-5 11q0 2 -4 6l-6 6
q-2 4 -5 7t-9 3q-4 2 -9 4t-9 2h-52v-150h16v56h36q4 0 9 1t9 3q10 4 14 8q2 4 6 8t4 8zM400 740h-92v-150h92v18h-70v46h58v20h-58v44h70v22zM546 590l-46 64q2 2 5 2t5 4q8 4 10 10q2 2 4 5t4 7v12v10t-2 8q-4 8 -10 14q-4 8 -14 8q-2 2 -7 4t-9 2h-54v-150h22v62h22
l40 -54q2 -4 6 -6q2 -2 4 -2h6h14zM648 616q0 4 1 8t1 8q0 12 -4 20t-12 14q-2 0 -3 2t-5 4h-1t-5 2h-2t-2 4q-6 0 -8 2q-6 0 -8 1l-6 3q-8 2 -8 4q-6 4 -6 6v8v8q2 0 4 2t2 4l3 1t5 1q4 2 6 2h4l2 -1t4 -1q8 0 8 -4q2 -2 4 -2h4q8 0 14 4l4 2q0 2 -2 4l-4 4q-4 2 -6 4t-6 4
q-2 0 -4 1t-6 5q-6 0 -7 1t-5 1t-9 -1t-9 -1q-4 -4 -7 -6t-7 -2q-2 -4 -5 -7t-5 -7t-3 -7t-1 -9v-9t4 -7q2 -4 5 -7t3 -5q4 -2 8 -5t8 -3q4 -2 7 -4t7 -4q2 -2 5 -2h5q6 -2 7 -2t3 -2q4 -2 4 -3t2 -5q2 -2 2 -5v-7v-3t-2 -5q-2 -4 -2 -5t-4 -3q-2 -4 -5 -5t-5 -3h-5h-5h-7
h-5q-2 2 -5 3t-3 5l-2 2q-6 4 -12 4h-4t-4 -2l-6 -2q0 -4 2 -4q0 -4 4 -6q0 -2 2 -4l2 -2h2q8 -8 17 -10t19 -2h9t9 2t9 4t7 6q6 2 9 5t5 9zM818 644q2 6 2 10v10q0 12 -2 20q0 6 -3 10t-5 10q-4 6 -12 14q-4 4 -8 6t-10 8q-2 0 -6 2t-10 6q-6 0 -10 1t-10 1q-4 0 -10 -1
t-10 -1q-6 -4 -10 -6t-8 -2q-4 -6 -8 -8t-8 -6l-7 -7t-5 -7q-4 -6 -5 -10t-3 -10q-2 -8 -2 -20q0 -8 2 -15t4 -15q2 -6 6 -12t10 -14l12 -8t14 -4q12 -6 28 -6h10h10q10 4 16 8q14 6 18 10q6 8 12 18q2 4 5 9t3 9zM974 740h-20v-116q0 2 -1 5l-1 3l-72 102q-4 0 -8 6h-4h-4
h-14v-150h20v126v-4l2 -2v0v-4l86 -116h16v150zM1142 590l-66 150h-22l-64 -150h12q6 0 8 2l3 3t5 3l8 26h78l10 -26q2 -4 6 -6q0 -2 8 -2h14zM1240 608h-64v132h-22v-150h86v18zM1444 740h-20v-90v-10t-2 -8q-2 -8 -10 -12q-2 -2 -5 -4t-5 -6q-6 -2 -9 -2h-7q-10 0 -14 2
q-6 4 -10 6t-4 4q-2 2 -4 5t-6 7q0 4 -1 8t-1 10v90h-20v-90v-11t2 -7q0 -8 4 -14q4 -10 12 -14q2 -2 5 -4t7 -4q2 -2 6 -3t6 -3q6 0 9 -2t9 -2q4 0 7 2t9 2q4 2 7 3t7 3l12 8q4 4 5 7t3 7q2 2 5 6t3 8v18v90zM1560 616q6 8 6 16q0 12 -4 20t-12 14q-6 4 -6 6h-5t-5 2h-3
t-5 4h-2t-4 2q-2 0 -4 1l-6 3q-8 2 -8 4q-4 2 -5 4t-3 2q0 2 -1 3t-1 5t4 8l6 6q2 0 3 1t5 1q0 2 10 2l2 -1t4 -1q2 -2 8 -4q8 -2 10 -2q6 0 8 4l6 2l-4 4l-4 4q0 2 -3 4t-5 4q-4 0 -6 1t-6 5q-4 0 -7 1l-3 1q-6 0 -10 -1t-8 -1q-4 -4 -8 -6t-6 -2q-4 -4 -6 -7t-6 -7
q0 -4 -2 -7t-2 -9t2 -9t2 -7q4 -8 10 -12q4 -2 7 -5t5 -3q6 -2 9 -4t7 -4t6 -2h4q2 -2 5 -2t5 -2t5 -3t3 -5q2 -2 2 -5v-7v-3t-2 -5q-2 -6 -8 -8q-4 -4 -6 -5t-4 -3h-5h-5h-7h-5q-4 2 -10 8v2q-6 4 -12 4h-3t-5 -2l-6 -2q2 -2 2 -3t2 -1q0 -2 1 -3t1 -3l1 -1t1 -3q4 -2 6 -2
q6 -8 15 -10t19 -2h10t10 2l8 4t8 6l5 5t5 9zM1682 740h-92v-150h92v18h-72v46h60v20h-60v44h72v22zM1920 644v10v10v11v9q-4 10 -10 20q-4 6 -12 14q-2 4 -6 6t-8 8q-4 0 -9 2t-9 6q-6 0 -10 1t-10 1t-11 -1t-9 -1q-12 -6 -20 -8q-4 -6 -7 -8t-7 -6l-7 -7l-7 -7
q-2 -6 -4 -10t-2 -10q-4 -8 -4 -20q0 -8 2 -15t4 -15q6 -14 18 -26q4 -4 10 -8t14 -4q12 -6 30 -6h10h10q4 2 9 4t9 4q4 4 8 6t6 4q8 8 12 18q6 8 10 18zM2076 740h-22v-116q0 2 -1 5t-3 3l-72 102l-1 1t-3 5h-5h-5h-16v-150h24v126v-4v-2v-2l2 -2l84 -116h18v150zM2198 608
h-64v132h-22v-150h86v18zM2318 740h-18q-4 0 -8 -4q-8 -4 -8 -8l-34 -46l-2 -2h-2v-2v2l-2 2l-36 46q-2 4 -6 8t-10 4h-16l54 -74l2 -2q0 -2 2 -2v-2v-2q0 -2 2 -2v-2v-64h22v64v2v4q2 0 2 4v2h2zM1160 844q-18 8 -37 19t-33 25h314q-16 -14 -34 -25t-38 -19q-20 -6 -42 -12
t-44 -6q-24 0 -45 6t-41 12zM1114 914l308 310q28 -38 44 -78t16 -80q0 -22 -3 -43t-11 -41q-8 -18 -18 -35t-22 -33h-314zM1068 906q-26 34 -44 72q-6 20 -10 42t-4 46q0 20 4 40t10 40q6 18 16 35t24 33h312zM1332 1284q20 -8 38 -20t32 -22h-316q36 28 74 42q38 18 86 18
t86 -18zM76 342q-4 4 -5 8t-3 8q-2 6 -3 10t-1 10t4 16q2 4 3 9t5 7l3 9t7 7q0 2 5 5t7 5q6 4 9 5l9 3q2 0 8 1t10 1q8 0 14 -1t14 -5q8 -2 13 -6t9 -8q-2 -2 -4 -2v-4h-2h-2h-4h-6q-4 2 -8 5t-8 3h-7h-9h-10h-8q-8 -4 -12 -7t-8 -5q-4 -6 -7 -10t-5 -8q-4 -6 -4 -12v-8
q0 -8 2 -14l3 -9t1 -7q2 -2 5 -4t5 -6q4 -2 6 -5t6 -3q2 -2 6 -4t8 -2q2 -2 6 -2h6h10t8 2q4 0 9 2t9 4v28h-12h-2l-2 2l-3 3l-3 3l-1 1t-1 3v1v3v0h38v-52l-5 -5l-5 -5q-6 -2 -12 -2q-6 -2 -14 -2h-14h-10h-8q-6 2 -9 4l-9 6q-2 0 -7 3t-5 7q-6 2 -7 6t-3 8zM234 428v-44
h54v-14h-54v-46h66v-16h-82v136h82v-16h-66zM360 308v120h-44v16h104v-16h-46v-120h-14zM520 428v-48h58v-12h-58v-60h-16v136h82v-16h-66zM626 444v-84q0 -4 2 -7t4 -5q2 -6 5 -9t5 -7q0 -2 3 -4t5 -4q6 -2 10 -2h8h7t5 2q6 2 9 4t7 4q0 4 3 7t5 9q4 4 4 12v84h14v-84
q0 -6 -1 -10t-3 -10t-5 -10t-7 -8t-8 -7t-8 -5q-12 -2 -22 -2q-12 0 -24 2q-2 2 -7 5t-9 7q-6 6 -10 18q-2 6 -4 10t-2 10v84h14zM766 444v-120h60v-16h-76v136h16zM856 444v-120h64v-16h-78v136h14zM1044 308l-60 136h8q4 0 8 -2q2 -2 3 -2t3 -4l42 -102v-4q2 -2 2 -6v6
l1 2l1 2q6 14 12 26l12 24q4 16 10 28l12 24q0 4 2 4t2 2q2 2 3 2h5h8q-8 -16 -15 -33t-17 -33q-6 -20 -13 -36t-15 -34h-14zM1144 428v-44h56v-14h-56v-46h66v-16h-82v136h82v-16h-66zM1310 372q-2 -2 -10 -4l46 -60h-10q-2 0 -5 1l-3 1q-2 2 -4 3t-4 5l-38 50h-24v-60h-14
v136h50h5t7 -2q8 -2 14 -8q2 -4 4 -7t4 -7q2 -2 2 -7v-5v-9t-2 -5q0 -4 -2 -8t-4 -6l-4 -4t-8 -4zM1294 380q4 0 6 4q2 0 4 1t4 1l3 6t3 4q0 2 1 4t1 8l-1 2t-1 6l-3 3t-3 5q-2 0 -4 1t-4 3h-6h-36v-48h36zM1418 328q2 2 4 8q2 2 3 6t1 6q0 6 -2 10q-2 0 -3 3t-3 5t-8 4
q-4 0 -6 1l-6 3q-4 0 -8 2t-4 4q-10 0 -14 6q-4 0 -5 4t-3 6v14v9t2 7q0 6 8 10q4 4 6 5t8 3q4 0 6 1t8 1q2 0 5 -1t5 -1t4 -1l6 -3q2 0 4 -2t2 -4q4 -2 5 -4t3 -2l-4 -2q-2 -2 -8 -2h-6q-4 2 -4 4h-2h-2h-2h-3h-1h-2h-8q-8 0 -8 -2q-6 -6 -6 -8q-4 0 -4 -8q0 -6 4 -6
q0 -4 2 -6t5 -3l3 -1q4 -4 6 -4t8 -4h3t3 -2h4t4 -4h2h1h1q2 0 4 -1l2 -1q4 -4 6 -7t6 -5q2 -10 2 -18v-10t-6 -8q0 -6 -8 -12q-2 -2 -6 -4l-8 -4t-8 -2h-10q-10 0 -17 2t-13 8q-2 0 -4 2l-4 4q0 2 -1 4l-1 2l2 2l1 1t5 1h2q2 0 4 -1t4 -3q4 -2 6 -4t6 -2q0 -2 4 -2h6
q8 0 10 2q8 0 12 4zM1488 444v-136h-16v136h16zM1542 328q-12 8 -18 20q-4 14 -4 30v7v9q6 10 8 16q6 8 14 16q6 6 12 10q4 4 9 5t9 3q4 0 8 1t10 1q4 0 9 -1t11 -1q4 -2 8 -3t8 -5l5 -5t7 -5q4 -4 6 -7l6 -9q2 -6 6 -16q2 -4 3 -9t1 -7q0 -8 -2 -15t-6 -15q-2 -6 -5 -11
t-9 -9q-6 -6 -11 -9t-11 -7q-10 -4 -26 -4q-8 0 -15 1t-11 3q-16 4 -22 16zM1542 398q-4 -6 -6 -12t-2 -8q0 -4 1 -8t1 -6q2 -8 8 -16q0 -2 2 -4t4 -6l5 -5t9 -3q2 -2 5 -4t5 -2q4 -2 8 -2h8h7t7 2q2 0 6 2l8 4q2 0 5 3l5 5q2 4 4 6l4 4q2 4 3 7l3 9q0 2 1 6t1 8q0 2 -1 8
t-5 12q0 4 -4 8t-6 10q-4 2 -8 5t-10 7h-9h-11h-12h-10q-4 -4 -9 -7t-9 -5q-2 -6 -5 -10t-3 -8zM1700 308h-16v136h12h5t5 -4l70 -100q2 0 2 -4l2 -2v-2v112h16v-136h-14l-80 112v4h-2v4v-120zM1910 428v-48h56v-12h-56v-60h-14v136h82v-16h-68zM2064 372q-8 -2 -12 -4
l44 -60h-12q-4 0 -8 2q0 2 -1 3t-3 5l-38 50h-24v-60h-16v136h50h6t8 -2t7 -4t5 -4q2 -4 4 -7t6 -7q0 -2 1 -7l1 -5q0 -6 -1 -9t-1 -5l-4 -8t-2 -6zM2052 384q2 0 3 1t3 1q6 8 6 10q2 4 2 12q0 2 -2 8q0 2 -6 8q-2 0 -3 1l-3 3h-8h-34v-48h34q4 0 8 4zM2228 328
q-4 -6 -10 -9t-12 -7q-6 -2 -12 -3t-14 -1t-15 1t-13 3q-12 4 -22 16q-4 4 -8 9t-6 11q-2 8 -5 15t-3 15q0 2 1 7t3 9t3 9t3 7q4 6 7 9t5 7q4 2 8 5t8 5q4 4 8 5t8 3q6 0 9 1t9 1q4 0 9 -1t9 -1l9 -3t7 -5q4 -2 8 -5t6 -5q2 -4 5 -7t5 -9q6 -6 8 -16q2 -4 3 -9t1 -7
q0 -8 -1 -15t-5 -15q-2 -6 -6 -11t-10 -9zM2180 322h7t9 2q2 0 5 2t5 4q2 0 6 3t8 5l3 6t3 4q2 4 3 7t1 9q2 2 2 6v8q0 2 -1 8t-1 12q-2 4 -5 8t-5 10q-6 2 -11 5t-9 7h-10h-10h-11h-11q-6 -4 -9 -7t-7 -5q-6 -6 -8 -10l-4 -8q-2 -6 -2 -12v-8v-14q0 -6 1 -9t5 -7q0 -2 3 -4
t5 -6l5 -5t5 -3q2 -2 5 -4t9 -2q2 -2 6 -2h8zM2402 442q2 2 3 2h3h12v-136h-14v112l-2 -2v0v-2q-4 -8 -6 -17t-6 -15t-7 -12l-7 -14q-2 -8 -4 -14l-4 -12q-4 -6 -7 -11t-5 -13h-14q-10 12 -15 26t-11 26q-4 14 -11 28t-11 28v2l-4 2v-112h-16v136h14q6 0 8 -2l2 -2v-4
l48 -106q0 -2 2 -2v-4q0 2 1 4t1 4q0 4 4 8l42 96q0 4 1 4t3 2zM72 256h154v-20v-4v-4q0 -4 -2 -6l-4 -4l-104 -142h2v2h4h2h102v-36h-162v12q0 10 2 12q0 2 4 8q2 2 2 4t2 4t3 4l3 6l92 126h-100v38zM254 256h136v-38h-98v-48h78v-40h-78v-52h98v-36h-136v214zM558 218h-58
v-176h-42v176h-62v38h162v-38zM656 256l92 -214h-24q-8 0 -16 4q-4 2 -5 6t-5 8l-12 28h-98l-10 -28q-2 -4 -3 -5t-3 -1q0 -4 -1 -5t-5 -3q-2 0 -4 -1t-4 -1q0 -2 -2 -2h-4h-24l92 214h36zM668 126l-26 66q0 2 -1 3t-1 3q0 4 -2 6v-6q0 -2 -2 -3t-2 -3l-26 -66h60zM756 256
h136v-38h-98v-54h80v-38h-80v-84h-38v214zM1106 202q4 -6 6 -12t6 -12q2 -8 2 -15v-13v-16t-2 -14q-4 -6 -6 -13t-6 -13q-4 -4 -8 -10l-8 -12q-8 -4 -12 -9t-10 -7q-6 -6 -13 -8t-13 -4q-8 -2 -15 -3t-15 -1q-10 0 -21 3t-21 5q-12 6 -19 12t-17 12q-14 16 -20 34
q-6 12 -8 22t-2 22q0 6 1 13t3 15q4 16 12 24q4 8 7 13t7 11q8 4 13 8t11 8t12 6t14 6q6 0 13 1t15 1t15 -1t15 -1q6 -4 13 -6t13 -6t10 -8t12 -8q4 -6 8 -11t8 -13zM1078 124q2 6 3 12t1 14q0 12 -4 24q-4 10 -8 15t-10 9q-4 4 -9 8t-11 6q-12 6 -28 6t-28 -6q-4 -2 -9 -6
t-11 -8t-9 -9t-7 -15q-4 -4 -4 -11v-13v-14t4 -12l7 -14t9 -10t11 -8t9 -8q8 -2 14 -4t14 -2t14 2t14 4q6 4 11 8t9 8q6 4 10 10t8 14zM1298 256h38v-214h-36l-100 144q-2 0 -2 1t-2 3q-2 4 -2 6q-4 0 -4 4l-1 1l-3 3v-162h-38v214h34q4 0 8 -1t4 -3l6 -3t4 -3
q10 -16 21 -31t21 -33q12 -14 23 -29t25 -29q0 -4 1 -6t1 -6q0 -2 1 -4t1 -4v152zM1356 256h162v-38h-64v-176h-38v176h-60v38zM1650 146q2 -4 5 -8t5 -8q0 -4 2 -9t2 -13q0 -12 -6 -26l-8 -12t-8 -10q-8 -4 -12 -8t-12 -6t-15 -4t-13 -2q-8 0 -15 2t-17 4q-6 2 -11 6
t-13 12q-4 2 -6 5t-4 7q-4 2 -4 12l1 1l3 3q2 0 2 1t2 1t4 1l2 1h10h3t3 -2q6 0 10 -2q4 -4 8 -6t6 -4q2 0 6 -2t10 -2q2 0 5 1t7 3q6 2 12 6l8 8q2 4 4 6t2 6q0 8 -6 12q-4 6 -8 6q-4 4 -7 5t-5 1q-6 2 -16 8q-4 0 -9 1t-9 5q-8 2 -12 5t-8 7q-6 4 -9 8t-5 8q-6 12 -6 24
q0 18 6 26q2 6 6 10t10 8q4 4 9 6t13 6q4 0 10 1t14 1q4 0 8 -1t10 -1q4 -2 7 -4t9 -4q2 -2 6 -5t8 -7l5 -5t5 -7l-8 -4q-2 -2 -5 -4t-3 -4h-8h-4h-4h-2q-6 0 -6 2l-8 4q-2 0 -3 1l-1 1h-6h-12q-4 0 -5 -1t-5 -3q-2 -2 -4 -8q-2 -2 -2 -8t2 -6q2 -2 3 -4t1 -6q4 0 7 -1t5 -1
q6 -2 11 -4t7 -4l10 -2q4 -4 9 -5t11 -7q10 -2 16 -12zM1714 78q6 0 6 -6q2 0 2 -3v-5q0 -6 -2 -10q0 -4 -6 -8q-4 0 -6 -4q-2 0 -4 -1t-6 -1q-2 0 -4 1t-4 1q-2 2 -4 3t-4 1q-2 2 -3 4t-3 4q-2 4 -2 10v5t2 3q2 4 3 5t3 1q6 6 8 6q2 2 4 3t4 1q4 0 6 -1t4 -3q2 0 6 -6z
M1796 198q-8 -8 -16 -24q-2 -4 -4 -11t-2 -13q0 -8 2 -14l4 -12l7 -14t9 -10q4 -4 9 -8t13 -8q8 -2 14 -4t14 -2q6 0 10 2t10 2q4 2 9 5t9 7q4 0 8 2h6h6t6 -2q6 -2 10 -6l6 -10q-6 -8 -16 -14q-6 -4 -10 -7t-10 -5q-6 -4 -11 -5t-11 -3t-11 -3t-11 -1q-14 0 -24 3t-20 5
q-20 10 -34 24q-16 16 -24 34q-2 12 -5 22t-3 22q0 6 1 13t3 15l4 12t6 12q6 8 9 13t9 11q6 4 11 8t13 8q4 4 10 6t16 6q4 0 12 1t16 1h11t11 -2t11 -4t11 -4t10 -5t10 -7q10 -8 16 -16l-6 -8l-5 -5t-5 -3h-7h-5h-7t-7 2q-4 4 -9 7t-9 5q-6 2 -10 2h-10q-16 0 -28 -6
q-8 -2 -13 -6t-9 -8zM2144 202q2 -6 5 -12t5 -12q2 -8 2 -15v-13v-16t-2 -14t-5 -13t-5 -13q-8 -10 -16 -22q-8 -4 -14 -9t-10 -7q-6 -6 -13 -8t-15 -4q-6 -2 -13 -3t-15 -1q-20 0 -42 8q-8 6 -17 12t-15 12q-8 8 -14 16t-10 18q-4 12 -6 22t-2 22q0 6 1 13t1 15q2 6 6 12
t6 12q4 8 8 13t10 11q4 4 10 8l12 8q4 4 11 6t13 6q8 0 15 1t13 1q8 0 15 -1t13 -1q8 -4 15 -6t13 -6q4 -4 10 -8t14 -8q2 -6 8 -11t8 -13zM2114 124q4 10 4 26q0 6 -1 13t-3 11q-4 10 -7 15t-7 9q-10 10 -24 14q-6 4 -13 5t-15 1q-14 0 -26 -6q-6 -2 -11 -6t-11 -8
q-4 -4 -8 -9t-8 -15q-2 -4 -3 -11t-1 -13q0 -8 1 -14t3 -12q8 -16 16 -24q6 -4 11 -8t11 -8q6 -2 14 -4t12 -2q8 0 15 2t13 4q6 4 13 8t11 8q8 8 14 24zM2376 254l1 1t5 1h38v-214h-38v156q0 -2 -1 -4l-3 -6v-6t-2 -4q-6 -18 -14 -35t-14 -33t-13 -33t-13 -35h-38l-54 136
q-2 2 -2 10q-2 4 -3 5t-1 3v-154h-40v214h38q4 0 6 -1l2 -1q4 -2 5 -2t3 -2l6 -4l4 -4t2 -4q4 -16 11 -31t13 -33q6 -16 13 -32t13 -32v-2v-4v-4q4 0 4 -4v4v4q0 2 1 4l1 2l8 16l44 112q0 2 1 4t1 4q2 2 5 3l3 1q2 2 4 2t4 2z" />
    <glyph glyph-name="three" unicode="3" horiz-adv-x="2472" 
d="M1884 704q4 -4 8 -9t6 -9q0 -6 1 -11t1 -11q0 -12 -2 -22q-2 -6 -6 -10t-8 -6q-4 -4 -8 -7t-8 -7q-12 -4 -22 -4q-6 0 -12 1t-10 3q-6 4 -10 7t-8 7q-4 2 -7 6t-3 10q-4 6 -5 11t-1 11q0 10 6 22q0 4 3 9t7 9t8 7t10 5q8 4 22 4q6 0 10 -1l12 -3q4 -2 8 -5t8 -7zM506 686
q0 -2 -4 -8q-2 0 -3 -2t-5 -2q-2 -2 -8 -2h-32v46h32q4 0 8 -2q4 0 5 -1l3 -3l4 -8q2 -2 2 -10q0 -6 -2 -8zM782 704q4 -4 8 -9t6 -9q2 -6 3 -11t1 -11t-1 -11t-3 -11t-6 -10t-8 -6q-2 -4 -6 -7t-10 -7q-4 -2 -10 -3t-12 -1q-12 0 -22 4q-4 4 -9 7t-9 7l-6 6t-6 10t-4 11
t-2 11q0 10 6 22q2 4 6 9t6 9q4 4 9 7t9 5q6 2 12 3t10 1q12 0 22 -4q6 -2 10 -5t6 -7zM1064 716q0 -4 1 -6t1 -4l28 -62h-58l28 62v4v6zM264 712q2 -2 3 -5t3 -5q2 -4 2 -10v-5t-2 -5t-3 -5t-3 -3l-8 -8h-10h-36v52h36q6 0 10 -2q2 0 5 -2zM2420 1066v-572h-2348v572h890
q0 30 5 57t17 53t27 50t37 42q36 38 88 60q28 12 55 17t55 5q32 0 60 -6t52 -18q28 -12 51 -28t41 -34q36 -36 60 -92q20 -52 20 -106h890zM1006 1164q-22 -46 -22 -98q0 -56 22 -102q10 -22 24 -44t30 -40q18 -18 39 -32t45 -24q46 -22 102 -22q28 0 53 4t49 14
q24 12 44 25t38 33q18 18 32 39t26 43q22 50 22 106q0 22 -4 45t-14 43q-12 40 -40 74q-14 16 -30 30t-32 24q-18 10 -37 19t-39 17q-14 4 -31 6t-37 2q-28 0 -54 -5t-50 -17q-48 -18 -84 -56q-16 -18 -29 -40t-23 -44zM288 674q6 10 6 18q0 4 -1 9t-5 11q0 2 -4 6l-6 6
q-2 4 -5 7t-9 3q-4 2 -9 4t-9 2h-52v-150h16v56h36q4 0 9 1t9 3q10 4 14 8q2 4 6 8t4 8zM400 740h-92v-150h92v18h-70v46h58v20h-58v44h70v22zM546 590l-46 64q2 2 5 2t5 4q8 4 10 10q2 2 4 5t4 7v12v10t-2 8q-4 8 -10 14q-4 8 -14 8q-2 2 -7 4t-9 2h-54v-150h22v62h22
l40 -54q2 -4 6 -6q2 -2 4 -2h6h14zM648 616q0 4 1 8t1 8q0 12 -4 20t-12 14q-2 0 -3 2t-5 4h-1t-5 2h-2t-2 4q-6 0 -8 2q-6 0 -8 1l-6 3q-8 2 -8 4q-6 4 -6 6v8v8q2 0 4 2t2 4l3 1t5 1q4 2 6 2h4l2 -1t4 -1q8 0 8 -4q2 -2 4 -2h4q8 0 14 4l4 2q0 2 -2 4l-4 4q-4 2 -6 4t-6 4
q-2 0 -4 1t-6 5q-6 0 -7 1t-5 1t-9 -1t-9 -1q-4 -4 -7 -6t-7 -2q-2 -4 -5 -7t-5 -7t-3 -7t-1 -9v-9t4 -7q2 -4 5 -7t3 -5q4 -2 8 -5t8 -3q4 -2 7 -4t7 -4q2 -2 5 -2h5q6 -2 7 -2t3 -2q4 -2 4 -3t2 -5q2 -2 2 -5v-7v-3t-2 -5q-2 -4 -2 -5t-4 -3q-2 -4 -5 -5t-5 -3h-5h-5h-7
h-5q-2 2 -5 3t-3 5l-2 2q-6 4 -12 4h-4t-4 -2l-6 -2q0 -4 2 -4q0 -4 4 -6q0 -2 2 -4l2 -2h2q8 -8 17 -10t19 -2h9t9 2t9 4t7 6q6 2 9 5t5 9zM818 644q2 6 2 10v10q0 12 -2 20q0 6 -3 10t-5 10q-4 6 -12 14q-4 4 -8 6t-10 8q-2 0 -6 2t-10 6q-6 0 -10 1t-10 1q-4 0 -10 -1
t-10 -1q-6 -4 -10 -6t-8 -2q-4 -6 -8 -8t-8 -6l-7 -7t-5 -7q-4 -6 -5 -10t-3 -10q-2 -8 -2 -20q0 -8 2 -15t4 -15q2 -6 6 -12t10 -14l12 -8t14 -4q12 -6 28 -6h10h10q10 4 16 8q14 6 18 10q6 8 12 18q2 4 5 9t3 9zM974 740h-20v-116q0 2 -1 5l-1 3l-72 102q-4 0 -8 6h-4h-4
h-14v-150h20v126v-4l2 -2v0v-4l86 -116h16v150zM1142 590l-66 150h-22l-64 -150h12q6 0 8 2l3 3t5 3l8 26h78l10 -26q2 -4 6 -6q0 -2 8 -2h14zM1240 608h-64v132h-22v-150h86v18zM1444 740h-20v-90v-10t-2 -8q-2 -8 -10 -12q-2 -2 -5 -4t-5 -6q-6 -2 -9 -2h-7q-10 0 -14 2
q-6 4 -10 6t-4 4q-2 2 -4 5t-6 7q0 4 -1 8t-1 10v90h-20v-90v-11t2 -7q0 -8 4 -14q4 -10 12 -14q2 -2 5 -4t7 -4q2 -2 6 -3t6 -3q6 0 9 -2t9 -2q4 0 7 2t9 2q4 2 7 3t7 3l12 8q4 4 5 7t3 7q2 2 5 6t3 8v18v90zM1560 616q6 8 6 16q0 12 -4 20t-12 14q-6 4 -6 6h-5t-5 2h-3
t-5 4h-2t-4 2q-2 0 -4 1l-6 3q-8 2 -8 4q-4 2 -5 4t-3 2q0 2 -1 3t-1 5t4 8l6 6q2 0 3 1t5 1q0 2 10 2l2 -1t4 -1q2 -2 8 -4q8 -2 10 -2q6 0 8 4l6 2l-4 4l-4 4q0 2 -3 4t-5 4q-4 0 -6 1t-6 5q-4 0 -7 1l-3 1q-6 0 -10 -1t-8 -1q-4 -4 -8 -6t-6 -2q-4 -4 -6 -7t-6 -7
q0 -4 -2 -7t-2 -9t2 -9t2 -7q4 -8 10 -12q4 -2 7 -5t5 -3q6 -2 9 -4t7 -4t6 -2h4q2 -2 5 -2t5 -2t5 -3t3 -5q2 -2 2 -5v-7v-3t-2 -5q-2 -6 -8 -8q-4 -4 -6 -5t-4 -3h-5h-5h-7h-5q-4 2 -10 8v2q-6 4 -12 4h-3t-5 -2l-6 -2q2 -2 2 -3t2 -1q0 -2 1 -3t1 -3l1 -1t1 -3q4 -2 6 -2
q6 -8 15 -10t19 -2h10t10 2l8 4t8 6l5 5t5 9zM1682 740h-92v-150h92v18h-72v46h60v20h-60v44h72v22zM1920 644v10v10v11v9q-4 10 -10 20q-4 6 -12 14q-2 4 -6 6t-8 8q-4 0 -9 2t-9 6q-6 0 -10 1t-10 1t-11 -1t-9 -1q-12 -6 -20 -8q-4 -6 -7 -8t-7 -6l-7 -7l-7 -7
q-2 -6 -4 -10t-2 -10q-4 -8 -4 -20q0 -8 2 -15t4 -15q6 -14 18 -26q4 -4 10 -8t14 -4q12 -6 30 -6h10h10q4 2 9 4t9 4q4 4 8 6t6 4q8 8 12 18q6 8 10 18zM2076 740h-22v-116q0 2 -1 5t-3 3l-72 102l-1 1t-3 5h-5h-5h-16v-150h24v126v-4v-2v-2l2 -2l84 -116h18v150zM2198 608
h-64v132h-22v-150h86v18zM2318 740h-18q-4 0 -8 -4q-8 -4 -8 -8l-34 -46l-2 -2h-2v-2v2l-2 2l-36 46q-2 4 -6 8t-10 4h-16l54 -74l2 -2q0 -2 2 -2v-2v-2q0 -2 2 -2v-2v-64h22v64v2v4q2 0 2 4v2h2zM1160 844q-18 8 -37 19t-33 25h314q-16 -14 -34 -25t-38 -19q-20 -6 -42 -12
t-44 -6q-24 0 -45 6t-41 12zM1114 914l308 310q28 -38 44 -78t16 -80q0 -22 -3 -43t-11 -41q-8 -18 -18 -35t-22 -33h-314zM1068 906q-26 34 -44 72q-6 20 -10 42t-4 46q0 20 4 40t10 40q6 18 16 35t24 33h312zM1332 1284q20 -8 38 -20t32 -22h-316q36 28 74 42q38 18 86 18
t86 -18zM76 342q-4 4 -5 8t-3 8q-2 6 -3 10t-1 10t4 16q2 4 3 9t5 7l3 9t7 7q0 2 5 5t7 5q6 4 9 5l9 3q2 0 8 1t10 1q8 0 14 -1t14 -5q8 -2 13 -6t9 -8q-2 -2 -4 -2v-4h-2h-2h-4h-6q-4 2 -8 5t-8 3h-7h-9h-10h-8q-8 -4 -12 -7t-8 -5q-4 -6 -7 -10t-5 -8q-4 -6 -4 -12v-8
q0 -8 2 -14l3 -9t1 -7q2 -2 5 -4t5 -6q4 -2 6 -5t6 -3q2 -2 6 -4t8 -2q2 -2 6 -2h6h10t8 2q4 0 9 2t9 4v28h-12h-2l-2 2l-3 3l-3 3l-1 1t-1 3v1v3v0h38v-52l-5 -5l-5 -5q-6 -2 -12 -2q-6 -2 -14 -2h-14h-10h-8q-6 2 -9 4l-9 6q-2 0 -7 3t-5 7q-6 2 -7 6t-3 8zM234 428v-44
h54v-14h-54v-46h66v-16h-82v136h82v-16h-66zM360 308v120h-44v16h104v-16h-46v-120h-14zM520 428v-48h58v-12h-58v-60h-16v136h82v-16h-66zM626 444v-84q0 -4 2 -7t4 -5q2 -6 5 -9t5 -7q0 -2 3 -4t5 -4q6 -2 10 -2h8h7t5 2q6 2 9 4t7 4q0 4 3 7t5 9q4 4 4 12v84h14v-84
q0 -6 -1 -10t-3 -10t-5 -10t-7 -8t-8 -7t-8 -5q-12 -2 -22 -2q-12 0 -24 2q-2 2 -7 5t-9 7q-6 6 -10 18q-2 6 -4 10t-2 10v84h14zM766 444v-120h60v-16h-76v136h16zM856 444v-120h64v-16h-78v136h14zM1044 308l-60 136h8q4 0 8 -2q2 -2 3 -2t3 -4l42 -102v-4q2 -2 2 -6v6
l1 2l1 2q6 14 12 26l12 24q4 16 10 28l12 24q0 4 2 4t2 2q2 2 3 2h5h8q-8 -16 -15 -33t-17 -33q-6 -20 -13 -36t-15 -34h-14zM1144 428v-44h56v-14h-56v-46h66v-16h-82v136h82v-16h-66zM1310 372q-2 -2 -10 -4l46 -60h-10q-2 0 -5 1l-3 1q-2 2 -4 3t-4 5l-38 50h-24v-60h-14
v136h50h5t7 -2q8 -2 14 -8q2 -4 4 -7t4 -7q2 -2 2 -7v-5v-9t-2 -5q0 -4 -2 -8t-4 -6l-4 -4t-8 -4zM1294 380q4 0 6 4q2 0 4 1t4 1l3 6t3 4q0 2 1 4t1 8l-1 2t-1 6l-3 3t-3 5q-2 0 -4 1t-4 3h-6h-36v-48h36zM1418 328q2 2 4 8q2 2 3 6t1 6q0 6 -2 10q-2 0 -3 3t-3 5t-8 4
q-4 0 -6 1l-6 3q-4 0 -8 2t-4 4q-10 0 -14 6q-4 0 -5 4t-3 6v14v9t2 7q0 6 8 10q4 4 6 5t8 3q4 0 6 1t8 1q2 0 5 -1t5 -1t4 -1l6 -3q2 0 4 -2t2 -4q4 -2 5 -4t3 -2l-4 -2q-2 -2 -8 -2h-6q-4 2 -4 4h-2h-2h-2h-3h-1h-2h-8q-8 0 -8 -2q-6 -6 -6 -8q-4 0 -4 -8q0 -6 4 -6
q0 -4 2 -6t5 -3l3 -1q4 -4 6 -4t8 -4h3t3 -2h4t4 -4h2h1h1q2 0 4 -1l2 -1q4 -4 6 -7t6 -5q2 -10 2 -18v-10t-6 -8q0 -6 -8 -12q-2 -2 -6 -4l-8 -4t-8 -2h-10q-10 0 -17 2t-13 8q-2 0 -4 2l-4 4q0 2 -1 4l-1 2l2 2l1 1t5 1h2q2 0 4 -1t4 -3q4 -2 6 -4t6 -2q0 -2 4 -2h6
q8 0 10 2q8 0 12 4zM1488 444v-136h-16v136h16zM1542 328q-12 8 -18 20q-4 14 -4 30v7v9q6 10 8 16q6 8 14 16q6 6 12 10q4 4 9 5t9 3q4 0 8 1t10 1q4 0 9 -1t11 -1q4 -2 8 -3t8 -5l5 -5t7 -5q4 -4 6 -7l6 -9q2 -6 6 -16q2 -4 3 -9t1 -7q0 -8 -2 -15t-6 -15q-2 -6 -5 -11
t-9 -9q-6 -6 -11 -9t-11 -7q-10 -4 -26 -4q-8 0 -15 1t-11 3q-16 4 -22 16zM1542 398q-4 -6 -6 -12t-2 -8q0 -4 1 -8t1 -6q2 -8 8 -16q0 -2 2 -4t4 -6l5 -5t9 -3q2 -2 5 -4t5 -2q4 -2 8 -2h8h7t7 2q2 0 6 2l8 4q2 0 5 3l5 5q2 4 4 6l4 4q2 4 3 7l3 9q0 2 1 6t1 8q0 2 -1 8
t-5 12q0 4 -4 8t-6 10q-4 2 -8 5t-10 7h-9h-11h-12h-10q-4 -4 -9 -7t-9 -5q-2 -6 -5 -10t-3 -8zM1700 308h-16v136h12h5t5 -4l70 -100q2 0 2 -4l2 -2v-2v112h16v-136h-14l-80 112v4h-2v4v-120zM1910 428v-48h56v-12h-56v-60h-14v136h82v-16h-68zM2064 372q-8 -2 -12 -4
l44 -60h-12q-4 0 -8 2q0 2 -1 3t-3 5l-38 50h-24v-60h-16v136h50h6t8 -2t7 -4t5 -4q2 -4 4 -7t6 -7q0 -2 1 -7l1 -5q0 -6 -1 -9t-1 -5l-4 -8t-2 -6zM2052 384q2 0 3 1t3 1q6 8 6 10q2 4 2 12q0 2 -2 8q0 2 -6 8q-2 0 -3 1l-3 3h-8h-34v-48h34q4 0 8 4zM2228 328
q-4 -6 -10 -9t-12 -7q-6 -2 -12 -3t-14 -1t-15 1t-13 3q-12 4 -22 16q-4 4 -8 9t-6 11q-2 8 -5 15t-3 15q0 2 1 7t3 9t3 9t3 7q4 6 7 9t5 7q4 2 8 5t8 5q4 4 8 5t8 3q6 0 9 1t9 1q4 0 9 -1t9 -1l9 -3t7 -5q4 -2 8 -5t6 -5q2 -4 5 -7t5 -9q6 -6 8 -16q2 -4 3 -9t1 -7
q0 -8 -1 -15t-5 -15q-2 -6 -6 -11t-10 -9zM2180 322h7t9 2q2 0 5 2t5 4q2 0 6 3t8 5l3 6t3 4q2 4 3 7t1 9q2 2 2 6v8q0 2 -1 8t-1 12q-2 4 -5 8t-5 10q-6 2 -11 5t-9 7h-10h-10h-11h-11q-6 -4 -9 -7t-7 -5q-6 -6 -8 -10l-4 -8q-2 -6 -2 -12v-8v-14q0 -6 1 -9t5 -7q0 -2 3 -4
t5 -6l5 -5t5 -3q2 -2 5 -4t9 -2q2 -2 6 -2h8zM2402 442q2 2 3 2h3h12v-136h-14v112l-2 -2v0v-2q-4 -8 -6 -17t-6 -15t-7 -12l-7 -14q-2 -8 -4 -14l-4 -12q-4 -6 -7 -11t-5 -13h-14q-10 12 -15 26t-11 26q-4 14 -11 28t-11 28v2l-4 2v-112h-16v136h14q6 0 8 -2l2 -2v-4
l48 -106q0 -2 2 -2v-4q0 2 1 4t1 4q0 4 4 8l42 96q0 4 1 4t3 2zM72 256h154v-20v-4v-4q0 -4 -2 -6l-4 -4l-104 -142h2v2h4h2h102v-36h-162v12q0 10 2 12q0 2 4 8q2 2 2 4t2 4t3 4l3 6l92 126h-100v38zM254 256h136v-38h-98v-48h78v-40h-78v-52h98v-36h-136v214zM558 218h-58
v-176h-42v176h-62v38h162v-38zM656 256l92 -214h-24q-8 0 -16 4q-4 2 -5 6t-5 8l-12 28h-98l-10 -28q-2 -4 -3 -5t-3 -1q0 -4 -1 -5t-5 -3q-2 0 -4 -1t-4 -1q0 -2 -2 -2h-4h-24l92 214h36zM668 126l-26 66q0 2 -1 3t-1 3q0 4 -2 6v-6q0 -2 -2 -3t-2 -3l-26 -66h60zM756 256
h136v-38h-98v-54h80v-38h-80v-84h-38v214zM1106 202q4 -6 6 -12t6 -12q2 -8 2 -15v-13v-16t-2 -14q-4 -6 -6 -13t-6 -13q-4 -4 -8 -10l-8 -12q-8 -4 -12 -9t-10 -7q-6 -6 -13 -8t-13 -4q-8 -2 -15 -3t-15 -1q-10 0 -21 3t-21 5q-12 6 -19 12t-17 12q-14 16 -20 34
q-6 12 -8 22t-2 22q0 6 1 13t3 15q4 16 12 24q4 8 7 13t7 11q8 4 13 8t11 8t12 6t14 6q6 0 13 1t15 1t15 -1t15 -1q6 -4 13 -6t13 -6t10 -8t12 -8q4 -6 8 -11t8 -13zM1078 124q2 6 3 12t1 14q0 12 -4 24q-4 10 -8 15t-10 9q-4 4 -9 8t-11 6q-12 6 -28 6t-28 -6q-4 -2 -9 -6
t-11 -8t-9 -9t-7 -15q-4 -4 -4 -11v-13v-14t4 -12l7 -14t9 -10t11 -8t9 -8q8 -2 14 -4t14 -2t14 2t14 4q6 4 11 8t9 8q6 4 10 10t8 14zM1298 256h38v-214h-36l-100 144q-2 0 -2 1t-2 3q-2 4 -2 6q-4 0 -4 4l-1 1l-3 3v-162h-38v214h34q4 0 8 -1t4 -3l6 -3t4 -3
q10 -16 21 -31t21 -33q12 -14 23 -29t25 -29q0 -4 1 -6t1 -6q0 -2 1 -4t1 -4v152zM1356 256h162v-38h-64v-176h-38v176h-60v38zM1650 146q2 -4 5 -8t5 -8q0 -4 2 -9t2 -13q0 -12 -6 -26l-8 -12t-8 -10q-8 -4 -12 -8t-12 -6t-15 -4t-13 -2q-8 0 -15 2t-17 4q-6 2 -11 6
t-13 12q-4 2 -6 5t-4 7q-4 2 -4 12l1 1l3 3q2 0 2 1t2 1t4 1l2 1h10h3t3 -2q6 0 10 -2q4 -4 8 -6t6 -4q2 0 6 -2t10 -2q2 0 5 1t7 3q6 2 12 6l8 8q2 4 4 6t2 6q0 8 -6 12q-4 6 -8 6q-4 4 -7 5t-5 1q-6 2 -16 8q-4 0 -9 1t-9 5q-8 2 -12 5t-8 7q-6 4 -9 8t-5 8q-6 12 -6 24
q0 18 6 26q2 6 6 10t10 8q4 4 9 6t13 6q4 0 10 1t14 1q4 0 8 -1t10 -1q4 -2 7 -4t9 -4q2 -2 6 -5t8 -7l5 -5t5 -7l-8 -4q-2 -2 -5 -4t-3 -4h-8h-4h-4h-2q-6 0 -6 2l-8 4q-2 0 -3 1l-1 1h-6h-12q-4 0 -5 -1t-5 -3q-2 -2 -4 -8q-2 -2 -2 -8t2 -6q2 -2 3 -4t1 -6q4 0 7 -1t5 -1
q6 -2 11 -4t7 -4l10 -2q4 -4 9 -5t11 -7q10 -2 16 -12zM1714 78q6 0 6 -6q2 0 2 -3v-5q0 -6 -2 -10q0 -4 -6 -8q-4 0 -6 -4q-2 0 -4 -1t-6 -1q-2 0 -4 1t-4 1q-2 2 -4 3t-4 1q-2 2 -3 4t-3 4q-2 4 -2 10v5t2 3q2 4 3 5t3 1q6 6 8 6q2 2 4 3t4 1q4 0 6 -1t4 -3q2 0 6 -6z
M1796 198q-8 -8 -16 -24q-2 -4 -4 -11t-2 -13q0 -8 2 -14l4 -12l7 -14t9 -10q4 -4 9 -8t13 -8q8 -2 14 -4t14 -2q6 0 10 2t10 2q4 2 9 5t9 7q4 0 8 2h6h6t6 -2q6 -2 10 -6l6 -10q-6 -8 -16 -14q-6 -4 -10 -7t-10 -5q-6 -4 -11 -5t-11 -3t-11 -3t-11 -1q-14 0 -24 3t-20 5
q-20 10 -34 24q-16 16 -24 34q-2 12 -5 22t-3 22q0 6 1 13t3 15l4 12t6 12q6 8 9 13t9 11q6 4 11 8t13 8q4 4 10 6t16 6q4 0 12 1t16 1h11t11 -2t11 -4t11 -4t10 -5t10 -7q10 -8 16 -16l-6 -8l-5 -5t-5 -3h-7h-5h-7t-7 2q-4 4 -9 7t-9 5q-6 2 -10 2h-10q-16 0 -28 -6
q-8 -2 -13 -6t-9 -8zM2144 202q2 -6 5 -12t5 -12q2 -8 2 -15v-13v-16t-2 -14t-5 -13t-5 -13q-8 -10 -16 -22q-8 -4 -14 -9t-10 -7q-6 -6 -13 -8t-15 -4q-6 -2 -13 -3t-15 -1q-20 0 -42 8q-8 6 -17 12t-15 12q-8 8 -14 16t-10 18q-4 12 -6 22t-2 22q0 6 1 13t1 15q2 6 6 12
t6 12q4 8 8 13t10 11q4 4 10 8l12 8q4 4 11 6t13 6q8 0 15 1t13 1q8 0 15 -1t13 -1q8 -4 15 -6t13 -6q4 -4 10 -8t14 -8q2 -6 8 -11t8 -13zM2114 124q4 10 4 26q0 6 -1 13t-3 11q-4 10 -7 15t-7 9q-10 10 -24 14q-6 4 -13 5t-15 1q-14 0 -26 -6q-6 -2 -11 -6t-11 -8
q-4 -4 -8 -9t-8 -15q-2 -4 -3 -11t-1 -13q0 -8 1 -14t3 -12q8 -16 16 -24q6 -4 11 -8t11 -8q6 -2 14 -4t12 -2q8 0 15 2t13 4q6 4 13 8t11 8q8 8 14 24zM2376 254l1 1t5 1h38v-214h-38v156q0 -2 -1 -4l-3 -6v-6t-2 -4q-6 -18 -14 -35t-14 -33t-13 -33t-13 -35h-38l-54 136
q-2 2 -2 10q-2 4 -3 5t-1 3v-154h-40v214h38q4 0 6 -1l2 -1q4 -2 5 -2t3 -2l6 -4l4 -4t2 -4q4 -16 11 -31t13 -33q6 -16 13 -32t13 -32v-2v-4v-4q4 0 4 -4v4v4q0 2 1 4l1 2l8 16l44 112q0 2 1 4t1 4q2 2 5 3l3 1q2 2 4 2t4 2z" />
    <glyph glyph-name="four" unicode="4" horiz-adv-x="2472" 
d="M1884 704q4 -4 8 -9t6 -9q0 -6 1 -11t1 -11q0 -12 -2 -22q-2 -6 -6 -10t-8 -6q-4 -4 -8 -7t-8 -7q-12 -4 -22 -4q-6 0 -12 1t-10 3q-6 4 -10 7t-8 7q-4 2 -7 6t-3 10q-4 6 -5 11t-1 11q0 10 6 22q0 4 3 9t7 9t8 7t10 5q8 4 22 4q6 0 10 -1l12 -3q4 -2 8 -5t8 -7zM506 686
q0 -2 -4 -8q-2 0 -3 -2t-5 -2q-2 -2 -8 -2h-32v46h32q4 0 8 -2q4 0 5 -1l3 -3l4 -8q2 -2 2 -10q0 -6 -2 -8zM782 704q4 -4 8 -9t6 -9q2 -6 3 -11t1 -11t-1 -11t-3 -11t-6 -10t-8 -6q-2 -4 -6 -7t-10 -7q-4 -2 -10 -3t-12 -1q-12 0 -22 4q-4 4 -9 7t-9 7l-6 6t-6 10t-4 11
t-2 11q0 10 6 22q2 4 6 9t6 9q4 4 9 7t9 5q6 2 12 3t10 1q12 0 22 -4q6 -2 10 -5t6 -7zM1064 716q0 -4 1 -6t1 -4l28 -62h-58l28 62v4v6zM264 712q2 -2 3 -5t3 -5q2 -4 2 -10v-5t-2 -5t-3 -5t-3 -3l-8 -8h-10h-36v52h36q6 0 10 -2q2 0 5 -2zM2420 1066v-572h-2348v572h890
q0 30 5 57t17 53t27 50t37 42q36 38 88 60q28 12 55 17t55 5q32 0 60 -6t52 -18q28 -12 51 -28t41 -34q36 -36 60 -92q20 -52 20 -106h890zM1006 1164q-22 -46 -22 -98q0 -56 22 -102q10 -22 24 -44t30 -40q18 -18 39 -32t45 -24q46 -22 102 -22q28 0 53 4t49 14
q24 12 44 25t38 33q18 18 32 39t26 43q22 50 22 106q0 22 -4 45t-14 43q-12 40 -40 74q-14 16 -30 30t-32 24q-18 10 -37 19t-39 17q-14 4 -31 6t-37 2q-28 0 -54 -5t-50 -17q-48 -18 -84 -56q-16 -18 -29 -40t-23 -44zM288 674q6 10 6 18q0 4 -1 9t-5 11q0 2 -4 6l-6 6
q-2 4 -5 7t-9 3q-4 2 -9 4t-9 2h-52v-150h16v56h36q4 0 9 1t9 3q10 4 14 8q2 4 6 8t4 8zM400 740h-92v-150h92v18h-70v46h58v20h-58v44h70v22zM546 590l-46 64q2 2 5 2t5 4q8 4 10 10q2 2 4 5t4 7v12v10t-2 8q-4 8 -10 14q-4 8 -14 8q-2 2 -7 4t-9 2h-54v-150h22v62h22
l40 -54q2 -4 6 -6q2 -2 4 -2h6h14zM648 616q0 4 1 8t1 8q0 12 -4 20t-12 14q-2 0 -3 2t-5 4h-1t-5 2h-2t-2 4q-6 0 -8 2q-6 0 -8 1l-6 3q-8 2 -8 4q-6 4 -6 6v8v8q2 0 4 2t2 4l3 1t5 1q4 2 6 2h4l2 -1t4 -1q8 0 8 -4q2 -2 4 -2h4q8 0 14 4l4 2q0 2 -2 4l-4 4q-4 2 -6 4t-6 4
q-2 0 -4 1t-6 5q-6 0 -7 1t-5 1t-9 -1t-9 -1q-4 -4 -7 -6t-7 -2q-2 -4 -5 -7t-5 -7t-3 -7t-1 -9v-9t4 -7q2 -4 5 -7t3 -5q4 -2 8 -5t8 -3q4 -2 7 -4t7 -4q2 -2 5 -2h5q6 -2 7 -2t3 -2q4 -2 4 -3t2 -5q2 -2 2 -5v-7v-3t-2 -5q-2 -4 -2 -5t-4 -3q-2 -4 -5 -5t-5 -3h-5h-5h-7
h-5q-2 2 -5 3t-3 5l-2 2q-6 4 -12 4h-4t-4 -2l-6 -2q0 -4 2 -4q0 -4 4 -6q0 -2 2 -4l2 -2h2q8 -8 17 -10t19 -2h9t9 2t9 4t7 6q6 2 9 5t5 9zM818 644q2 6 2 10v10q0 12 -2 20q0 6 -3 10t-5 10q-4 6 -12 14q-4 4 -8 6t-10 8q-2 0 -6 2t-10 6q-6 0 -10 1t-10 1q-4 0 -10 -1
t-10 -1q-6 -4 -10 -6t-8 -2q-4 -6 -8 -8t-8 -6l-7 -7t-5 -7q-4 -6 -5 -10t-3 -10q-2 -8 -2 -20q0 -8 2 -15t4 -15q2 -6 6 -12t10 -14l12 -8t14 -4q12 -6 28 -6h10h10q10 4 16 8q14 6 18 10q6 8 12 18q2 4 5 9t3 9zM974 740h-20v-116q0 2 -1 5l-1 3l-72 102q-4 0 -8 6h-4h-4
h-14v-150h20v126v-4l2 -2v0v-4l86 -116h16v150zM1142 590l-66 150h-22l-64 -150h12q6 0 8 2l3 3t5 3l8 26h78l10 -26q2 -4 6 -6q0 -2 8 -2h14zM1240 608h-64v132h-22v-150h86v18zM1444 740h-20v-90v-10t-2 -8q-2 -8 -10 -12q-2 -2 -5 -4t-5 -6q-6 -2 -9 -2h-7q-10 0 -14 2
q-6 4 -10 6t-4 4q-2 2 -4 5t-6 7q0 4 -1 8t-1 10v90h-20v-90v-11t2 -7q0 -8 4 -14q4 -10 12 -14q2 -2 5 -4t7 -4q2 -2 6 -3t6 -3q6 0 9 -2t9 -2q4 0 7 2t9 2q4 2 7 3t7 3l12 8q4 4 5 7t3 7q2 2 5 6t3 8v18v90zM1560 616q6 8 6 16q0 12 -4 20t-12 14q-6 4 -6 6h-5t-5 2h-3
t-5 4h-2t-4 2q-2 0 -4 1l-6 3q-8 2 -8 4q-4 2 -5 4t-3 2q0 2 -1 3t-1 5t4 8l6 6q2 0 3 1t5 1q0 2 10 2l2 -1t4 -1q2 -2 8 -4q8 -2 10 -2q6 0 8 4l6 2l-4 4l-4 4q0 2 -3 4t-5 4q-4 0 -6 1t-6 5q-4 0 -7 1l-3 1q-6 0 -10 -1t-8 -1q-4 -4 -8 -6t-6 -2q-4 -4 -6 -7t-6 -7
q0 -4 -2 -7t-2 -9t2 -9t2 -7q4 -8 10 -12q4 -2 7 -5t5 -3q6 -2 9 -4t7 -4t6 -2h4q2 -2 5 -2t5 -2t5 -3t3 -5q2 -2 2 -5v-7v-3t-2 -5q-2 -6 -8 -8q-4 -4 -6 -5t-4 -3h-5h-5h-7h-5q-4 2 -10 8v2q-6 4 -12 4h-3t-5 -2l-6 -2q2 -2 2 -3t2 -1q0 -2 1 -3t1 -3l1 -1t1 -3q4 -2 6 -2
q6 -8 15 -10t19 -2h10t10 2l8 4t8 6l5 5t5 9zM1682 740h-92v-150h92v18h-72v46h60v20h-60v44h72v22zM1920 644v10v10v11v9q-4 10 -10 20q-4 6 -12 14q-2 4 -6 6t-8 8q-4 0 -9 2t-9 6q-6 0 -10 1t-10 1t-11 -1t-9 -1q-12 -6 -20 -8q-4 -6 -7 -8t-7 -6l-7 -7l-7 -7
q-2 -6 -4 -10t-2 -10q-4 -8 -4 -20q0 -8 2 -15t4 -15q6 -14 18 -26q4 -4 10 -8t14 -4q12 -6 30 -6h10h10q4 2 9 4t9 4q4 4 8 6t6 4q8 8 12 18q6 8 10 18zM2076 740h-22v-116q0 2 -1 5t-3 3l-72 102l-1 1t-3 5h-5h-5h-16v-150h24v126v-4v-2v-2l2 -2l84 -116h18v150zM2198 608
h-64v132h-22v-150h86v18zM2318 740h-18q-4 0 -8 -4q-8 -4 -8 -8l-34 -46l-2 -2h-2v-2v2l-2 2l-36 46q-2 4 -6 8t-10 4h-16l54 -74l2 -2q0 -2 2 -2v-2v-2q0 -2 2 -2v-2v-64h22v64v2v4q2 0 2 4v2h2zM1160 844q-18 8 -37 19t-33 25h314q-16 -14 -34 -25t-38 -19q-20 -6 -42 -12
t-44 -6q-24 0 -45 6t-41 12zM1114 914l308 310q28 -38 44 -78t16 -80q0 -22 -3 -43t-11 -41q-8 -18 -18 -35t-22 -33h-314zM1068 906q-26 34 -44 72q-6 20 -10 42t-4 46q0 20 4 40t10 40q6 18 16 35t24 33h312zM1332 1284q20 -8 38 -20t32 -22h-316q36 28 74 42q38 18 86 18
t86 -18zM76 342q-4 4 -5 8t-3 8q-2 6 -3 10t-1 10t4 16q2 4 3 9t5 7l3 9t7 7q0 2 5 5t7 5q6 4 9 5l9 3q2 0 8 1t10 1q8 0 14 -1t14 -5q8 -2 13 -6t9 -8q-2 -2 -4 -2v-4h-2h-2h-4h-6q-4 2 -8 5t-8 3h-7h-9h-10h-8q-8 -4 -12 -7t-8 -5q-4 -6 -7 -10t-5 -8q-4 -6 -4 -12v-8
q0 -8 2 -14l3 -9t1 -7q2 -2 5 -4t5 -6q4 -2 6 -5t6 -3q2 -2 6 -4t8 -2q2 -2 6 -2h6h10t8 2q4 0 9 2t9 4v28h-12h-2l-2 2l-3 3l-3 3l-1 1t-1 3v1v3v0h38v-52l-5 -5l-5 -5q-6 -2 -12 -2q-6 -2 -14 -2h-14h-10h-8q-6 2 -9 4l-9 6q-2 0 -7 3t-5 7q-6 2 -7 6t-3 8zM234 428v-44
h54v-14h-54v-46h66v-16h-82v136h82v-16h-66zM360 308v120h-44v16h104v-16h-46v-120h-14zM520 428v-48h58v-12h-58v-60h-16v136h82v-16h-66zM626 444v-84q0 -4 2 -7t4 -5q2 -6 5 -9t5 -7q0 -2 3 -4t5 -4q6 -2 10 -2h8h7t5 2q6 2 9 4t7 4q0 4 3 7t5 9q4 4 4 12v84h14v-84
q0 -6 -1 -10t-3 -10t-5 -10t-7 -8t-8 -7t-8 -5q-12 -2 -22 -2q-12 0 -24 2q-2 2 -7 5t-9 7q-6 6 -10 18q-2 6 -4 10t-2 10v84h14zM766 444v-120h60v-16h-76v136h16zM856 444v-120h64v-16h-78v136h14zM1044 308l-60 136h8q4 0 8 -2q2 -2 3 -2t3 -4l42 -102v-4q2 -2 2 -6v6
l1 2l1 2q6 14 12 26l12 24q4 16 10 28l12 24q0 4 2 4t2 2q2 2 3 2h5h8q-8 -16 -15 -33t-17 -33q-6 -20 -13 -36t-15 -34h-14zM1144 428v-44h56v-14h-56v-46h66v-16h-82v136h82v-16h-66zM1310 372q-2 -2 -10 -4l46 -60h-10q-2 0 -5 1l-3 1q-2 2 -4 3t-4 5l-38 50h-24v-60h-14
v136h50h5t7 -2q8 -2 14 -8q2 -4 4 -7t4 -7q2 -2 2 -7v-5v-9t-2 -5q0 -4 -2 -8t-4 -6l-4 -4t-8 -4zM1294 380q4 0 6 4q2 0 4 1t4 1l3 6t3 4q0 2 1 4t1 8l-1 2t-1 6l-3 3t-3 5q-2 0 -4 1t-4 3h-6h-36v-48h36zM1418 328q2 2 4 8q2 2 3 6t1 6q0 6 -2 10q-2 0 -3 3t-3 5t-8 4
q-4 0 -6 1l-6 3q-4 0 -8 2t-4 4q-10 0 -14 6q-4 0 -5 4t-3 6v14v9t2 7q0 6 8 10q4 4 6 5t8 3q4 0 6 1t8 1q2 0 5 -1t5 -1t4 -1l6 -3q2 0 4 -2t2 -4q4 -2 5 -4t3 -2l-4 -2q-2 -2 -8 -2h-6q-4 2 -4 4h-2h-2h-2h-3h-1h-2h-8q-8 0 -8 -2q-6 -6 -6 -8q-4 0 -4 -8q0 -6 4 -6
q0 -4 2 -6t5 -3l3 -1q4 -4 6 -4t8 -4h3t3 -2h4t4 -4h2h1h1q2 0 4 -1l2 -1q4 -4 6 -7t6 -5q2 -10 2 -18v-10t-6 -8q0 -6 -8 -12q-2 -2 -6 -4l-8 -4t-8 -2h-10q-10 0 -17 2t-13 8q-2 0 -4 2l-4 4q0 2 -1 4l-1 2l2 2l1 1t5 1h2q2 0 4 -1t4 -3q4 -2 6 -4t6 -2q0 -2 4 -2h6
q8 0 10 2q8 0 12 4zM1488 444v-136h-16v136h16zM1542 328q-12 8 -18 20q-4 14 -4 30v7v9q6 10 8 16q6 8 14 16q6 6 12 10q4 4 9 5t9 3q4 0 8 1t10 1q4 0 9 -1t11 -1q4 -2 8 -3t8 -5l5 -5t7 -5q4 -4 6 -7l6 -9q2 -6 6 -16q2 -4 3 -9t1 -7q0 -8 -2 -15t-6 -15q-2 -6 -5 -11
t-9 -9q-6 -6 -11 -9t-11 -7q-10 -4 -26 -4q-8 0 -15 1t-11 3q-16 4 -22 16zM1542 398q-4 -6 -6 -12t-2 -8q0 -4 1 -8t1 -6q2 -8 8 -16q0 -2 2 -4t4 -6l5 -5t9 -3q2 -2 5 -4t5 -2q4 -2 8 -2h8h7t7 2q2 0 6 2l8 4q2 0 5 3l5 5q2 4 4 6l4 4q2 4 3 7l3 9q0 2 1 6t1 8q0 2 -1 8
t-5 12q0 4 -4 8t-6 10q-4 2 -8 5t-10 7h-9h-11h-12h-10q-4 -4 -9 -7t-9 -5q-2 -6 -5 -10t-3 -8zM1700 308h-16v136h12h5t5 -4l70 -100q2 0 2 -4l2 -2v-2v112h16v-136h-14l-80 112v4h-2v4v-120zM1910 428v-48h56v-12h-56v-60h-14v136h82v-16h-68zM2064 372q-8 -2 -12 -4
l44 -60h-12q-4 0 -8 2q0 2 -1 3t-3 5l-38 50h-24v-60h-16v136h50h6t8 -2t7 -4t5 -4q2 -4 4 -7t6 -7q0 -2 1 -7l1 -5q0 -6 -1 -9t-1 -5l-4 -8t-2 -6zM2052 384q2 0 3 1t3 1q6 8 6 10q2 4 2 12q0 2 -2 8q0 2 -6 8q-2 0 -3 1l-3 3h-8h-34v-48h34q4 0 8 4zM2228 328
q-4 -6 -10 -9t-12 -7q-6 -2 -12 -3t-14 -1t-15 1t-13 3q-12 4 -22 16q-4 4 -8 9t-6 11q-2 8 -5 15t-3 15q0 2 1 7t3 9t3 9t3 7q4 6 7 9t5 7q4 2 8 5t8 5q4 4 8 5t8 3q6 0 9 1t9 1q4 0 9 -1t9 -1l9 -3t7 -5q4 -2 8 -5t6 -5q2 -4 5 -7t5 -9q6 -6 8 -16q2 -4 3 -9t1 -7
q0 -8 -1 -15t-5 -15q-2 -6 -6 -11t-10 -9zM2180 322h7t9 2q2 0 5 2t5 4q2 0 6 3t8 5l3 6t3 4q2 4 3 7t1 9q2 2 2 6v8q0 2 -1 8t-1 12q-2 4 -5 8t-5 10q-6 2 -11 5t-9 7h-10h-10h-11h-11q-6 -4 -9 -7t-7 -5q-6 -6 -8 -10l-4 -8q-2 -6 -2 -12v-8v-14q0 -6 1 -9t5 -7q0 -2 3 -4
t5 -6l5 -5t5 -3q2 -2 5 -4t9 -2q2 -2 6 -2h8zM2402 442q2 2 3 2h3h12v-136h-14v112l-2 -2v0v-2q-4 -8 -6 -17t-6 -15t-7 -12l-7 -14q-2 -8 -4 -14l-4 -12q-4 -6 -7 -11t-5 -13h-14q-10 12 -15 26t-11 26q-4 14 -11 28t-11 28v2l-4 2v-112h-16v136h14q6 0 8 -2l2 -2v-4
l48 -106q0 -2 2 -2v-4q0 2 1 4t1 4q0 4 4 8l42 96q0 4 1 4t3 2zM72 256h154v-20v-4v-4q0 -4 -2 -6l-4 -4l-104 -142h2v2h4h2h102v-36h-162v12q0 10 2 12q0 2 4 8q2 2 2 4t2 4t3 4l3 6l92 126h-100v38zM254 256h136v-38h-98v-48h78v-40h-78v-52h98v-36h-136v214zM558 218h-58
v-176h-42v176h-62v38h162v-38zM656 256l92 -214h-24q-8 0 -16 4q-4 2 -5 6t-5 8l-12 28h-98l-10 -28q-2 -4 -3 -5t-3 -1q0 -4 -1 -5t-5 -3q-2 0 -4 -1t-4 -1q0 -2 -2 -2h-4h-24l92 214h36zM668 126l-26 66q0 2 -1 3t-1 3q0 4 -2 6v-6q0 -2 -2 -3t-2 -3l-26 -66h60zM756 256
h136v-38h-98v-54h80v-38h-80v-84h-38v214zM1106 202q4 -6 6 -12t6 -12q2 -8 2 -15v-13v-16t-2 -14q-4 -6 -6 -13t-6 -13q-4 -4 -8 -10l-8 -12q-8 -4 -12 -9t-10 -7q-6 -6 -13 -8t-13 -4q-8 -2 -15 -3t-15 -1q-10 0 -21 3t-21 5q-12 6 -19 12t-17 12q-14 16 -20 34
q-6 12 -8 22t-2 22q0 6 1 13t3 15q4 16 12 24q4 8 7 13t7 11q8 4 13 8t11 8t12 6t14 6q6 0 13 1t15 1t15 -1t15 -1q6 -4 13 -6t13 -6t10 -8t12 -8q4 -6 8 -11t8 -13zM1078 124q2 6 3 12t1 14q0 12 -4 24q-4 10 -8 15t-10 9q-4 4 -9 8t-11 6q-12 6 -28 6t-28 -6q-4 -2 -9 -6
t-11 -8t-9 -9t-7 -15q-4 -4 -4 -11v-13v-14t4 -12l7 -14t9 -10t11 -8t9 -8q8 -2 14 -4t14 -2t14 2t14 4q6 4 11 8t9 8q6 4 10 10t8 14zM1298 256h38v-214h-36l-100 144q-2 0 -2 1t-2 3q-2 4 -2 6q-4 0 -4 4l-1 1l-3 3v-162h-38v214h34q4 0 8 -1t4 -3l6 -3t4 -3
q10 -16 21 -31t21 -33q12 -14 23 -29t25 -29q0 -4 1 -6t1 -6q0 -2 1 -4t1 -4v152zM1356 256h162v-38h-64v-176h-38v176h-60v38zM1650 146q2 -4 5 -8t5 -8q0 -4 2 -9t2 -13q0 -12 -6 -26l-8 -12t-8 -10q-8 -4 -12 -8t-12 -6t-15 -4t-13 -2q-8 0 -15 2t-17 4q-6 2 -11 6
t-13 12q-4 2 -6 5t-4 7q-4 2 -4 12l1 1l3 3q2 0 2 1t2 1t4 1l2 1h10h3t3 -2q6 0 10 -2q4 -4 8 -6t6 -4q2 0 6 -2t10 -2q2 0 5 1t7 3q6 2 12 6l8 8q2 4 4 6t2 6q0 8 -6 12q-4 6 -8 6q-4 4 -7 5t-5 1q-6 2 -16 8q-4 0 -9 1t-9 5q-8 2 -12 5t-8 7q-6 4 -9 8t-5 8q-6 12 -6 24
q0 18 6 26q2 6 6 10t10 8q4 4 9 6t13 6q4 0 10 1t14 1q4 0 8 -1t10 -1q4 -2 7 -4t9 -4q2 -2 6 -5t8 -7l5 -5t5 -7l-8 -4q-2 -2 -5 -4t-3 -4h-8h-4h-4h-2q-6 0 -6 2l-8 4q-2 0 -3 1l-1 1h-6h-12q-4 0 -5 -1t-5 -3q-2 -2 -4 -8q-2 -2 -2 -8t2 -6q2 -2 3 -4t1 -6q4 0 7 -1t5 -1
q6 -2 11 -4t7 -4l10 -2q4 -4 9 -5t11 -7q10 -2 16 -12zM1714 78q6 0 6 -6q2 0 2 -3v-5q0 -6 -2 -10q0 -4 -6 -8q-4 0 -6 -4q-2 0 -4 -1t-6 -1q-2 0 -4 1t-4 1q-2 2 -4 3t-4 1q-2 2 -3 4t-3 4q-2 4 -2 10v5t2 3q2 4 3 5t3 1q6 6 8 6q2 2 4 3t4 1q4 0 6 -1t4 -3q2 0 6 -6z
M1796 198q-8 -8 -16 -24q-2 -4 -4 -11t-2 -13q0 -8 2 -14l4 -12l7 -14t9 -10q4 -4 9 -8t13 -8q8 -2 14 -4t14 -2q6 0 10 2t10 2q4 2 9 5t9 7q4 0 8 2h6h6t6 -2q6 -2 10 -6l6 -10q-6 -8 -16 -14q-6 -4 -10 -7t-10 -5q-6 -4 -11 -5t-11 -3t-11 -3t-11 -1q-14 0 -24 3t-20 5
q-20 10 -34 24q-16 16 -24 34q-2 12 -5 22t-3 22q0 6 1 13t3 15l4 12t6 12q6 8 9 13t9 11q6 4 11 8t13 8q4 4 10 6t16 6q4 0 12 1t16 1h11t11 -2t11 -4t11 -4t10 -5t10 -7q10 -8 16 -16l-6 -8l-5 -5t-5 -3h-7h-5h-7t-7 2q-4 4 -9 7t-9 5q-6 2 -10 2h-10q-16 0 -28 -6
q-8 -2 -13 -6t-9 -8zM2144 202q2 -6 5 -12t5 -12q2 -8 2 -15v-13v-16t-2 -14t-5 -13t-5 -13q-8 -10 -16 -22q-8 -4 -14 -9t-10 -7q-6 -6 -13 -8t-15 -4q-6 -2 -13 -3t-15 -1q-20 0 -42 8q-8 6 -17 12t-15 12q-8 8 -14 16t-10 18q-4 12 -6 22t-2 22q0 6 1 13t1 15q2 6 6 12
t6 12q4 8 8 13t10 11q4 4 10 8l12 8q4 4 11 6t13 6q8 0 15 1t13 1q8 0 15 -1t13 -1q8 -4 15 -6t13 -6q4 -4 10 -8t14 -8q2 -6 8 -11t8 -13zM2114 124q4 10 4 26q0 6 -1 13t-3 11q-4 10 -7 15t-7 9q-10 10 -24 14q-6 4 -13 5t-15 1q-14 0 -26 -6q-6 -2 -11 -6t-11 -8
q-4 -4 -8 -9t-8 -15q-2 -4 -3 -11t-1 -13q0 -8 1 -14t3 -12q8 -16 16 -24q6 -4 11 -8t11 -8q6 -2 14 -4t12 -2q8 0 15 2t13 4q6 4 13 8t11 8q8 8 14 24zM2376 254l1 1t5 1h38v-214h-38v156q0 -2 -1 -4l-3 -6v-6t-2 -4q-6 -18 -14 -35t-14 -33t-13 -33t-13 -35h-38l-54 136
q-2 2 -2 10q-2 4 -3 5t-1 3v-154h-40v214h38q4 0 6 -1l2 -1q4 -2 5 -2t3 -2l6 -4l4 -4t2 -4q4 -16 11 -31t13 -33q6 -16 13 -32t13 -32v-2v-4v-4q4 0 4 -4v4v4q0 2 1 4l1 2l8 16l44 112q0 2 1 4t1 4q2 2 5 3l3 1q2 2 4 2t4 2z" />
    <glyph glyph-name="five" unicode="5" horiz-adv-x="2472" 
d="M1884 704q4 -4 8 -9t6 -9q0 -6 1 -11t1 -11q0 -12 -2 -22q-2 -6 -6 -10t-8 -6q-4 -4 -8 -7t-8 -7q-12 -4 -22 -4q-6 0 -12 1t-10 3q-6 4 -10 7t-8 7q-4 2 -7 6t-3 10q-4 6 -5 11t-1 11q0 10 6 22q0 4 3 9t7 9t8 7t10 5q8 4 22 4q6 0 10 -1l12 -3q4 -2 8 -5t8 -7zM506 686
q0 -2 -4 -8q-2 0 -3 -2t-5 -2q-2 -2 -8 -2h-32v46h32q4 0 8 -2q4 0 5 -1l3 -3l4 -8q2 -2 2 -10q0 -6 -2 -8zM782 704q4 -4 8 -9t6 -9q2 -6 3 -11t1 -11t-1 -11t-3 -11t-6 -10t-8 -6q-2 -4 -6 -7t-10 -7q-4 -2 -10 -3t-12 -1q-12 0 -22 4q-4 4 -9 7t-9 7l-6 6t-6 10t-4 11
t-2 11q0 10 6 22q2 4 6 9t6 9q4 4 9 7t9 5q6 2 12 3t10 1q12 0 22 -4q6 -2 10 -5t6 -7zM1064 716q0 -4 1 -6t1 -4l28 -62h-58l28 62v4v6zM264 712q2 -2 3 -5t3 -5q2 -4 2 -10v-5t-2 -5t-3 -5t-3 -3l-8 -8h-10h-36v52h36q6 0 10 -2q2 0 5 -2zM2420 1066v-572h-2348v572h890
q0 30 5 57t17 53t27 50t37 42q36 38 88 60q28 12 55 17t55 5q32 0 60 -6t52 -18q28 -12 51 -28t41 -34q36 -36 60 -92q20 -52 20 -106h890zM1006 1164q-22 -46 -22 -98q0 -56 22 -102q10 -22 24 -44t30 -40q18 -18 39 -32t45 -24q46 -22 102 -22q28 0 53 4t49 14
q24 12 44 25t38 33q18 18 32 39t26 43q22 50 22 106q0 22 -4 45t-14 43q-12 40 -40 74q-14 16 -30 30t-32 24q-18 10 -37 19t-39 17q-14 4 -31 6t-37 2q-28 0 -54 -5t-50 -17q-48 -18 -84 -56q-16 -18 -29 -40t-23 -44zM288 674q6 10 6 18q0 4 -1 9t-5 11q0 2 -4 6l-6 6
q-2 4 -5 7t-9 3q-4 2 -9 4t-9 2h-52v-150h16v56h36q4 0 9 1t9 3q10 4 14 8q2 4 6 8t4 8zM400 740h-92v-150h92v18h-70v46h58v20h-58v44h70v22zM546 590l-46 64q2 2 5 2t5 4q8 4 10 10q2 2 4 5t4 7v12v10t-2 8q-4 8 -10 14q-4 8 -14 8q-2 2 -7 4t-9 2h-54v-150h22v62h22
l40 -54q2 -4 6 -6q2 -2 4 -2h6h14zM648 616q0 4 1 8t1 8q0 12 -4 20t-12 14q-2 0 -3 2t-5 4h-1t-5 2h-2t-2 4q-6 0 -8 2q-6 0 -8 1l-6 3q-8 2 -8 4q-6 4 -6 6v8v8q2 0 4 2t2 4l3 1t5 1q4 2 6 2h4l2 -1t4 -1q8 0 8 -4q2 -2 4 -2h4q8 0 14 4l4 2q0 2 -2 4l-4 4q-4 2 -6 4t-6 4
q-2 0 -4 1t-6 5q-6 0 -7 1t-5 1t-9 -1t-9 -1q-4 -4 -7 -6t-7 -2q-2 -4 -5 -7t-5 -7t-3 -7t-1 -9v-9t4 -7q2 -4 5 -7t3 -5q4 -2 8 -5t8 -3q4 -2 7 -4t7 -4q2 -2 5 -2h5q6 -2 7 -2t3 -2q4 -2 4 -3t2 -5q2 -2 2 -5v-7v-3t-2 -5q-2 -4 -2 -5t-4 -3q-2 -4 -5 -5t-5 -3h-5h-5h-7
h-5q-2 2 -5 3t-3 5l-2 2q-6 4 -12 4h-4t-4 -2l-6 -2q0 -4 2 -4q0 -4 4 -6q0 -2 2 -4l2 -2h2q8 -8 17 -10t19 -2h9t9 2t9 4t7 6q6 2 9 5t5 9zM818 644q2 6 2 10v10q0 12 -2 20q0 6 -3 10t-5 10q-4 6 -12 14q-4 4 -8 6t-10 8q-2 0 -6 2t-10 6q-6 0 -10 1t-10 1q-4 0 -10 -1
t-10 -1q-6 -4 -10 -6t-8 -2q-4 -6 -8 -8t-8 -6l-7 -7t-5 -7q-4 -6 -5 -10t-3 -10q-2 -8 -2 -20q0 -8 2 -15t4 -15q2 -6 6 -12t10 -14l12 -8t14 -4q12 -6 28 -6h10h10q10 4 16 8q14 6 18 10q6 8 12 18q2 4 5 9t3 9zM974 740h-20v-116q0 2 -1 5l-1 3l-72 102q-4 0 -8 6h-4h-4
h-14v-150h20v126v-4l2 -2v0v-4l86 -116h16v150zM1142 590l-66 150h-22l-64 -150h12q6 0 8 2l3 3t5 3l8 26h78l10 -26q2 -4 6 -6q0 -2 8 -2h14zM1240 608h-64v132h-22v-150h86v18zM1444 740h-20v-90v-10t-2 -8q-2 -8 -10 -12q-2 -2 -5 -4t-5 -6q-6 -2 -9 -2h-7q-10 0 -14 2
q-6 4 -10 6t-4 4q-2 2 -4 5t-6 7q0 4 -1 8t-1 10v90h-20v-90v-11t2 -7q0 -8 4 -14q4 -10 12 -14q2 -2 5 -4t7 -4q2 -2 6 -3t6 -3q6 0 9 -2t9 -2q4 0 7 2t9 2q4 2 7 3t7 3l12 8q4 4 5 7t3 7q2 2 5 6t3 8v18v90zM1560 616q6 8 6 16q0 12 -4 20t-12 14q-6 4 -6 6h-5t-5 2h-3
t-5 4h-2t-4 2q-2 0 -4 1l-6 3q-8 2 -8 4q-4 2 -5 4t-3 2q0 2 -1 3t-1 5t4 8l6 6q2 0 3 1t5 1q0 2 10 2l2 -1t4 -1q2 -2 8 -4q8 -2 10 -2q6 0 8 4l6 2l-4 4l-4 4q0 2 -3 4t-5 4q-4 0 -6 1t-6 5q-4 0 -7 1l-3 1q-6 0 -10 -1t-8 -1q-4 -4 -8 -6t-6 -2q-4 -4 -6 -7t-6 -7
q0 -4 -2 -7t-2 -9t2 -9t2 -7q4 -8 10 -12q4 -2 7 -5t5 -3q6 -2 9 -4t7 -4t6 -2h4q2 -2 5 -2t5 -2t5 -3t3 -5q2 -2 2 -5v-7v-3t-2 -5q-2 -6 -8 -8q-4 -4 -6 -5t-4 -3h-5h-5h-7h-5q-4 2 -10 8v2q-6 4 -12 4h-3t-5 -2l-6 -2q2 -2 2 -3t2 -1q0 -2 1 -3t1 -3l1 -1t1 -3q4 -2 6 -2
q6 -8 15 -10t19 -2h10t10 2l8 4t8 6l5 5t5 9zM1682 740h-92v-150h92v18h-72v46h60v20h-60v44h72v22zM1920 644v10v10v11v9q-4 10 -10 20q-4 6 -12 14q-2 4 -6 6t-8 8q-4 0 -9 2t-9 6q-6 0 -10 1t-10 1t-11 -1t-9 -1q-12 -6 -20 -8q-4 -6 -7 -8t-7 -6l-7 -7l-7 -7
q-2 -6 -4 -10t-2 -10q-4 -8 -4 -20q0 -8 2 -15t4 -15q6 -14 18 -26q4 -4 10 -8t14 -4q12 -6 30 -6h10h10q4 2 9 4t9 4q4 4 8 6t6 4q8 8 12 18q6 8 10 18zM2076 740h-22v-116q0 2 -1 5t-3 3l-72 102l-1 1t-3 5h-5h-5h-16v-150h24v126v-4v-2v-2l2 -2l84 -116h18v150zM2198 608
h-64v132h-22v-150h86v18zM2318 740h-18q-4 0 -8 -4q-8 -4 -8 -8l-34 -46l-2 -2h-2v-2v2l-2 2l-36 46q-2 4 -6 8t-10 4h-16l54 -74l2 -2q0 -2 2 -2v-2v-2q0 -2 2 -2v-2v-64h22v64v2v4q2 0 2 4v2h2zM1160 844q-18 8 -37 19t-33 25h314q-16 -14 -34 -25t-38 -19q-20 -6 -42 -12
t-44 -6q-24 0 -45 6t-41 12zM1114 914l308 310q28 -38 44 -78t16 -80q0 -22 -3 -43t-11 -41q-8 -18 -18 -35t-22 -33h-314zM1068 906q-26 34 -44 72q-6 20 -10 42t-4 46q0 20 4 40t10 40q6 18 16 35t24 33h312zM1332 1284q20 -8 38 -20t32 -22h-316q36 28 74 42q38 18 86 18
t86 -18zM76 342q-4 4 -5 8t-3 8q-2 6 -3 10t-1 10t4 16q2 4 3 9t5 7l3 9t7 7q0 2 5 5t7 5q6 4 9 5l9 3q2 0 8 1t10 1q8 0 14 -1t14 -5q8 -2 13 -6t9 -8q-2 -2 -4 -2v-4h-2h-2h-4h-6q-4 2 -8 5t-8 3h-7h-9h-10h-8q-8 -4 -12 -7t-8 -5q-4 -6 -7 -10t-5 -8q-4 -6 -4 -12v-8
q0 -8 2 -14l3 -9t1 -7q2 -2 5 -4t5 -6q4 -2 6 -5t6 -3q2 -2 6 -4t8 -2q2 -2 6 -2h6h10t8 2q4 0 9 2t9 4v28h-12h-2l-2 2l-3 3l-3 3l-1 1t-1 3v1v3v0h38v-52l-5 -5l-5 -5q-6 -2 -12 -2q-6 -2 -14 -2h-14h-10h-8q-6 2 -9 4l-9 6q-2 0 -7 3t-5 7q-6 2 -7 6t-3 8zM234 428v-44
h54v-14h-54v-46h66v-16h-82v136h82v-16h-66zM360 308v120h-44v16h104v-16h-46v-120h-14zM520 428v-48h58v-12h-58v-60h-16v136h82v-16h-66zM626 444v-84q0 -4 2 -7t4 -5q2 -6 5 -9t5 -7q0 -2 3 -4t5 -4q6 -2 10 -2h8h7t5 2q6 2 9 4t7 4q0 4 3 7t5 9q4 4 4 12v84h14v-84
q0 -6 -1 -10t-3 -10t-5 -10t-7 -8t-8 -7t-8 -5q-12 -2 -22 -2q-12 0 -24 2q-2 2 -7 5t-9 7q-6 6 -10 18q-2 6 -4 10t-2 10v84h14zM766 444v-120h60v-16h-76v136h16zM856 444v-120h64v-16h-78v136h14zM1044 308l-60 136h8q4 0 8 -2q2 -2 3 -2t3 -4l42 -102v-4q2 -2 2 -6v6
l1 2l1 2q6 14 12 26l12 24q4 16 10 28l12 24q0 4 2 4t2 2q2 2 3 2h5h8q-8 -16 -15 -33t-17 -33q-6 -20 -13 -36t-15 -34h-14zM1144 428v-44h56v-14h-56v-46h66v-16h-82v136h82v-16h-66zM1310 372q-2 -2 -10 -4l46 -60h-10q-2 0 -5 1l-3 1q-2 2 -4 3t-4 5l-38 50h-24v-60h-14
v136h50h5t7 -2q8 -2 14 -8q2 -4 4 -7t4 -7q2 -2 2 -7v-5v-9t-2 -5q0 -4 -2 -8t-4 -6l-4 -4t-8 -4zM1294 380q4 0 6 4q2 0 4 1t4 1l3 6t3 4q0 2 1 4t1 8l-1 2t-1 6l-3 3t-3 5q-2 0 -4 1t-4 3h-6h-36v-48h36zM1418 328q2 2 4 8q2 2 3 6t1 6q0 6 -2 10q-2 0 -3 3t-3 5t-8 4
q-4 0 -6 1l-6 3q-4 0 -8 2t-4 4q-10 0 -14 6q-4 0 -5 4t-3 6v14v9t2 7q0 6 8 10q4 4 6 5t8 3q4 0 6 1t8 1q2 0 5 -1t5 -1t4 -1l6 -3q2 0 4 -2t2 -4q4 -2 5 -4t3 -2l-4 -2q-2 -2 -8 -2h-6q-4 2 -4 4h-2h-2h-2h-3h-1h-2h-8q-8 0 -8 -2q-6 -6 -6 -8q-4 0 -4 -8q0 -6 4 -6
q0 -4 2 -6t5 -3l3 -1q4 -4 6 -4t8 -4h3t3 -2h4t4 -4h2h1h1q2 0 4 -1l2 -1q4 -4 6 -7t6 -5q2 -10 2 -18v-10t-6 -8q0 -6 -8 -12q-2 -2 -6 -4l-8 -4t-8 -2h-10q-10 0 -17 2t-13 8q-2 0 -4 2l-4 4q0 2 -1 4l-1 2l2 2l1 1t5 1h2q2 0 4 -1t4 -3q4 -2 6 -4t6 -2q0 -2 4 -2h6
q8 0 10 2q8 0 12 4zM1488 444v-136h-16v136h16zM1542 328q-12 8 -18 20q-4 14 -4 30v7v9q6 10 8 16q6 8 14 16q6 6 12 10q4 4 9 5t9 3q4 0 8 1t10 1q4 0 9 -1t11 -1q4 -2 8 -3t8 -5l5 -5t7 -5q4 -4 6 -7l6 -9q2 -6 6 -16q2 -4 3 -9t1 -7q0 -8 -2 -15t-6 -15q-2 -6 -5 -11
t-9 -9q-6 -6 -11 -9t-11 -7q-10 -4 -26 -4q-8 0 -15 1t-11 3q-16 4 -22 16zM1542 398q-4 -6 -6 -12t-2 -8q0 -4 1 -8t1 -6q2 -8 8 -16q0 -2 2 -4t4 -6l5 -5t9 -3q2 -2 5 -4t5 -2q4 -2 8 -2h8h7t7 2q2 0 6 2l8 4q2 0 5 3l5 5q2 4 4 6l4 4q2 4 3 7l3 9q0 2 1 6t1 8q0 2 -1 8
t-5 12q0 4 -4 8t-6 10q-4 2 -8 5t-10 7h-9h-11h-12h-10q-4 -4 -9 -7t-9 -5q-2 -6 -5 -10t-3 -8zM1700 308h-16v136h12h5t5 -4l70 -100q2 0 2 -4l2 -2v-2v112h16v-136h-14l-80 112v4h-2v4v-120zM1910 428v-48h56v-12h-56v-60h-14v136h82v-16h-68zM2064 372q-8 -2 -12 -4
l44 -60h-12q-4 0 -8 2q0 2 -1 3t-3 5l-38 50h-24v-60h-16v136h50h6t8 -2t7 -4t5 -4q2 -4 4 -7t6 -7q0 -2 1 -7l1 -5q0 -6 -1 -9t-1 -5l-4 -8t-2 -6zM2052 384q2 0 3 1t3 1q6 8 6 10q2 4 2 12q0 2 -2 8q0 2 -6 8q-2 0 -3 1l-3 3h-8h-34v-48h34q4 0 8 4zM2228 328
q-4 -6 -10 -9t-12 -7q-6 -2 -12 -3t-14 -1t-15 1t-13 3q-12 4 -22 16q-4 4 -8 9t-6 11q-2 8 -5 15t-3 15q0 2 1 7t3 9t3 9t3 7q4 6 7 9t5 7q4 2 8 5t8 5q4 4 8 5t8 3q6 0 9 1t9 1q4 0 9 -1t9 -1l9 -3t7 -5q4 -2 8 -5t6 -5q2 -4 5 -7t5 -9q6 -6 8 -16q2 -4 3 -9t1 -7
q0 -8 -1 -15t-5 -15q-2 -6 -6 -11t-10 -9zM2180 322h7t9 2q2 0 5 2t5 4q2 0 6 3t8 5l3 6t3 4q2 4 3 7t1 9q2 2 2 6v8q0 2 -1 8t-1 12q-2 4 -5 8t-5 10q-6 2 -11 5t-9 7h-10h-10h-11h-11q-6 -4 -9 -7t-7 -5q-6 -6 -8 -10l-4 -8q-2 -6 -2 -12v-8v-14q0 -6 1 -9t5 -7q0 -2 3 -4
t5 -6l5 -5t5 -3q2 -2 5 -4t9 -2q2 -2 6 -2h8zM2402 442q2 2 3 2h3h12v-136h-14v112l-2 -2v0v-2q-4 -8 -6 -17t-6 -15t-7 -12l-7 -14q-2 -8 -4 -14l-4 -12q-4 -6 -7 -11t-5 -13h-14q-10 12 -15 26t-11 26q-4 14 -11 28t-11 28v2l-4 2v-112h-16v136h14q6 0 8 -2l2 -2v-4
l48 -106q0 -2 2 -2v-4q0 2 1 4t1 4q0 4 4 8l42 96q0 4 1 4t3 2zM72 256h154v-20v-4v-4q0 -4 -2 -6l-4 -4l-104 -142h2v2h4h2h102v-36h-162v12q0 10 2 12q0 2 4 8q2 2 2 4t2 4t3 4l3 6l92 126h-100v38zM254 256h136v-38h-98v-48h78v-40h-78v-52h98v-36h-136v214zM558 218h-58
v-176h-42v176h-62v38h162v-38zM656 256l92 -214h-24q-8 0 -16 4q-4 2 -5 6t-5 8l-12 28h-98l-10 -28q-2 -4 -3 -5t-3 -1q0 -4 -1 -5t-5 -3q-2 0 -4 -1t-4 -1q0 -2 -2 -2h-4h-24l92 214h36zM668 126l-26 66q0 2 -1 3t-1 3q0 4 -2 6v-6q0 -2 -2 -3t-2 -3l-26 -66h60zM756 256
h136v-38h-98v-54h80v-38h-80v-84h-38v214zM1106 202q4 -6 6 -12t6 -12q2 -8 2 -15v-13v-16t-2 -14q-4 -6 -6 -13t-6 -13q-4 -4 -8 -10l-8 -12q-8 -4 -12 -9t-10 -7q-6 -6 -13 -8t-13 -4q-8 -2 -15 -3t-15 -1q-10 0 -21 3t-21 5q-12 6 -19 12t-17 12q-14 16 -20 34
q-6 12 -8 22t-2 22q0 6 1 13t3 15q4 16 12 24q4 8 7 13t7 11q8 4 13 8t11 8t12 6t14 6q6 0 13 1t15 1t15 -1t15 -1q6 -4 13 -6t13 -6t10 -8t12 -8q4 -6 8 -11t8 -13zM1078 124q2 6 3 12t1 14q0 12 -4 24q-4 10 -8 15t-10 9q-4 4 -9 8t-11 6q-12 6 -28 6t-28 -6q-4 -2 -9 -6
t-11 -8t-9 -9t-7 -15q-4 -4 -4 -11v-13v-14t4 -12l7 -14t9 -10t11 -8t9 -8q8 -2 14 -4t14 -2t14 2t14 4q6 4 11 8t9 8q6 4 10 10t8 14zM1298 256h38v-214h-36l-100 144q-2 0 -2 1t-2 3q-2 4 -2 6q-4 0 -4 4l-1 1l-3 3v-162h-38v214h34q4 0 8 -1t4 -3l6 -3t4 -3
q10 -16 21 -31t21 -33q12 -14 23 -29t25 -29q0 -4 1 -6t1 -6q0 -2 1 -4t1 -4v152zM1356 256h162v-38h-64v-176h-38v176h-60v38zM1650 146q2 -4 5 -8t5 -8q0 -4 2 -9t2 -13q0 -12 -6 -26l-8 -12t-8 -10q-8 -4 -12 -8t-12 -6t-15 -4t-13 -2q-8 0 -15 2t-17 4q-6 2 -11 6
t-13 12q-4 2 -6 5t-4 7q-4 2 -4 12l1 1l3 3q2 0 2 1t2 1t4 1l2 1h10h3t3 -2q6 0 10 -2q4 -4 8 -6t6 -4q2 0 6 -2t10 -2q2 0 5 1t7 3q6 2 12 6l8 8q2 4 4 6t2 6q0 8 -6 12q-4 6 -8 6q-4 4 -7 5t-5 1q-6 2 -16 8q-4 0 -9 1t-9 5q-8 2 -12 5t-8 7q-6 4 -9 8t-5 8q-6 12 -6 24
q0 18 6 26q2 6 6 10t10 8q4 4 9 6t13 6q4 0 10 1t14 1q4 0 8 -1t10 -1q4 -2 7 -4t9 -4q2 -2 6 -5t8 -7l5 -5t5 -7l-8 -4q-2 -2 -5 -4t-3 -4h-8h-4h-4h-2q-6 0 -6 2l-8 4q-2 0 -3 1l-1 1h-6h-12q-4 0 -5 -1t-5 -3q-2 -2 -4 -8q-2 -2 -2 -8t2 -6q2 -2 3 -4t1 -6q4 0 7 -1t5 -1
q6 -2 11 -4t7 -4l10 -2q4 -4 9 -5t11 -7q10 -2 16 -12zM1714 78q6 0 6 -6q2 0 2 -3v-5q0 -6 -2 -10q0 -4 -6 -8q-4 0 -6 -4q-2 0 -4 -1t-6 -1q-2 0 -4 1t-4 1q-2 2 -4 3t-4 1q-2 2 -3 4t-3 4q-2 4 -2 10v5t2 3q2 4 3 5t3 1q6 6 8 6q2 2 4 3t4 1q4 0 6 -1t4 -3q2 0 6 -6z
M1796 198q-8 -8 -16 -24q-2 -4 -4 -11t-2 -13q0 -8 2 -14l4 -12l7 -14t9 -10q4 -4 9 -8t13 -8q8 -2 14 -4t14 -2q6 0 10 2t10 2q4 2 9 5t9 7q4 0 8 2h6h6t6 -2q6 -2 10 -6l6 -10q-6 -8 -16 -14q-6 -4 -10 -7t-10 -5q-6 -4 -11 -5t-11 -3t-11 -3t-11 -1q-14 0 -24 3t-20 5
q-20 10 -34 24q-16 16 -24 34q-2 12 -5 22t-3 22q0 6 1 13t3 15l4 12t6 12q6 8 9 13t9 11q6 4 11 8t13 8q4 4 10 6t16 6q4 0 12 1t16 1h11t11 -2t11 -4t11 -4t10 -5t10 -7q10 -8 16 -16l-6 -8l-5 -5t-5 -3h-7h-5h-7t-7 2q-4 4 -9 7t-9 5q-6 2 -10 2h-10q-16 0 -28 -6
q-8 -2 -13 -6t-9 -8zM2144 202q2 -6 5 -12t5 -12q2 -8 2 -15v-13v-16t-2 -14t-5 -13t-5 -13q-8 -10 -16 -22q-8 -4 -14 -9t-10 -7q-6 -6 -13 -8t-15 -4q-6 -2 -13 -3t-15 -1q-20 0 -42 8q-8 6 -17 12t-15 12q-8 8 -14 16t-10 18q-4 12 -6 22t-2 22q0 6 1 13t1 15q2 6 6 12
t6 12q4 8 8 13t10 11q4 4 10 8l12 8q4 4 11 6t13 6q8 0 15 1t13 1q8 0 15 -1t13 -1q8 -4 15 -6t13 -6q4 -4 10 -8t14 -8q2 -6 8 -11t8 -13zM2114 124q4 10 4 26q0 6 -1 13t-3 11q-4 10 -7 15t-7 9q-10 10 -24 14q-6 4 -13 5t-15 1q-14 0 -26 -6q-6 -2 -11 -6t-11 -8
q-4 -4 -8 -9t-8 -15q-2 -4 -3 -11t-1 -13q0 -8 1 -14t3 -12q8 -16 16 -24q6 -4 11 -8t11 -8q6 -2 14 -4t12 -2q8 0 15 2t13 4q6 4 13 8t11 8q8 8 14 24zM2376 254l1 1t5 1h38v-214h-38v156q0 -2 -1 -4l-3 -6v-6t-2 -4q-6 -18 -14 -35t-14 -33t-13 -33t-13 -35h-38l-54 136
q-2 2 -2 10q-2 4 -3 5t-1 3v-154h-40v214h38q4 0 6 -1l2 -1q4 -2 5 -2t3 -2l6 -4l4 -4t2 -4q4 -16 11 -31t13 -33q6 -16 13 -32t13 -32v-2v-4v-4q4 0 4 -4v4v4q0 2 1 4l1 2l8 16l44 112q0 2 1 4t1 4q2 2 5 3l3 1q2 2 4 2t4 2z" />
    <glyph glyph-name="six" unicode="6" horiz-adv-x="2472" 
d="M1884 704q4 -4 8 -9t6 -9q0 -6 1 -11t1 -11q0 -12 -2 -22q-2 -6 -6 -10t-8 -6q-4 -4 -8 -7t-8 -7q-12 -4 -22 -4q-6 0 -12 1t-10 3q-6 4 -10 7t-8 7q-4 2 -7 6t-3 10q-4 6 -5 11t-1 11q0 10 6 22q0 4 3 9t7 9t8 7t10 5q8 4 22 4q6 0 10 -1l12 -3q4 -2 8 -5t8 -7zM506 686
q0 -2 -4 -8q-2 0 -3 -2t-5 -2q-2 -2 -8 -2h-32v46h32q4 0 8 -2q4 0 5 -1l3 -3l4 -8q2 -2 2 -10q0 -6 -2 -8zM782 704q4 -4 8 -9t6 -9q2 -6 3 -11t1 -11t-1 -11t-3 -11t-6 -10t-8 -6q-2 -4 -6 -7t-10 -7q-4 -2 -10 -3t-12 -1q-12 0 -22 4q-4 4 -9 7t-9 7l-6 6t-6 10t-4 11
t-2 11q0 10 6 22q2 4 6 9t6 9q4 4 9 7t9 5q6 2 12 3t10 1q12 0 22 -4q6 -2 10 -5t6 -7zM1064 716q0 -4 1 -6t1 -4l28 -62h-58l28 62v4v6zM264 712q2 -2 3 -5t3 -5q2 -4 2 -10v-5t-2 -5t-3 -5t-3 -3l-8 -8h-10h-36v52h36q6 0 10 -2q2 0 5 -2zM2420 1066v-572h-2348v572h890
q0 30 5 57t17 53t27 50t37 42q36 38 88 60q28 12 55 17t55 5q32 0 60 -6t52 -18q28 -12 51 -28t41 -34q36 -36 60 -92q20 -52 20 -106h890zM1006 1164q-22 -46 -22 -98q0 -56 22 -102q10 -22 24 -44t30 -40q18 -18 39 -32t45 -24q46 -22 102 -22q28 0 53 4t49 14
q24 12 44 25t38 33q18 18 32 39t26 43q22 50 22 106q0 22 -4 45t-14 43q-12 40 -40 74q-14 16 -30 30t-32 24q-18 10 -37 19t-39 17q-14 4 -31 6t-37 2q-28 0 -54 -5t-50 -17q-48 -18 -84 -56q-16 -18 -29 -40t-23 -44zM288 674q6 10 6 18q0 4 -1 9t-5 11q0 2 -4 6l-6 6
q-2 4 -5 7t-9 3q-4 2 -9 4t-9 2h-52v-150h16v56h36q4 0 9 1t9 3q10 4 14 8q2 4 6 8t4 8zM400 740h-92v-150h92v18h-70v46h58v20h-58v44h70v22zM546 590l-46 64q2 2 5 2t5 4q8 4 10 10q2 2 4 5t4 7v12v10t-2 8q-4 8 -10 14q-4 8 -14 8q-2 2 -7 4t-9 2h-54v-150h22v62h22
l40 -54q2 -4 6 -6q2 -2 4 -2h6h14zM648 616q0 4 1 8t1 8q0 12 -4 20t-12 14q-2 0 -3 2t-5 4h-1t-5 2h-2t-2 4q-6 0 -8 2q-6 0 -8 1l-6 3q-8 2 -8 4q-6 4 -6 6v8v8q2 0 4 2t2 4l3 1t5 1q4 2 6 2h4l2 -1t4 -1q8 0 8 -4q2 -2 4 -2h4q8 0 14 4l4 2q0 2 -2 4l-4 4q-4 2 -6 4t-6 4
q-2 0 -4 1t-6 5q-6 0 -7 1t-5 1t-9 -1t-9 -1q-4 -4 -7 -6t-7 -2q-2 -4 -5 -7t-5 -7t-3 -7t-1 -9v-9t4 -7q2 -4 5 -7t3 -5q4 -2 8 -5t8 -3q4 -2 7 -4t7 -4q2 -2 5 -2h5q6 -2 7 -2t3 -2q4 -2 4 -3t2 -5q2 -2 2 -5v-7v-3t-2 -5q-2 -4 -2 -5t-4 -3q-2 -4 -5 -5t-5 -3h-5h-5h-7
h-5q-2 2 -5 3t-3 5l-2 2q-6 4 -12 4h-4t-4 -2l-6 -2q0 -4 2 -4q0 -4 4 -6q0 -2 2 -4l2 -2h2q8 -8 17 -10t19 -2h9t9 2t9 4t7 6q6 2 9 5t5 9zM818 644q2 6 2 10v10q0 12 -2 20q0 6 -3 10t-5 10q-4 6 -12 14q-4 4 -8 6t-10 8q-2 0 -6 2t-10 6q-6 0 -10 1t-10 1q-4 0 -10 -1
t-10 -1q-6 -4 -10 -6t-8 -2q-4 -6 -8 -8t-8 -6l-7 -7t-5 -7q-4 -6 -5 -10t-3 -10q-2 -8 -2 -20q0 -8 2 -15t4 -15q2 -6 6 -12t10 -14l12 -8t14 -4q12 -6 28 -6h10h10q10 4 16 8q14 6 18 10q6 8 12 18q2 4 5 9t3 9zM974 740h-20v-116q0 2 -1 5l-1 3l-72 102q-4 0 -8 6h-4h-4
h-14v-150h20v126v-4l2 -2v0v-4l86 -116h16v150zM1142 590l-66 150h-22l-64 -150h12q6 0 8 2l3 3t5 3l8 26h78l10 -26q2 -4 6 -6q0 -2 8 -2h14zM1240 608h-64v132h-22v-150h86v18zM1444 740h-20v-90v-10t-2 -8q-2 -8 -10 -12q-2 -2 -5 -4t-5 -6q-6 -2 -9 -2h-7q-10 0 -14 2
q-6 4 -10 6t-4 4q-2 2 -4 5t-6 7q0 4 -1 8t-1 10v90h-20v-90v-11t2 -7q0 -8 4 -14q4 -10 12 -14q2 -2 5 -4t7 -4q2 -2 6 -3t6 -3q6 0 9 -2t9 -2q4 0 7 2t9 2q4 2 7 3t7 3l12 8q4 4 5 7t3 7q2 2 5 6t3 8v18v90zM1560 616q6 8 6 16q0 12 -4 20t-12 14q-6 4 -6 6h-5t-5 2h-3
t-5 4h-2t-4 2q-2 0 -4 1l-6 3q-8 2 -8 4q-4 2 -5 4t-3 2q0 2 -1 3t-1 5t4 8l6 6q2 0 3 1t5 1q0 2 10 2l2 -1t4 -1q2 -2 8 -4q8 -2 10 -2q6 0 8 4l6 2l-4 4l-4 4q0 2 -3 4t-5 4q-4 0 -6 1t-6 5q-4 0 -7 1l-3 1q-6 0 -10 -1t-8 -1q-4 -4 -8 -6t-6 -2q-4 -4 -6 -7t-6 -7
q0 -4 -2 -7t-2 -9t2 -9t2 -7q4 -8 10 -12q4 -2 7 -5t5 -3q6 -2 9 -4t7 -4t6 -2h4q2 -2 5 -2t5 -2t5 -3t3 -5q2 -2 2 -5v-7v-3t-2 -5q-2 -6 -8 -8q-4 -4 -6 -5t-4 -3h-5h-5h-7h-5q-4 2 -10 8v2q-6 4 -12 4h-3t-5 -2l-6 -2q2 -2 2 -3t2 -1q0 -2 1 -3t1 -3l1 -1t1 -3q4 -2 6 -2
q6 -8 15 -10t19 -2h10t10 2l8 4t8 6l5 5t5 9zM1682 740h-92v-150h92v18h-72v46h60v20h-60v44h72v22zM1920 644v10v10v11v9q-4 10 -10 20q-4 6 -12 14q-2 4 -6 6t-8 8q-4 0 -9 2t-9 6q-6 0 -10 1t-10 1t-11 -1t-9 -1q-12 -6 -20 -8q-4 -6 -7 -8t-7 -6l-7 -7l-7 -7
q-2 -6 -4 -10t-2 -10q-4 -8 -4 -20q0 -8 2 -15t4 -15q6 -14 18 -26q4 -4 10 -8t14 -4q12 -6 30 -6h10h10q4 2 9 4t9 4q4 4 8 6t6 4q8 8 12 18q6 8 10 18zM2076 740h-22v-116q0 2 -1 5t-3 3l-72 102l-1 1t-3 5h-5h-5h-16v-150h24v126v-4v-2v-2l2 -2l84 -116h18v150zM2198 608
h-64v132h-22v-150h86v18zM2318 740h-18q-4 0 -8 -4q-8 -4 -8 -8l-34 -46l-2 -2h-2v-2v2l-2 2l-36 46q-2 4 -6 8t-10 4h-16l54 -74l2 -2q0 -2 2 -2v-2v-2q0 -2 2 -2v-2v-64h22v64v2v4q2 0 2 4v2h2zM1160 844q-18 8 -37 19t-33 25h314q-16 -14 -34 -25t-38 -19q-20 -6 -42 -12
t-44 -6q-24 0 -45 6t-41 12zM1114 914l308 310q28 -38 44 -78t16 -80q0 -22 -3 -43t-11 -41q-8 -18 -18 -35t-22 -33h-314zM1068 906q-26 34 -44 72q-6 20 -10 42t-4 46q0 20 4 40t10 40q6 18 16 35t24 33h312zM1332 1284q20 -8 38 -20t32 -22h-316q36 28 74 42q38 18 86 18
t86 -18zM76 342q-4 4 -5 8t-3 8q-2 6 -3 10t-1 10t4 16q2 4 3 9t5 7l3 9t7 7q0 2 5 5t7 5q6 4 9 5l9 3q2 0 8 1t10 1q8 0 14 -1t14 -5q8 -2 13 -6t9 -8q-2 -2 -4 -2v-4h-2h-2h-4h-6q-4 2 -8 5t-8 3h-7h-9h-10h-8q-8 -4 -12 -7t-8 -5q-4 -6 -7 -10t-5 -8q-4 -6 -4 -12v-8
q0 -8 2 -14l3 -9t1 -7q2 -2 5 -4t5 -6q4 -2 6 -5t6 -3q2 -2 6 -4t8 -2q2 -2 6 -2h6h10t8 2q4 0 9 2t9 4v28h-12h-2l-2 2l-3 3l-3 3l-1 1t-1 3v1v3v0h38v-52l-5 -5l-5 -5q-6 -2 -12 -2q-6 -2 -14 -2h-14h-10h-8q-6 2 -9 4l-9 6q-2 0 -7 3t-5 7q-6 2 -7 6t-3 8zM234 428v-44
h54v-14h-54v-46h66v-16h-82v136h82v-16h-66zM360 308v120h-44v16h104v-16h-46v-120h-14zM520 428v-48h58v-12h-58v-60h-16v136h82v-16h-66zM626 444v-84q0 -4 2 -7t4 -5q2 -6 5 -9t5 -7q0 -2 3 -4t5 -4q6 -2 10 -2h8h7t5 2q6 2 9 4t7 4q0 4 3 7t5 9q4 4 4 12v84h14v-84
q0 -6 -1 -10t-3 -10t-5 -10t-7 -8t-8 -7t-8 -5q-12 -2 -22 -2q-12 0 -24 2q-2 2 -7 5t-9 7q-6 6 -10 18q-2 6 -4 10t-2 10v84h14zM766 444v-120h60v-16h-76v136h16zM856 444v-120h64v-16h-78v136h14zM1044 308l-60 136h8q4 0 8 -2q2 -2 3 -2t3 -4l42 -102v-4q2 -2 2 -6v6
l1 2l1 2q6 14 12 26l12 24q4 16 10 28l12 24q0 4 2 4t2 2q2 2 3 2h5h8q-8 -16 -15 -33t-17 -33q-6 -20 -13 -36t-15 -34h-14zM1144 428v-44h56v-14h-56v-46h66v-16h-82v136h82v-16h-66zM1310 372q-2 -2 -10 -4l46 -60h-10q-2 0 -5 1l-3 1q-2 2 -4 3t-4 5l-38 50h-24v-60h-14
v136h50h5t7 -2q8 -2 14 -8q2 -4 4 -7t4 -7q2 -2 2 -7v-5v-9t-2 -5q0 -4 -2 -8t-4 -6l-4 -4t-8 -4zM1294 380q4 0 6 4q2 0 4 1t4 1l3 6t3 4q0 2 1 4t1 8l-1 2t-1 6l-3 3t-3 5q-2 0 -4 1t-4 3h-6h-36v-48h36zM1418 328q2 2 4 8q2 2 3 6t1 6q0 6 -2 10q-2 0 -3 3t-3 5t-8 4
q-4 0 -6 1l-6 3q-4 0 -8 2t-4 4q-10 0 -14 6q-4 0 -5 4t-3 6v14v9t2 7q0 6 8 10q4 4 6 5t8 3q4 0 6 1t8 1q2 0 5 -1t5 -1t4 -1l6 -3q2 0 4 -2t2 -4q4 -2 5 -4t3 -2l-4 -2q-2 -2 -8 -2h-6q-4 2 -4 4h-2h-2h-2h-3h-1h-2h-8q-8 0 -8 -2q-6 -6 -6 -8q-4 0 -4 -8q0 -6 4 -6
q0 -4 2 -6t5 -3l3 -1q4 -4 6 -4t8 -4h3t3 -2h4t4 -4h2h1h1q2 0 4 -1l2 -1q4 -4 6 -7t6 -5q2 -10 2 -18v-10t-6 -8q0 -6 -8 -12q-2 -2 -6 -4l-8 -4t-8 -2h-10q-10 0 -17 2t-13 8q-2 0 -4 2l-4 4q0 2 -1 4l-1 2l2 2l1 1t5 1h2q2 0 4 -1t4 -3q4 -2 6 -4t6 -2q0 -2 4 -2h6
q8 0 10 2q8 0 12 4zM1488 444v-136h-16v136h16zM1542 328q-12 8 -18 20q-4 14 -4 30v7v9q6 10 8 16q6 8 14 16q6 6 12 10q4 4 9 5t9 3q4 0 8 1t10 1q4 0 9 -1t11 -1q4 -2 8 -3t8 -5l5 -5t7 -5q4 -4 6 -7l6 -9q2 -6 6 -16q2 -4 3 -9t1 -7q0 -8 -2 -15t-6 -15q-2 -6 -5 -11
t-9 -9q-6 -6 -11 -9t-11 -7q-10 -4 -26 -4q-8 0 -15 1t-11 3q-16 4 -22 16zM1542 398q-4 -6 -6 -12t-2 -8q0 -4 1 -8t1 -6q2 -8 8 -16q0 -2 2 -4t4 -6l5 -5t9 -3q2 -2 5 -4t5 -2q4 -2 8 -2h8h7t7 2q2 0 6 2l8 4q2 0 5 3l5 5q2 4 4 6l4 4q2 4 3 7l3 9q0 2 1 6t1 8q0 2 -1 8
t-5 12q0 4 -4 8t-6 10q-4 2 -8 5t-10 7h-9h-11h-12h-10q-4 -4 -9 -7t-9 -5q-2 -6 -5 -10t-3 -8zM1700 308h-16v136h12h5t5 -4l70 -100q2 0 2 -4l2 -2v-2v112h16v-136h-14l-80 112v4h-2v4v-120zM1910 428v-48h56v-12h-56v-60h-14v136h82v-16h-68zM2064 372q-8 -2 -12 -4
l44 -60h-12q-4 0 -8 2q0 2 -1 3t-3 5l-38 50h-24v-60h-16v136h50h6t8 -2t7 -4t5 -4q2 -4 4 -7t6 -7q0 -2 1 -7l1 -5q0 -6 -1 -9t-1 -5l-4 -8t-2 -6zM2052 384q2 0 3 1t3 1q6 8 6 10q2 4 2 12q0 2 -2 8q0 2 -6 8q-2 0 -3 1l-3 3h-8h-34v-48h34q4 0 8 4zM2228 328
q-4 -6 -10 -9t-12 -7q-6 -2 -12 -3t-14 -1t-15 1t-13 3q-12 4 -22 16q-4 4 -8 9t-6 11q-2 8 -5 15t-3 15q0 2 1 7t3 9t3 9t3 7q4 6 7 9t5 7q4 2 8 5t8 5q4 4 8 5t8 3q6 0 9 1t9 1q4 0 9 -1t9 -1l9 -3t7 -5q4 -2 8 -5t6 -5q2 -4 5 -7t5 -9q6 -6 8 -16q2 -4 3 -9t1 -7
q0 -8 -1 -15t-5 -15q-2 -6 -6 -11t-10 -9zM2180 322h7t9 2q2 0 5 2t5 4q2 0 6 3t8 5l3 6t3 4q2 4 3 7t1 9q2 2 2 6v8q0 2 -1 8t-1 12q-2 4 -5 8t-5 10q-6 2 -11 5t-9 7h-10h-10h-11h-11q-6 -4 -9 -7t-7 -5q-6 -6 -8 -10l-4 -8q-2 -6 -2 -12v-8v-14q0 -6 1 -9t5 -7q0 -2 3 -4
t5 -6l5 -5t5 -3q2 -2 5 -4t9 -2q2 -2 6 -2h8zM2402 442q2 2 3 2h3h12v-136h-14v112l-2 -2v0v-2q-4 -8 -6 -17t-6 -15t-7 -12l-7 -14q-2 -8 -4 -14l-4 -12q-4 -6 -7 -11t-5 -13h-14q-10 12 -15 26t-11 26q-4 14 -11 28t-11 28v2l-4 2v-112h-16v136h14q6 0 8 -2l2 -2v-4
l48 -106q0 -2 2 -2v-4q0 2 1 4t1 4q0 4 4 8l42 96q0 4 1 4t3 2zM72 256h154v-20v-4v-4q0 -4 -2 -6l-4 -4l-104 -142h2v2h4h2h102v-36h-162v12q0 10 2 12q0 2 4 8q2 2 2 4t2 4t3 4l3 6l92 126h-100v38zM254 256h136v-38h-98v-48h78v-40h-78v-52h98v-36h-136v214zM558 218h-58
v-176h-42v176h-62v38h162v-38zM656 256l92 -214h-24q-8 0 -16 4q-4 2 -5 6t-5 8l-12 28h-98l-10 -28q-2 -4 -3 -5t-3 -1q0 -4 -1 -5t-5 -3q-2 0 -4 -1t-4 -1q0 -2 -2 -2h-4h-24l92 214h36zM668 126l-26 66q0 2 -1 3t-1 3q0 4 -2 6v-6q0 -2 -2 -3t-2 -3l-26 -66h60zM756 256
h136v-38h-98v-54h80v-38h-80v-84h-38v214zM1106 202q4 -6 6 -12t6 -12q2 -8 2 -15v-13v-16t-2 -14q-4 -6 -6 -13t-6 -13q-4 -4 -8 -10l-8 -12q-8 -4 -12 -9t-10 -7q-6 -6 -13 -8t-13 -4q-8 -2 -15 -3t-15 -1q-10 0 -21 3t-21 5q-12 6 -19 12t-17 12q-14 16 -20 34
q-6 12 -8 22t-2 22q0 6 1 13t3 15q4 16 12 24q4 8 7 13t7 11q8 4 13 8t11 8t12 6t14 6q6 0 13 1t15 1t15 -1t15 -1q6 -4 13 -6t13 -6t10 -8t12 -8q4 -6 8 -11t8 -13zM1078 124q2 6 3 12t1 14q0 12 -4 24q-4 10 -8 15t-10 9q-4 4 -9 8t-11 6q-12 6 -28 6t-28 -6q-4 -2 -9 -6
t-11 -8t-9 -9t-7 -15q-4 -4 -4 -11v-13v-14t4 -12l7 -14t9 -10t11 -8t9 -8q8 -2 14 -4t14 -2t14 2t14 4q6 4 11 8t9 8q6 4 10 10t8 14zM1298 256h38v-214h-36l-100 144q-2 0 -2 1t-2 3q-2 4 -2 6q-4 0 -4 4l-1 1l-3 3v-162h-38v214h34q4 0 8 -1t4 -3l6 -3t4 -3
q10 -16 21 -31t21 -33q12 -14 23 -29t25 -29q0 -4 1 -6t1 -6q0 -2 1 -4t1 -4v152zM1356 256h162v-38h-64v-176h-38v176h-60v38zM1650 146q2 -4 5 -8t5 -8q0 -4 2 -9t2 -13q0 -12 -6 -26l-8 -12t-8 -10q-8 -4 -12 -8t-12 -6t-15 -4t-13 -2q-8 0 -15 2t-17 4q-6 2 -11 6
t-13 12q-4 2 -6 5t-4 7q-4 2 -4 12l1 1l3 3q2 0 2 1t2 1t4 1l2 1h10h3t3 -2q6 0 10 -2q4 -4 8 -6t6 -4q2 0 6 -2t10 -2q2 0 5 1t7 3q6 2 12 6l8 8q2 4 4 6t2 6q0 8 -6 12q-4 6 -8 6q-4 4 -7 5t-5 1q-6 2 -16 8q-4 0 -9 1t-9 5q-8 2 -12 5t-8 7q-6 4 -9 8t-5 8q-6 12 -6 24
q0 18 6 26q2 6 6 10t10 8q4 4 9 6t13 6q4 0 10 1t14 1q4 0 8 -1t10 -1q4 -2 7 -4t9 -4q2 -2 6 -5t8 -7l5 -5t5 -7l-8 -4q-2 -2 -5 -4t-3 -4h-8h-4h-4h-2q-6 0 -6 2l-8 4q-2 0 -3 1l-1 1h-6h-12q-4 0 -5 -1t-5 -3q-2 -2 -4 -8q-2 -2 -2 -8t2 -6q2 -2 3 -4t1 -6q4 0 7 -1t5 -1
q6 -2 11 -4t7 -4l10 -2q4 -4 9 -5t11 -7q10 -2 16 -12zM1714 78q6 0 6 -6q2 0 2 -3v-5q0 -6 -2 -10q0 -4 -6 -8q-4 0 -6 -4q-2 0 -4 -1t-6 -1q-2 0 -4 1t-4 1q-2 2 -4 3t-4 1q-2 2 -3 4t-3 4q-2 4 -2 10v5t2 3q2 4 3 5t3 1q6 6 8 6q2 2 4 3t4 1q4 0 6 -1t4 -3q2 0 6 -6z
M1796 198q-8 -8 -16 -24q-2 -4 -4 -11t-2 -13q0 -8 2 -14l4 -12l7 -14t9 -10q4 -4 9 -8t13 -8q8 -2 14 -4t14 -2q6 0 10 2t10 2q4 2 9 5t9 7q4 0 8 2h6h6t6 -2q6 -2 10 -6l6 -10q-6 -8 -16 -14q-6 -4 -10 -7t-10 -5q-6 -4 -11 -5t-11 -3t-11 -3t-11 -1q-14 0 -24 3t-20 5
q-20 10 -34 24q-16 16 -24 34q-2 12 -5 22t-3 22q0 6 1 13t3 15l4 12t6 12q6 8 9 13t9 11q6 4 11 8t13 8q4 4 10 6t16 6q4 0 12 1t16 1h11t11 -2t11 -4t11 -4t10 -5t10 -7q10 -8 16 -16l-6 -8l-5 -5t-5 -3h-7h-5h-7t-7 2q-4 4 -9 7t-9 5q-6 2 -10 2h-10q-16 0 -28 -6
q-8 -2 -13 -6t-9 -8zM2144 202q2 -6 5 -12t5 -12q2 -8 2 -15v-13v-16t-2 -14t-5 -13t-5 -13q-8 -10 -16 -22q-8 -4 -14 -9t-10 -7q-6 -6 -13 -8t-15 -4q-6 -2 -13 -3t-15 -1q-20 0 -42 8q-8 6 -17 12t-15 12q-8 8 -14 16t-10 18q-4 12 -6 22t-2 22q0 6 1 13t1 15q2 6 6 12
t6 12q4 8 8 13t10 11q4 4 10 8l12 8q4 4 11 6t13 6q8 0 15 1t13 1q8 0 15 -1t13 -1q8 -4 15 -6t13 -6q4 -4 10 -8t14 -8q2 -6 8 -11t8 -13zM2114 124q4 10 4 26q0 6 -1 13t-3 11q-4 10 -7 15t-7 9q-10 10 -24 14q-6 4 -13 5t-15 1q-14 0 -26 -6q-6 -2 -11 -6t-11 -8
q-4 -4 -8 -9t-8 -15q-2 -4 -3 -11t-1 -13q0 -8 1 -14t3 -12q8 -16 16 -24q6 -4 11 -8t11 -8q6 -2 14 -4t12 -2q8 0 15 2t13 4q6 4 13 8t11 8q8 8 14 24zM2376 254l1 1t5 1h38v-214h-38v156q0 -2 -1 -4l-3 -6v-6t-2 -4q-6 -18 -14 -35t-14 -33t-13 -33t-13 -35h-38l-54 136
q-2 2 -2 10q-2 4 -3 5t-1 3v-154h-40v214h38q4 0 6 -1l2 -1q4 -2 5 -2t3 -2l6 -4l4 -4t2 -4q4 -16 11 -31t13 -33q6 -16 13 -32t13 -32v-2v-4v-4q4 0 4 -4v4v4q0 2 1 4l1 2l8 16l44 112q0 2 1 4t1 4q2 2 5 3l3 1q2 2 4 2t4 2z" />
    <glyph glyph-name="seven" unicode="7" horiz-adv-x="2472" 
d="M1884 704q4 -4 8 -9t6 -9q0 -6 1 -11t1 -11q0 -12 -2 -22q-2 -6 -6 -10t-8 -6q-4 -4 -8 -7t-8 -7q-12 -4 -22 -4q-6 0 -12 1t-10 3q-6 4 -10 7t-8 7q-4 2 -7 6t-3 10q-4 6 -5 11t-1 11q0 10 6 22q0 4 3 9t7 9t8 7t10 5q8 4 22 4q6 0 10 -1l12 -3q4 -2 8 -5t8 -7zM506 686
q0 -2 -4 -8q-2 0 -3 -2t-5 -2q-2 -2 -8 -2h-32v46h32q4 0 8 -2q4 0 5 -1l3 -3l4 -8q2 -2 2 -10q0 -6 -2 -8zM782 704q4 -4 8 -9t6 -9q2 -6 3 -11t1 -11t-1 -11t-3 -11t-6 -10t-8 -6q-2 -4 -6 -7t-10 -7q-4 -2 -10 -3t-12 -1q-12 0 -22 4q-4 4 -9 7t-9 7l-6 6t-6 10t-4 11
t-2 11q0 10 6 22q2 4 6 9t6 9q4 4 9 7t9 5q6 2 12 3t10 1q12 0 22 -4q6 -2 10 -5t6 -7zM1064 716q0 -4 1 -6t1 -4l28 -62h-58l28 62v4v6zM264 712q2 -2 3 -5t3 -5q2 -4 2 -10v-5t-2 -5t-3 -5t-3 -3l-8 -8h-10h-36v52h36q6 0 10 -2q2 0 5 -2zM2420 1066v-572h-2348v572h890
q0 30 5 57t17 53t27 50t37 42q36 38 88 60q28 12 55 17t55 5q32 0 60 -6t52 -18q28 -12 51 -28t41 -34q36 -36 60 -92q20 -52 20 -106h890zM1006 1164q-22 -46 -22 -98q0 -56 22 -102q10 -22 24 -44t30 -40q18 -18 39 -32t45 -24q46 -22 102 -22q28 0 53 4t49 14
q24 12 44 25t38 33q18 18 32 39t26 43q22 50 22 106q0 22 -4 45t-14 43q-12 40 -40 74q-14 16 -30 30t-32 24q-18 10 -37 19t-39 17q-14 4 -31 6t-37 2q-28 0 -54 -5t-50 -17q-48 -18 -84 -56q-16 -18 -29 -40t-23 -44zM288 674q6 10 6 18q0 4 -1 9t-5 11q0 2 -4 6l-6 6
q-2 4 -5 7t-9 3q-4 2 -9 4t-9 2h-52v-150h16v56h36q4 0 9 1t9 3q10 4 14 8q2 4 6 8t4 8zM400 740h-92v-150h92v18h-70v46h58v20h-58v44h70v22zM546 590l-46 64q2 2 5 2t5 4q8 4 10 10q2 2 4 5t4 7v12v10t-2 8q-4 8 -10 14q-4 8 -14 8q-2 2 -7 4t-9 2h-54v-150h22v62h22
l40 -54q2 -4 6 -6q2 -2 4 -2h6h14zM648 616q0 4 1 8t1 8q0 12 -4 20t-12 14q-2 0 -3 2t-5 4h-1t-5 2h-2t-2 4q-6 0 -8 2q-6 0 -8 1l-6 3q-8 2 -8 4q-6 4 -6 6v8v8q2 0 4 2t2 4l3 1t5 1q4 2 6 2h4l2 -1t4 -1q8 0 8 -4q2 -2 4 -2h4q8 0 14 4l4 2q0 2 -2 4l-4 4q-4 2 -6 4t-6 4
q-2 0 -4 1t-6 5q-6 0 -7 1t-5 1t-9 -1t-9 -1q-4 -4 -7 -6t-7 -2q-2 -4 -5 -7t-5 -7t-3 -7t-1 -9v-9t4 -7q2 -4 5 -7t3 -5q4 -2 8 -5t8 -3q4 -2 7 -4t7 -4q2 -2 5 -2h5q6 -2 7 -2t3 -2q4 -2 4 -3t2 -5q2 -2 2 -5v-7v-3t-2 -5q-2 -4 -2 -5t-4 -3q-2 -4 -5 -5t-5 -3h-5h-5h-7
h-5q-2 2 -5 3t-3 5l-2 2q-6 4 -12 4h-4t-4 -2l-6 -2q0 -4 2 -4q0 -4 4 -6q0 -2 2 -4l2 -2h2q8 -8 17 -10t19 -2h9t9 2t9 4t7 6q6 2 9 5t5 9zM818 644q2 6 2 10v10q0 12 -2 20q0 6 -3 10t-5 10q-4 6 -12 14q-4 4 -8 6t-10 8q-2 0 -6 2t-10 6q-6 0 -10 1t-10 1q-4 0 -10 -1
t-10 -1q-6 -4 -10 -6t-8 -2q-4 -6 -8 -8t-8 -6l-7 -7t-5 -7q-4 -6 -5 -10t-3 -10q-2 -8 -2 -20q0 -8 2 -15t4 -15q2 -6 6 -12t10 -14l12 -8t14 -4q12 -6 28 -6h10h10q10 4 16 8q14 6 18 10q6 8 12 18q2 4 5 9t3 9zM974 740h-20v-116q0 2 -1 5l-1 3l-72 102q-4 0 -8 6h-4h-4
h-14v-150h20v126v-4l2 -2v0v-4l86 -116h16v150zM1142 590l-66 150h-22l-64 -150h12q6 0 8 2l3 3t5 3l8 26h78l10 -26q2 -4 6 -6q0 -2 8 -2h14zM1240 608h-64v132h-22v-150h86v18zM1444 740h-20v-90v-10t-2 -8q-2 -8 -10 -12q-2 -2 -5 -4t-5 -6q-6 -2 -9 -2h-7q-10 0 -14 2
q-6 4 -10 6t-4 4q-2 2 -4 5t-6 7q0 4 -1 8t-1 10v90h-20v-90v-11t2 -7q0 -8 4 -14q4 -10 12 -14q2 -2 5 -4t7 -4q2 -2 6 -3t6 -3q6 0 9 -2t9 -2q4 0 7 2t9 2q4 2 7 3t7 3l12 8q4 4 5 7t3 7q2 2 5 6t3 8v18v90zM1560 616q6 8 6 16q0 12 -4 20t-12 14q-6 4 -6 6h-5t-5 2h-3
t-5 4h-2t-4 2q-2 0 -4 1l-6 3q-8 2 -8 4q-4 2 -5 4t-3 2q0 2 -1 3t-1 5t4 8l6 6q2 0 3 1t5 1q0 2 10 2l2 -1t4 -1q2 -2 8 -4q8 -2 10 -2q6 0 8 4l6 2l-4 4l-4 4q0 2 -3 4t-5 4q-4 0 -6 1t-6 5q-4 0 -7 1l-3 1q-6 0 -10 -1t-8 -1q-4 -4 -8 -6t-6 -2q-4 -4 -6 -7t-6 -7
q0 -4 -2 -7t-2 -9t2 -9t2 -7q4 -8 10 -12q4 -2 7 -5t5 -3q6 -2 9 -4t7 -4t6 -2h4q2 -2 5 -2t5 -2t5 -3t3 -5q2 -2 2 -5v-7v-3t-2 -5q-2 -6 -8 -8q-4 -4 -6 -5t-4 -3h-5h-5h-7h-5q-4 2 -10 8v2q-6 4 -12 4h-3t-5 -2l-6 -2q2 -2 2 -3t2 -1q0 -2 1 -3t1 -3l1 -1t1 -3q4 -2 6 -2
q6 -8 15 -10t19 -2h10t10 2l8 4t8 6l5 5t5 9zM1682 740h-92v-150h92v18h-72v46h60v20h-60v44h72v22zM1920 644v10v10v11v9q-4 10 -10 20q-4 6 -12 14q-2 4 -6 6t-8 8q-4 0 -9 2t-9 6q-6 0 -10 1t-10 1t-11 -1t-9 -1q-12 -6 -20 -8q-4 -6 -7 -8t-7 -6l-7 -7l-7 -7
q-2 -6 -4 -10t-2 -10q-4 -8 -4 -20q0 -8 2 -15t4 -15q6 -14 18 -26q4 -4 10 -8t14 -4q12 -6 30 -6h10h10q4 2 9 4t9 4q4 4 8 6t6 4q8 8 12 18q6 8 10 18zM2076 740h-22v-116q0 2 -1 5t-3 3l-72 102l-1 1t-3 5h-5h-5h-16v-150h24v126v-4v-2v-2l2 -2l84 -116h18v150zM2198 608
h-64v132h-22v-150h86v18zM2318 740h-18q-4 0 -8 -4q-8 -4 -8 -8l-34 -46l-2 -2h-2v-2v2l-2 2l-36 46q-2 4 -6 8t-10 4h-16l54 -74l2 -2q0 -2 2 -2v-2v-2q0 -2 2 -2v-2v-64h22v64v2v4q2 0 2 4v2h2zM1160 844q-18 8 -37 19t-33 25h314q-16 -14 -34 -25t-38 -19q-20 -6 -42 -12
t-44 -6q-24 0 -45 6t-41 12zM1114 914l308 310q28 -38 44 -78t16 -80q0 -22 -3 -43t-11 -41q-8 -18 -18 -35t-22 -33h-314zM1068 906q-26 34 -44 72q-6 20 -10 42t-4 46q0 20 4 40t10 40q6 18 16 35t24 33h312zM1332 1284q20 -8 38 -20t32 -22h-316q36 28 74 42q38 18 86 18
t86 -18zM76 342q-4 4 -5 8t-3 8q-2 6 -3 10t-1 10t4 16q2 4 3 9t5 7l3 9t7 7q0 2 5 5t7 5q6 4 9 5l9 3q2 0 8 1t10 1q8 0 14 -1t14 -5q8 -2 13 -6t9 -8q-2 -2 -4 -2v-4h-2h-2h-4h-6q-4 2 -8 5t-8 3h-7h-9h-10h-8q-8 -4 -12 -7t-8 -5q-4 -6 -7 -10t-5 -8q-4 -6 -4 -12v-8
q0 -8 2 -14l3 -9t1 -7q2 -2 5 -4t5 -6q4 -2 6 -5t6 -3q2 -2 6 -4t8 -2q2 -2 6 -2h6h10t8 2q4 0 9 2t9 4v28h-12h-2l-2 2l-3 3l-3 3l-1 1t-1 3v1v3v0h38v-52l-5 -5l-5 -5q-6 -2 -12 -2q-6 -2 -14 -2h-14h-10h-8q-6 2 -9 4l-9 6q-2 0 -7 3t-5 7q-6 2 -7 6t-3 8zM234 428v-44
h54v-14h-54v-46h66v-16h-82v136h82v-16h-66zM360 308v120h-44v16h104v-16h-46v-120h-14zM520 428v-48h58v-12h-58v-60h-16v136h82v-16h-66zM626 444v-84q0 -4 2 -7t4 -5q2 -6 5 -9t5 -7q0 -2 3 -4t5 -4q6 -2 10 -2h8h7t5 2q6 2 9 4t7 4q0 4 3 7t5 9q4 4 4 12v84h14v-84
q0 -6 -1 -10t-3 -10t-5 -10t-7 -8t-8 -7t-8 -5q-12 -2 -22 -2q-12 0 -24 2q-2 2 -7 5t-9 7q-6 6 -10 18q-2 6 -4 10t-2 10v84h14zM766 444v-120h60v-16h-76v136h16zM856 444v-120h64v-16h-78v136h14zM1044 308l-60 136h8q4 0 8 -2q2 -2 3 -2t3 -4l42 -102v-4q2 -2 2 -6v6
l1 2l1 2q6 14 12 26l12 24q4 16 10 28l12 24q0 4 2 4t2 2q2 2 3 2h5h8q-8 -16 -15 -33t-17 -33q-6 -20 -13 -36t-15 -34h-14zM1144 428v-44h56v-14h-56v-46h66v-16h-82v136h82v-16h-66zM1310 372q-2 -2 -10 -4l46 -60h-10q-2 0 -5 1l-3 1q-2 2 -4 3t-4 5l-38 50h-24v-60h-14
v136h50h5t7 -2q8 -2 14 -8q2 -4 4 -7t4 -7q2 -2 2 -7v-5v-9t-2 -5q0 -4 -2 -8t-4 -6l-4 -4t-8 -4zM1294 380q4 0 6 4q2 0 4 1t4 1l3 6t3 4q0 2 1 4t1 8l-1 2t-1 6l-3 3t-3 5q-2 0 -4 1t-4 3h-6h-36v-48h36zM1418 328q2 2 4 8q2 2 3 6t1 6q0 6 -2 10q-2 0 -3 3t-3 5t-8 4
q-4 0 -6 1l-6 3q-4 0 -8 2t-4 4q-10 0 -14 6q-4 0 -5 4t-3 6v14v9t2 7q0 6 8 10q4 4 6 5t8 3q4 0 6 1t8 1q2 0 5 -1t5 -1t4 -1l6 -3q2 0 4 -2t2 -4q4 -2 5 -4t3 -2l-4 -2q-2 -2 -8 -2h-6q-4 2 -4 4h-2h-2h-2h-3h-1h-2h-8q-8 0 -8 -2q-6 -6 -6 -8q-4 0 -4 -8q0 -6 4 -6
q0 -4 2 -6t5 -3l3 -1q4 -4 6 -4t8 -4h3t3 -2h4t4 -4h2h1h1q2 0 4 -1l2 -1q4 -4 6 -7t6 -5q2 -10 2 -18v-10t-6 -8q0 -6 -8 -12q-2 -2 -6 -4l-8 -4t-8 -2h-10q-10 0 -17 2t-13 8q-2 0 -4 2l-4 4q0 2 -1 4l-1 2l2 2l1 1t5 1h2q2 0 4 -1t4 -3q4 -2 6 -4t6 -2q0 -2 4 -2h6
q8 0 10 2q8 0 12 4zM1488 444v-136h-16v136h16zM1542 328q-12 8 -18 20q-4 14 -4 30v7v9q6 10 8 16q6 8 14 16q6 6 12 10q4 4 9 5t9 3q4 0 8 1t10 1q4 0 9 -1t11 -1q4 -2 8 -3t8 -5l5 -5t7 -5q4 -4 6 -7l6 -9q2 -6 6 -16q2 -4 3 -9t1 -7q0 -8 -2 -15t-6 -15q-2 -6 -5 -11
t-9 -9q-6 -6 -11 -9t-11 -7q-10 -4 -26 -4q-8 0 -15 1t-11 3q-16 4 -22 16zM1542 398q-4 -6 -6 -12t-2 -8q0 -4 1 -8t1 -6q2 -8 8 -16q0 -2 2 -4t4 -6l5 -5t9 -3q2 -2 5 -4t5 -2q4 -2 8 -2h8h7t7 2q2 0 6 2l8 4q2 0 5 3l5 5q2 4 4 6l4 4q2 4 3 7l3 9q0 2 1 6t1 8q0 2 -1 8
t-5 12q0 4 -4 8t-6 10q-4 2 -8 5t-10 7h-9h-11h-12h-10q-4 -4 -9 -7t-9 -5q-2 -6 -5 -10t-3 -8zM1700 308h-16v136h12h5t5 -4l70 -100q2 0 2 -4l2 -2v-2v112h16v-136h-14l-80 112v4h-2v4v-120zM1910 428v-48h56v-12h-56v-60h-14v136h82v-16h-68zM2064 372q-8 -2 -12 -4
l44 -60h-12q-4 0 -8 2q0 2 -1 3t-3 5l-38 50h-24v-60h-16v136h50h6t8 -2t7 -4t5 -4q2 -4 4 -7t6 -7q0 -2 1 -7l1 -5q0 -6 -1 -9t-1 -5l-4 -8t-2 -6zM2052 384q2 0 3 1t3 1q6 8 6 10q2 4 2 12q0 2 -2 8q0 2 -6 8q-2 0 -3 1l-3 3h-8h-34v-48h34q4 0 8 4zM2228 328
q-4 -6 -10 -9t-12 -7q-6 -2 -12 -3t-14 -1t-15 1t-13 3q-12 4 -22 16q-4 4 -8 9t-6 11q-2 8 -5 15t-3 15q0 2 1 7t3 9t3 9t3 7q4 6 7 9t5 7q4 2 8 5t8 5q4 4 8 5t8 3q6 0 9 1t9 1q4 0 9 -1t9 -1l9 -3t7 -5q4 -2 8 -5t6 -5q2 -4 5 -7t5 -9q6 -6 8 -16q2 -4 3 -9t1 -7
q0 -8 -1 -15t-5 -15q-2 -6 -6 -11t-10 -9zM2180 322h7t9 2q2 0 5 2t5 4q2 0 6 3t8 5l3 6t3 4q2 4 3 7t1 9q2 2 2 6v8q0 2 -1 8t-1 12q-2 4 -5 8t-5 10q-6 2 -11 5t-9 7h-10h-10h-11h-11q-6 -4 -9 -7t-7 -5q-6 -6 -8 -10l-4 -8q-2 -6 -2 -12v-8v-14q0 -6 1 -9t5 -7q0 -2 3 -4
t5 -6l5 -5t5 -3q2 -2 5 -4t9 -2q2 -2 6 -2h8zM2402 442q2 2 3 2h3h12v-136h-14v112l-2 -2v0v-2q-4 -8 -6 -17t-6 -15t-7 -12l-7 -14q-2 -8 -4 -14l-4 -12q-4 -6 -7 -11t-5 -13h-14q-10 12 -15 26t-11 26q-4 14 -11 28t-11 28v2l-4 2v-112h-16v136h14q6 0 8 -2l2 -2v-4
l48 -106q0 -2 2 -2v-4q0 2 1 4t1 4q0 4 4 8l42 96q0 4 1 4t3 2zM72 256h154v-20v-4v-4q0 -4 -2 -6l-4 -4l-104 -142h2v2h4h2h102v-36h-162v12q0 10 2 12q0 2 4 8q2 2 2 4t2 4t3 4l3 6l92 126h-100v38zM254 256h136v-38h-98v-48h78v-40h-78v-52h98v-36h-136v214zM558 218h-58
v-176h-42v176h-62v38h162v-38zM656 256l92 -214h-24q-8 0 -16 4q-4 2 -5 6t-5 8l-12 28h-98l-10 -28q-2 -4 -3 -5t-3 -1q0 -4 -1 -5t-5 -3q-2 0 -4 -1t-4 -1q0 -2 -2 -2h-4h-24l92 214h36zM668 126l-26 66q0 2 -1 3t-1 3q0 4 -2 6v-6q0 -2 -2 -3t-2 -3l-26 -66h60zM756 256
h136v-38h-98v-54h80v-38h-80v-84h-38v214zM1106 202q4 -6 6 -12t6 -12q2 -8 2 -15v-13v-16t-2 -14q-4 -6 -6 -13t-6 -13q-4 -4 -8 -10l-8 -12q-8 -4 -12 -9t-10 -7q-6 -6 -13 -8t-13 -4q-8 -2 -15 -3t-15 -1q-10 0 -21 3t-21 5q-12 6 -19 12t-17 12q-14 16 -20 34
q-6 12 -8 22t-2 22q0 6 1 13t3 15q4 16 12 24q4 8 7 13t7 11q8 4 13 8t11 8t12 6t14 6q6 0 13 1t15 1t15 -1t15 -1q6 -4 13 -6t13 -6t10 -8t12 -8q4 -6 8 -11t8 -13zM1078 124q2 6 3 12t1 14q0 12 -4 24q-4 10 -8 15t-10 9q-4 4 -9 8t-11 6q-12 6 -28 6t-28 -6q-4 -2 -9 -6
t-11 -8t-9 -9t-7 -15q-4 -4 -4 -11v-13v-14t4 -12l7 -14t9 -10t11 -8t9 -8q8 -2 14 -4t14 -2t14 2t14 4q6 4 11 8t9 8q6 4 10 10t8 14zM1298 256h38v-214h-36l-100 144q-2 0 -2 1t-2 3q-2 4 -2 6q-4 0 -4 4l-1 1l-3 3v-162h-38v214h34q4 0 8 -1t4 -3l6 -3t4 -3
q10 -16 21 -31t21 -33q12 -14 23 -29t25 -29q0 -4 1 -6t1 -6q0 -2 1 -4t1 -4v152zM1356 256h162v-38h-64v-176h-38v176h-60v38zM1650 146q2 -4 5 -8t5 -8q0 -4 2 -9t2 -13q0 -12 -6 -26l-8 -12t-8 -10q-8 -4 -12 -8t-12 -6t-15 -4t-13 -2q-8 0 -15 2t-17 4q-6 2 -11 6
t-13 12q-4 2 -6 5t-4 7q-4 2 -4 12l1 1l3 3q2 0 2 1t2 1t4 1l2 1h10h3t3 -2q6 0 10 -2q4 -4 8 -6t6 -4q2 0 6 -2t10 -2q2 0 5 1t7 3q6 2 12 6l8 8q2 4 4 6t2 6q0 8 -6 12q-4 6 -8 6q-4 4 -7 5t-5 1q-6 2 -16 8q-4 0 -9 1t-9 5q-8 2 -12 5t-8 7q-6 4 -9 8t-5 8q-6 12 -6 24
q0 18 6 26q2 6 6 10t10 8q4 4 9 6t13 6q4 0 10 1t14 1q4 0 8 -1t10 -1q4 -2 7 -4t9 -4q2 -2 6 -5t8 -7l5 -5t5 -7l-8 -4q-2 -2 -5 -4t-3 -4h-8h-4h-4h-2q-6 0 -6 2l-8 4q-2 0 -3 1l-1 1h-6h-12q-4 0 -5 -1t-5 -3q-2 -2 -4 -8q-2 -2 -2 -8t2 -6q2 -2 3 -4t1 -6q4 0 7 -1t5 -1
q6 -2 11 -4t7 -4l10 -2q4 -4 9 -5t11 -7q10 -2 16 -12zM1714 78q6 0 6 -6q2 0 2 -3v-5q0 -6 -2 -10q0 -4 -6 -8q-4 0 -6 -4q-2 0 -4 -1t-6 -1q-2 0 -4 1t-4 1q-2 2 -4 3t-4 1q-2 2 -3 4t-3 4q-2 4 -2 10v5t2 3q2 4 3 5t3 1q6 6 8 6q2 2 4 3t4 1q4 0 6 -1t4 -3q2 0 6 -6z
M1796 198q-8 -8 -16 -24q-2 -4 -4 -11t-2 -13q0 -8 2 -14l4 -12l7 -14t9 -10q4 -4 9 -8t13 -8q8 -2 14 -4t14 -2q6 0 10 2t10 2q4 2 9 5t9 7q4 0 8 2h6h6t6 -2q6 -2 10 -6l6 -10q-6 -8 -16 -14q-6 -4 -10 -7t-10 -5q-6 -4 -11 -5t-11 -3t-11 -3t-11 -1q-14 0 -24 3t-20 5
q-20 10 -34 24q-16 16 -24 34q-2 12 -5 22t-3 22q0 6 1 13t3 15l4 12t6 12q6 8 9 13t9 11q6 4 11 8t13 8q4 4 10 6t16 6q4 0 12 1t16 1h11t11 -2t11 -4t11 -4t10 -5t10 -7q10 -8 16 -16l-6 -8l-5 -5t-5 -3h-7h-5h-7t-7 2q-4 4 -9 7t-9 5q-6 2 -10 2h-10q-16 0 -28 -6
q-8 -2 -13 -6t-9 -8zM2144 202q2 -6 5 -12t5 -12q2 -8 2 -15v-13v-16t-2 -14t-5 -13t-5 -13q-8 -10 -16 -22q-8 -4 -14 -9t-10 -7q-6 -6 -13 -8t-15 -4q-6 -2 -13 -3t-15 -1q-20 0 -42 8q-8 6 -17 12t-15 12q-8 8 -14 16t-10 18q-4 12 -6 22t-2 22q0 6 1 13t1 15q2 6 6 12
t6 12q4 8 8 13t10 11q4 4 10 8l12 8q4 4 11 6t13 6q8 0 15 1t13 1q8 0 15 -1t13 -1q8 -4 15 -6t13 -6q4 -4 10 -8t14 -8q2 -6 8 -11t8 -13zM2114 124q4 10 4 26q0 6 -1 13t-3 11q-4 10 -7 15t-7 9q-10 10 -24 14q-6 4 -13 5t-15 1q-14 0 -26 -6q-6 -2 -11 -6t-11 -8
q-4 -4 -8 -9t-8 -15q-2 -4 -3 -11t-1 -13q0 -8 1 -14t3 -12q8 -16 16 -24q6 -4 11 -8t11 -8q6 -2 14 -4t12 -2q8 0 15 2t13 4q6 4 13 8t11 8q8 8 14 24zM2376 254l1 1t5 1h38v-214h-38v156q0 -2 -1 -4l-3 -6v-6t-2 -4q-6 -18 -14 -35t-14 -33t-13 -33t-13 -35h-38l-54 136
q-2 2 -2 10q-2 4 -3 5t-1 3v-154h-40v214h38q4 0 6 -1l2 -1q4 -2 5 -2t3 -2l6 -4l4 -4t2 -4q4 -16 11 -31t13 -33q6 -16 13 -32t13 -32v-2v-4v-4q4 0 4 -4v4v4q0 2 1 4l1 2l8 16l44 112q0 2 1 4t1 4q2 2 5 3l3 1q2 2 4 2t4 2z" />
    <glyph glyph-name="eight" unicode="8" horiz-adv-x="2472" 
d="M1884 704q4 -4 8 -9t6 -9q0 -6 1 -11t1 -11q0 -12 -2 -22q-2 -6 -6 -10t-8 -6q-4 -4 -8 -7t-8 -7q-12 -4 -22 -4q-6 0 -12 1t-10 3q-6 4 -10 7t-8 7q-4 2 -7 6t-3 10q-4 6 -5 11t-1 11q0 10 6 22q0 4 3 9t7 9t8 7t10 5q8 4 22 4q6 0 10 -1l12 -3q4 -2 8 -5t8 -7zM506 686
q0 -2 -4 -8q-2 0 -3 -2t-5 -2q-2 -2 -8 -2h-32v46h32q4 0 8 -2q4 0 5 -1l3 -3l4 -8q2 -2 2 -10q0 -6 -2 -8zM782 704q4 -4 8 -9t6 -9q2 -6 3 -11t1 -11t-1 -11t-3 -11t-6 -10t-8 -6q-2 -4 -6 -7t-10 -7q-4 -2 -10 -3t-12 -1q-12 0 -22 4q-4 4 -9 7t-9 7l-6 6t-6 10t-4 11
t-2 11q0 10 6 22q2 4 6 9t6 9q4 4 9 7t9 5q6 2 12 3t10 1q12 0 22 -4q6 -2 10 -5t6 -7zM1064 716q0 -4 1 -6t1 -4l28 -62h-58l28 62v4v6zM264 712q2 -2 3 -5t3 -5q2 -4 2 -10v-5t-2 -5t-3 -5t-3 -3l-8 -8h-10h-36v52h36q6 0 10 -2q2 0 5 -2zM2420 1066v-572h-2348v572h890
q0 30 5 57t17 53t27 50t37 42q36 38 88 60q28 12 55 17t55 5q32 0 60 -6t52 -18q28 -12 51 -28t41 -34q36 -36 60 -92q20 -52 20 -106h890zM1006 1164q-22 -46 -22 -98q0 -56 22 -102q10 -22 24 -44t30 -40q18 -18 39 -32t45 -24q46 -22 102 -22q28 0 53 4t49 14
q24 12 44 25t38 33q18 18 32 39t26 43q22 50 22 106q0 22 -4 45t-14 43q-12 40 -40 74q-14 16 -30 30t-32 24q-18 10 -37 19t-39 17q-14 4 -31 6t-37 2q-28 0 -54 -5t-50 -17q-48 -18 -84 -56q-16 -18 -29 -40t-23 -44zM288 674q6 10 6 18q0 4 -1 9t-5 11q0 2 -4 6l-6 6
q-2 4 -5 7t-9 3q-4 2 -9 4t-9 2h-52v-150h16v56h36q4 0 9 1t9 3q10 4 14 8q2 4 6 8t4 8zM400 740h-92v-150h92v18h-70v46h58v20h-58v44h70v22zM546 590l-46 64q2 2 5 2t5 4q8 4 10 10q2 2 4 5t4 7v12v10t-2 8q-4 8 -10 14q-4 8 -14 8q-2 2 -7 4t-9 2h-54v-150h22v62h22
l40 -54q2 -4 6 -6q2 -2 4 -2h6h14zM648 616q0 4 1 8t1 8q0 12 -4 20t-12 14q-2 0 -3 2t-5 4h-1t-5 2h-2t-2 4q-6 0 -8 2q-6 0 -8 1l-6 3q-8 2 -8 4q-6 4 -6 6v8v8q2 0 4 2t2 4l3 1t5 1q4 2 6 2h4l2 -1t4 -1q8 0 8 -4q2 -2 4 -2h4q8 0 14 4l4 2q0 2 -2 4l-4 4q-4 2 -6 4t-6 4
q-2 0 -4 1t-6 5q-6 0 -7 1t-5 1t-9 -1t-9 -1q-4 -4 -7 -6t-7 -2q-2 -4 -5 -7t-5 -7t-3 -7t-1 -9v-9t4 -7q2 -4 5 -7t3 -5q4 -2 8 -5t8 -3q4 -2 7 -4t7 -4q2 -2 5 -2h5q6 -2 7 -2t3 -2q4 -2 4 -3t2 -5q2 -2 2 -5v-7v-3t-2 -5q-2 -4 -2 -5t-4 -3q-2 -4 -5 -5t-5 -3h-5h-5h-7
h-5q-2 2 -5 3t-3 5l-2 2q-6 4 -12 4h-4t-4 -2l-6 -2q0 -4 2 -4q0 -4 4 -6q0 -2 2 -4l2 -2h2q8 -8 17 -10t19 -2h9t9 2t9 4t7 6q6 2 9 5t5 9zM818 644q2 6 2 10v10q0 12 -2 20q0 6 -3 10t-5 10q-4 6 -12 14q-4 4 -8 6t-10 8q-2 0 -6 2t-10 6q-6 0 -10 1t-10 1q-4 0 -10 -1
t-10 -1q-6 -4 -10 -6t-8 -2q-4 -6 -8 -8t-8 -6l-7 -7t-5 -7q-4 -6 -5 -10t-3 -10q-2 -8 -2 -20q0 -8 2 -15t4 -15q2 -6 6 -12t10 -14l12 -8t14 -4q12 -6 28 -6h10h10q10 4 16 8q14 6 18 10q6 8 12 18q2 4 5 9t3 9zM974 740h-20v-116q0 2 -1 5l-1 3l-72 102q-4 0 -8 6h-4h-4
h-14v-150h20v126v-4l2 -2v0v-4l86 -116h16v150zM1142 590l-66 150h-22l-64 -150h12q6 0 8 2l3 3t5 3l8 26h78l10 -26q2 -4 6 -6q0 -2 8 -2h14zM1240 608h-64v132h-22v-150h86v18zM1444 740h-20v-90v-10t-2 -8q-2 -8 -10 -12q-2 -2 -5 -4t-5 -6q-6 -2 -9 -2h-7q-10 0 -14 2
q-6 4 -10 6t-4 4q-2 2 -4 5t-6 7q0 4 -1 8t-1 10v90h-20v-90v-11t2 -7q0 -8 4 -14q4 -10 12 -14q2 -2 5 -4t7 -4q2 -2 6 -3t6 -3q6 0 9 -2t9 -2q4 0 7 2t9 2q4 2 7 3t7 3l12 8q4 4 5 7t3 7q2 2 5 6t3 8v18v90zM1560 616q6 8 6 16q0 12 -4 20t-12 14q-6 4 -6 6h-5t-5 2h-3
t-5 4h-2t-4 2q-2 0 -4 1l-6 3q-8 2 -8 4q-4 2 -5 4t-3 2q0 2 -1 3t-1 5t4 8l6 6q2 0 3 1t5 1q0 2 10 2l2 -1t4 -1q2 -2 8 -4q8 -2 10 -2q6 0 8 4l6 2l-4 4l-4 4q0 2 -3 4t-5 4q-4 0 -6 1t-6 5q-4 0 -7 1l-3 1q-6 0 -10 -1t-8 -1q-4 -4 -8 -6t-6 -2q-4 -4 -6 -7t-6 -7
q0 -4 -2 -7t-2 -9t2 -9t2 -7q4 -8 10 -12q4 -2 7 -5t5 -3q6 -2 9 -4t7 -4t6 -2h4q2 -2 5 -2t5 -2t5 -3t3 -5q2 -2 2 -5v-7v-3t-2 -5q-2 -6 -8 -8q-4 -4 -6 -5t-4 -3h-5h-5h-7h-5q-4 2 -10 8v2q-6 4 -12 4h-3t-5 -2l-6 -2q2 -2 2 -3t2 -1q0 -2 1 -3t1 -3l1 -1t1 -3q4 -2 6 -2
q6 -8 15 -10t19 -2h10t10 2l8 4t8 6l5 5t5 9zM1682 740h-92v-150h92v18h-72v46h60v20h-60v44h72v22zM1920 644v10v10v11v9q-4 10 -10 20q-4 6 -12 14q-2 4 -6 6t-8 8q-4 0 -9 2t-9 6q-6 0 -10 1t-10 1t-11 -1t-9 -1q-12 -6 -20 -8q-4 -6 -7 -8t-7 -6l-7 -7l-7 -7
q-2 -6 -4 -10t-2 -10q-4 -8 -4 -20q0 -8 2 -15t4 -15q6 -14 18 -26q4 -4 10 -8t14 -4q12 -6 30 -6h10h10q4 2 9 4t9 4q4 4 8 6t6 4q8 8 12 18q6 8 10 18zM2076 740h-22v-116q0 2 -1 5t-3 3l-72 102l-1 1t-3 5h-5h-5h-16v-150h24v126v-4v-2v-2l2 -2l84 -116h18v150zM2198 608
h-64v132h-22v-150h86v18zM2318 740h-18q-4 0 -8 -4q-8 -4 -8 -8l-34 -46l-2 -2h-2v-2v2l-2 2l-36 46q-2 4 -6 8t-10 4h-16l54 -74l2 -2q0 -2 2 -2v-2v-2q0 -2 2 -2v-2v-64h22v64v2v4q2 0 2 4v2h2zM1160 844q-18 8 -37 19t-33 25h314q-16 -14 -34 -25t-38 -19q-20 -6 -42 -12
t-44 -6q-24 0 -45 6t-41 12zM1114 914l308 310q28 -38 44 -78t16 -80q0 -22 -3 -43t-11 -41q-8 -18 -18 -35t-22 -33h-314zM1068 906q-26 34 -44 72q-6 20 -10 42t-4 46q0 20 4 40t10 40q6 18 16 35t24 33h312zM1332 1284q20 -8 38 -20t32 -22h-316q36 28 74 42q38 18 86 18
t86 -18zM76 342q-4 4 -5 8t-3 8q-2 6 -3 10t-1 10t4 16q2 4 3 9t5 7l3 9t7 7q0 2 5 5t7 5q6 4 9 5l9 3q2 0 8 1t10 1q8 0 14 -1t14 -5q8 -2 13 -6t9 -8q-2 -2 -4 -2v-4h-2h-2h-4h-6q-4 2 -8 5t-8 3h-7h-9h-10h-8q-8 -4 -12 -7t-8 -5q-4 -6 -7 -10t-5 -8q-4 -6 -4 -12v-8
q0 -8 2 -14l3 -9t1 -7q2 -2 5 -4t5 -6q4 -2 6 -5t6 -3q2 -2 6 -4t8 -2q2 -2 6 -2h6h10t8 2q4 0 9 2t9 4v28h-12h-2l-2 2l-3 3l-3 3l-1 1t-1 3v1v3v0h38v-52l-5 -5l-5 -5q-6 -2 -12 -2q-6 -2 -14 -2h-14h-10h-8q-6 2 -9 4l-9 6q-2 0 -7 3t-5 7q-6 2 -7 6t-3 8zM234 428v-44
h54v-14h-54v-46h66v-16h-82v136h82v-16h-66zM360 308v120h-44v16h104v-16h-46v-120h-14zM520 428v-48h58v-12h-58v-60h-16v136h82v-16h-66zM626 444v-84q0 -4 2 -7t4 -5q2 -6 5 -9t5 -7q0 -2 3 -4t5 -4q6 -2 10 -2h8h7t5 2q6 2 9 4t7 4q0 4 3 7t5 9q4 4 4 12v84h14v-84
q0 -6 -1 -10t-3 -10t-5 -10t-7 -8t-8 -7t-8 -5q-12 -2 -22 -2q-12 0 -24 2q-2 2 -7 5t-9 7q-6 6 -10 18q-2 6 -4 10t-2 10v84h14zM766 444v-120h60v-16h-76v136h16zM856 444v-120h64v-16h-78v136h14zM1044 308l-60 136h8q4 0 8 -2q2 -2 3 -2t3 -4l42 -102v-4q2 -2 2 -6v6
l1 2l1 2q6 14 12 26l12 24q4 16 10 28l12 24q0 4 2 4t2 2q2 2 3 2h5h8q-8 -16 -15 -33t-17 -33q-6 -20 -13 -36t-15 -34h-14zM1144 428v-44h56v-14h-56v-46h66v-16h-82v136h82v-16h-66zM1310 372q-2 -2 -10 -4l46 -60h-10q-2 0 -5 1l-3 1q-2 2 -4 3t-4 5l-38 50h-24v-60h-14
v136h50h5t7 -2q8 -2 14 -8q2 -4 4 -7t4 -7q2 -2 2 -7v-5v-9t-2 -5q0 -4 -2 -8t-4 -6l-4 -4t-8 -4zM1294 380q4 0 6 4q2 0 4 1t4 1l3 6t3 4q0 2 1 4t1 8l-1 2t-1 6l-3 3t-3 5q-2 0 -4 1t-4 3h-6h-36v-48h36zM1418 328q2 2 4 8q2 2 3 6t1 6q0 6 -2 10q-2 0 -3 3t-3 5t-8 4
q-4 0 -6 1l-6 3q-4 0 -8 2t-4 4q-10 0 -14 6q-4 0 -5 4t-3 6v14v9t2 7q0 6 8 10q4 4 6 5t8 3q4 0 6 1t8 1q2 0 5 -1t5 -1t4 -1l6 -3q2 0 4 -2t2 -4q4 -2 5 -4t3 -2l-4 -2q-2 -2 -8 -2h-6q-4 2 -4 4h-2h-2h-2h-3h-1h-2h-8q-8 0 -8 -2q-6 -6 -6 -8q-4 0 -4 -8q0 -6 4 -6
q0 -4 2 -6t5 -3l3 -1q4 -4 6 -4t8 -4h3t3 -2h4t4 -4h2h1h1q2 0 4 -1l2 -1q4 -4 6 -7t6 -5q2 -10 2 -18v-10t-6 -8q0 -6 -8 -12q-2 -2 -6 -4l-8 -4t-8 -2h-10q-10 0 -17 2t-13 8q-2 0 -4 2l-4 4q0 2 -1 4l-1 2l2 2l1 1t5 1h2q2 0 4 -1t4 -3q4 -2 6 -4t6 -2q0 -2 4 -2h6
q8 0 10 2q8 0 12 4zM1488 444v-136h-16v136h16zM1542 328q-12 8 -18 20q-4 14 -4 30v7v9q6 10 8 16q6 8 14 16q6 6 12 10q4 4 9 5t9 3q4 0 8 1t10 1q4 0 9 -1t11 -1q4 -2 8 -3t8 -5l5 -5t7 -5q4 -4 6 -7l6 -9q2 -6 6 -16q2 -4 3 -9t1 -7q0 -8 -2 -15t-6 -15q-2 -6 -5 -11
t-9 -9q-6 -6 -11 -9t-11 -7q-10 -4 -26 -4q-8 0 -15 1t-11 3q-16 4 -22 16zM1542 398q-4 -6 -6 -12t-2 -8q0 -4 1 -8t1 -6q2 -8 8 -16q0 -2 2 -4t4 -6l5 -5t9 -3q2 -2 5 -4t5 -2q4 -2 8 -2h8h7t7 2q2 0 6 2l8 4q2 0 5 3l5 5q2 4 4 6l4 4q2 4 3 7l3 9q0 2 1 6t1 8q0 2 -1 8
t-5 12q0 4 -4 8t-6 10q-4 2 -8 5t-10 7h-9h-11h-12h-10q-4 -4 -9 -7t-9 -5q-2 -6 -5 -10t-3 -8zM1700 308h-16v136h12h5t5 -4l70 -100q2 0 2 -4l2 -2v-2v112h16v-136h-14l-80 112v4h-2v4v-120zM1910 428v-48h56v-12h-56v-60h-14v136h82v-16h-68zM2064 372q-8 -2 -12 -4
l44 -60h-12q-4 0 -8 2q0 2 -1 3t-3 5l-38 50h-24v-60h-16v136h50h6t8 -2t7 -4t5 -4q2 -4 4 -7t6 -7q0 -2 1 -7l1 -5q0 -6 -1 -9t-1 -5l-4 -8t-2 -6zM2052 384q2 0 3 1t3 1q6 8 6 10q2 4 2 12q0 2 -2 8q0 2 -6 8q-2 0 -3 1l-3 3h-8h-34v-48h34q4 0 8 4zM2228 328
q-4 -6 -10 -9t-12 -7q-6 -2 -12 -3t-14 -1t-15 1t-13 3q-12 4 -22 16q-4 4 -8 9t-6 11q-2 8 -5 15t-3 15q0 2 1 7t3 9t3 9t3 7q4 6 7 9t5 7q4 2 8 5t8 5q4 4 8 5t8 3q6 0 9 1t9 1q4 0 9 -1t9 -1l9 -3t7 -5q4 -2 8 -5t6 -5q2 -4 5 -7t5 -9q6 -6 8 -16q2 -4 3 -9t1 -7
q0 -8 -1 -15t-5 -15q-2 -6 -6 -11t-10 -9zM2180 322h7t9 2q2 0 5 2t5 4q2 0 6 3t8 5l3 6t3 4q2 4 3 7t1 9q2 2 2 6v8q0 2 -1 8t-1 12q-2 4 -5 8t-5 10q-6 2 -11 5t-9 7h-10h-10h-11h-11q-6 -4 -9 -7t-7 -5q-6 -6 -8 -10l-4 -8q-2 -6 -2 -12v-8v-14q0 -6 1 -9t5 -7q0 -2 3 -4
t5 -6l5 -5t5 -3q2 -2 5 -4t9 -2q2 -2 6 -2h8zM2402 442q2 2 3 2h3h12v-136h-14v112l-2 -2v0v-2q-4 -8 -6 -17t-6 -15t-7 -12l-7 -14q-2 -8 -4 -14l-4 -12q-4 -6 -7 -11t-5 -13h-14q-10 12 -15 26t-11 26q-4 14 -11 28t-11 28v2l-4 2v-112h-16v136h14q6 0 8 -2l2 -2v-4
l48 -106q0 -2 2 -2v-4q0 2 1 4t1 4q0 4 4 8l42 96q0 4 1 4t3 2zM72 256h154v-20v-4v-4q0 -4 -2 -6l-4 -4l-104 -142h2v2h4h2h102v-36h-162v12q0 10 2 12q0 2 4 8q2 2 2 4t2 4t3 4l3 6l92 126h-100v38zM254 256h136v-38h-98v-48h78v-40h-78v-52h98v-36h-136v214zM558 218h-58
v-176h-42v176h-62v38h162v-38zM656 256l92 -214h-24q-8 0 -16 4q-4 2 -5 6t-5 8l-12 28h-98l-10 -28q-2 -4 -3 -5t-3 -1q0 -4 -1 -5t-5 -3q-2 0 -4 -1t-4 -1q0 -2 -2 -2h-4h-24l92 214h36zM668 126l-26 66q0 2 -1 3t-1 3q0 4 -2 6v-6q0 -2 -2 -3t-2 -3l-26 -66h60zM756 256
h136v-38h-98v-54h80v-38h-80v-84h-38v214zM1106 202q4 -6 6 -12t6 -12q2 -8 2 -15v-13v-16t-2 -14q-4 -6 -6 -13t-6 -13q-4 -4 -8 -10l-8 -12q-8 -4 -12 -9t-10 -7q-6 -6 -13 -8t-13 -4q-8 -2 -15 -3t-15 -1q-10 0 -21 3t-21 5q-12 6 -19 12t-17 12q-14 16 -20 34
q-6 12 -8 22t-2 22q0 6 1 13t3 15q4 16 12 24q4 8 7 13t7 11q8 4 13 8t11 8t12 6t14 6q6 0 13 1t15 1t15 -1t15 -1q6 -4 13 -6t13 -6t10 -8t12 -8q4 -6 8 -11t8 -13zM1078 124q2 6 3 12t1 14q0 12 -4 24q-4 10 -8 15t-10 9q-4 4 -9 8t-11 6q-12 6 -28 6t-28 -6q-4 -2 -9 -6
t-11 -8t-9 -9t-7 -15q-4 -4 -4 -11v-13v-14t4 -12l7 -14t9 -10t11 -8t9 -8q8 -2 14 -4t14 -2t14 2t14 4q6 4 11 8t9 8q6 4 10 10t8 14zM1298 256h38v-214h-36l-100 144q-2 0 -2 1t-2 3q-2 4 -2 6q-4 0 -4 4l-1 1l-3 3v-162h-38v214h34q4 0 8 -1t4 -3l6 -3t4 -3
q10 -16 21 -31t21 -33q12 -14 23 -29t25 -29q0 -4 1 -6t1 -6q0 -2 1 -4t1 -4v152zM1356 256h162v-38h-64v-176h-38v176h-60v38zM1650 146q2 -4 5 -8t5 -8q0 -4 2 -9t2 -13q0 -12 -6 -26l-8 -12t-8 -10q-8 -4 -12 -8t-12 -6t-15 -4t-13 -2q-8 0 -15 2t-17 4q-6 2 -11 6
t-13 12q-4 2 -6 5t-4 7q-4 2 -4 12l1 1l3 3q2 0 2 1t2 1t4 1l2 1h10h3t3 -2q6 0 10 -2q4 -4 8 -6t6 -4q2 0 6 -2t10 -2q2 0 5 1t7 3q6 2 12 6l8 8q2 4 4 6t2 6q0 8 -6 12q-4 6 -8 6q-4 4 -7 5t-5 1q-6 2 -16 8q-4 0 -9 1t-9 5q-8 2 -12 5t-8 7q-6 4 -9 8t-5 8q-6 12 -6 24
q0 18 6 26q2 6 6 10t10 8q4 4 9 6t13 6q4 0 10 1t14 1q4 0 8 -1t10 -1q4 -2 7 -4t9 -4q2 -2 6 -5t8 -7l5 -5t5 -7l-8 -4q-2 -2 -5 -4t-3 -4h-8h-4h-4h-2q-6 0 -6 2l-8 4q-2 0 -3 1l-1 1h-6h-12q-4 0 -5 -1t-5 -3q-2 -2 -4 -8q-2 -2 -2 -8t2 -6q2 -2 3 -4t1 -6q4 0 7 -1t5 -1
q6 -2 11 -4t7 -4l10 -2q4 -4 9 -5t11 -7q10 -2 16 -12zM1714 78q6 0 6 -6q2 0 2 -3v-5q0 -6 -2 -10q0 -4 -6 -8q-4 0 -6 -4q-2 0 -4 -1t-6 -1q-2 0 -4 1t-4 1q-2 2 -4 3t-4 1q-2 2 -3 4t-3 4q-2 4 -2 10v5t2 3q2 4 3 5t3 1q6 6 8 6q2 2 4 3t4 1q4 0 6 -1t4 -3q2 0 6 -6z
M1796 198q-8 -8 -16 -24q-2 -4 -4 -11t-2 -13q0 -8 2 -14l4 -12l7 -14t9 -10q4 -4 9 -8t13 -8q8 -2 14 -4t14 -2q6 0 10 2t10 2q4 2 9 5t9 7q4 0 8 2h6h6t6 -2q6 -2 10 -6l6 -10q-6 -8 -16 -14q-6 -4 -10 -7t-10 -5q-6 -4 -11 -5t-11 -3t-11 -3t-11 -1q-14 0 -24 3t-20 5
q-20 10 -34 24q-16 16 -24 34q-2 12 -5 22t-3 22q0 6 1 13t3 15l4 12t6 12q6 8 9 13t9 11q6 4 11 8t13 8q4 4 10 6t16 6q4 0 12 1t16 1h11t11 -2t11 -4t11 -4t10 -5t10 -7q10 -8 16 -16l-6 -8l-5 -5t-5 -3h-7h-5h-7t-7 2q-4 4 -9 7t-9 5q-6 2 -10 2h-10q-16 0 -28 -6
q-8 -2 -13 -6t-9 -8zM2144 202q2 -6 5 -12t5 -12q2 -8 2 -15v-13v-16t-2 -14t-5 -13t-5 -13q-8 -10 -16 -22q-8 -4 -14 -9t-10 -7q-6 -6 -13 -8t-15 -4q-6 -2 -13 -3t-15 -1q-20 0 -42 8q-8 6 -17 12t-15 12q-8 8 -14 16t-10 18q-4 12 -6 22t-2 22q0 6 1 13t1 15q2 6 6 12
t6 12q4 8 8 13t10 11q4 4 10 8l12 8q4 4 11 6t13 6q8 0 15 1t13 1q8 0 15 -1t13 -1q8 -4 15 -6t13 -6q4 -4 10 -8t14 -8q2 -6 8 -11t8 -13zM2114 124q4 10 4 26q0 6 -1 13t-3 11q-4 10 -7 15t-7 9q-10 10 -24 14q-6 4 -13 5t-15 1q-14 0 -26 -6q-6 -2 -11 -6t-11 -8
q-4 -4 -8 -9t-8 -15q-2 -4 -3 -11t-1 -13q0 -8 1 -14t3 -12q8 -16 16 -24q6 -4 11 -8t11 -8q6 -2 14 -4t12 -2q8 0 15 2t13 4q6 4 13 8t11 8q8 8 14 24zM2376 254l1 1t5 1h38v-214h-38v156q0 -2 -1 -4l-3 -6v-6t-2 -4q-6 -18 -14 -35t-14 -33t-13 -33t-13 -35h-38l-54 136
q-2 2 -2 10q-2 4 -3 5t-1 3v-154h-40v214h38q4 0 6 -1l2 -1q4 -2 5 -2t3 -2l6 -4l4 -4t2 -4q4 -16 11 -31t13 -33q6 -16 13 -32t13 -32v-2v-4v-4q4 0 4 -4v4v4q0 2 1 4l1 2l8 16l44 112q0 2 1 4t1 4q2 2 5 3l3 1q2 2 4 2t4 2z" />
    <glyph glyph-name="nine" unicode="9" horiz-adv-x="2472" 
d="M1884 704q4 -4 8 -9t6 -9q0 -6 1 -11t1 -11q0 -12 -2 -22q-2 -6 -6 -10t-8 -6q-4 -4 -8 -7t-8 -7q-12 -4 -22 -4q-6 0 -12 1t-10 3q-6 4 -10 7t-8 7q-4 2 -7 6t-3 10q-4 6 -5 11t-1 11q0 10 6 22q0 4 3 9t7 9t8 7t10 5q8 4 22 4q6 0 10 -1l12 -3q4 -2 8 -5t8 -7zM506 686
q0 -2 -4 -8q-2 0 -3 -2t-5 -2q-2 -2 -8 -2h-32v46h32q4 0 8 -2q4 0 5 -1l3 -3l4 -8q2 -2 2 -10q0 -6 -2 -8zM782 704q4 -4 8 -9t6 -9q2 -6 3 -11t1 -11t-1 -11t-3 -11t-6 -10t-8 -6q-2 -4 -6 -7t-10 -7q-4 -2 -10 -3t-12 -1q-12 0 -22 4q-4 4 -9 7t-9 7l-6 6t-6 10t-4 11
t-2 11q0 10 6 22q2 4 6 9t6 9q4 4 9 7t9 5q6 2 12 3t10 1q12 0 22 -4q6 -2 10 -5t6 -7zM1064 716q0 -4 1 -6t1 -4l28 -62h-58l28 62v4v6zM264 712q2 -2 3 -5t3 -5q2 -4 2 -10v-5t-2 -5t-3 -5t-3 -3l-8 -8h-10h-36v52h36q6 0 10 -2q2 0 5 -2zM2420 1066v-572h-2348v572h890
q0 30 5 57t17 53t27 50t37 42q36 38 88 60q28 12 55 17t55 5q32 0 60 -6t52 -18q28 -12 51 -28t41 -34q36 -36 60 -92q20 -52 20 -106h890zM1006 1164q-22 -46 -22 -98q0 -56 22 -102q10 -22 24 -44t30 -40q18 -18 39 -32t45 -24q46 -22 102 -22q28 0 53 4t49 14
q24 12 44 25t38 33q18 18 32 39t26 43q22 50 22 106q0 22 -4 45t-14 43q-12 40 -40 74q-14 16 -30 30t-32 24q-18 10 -37 19t-39 17q-14 4 -31 6t-37 2q-28 0 -54 -5t-50 -17q-48 -18 -84 -56q-16 -18 -29 -40t-23 -44zM288 674q6 10 6 18q0 4 -1 9t-5 11q0 2 -4 6l-6 6
q-2 4 -5 7t-9 3q-4 2 -9 4t-9 2h-52v-150h16v56h36q4 0 9 1t9 3q10 4 14 8q2 4 6 8t4 8zM400 740h-92v-150h92v18h-70v46h58v20h-58v44h70v22zM546 590l-46 64q2 2 5 2t5 4q8 4 10 10q2 2 4 5t4 7v12v10t-2 8q-4 8 -10 14q-4 8 -14 8q-2 2 -7 4t-9 2h-54v-150h22v62h22
l40 -54q2 -4 6 -6q2 -2 4 -2h6h14zM648 616q0 4 1 8t1 8q0 12 -4 20t-12 14q-2 0 -3 2t-5 4h-1t-5 2h-2t-2 4q-6 0 -8 2q-6 0 -8 1l-6 3q-8 2 -8 4q-6 4 -6 6v8v8q2 0 4 2t2 4l3 1t5 1q4 2 6 2h4l2 -1t4 -1q8 0 8 -4q2 -2 4 -2h4q8 0 14 4l4 2q0 2 -2 4l-4 4q-4 2 -6 4t-6 4
q-2 0 -4 1t-6 5q-6 0 -7 1t-5 1t-9 -1t-9 -1q-4 -4 -7 -6t-7 -2q-2 -4 -5 -7t-5 -7t-3 -7t-1 -9v-9t4 -7q2 -4 5 -7t3 -5q4 -2 8 -5t8 -3q4 -2 7 -4t7 -4q2 -2 5 -2h5q6 -2 7 -2t3 -2q4 -2 4 -3t2 -5q2 -2 2 -5v-7v-3t-2 -5q-2 -4 -2 -5t-4 -3q-2 -4 -5 -5t-5 -3h-5h-5h-7
h-5q-2 2 -5 3t-3 5l-2 2q-6 4 -12 4h-4t-4 -2l-6 -2q0 -4 2 -4q0 -4 4 -6q0 -2 2 -4l2 -2h2q8 -8 17 -10t19 -2h9t9 2t9 4t7 6q6 2 9 5t5 9zM818 644q2 6 2 10v10q0 12 -2 20q0 6 -3 10t-5 10q-4 6 -12 14q-4 4 -8 6t-10 8q-2 0 -6 2t-10 6q-6 0 -10 1t-10 1q-4 0 -10 -1
t-10 -1q-6 -4 -10 -6t-8 -2q-4 -6 -8 -8t-8 -6l-7 -7t-5 -7q-4 -6 -5 -10t-3 -10q-2 -8 -2 -20q0 -8 2 -15t4 -15q2 -6 6 -12t10 -14l12 -8t14 -4q12 -6 28 -6h10h10q10 4 16 8q14 6 18 10q6 8 12 18q2 4 5 9t3 9zM974 740h-20v-116q0 2 -1 5l-1 3l-72 102q-4 0 -8 6h-4h-4
h-14v-150h20v126v-4l2 -2v0v-4l86 -116h16v150zM1142 590l-66 150h-22l-64 -150h12q6 0 8 2l3 3t5 3l8 26h78l10 -26q2 -4 6 -6q0 -2 8 -2h14zM1240 608h-64v132h-22v-150h86v18zM1444 740h-20v-90v-10t-2 -8q-2 -8 -10 -12q-2 -2 -5 -4t-5 -6q-6 -2 -9 -2h-7q-10 0 -14 2
q-6 4 -10 6t-4 4q-2 2 -4 5t-6 7q0 4 -1 8t-1 10v90h-20v-90v-11t2 -7q0 -8 4 -14q4 -10 12 -14q2 -2 5 -4t7 -4q2 -2 6 -3t6 -3q6 0 9 -2t9 -2q4 0 7 2t9 2q4 2 7 3t7 3l12 8q4 4 5 7t3 7q2 2 5 6t3 8v18v90zM1560 616q6 8 6 16q0 12 -4 20t-12 14q-6 4 -6 6h-5t-5 2h-3
t-5 4h-2t-4 2q-2 0 -4 1l-6 3q-8 2 -8 4q-4 2 -5 4t-3 2q0 2 -1 3t-1 5t4 8l6 6q2 0 3 1t5 1q0 2 10 2l2 -1t4 -1q2 -2 8 -4q8 -2 10 -2q6 0 8 4l6 2l-4 4l-4 4q0 2 -3 4t-5 4q-4 0 -6 1t-6 5q-4 0 -7 1l-3 1q-6 0 -10 -1t-8 -1q-4 -4 -8 -6t-6 -2q-4 -4 -6 -7t-6 -7
q0 -4 -2 -7t-2 -9t2 -9t2 -7q4 -8 10 -12q4 -2 7 -5t5 -3q6 -2 9 -4t7 -4t6 -2h4q2 -2 5 -2t5 -2t5 -3t3 -5q2 -2 2 -5v-7v-3t-2 -5q-2 -6 -8 -8q-4 -4 -6 -5t-4 -3h-5h-5h-7h-5q-4 2 -10 8v2q-6 4 -12 4h-3t-5 -2l-6 -2q2 -2 2 -3t2 -1q0 -2 1 -3t1 -3l1 -1t1 -3q4 -2 6 -2
q6 -8 15 -10t19 -2h10t10 2l8 4t8 6l5 5t5 9zM1682 740h-92v-150h92v18h-72v46h60v20h-60v44h72v22zM1920 644v10v10v11v9q-4 10 -10 20q-4 6 -12 14q-2 4 -6 6t-8 8q-4 0 -9 2t-9 6q-6 0 -10 1t-10 1t-11 -1t-9 -1q-12 -6 -20 -8q-4 -6 -7 -8t-7 -6l-7 -7l-7 -7
q-2 -6 -4 -10t-2 -10q-4 -8 -4 -20q0 -8 2 -15t4 -15q6 -14 18 -26q4 -4 10 -8t14 -4q12 -6 30 -6h10h10q4 2 9 4t9 4q4 4 8 6t6 4q8 8 12 18q6 8 10 18zM2076 740h-22v-116q0 2 -1 5t-3 3l-72 102l-1 1t-3 5h-5h-5h-16v-150h24v126v-4v-2v-2l2 -2l84 -116h18v150zM2198 608
h-64v132h-22v-150h86v18zM2318 740h-18q-4 0 -8 -4q-8 -4 -8 -8l-34 -46l-2 -2h-2v-2v2l-2 2l-36 46q-2 4 -6 8t-10 4h-16l54 -74l2 -2q0 -2 2 -2v-2v-2q0 -2 2 -2v-2v-64h22v64v2v4q2 0 2 4v2h2zM1160 844q-18 8 -37 19t-33 25h314q-16 -14 -34 -25t-38 -19q-20 -6 -42 -12
t-44 -6q-24 0 -45 6t-41 12zM1114 914l308 310q28 -38 44 -78t16 -80q0 -22 -3 -43t-11 -41q-8 -18 -18 -35t-22 -33h-314zM1068 906q-26 34 -44 72q-6 20 -10 42t-4 46q0 20 4 40t10 40q6 18 16 35t24 33h312zM1332 1284q20 -8 38 -20t32 -22h-316q36 28 74 42q38 18 86 18
t86 -18zM76 342q-4 4 -5 8t-3 8q-2 6 -3 10t-1 10t4 16q2 4 3 9t5 7l3 9t7 7q0 2 5 5t7 5q6 4 9 5l9 3q2 0 8 1t10 1q8 0 14 -1t14 -5q8 -2 13 -6t9 -8q-2 -2 -4 -2v-4h-2h-2h-4h-6q-4 2 -8 5t-8 3h-7h-9h-10h-8q-8 -4 -12 -7t-8 -5q-4 -6 -7 -10t-5 -8q-4 -6 -4 -12v-8
q0 -8 2 -14l3 -9t1 -7q2 -2 5 -4t5 -6q4 -2 6 -5t6 -3q2 -2 6 -4t8 -2q2 -2 6 -2h6h10t8 2q4 0 9 2t9 4v28h-12h-2l-2 2l-3 3l-3 3l-1 1t-1 3v1v3v0h38v-52l-5 -5l-5 -5q-6 -2 -12 -2q-6 -2 -14 -2h-14h-10h-8q-6 2 -9 4l-9 6q-2 0 -7 3t-5 7q-6 2 -7 6t-3 8zM234 428v-44
h54v-14h-54v-46h66v-16h-82v136h82v-16h-66zM360 308v120h-44v16h104v-16h-46v-120h-14zM520 428v-48h58v-12h-58v-60h-16v136h82v-16h-66zM626 444v-84q0 -4 2 -7t4 -5q2 -6 5 -9t5 -7q0 -2 3 -4t5 -4q6 -2 10 -2h8h7t5 2q6 2 9 4t7 4q0 4 3 7t5 9q4 4 4 12v84h14v-84
q0 -6 -1 -10t-3 -10t-5 -10t-7 -8t-8 -7t-8 -5q-12 -2 -22 -2q-12 0 -24 2q-2 2 -7 5t-9 7q-6 6 -10 18q-2 6 -4 10t-2 10v84h14zM766 444v-120h60v-16h-76v136h16zM856 444v-120h64v-16h-78v136h14zM1044 308l-60 136h8q4 0 8 -2q2 -2 3 -2t3 -4l42 -102v-4q2 -2 2 -6v6
l1 2l1 2q6 14 12 26l12 24q4 16 10 28l12 24q0 4 2 4t2 2q2 2 3 2h5h8q-8 -16 -15 -33t-17 -33q-6 -20 -13 -36t-15 -34h-14zM1144 428v-44h56v-14h-56v-46h66v-16h-82v136h82v-16h-66zM1310 372q-2 -2 -10 -4l46 -60h-10q-2 0 -5 1l-3 1q-2 2 -4 3t-4 5l-38 50h-24v-60h-14
v136h50h5t7 -2q8 -2 14 -8q2 -4 4 -7t4 -7q2 -2 2 -7v-5v-9t-2 -5q0 -4 -2 -8t-4 -6l-4 -4t-8 -4zM1294 380q4 0 6 4q2 0 4 1t4 1l3 6t3 4q0 2 1 4t1 8l-1 2t-1 6l-3 3t-3 5q-2 0 -4 1t-4 3h-6h-36v-48h36zM1418 328q2 2 4 8q2 2 3 6t1 6q0 6 -2 10q-2 0 -3 3t-3 5t-8 4
q-4 0 -6 1l-6 3q-4 0 -8 2t-4 4q-10 0 -14 6q-4 0 -5 4t-3 6v14v9t2 7q0 6 8 10q4 4 6 5t8 3q4 0 6 1t8 1q2 0 5 -1t5 -1t4 -1l6 -3q2 0 4 -2t2 -4q4 -2 5 -4t3 -2l-4 -2q-2 -2 -8 -2h-6q-4 2 -4 4h-2h-2h-2h-3h-1h-2h-8q-8 0 -8 -2q-6 -6 -6 -8q-4 0 -4 -8q0 -6 4 -6
q0 -4 2 -6t5 -3l3 -1q4 -4 6 -4t8 -4h3t3 -2h4t4 -4h2h1h1q2 0 4 -1l2 -1q4 -4 6 -7t6 -5q2 -10 2 -18v-10t-6 -8q0 -6 -8 -12q-2 -2 -6 -4l-8 -4t-8 -2h-10q-10 0 -17 2t-13 8q-2 0 -4 2l-4 4q0 2 -1 4l-1 2l2 2l1 1t5 1h2q2 0 4 -1t4 -3q4 -2 6 -4t6 -2q0 -2 4 -2h6
q8 0 10 2q8 0 12 4zM1488 444v-136h-16v136h16zM1542 328q-12 8 -18 20q-4 14 -4 30v7v9q6 10 8 16q6 8 14 16q6 6 12 10q4 4 9 5t9 3q4 0 8 1t10 1q4 0 9 -1t11 -1q4 -2 8 -3t8 -5l5 -5t7 -5q4 -4 6 -7l6 -9q2 -6 6 -16q2 -4 3 -9t1 -7q0 -8 -2 -15t-6 -15q-2 -6 -5 -11
t-9 -9q-6 -6 -11 -9t-11 -7q-10 -4 -26 -4q-8 0 -15 1t-11 3q-16 4 -22 16zM1542 398q-4 -6 -6 -12t-2 -8q0 -4 1 -8t1 -6q2 -8 8 -16q0 -2 2 -4t4 -6l5 -5t9 -3q2 -2 5 -4t5 -2q4 -2 8 -2h8h7t7 2q2 0 6 2l8 4q2 0 5 3l5 5q2 4 4 6l4 4q2 4 3 7l3 9q0 2 1 6t1 8q0 2 -1 8
t-5 12q0 4 -4 8t-6 10q-4 2 -8 5t-10 7h-9h-11h-12h-10q-4 -4 -9 -7t-9 -5q-2 -6 -5 -10t-3 -8zM1700 308h-16v136h12h5t5 -4l70 -100q2 0 2 -4l2 -2v-2v112h16v-136h-14l-80 112v4h-2v4v-120zM1910 428v-48h56v-12h-56v-60h-14v136h82v-16h-68zM2064 372q-8 -2 -12 -4
l44 -60h-12q-4 0 -8 2q0 2 -1 3t-3 5l-38 50h-24v-60h-16v136h50h6t8 -2t7 -4t5 -4q2 -4 4 -7t6 -7q0 -2 1 -7l1 -5q0 -6 -1 -9t-1 -5l-4 -8t-2 -6zM2052 384q2 0 3 1t3 1q6 8 6 10q2 4 2 12q0 2 -2 8q0 2 -6 8q-2 0 -3 1l-3 3h-8h-34v-48h34q4 0 8 4zM2228 328
q-4 -6 -10 -9t-12 -7q-6 -2 -12 -3t-14 -1t-15 1t-13 3q-12 4 -22 16q-4 4 -8 9t-6 11q-2 8 -5 15t-3 15q0 2 1 7t3 9t3 9t3 7q4 6 7 9t5 7q4 2 8 5t8 5q4 4 8 5t8 3q6 0 9 1t9 1q4 0 9 -1t9 -1l9 -3t7 -5q4 -2 8 -5t6 -5q2 -4 5 -7t5 -9q6 -6 8 -16q2 -4 3 -9t1 -7
q0 -8 -1 -15t-5 -15q-2 -6 -6 -11t-10 -9zM2180 322h7t9 2q2 0 5 2t5 4q2 0 6 3t8 5l3 6t3 4q2 4 3 7t1 9q2 2 2 6v8q0 2 -1 8t-1 12q-2 4 -5 8t-5 10q-6 2 -11 5t-9 7h-10h-10h-11h-11q-6 -4 -9 -7t-7 -5q-6 -6 -8 -10l-4 -8q-2 -6 -2 -12v-8v-14q0 -6 1 -9t5 -7q0 -2 3 -4
t5 -6l5 -5t5 -3q2 -2 5 -4t9 -2q2 -2 6 -2h8zM2402 442q2 2 3 2h3h12v-136h-14v112l-2 -2v0v-2q-4 -8 -6 -17t-6 -15t-7 -12l-7 -14q-2 -8 -4 -14l-4 -12q-4 -6 -7 -11t-5 -13h-14q-10 12 -15 26t-11 26q-4 14 -11 28t-11 28v2l-4 2v-112h-16v136h14q6 0 8 -2l2 -2v-4
l48 -106q0 -2 2 -2v-4q0 2 1 4t1 4q0 4 4 8l42 96q0 4 1 4t3 2zM72 256h154v-20v-4v-4q0 -4 -2 -6l-4 -4l-104 -142h2v2h4h2h102v-36h-162v12q0 10 2 12q0 2 4 8q2 2 2 4t2 4t3 4l3 6l92 126h-100v38zM254 256h136v-38h-98v-48h78v-40h-78v-52h98v-36h-136v214zM558 218h-58
v-176h-42v176h-62v38h162v-38zM656 256l92 -214h-24q-8 0 -16 4q-4 2 -5 6t-5 8l-12 28h-98l-10 -28q-2 -4 -3 -5t-3 -1q0 -4 -1 -5t-5 -3q-2 0 -4 -1t-4 -1q0 -2 -2 -2h-4h-24l92 214h36zM668 126l-26 66q0 2 -1 3t-1 3q0 4 -2 6v-6q0 -2 -2 -3t-2 -3l-26 -66h60zM756 256
h136v-38h-98v-54h80v-38h-80v-84h-38v214zM1106 202q4 -6 6 -12t6 -12q2 -8 2 -15v-13v-16t-2 -14q-4 -6 -6 -13t-6 -13q-4 -4 -8 -10l-8 -12q-8 -4 -12 -9t-10 -7q-6 -6 -13 -8t-13 -4q-8 -2 -15 -3t-15 -1q-10 0 -21 3t-21 5q-12 6 -19 12t-17 12q-14 16 -20 34
q-6 12 -8 22t-2 22q0 6 1 13t3 15q4 16 12 24q4 8 7 13t7 11q8 4 13 8t11 8t12 6t14 6q6 0 13 1t15 1t15 -1t15 -1q6 -4 13 -6t13 -6t10 -8t12 -8q4 -6 8 -11t8 -13zM1078 124q2 6 3 12t1 14q0 12 -4 24q-4 10 -8 15t-10 9q-4 4 -9 8t-11 6q-12 6 -28 6t-28 -6q-4 -2 -9 -6
t-11 -8t-9 -9t-7 -15q-4 -4 -4 -11v-13v-14t4 -12l7 -14t9 -10t11 -8t9 -8q8 -2 14 -4t14 -2t14 2t14 4q6 4 11 8t9 8q6 4 10 10t8 14zM1298 256h38v-214h-36l-100 144q-2 0 -2 1t-2 3q-2 4 -2 6q-4 0 -4 4l-1 1l-3 3v-162h-38v214h34q4 0 8 -1t4 -3l6 -3t4 -3
q10 -16 21 -31t21 -33q12 -14 23 -29t25 -29q0 -4 1 -6t1 -6q0 -2 1 -4t1 -4v152zM1356 256h162v-38h-64v-176h-38v176h-60v38zM1650 146q2 -4 5 -8t5 -8q0 -4 2 -9t2 -13q0 -12 -6 -26l-8 -12t-8 -10q-8 -4 -12 -8t-12 -6t-15 -4t-13 -2q-8 0 -15 2t-17 4q-6 2 -11 6
t-13 12q-4 2 -6 5t-4 7q-4 2 -4 12l1 1l3 3q2 0 2 1t2 1t4 1l2 1h10h3t3 -2q6 0 10 -2q4 -4 8 -6t6 -4q2 0 6 -2t10 -2q2 0 5 1t7 3q6 2 12 6l8 8q2 4 4 6t2 6q0 8 -6 12q-4 6 -8 6q-4 4 -7 5t-5 1q-6 2 -16 8q-4 0 -9 1t-9 5q-8 2 -12 5t-8 7q-6 4 -9 8t-5 8q-6 12 -6 24
q0 18 6 26q2 6 6 10t10 8q4 4 9 6t13 6q4 0 10 1t14 1q4 0 8 -1t10 -1q4 -2 7 -4t9 -4q2 -2 6 -5t8 -7l5 -5t5 -7l-8 -4q-2 -2 -5 -4t-3 -4h-8h-4h-4h-2q-6 0 -6 2l-8 4q-2 0 -3 1l-1 1h-6h-12q-4 0 -5 -1t-5 -3q-2 -2 -4 -8q-2 -2 -2 -8t2 -6q2 -2 3 -4t1 -6q4 0 7 -1t5 -1
q6 -2 11 -4t7 -4l10 -2q4 -4 9 -5t11 -7q10 -2 16 -12zM1714 78q6 0 6 -6q2 0 2 -3v-5q0 -6 -2 -10q0 -4 -6 -8q-4 0 -6 -4q-2 0 -4 -1t-6 -1q-2 0 -4 1t-4 1q-2 2 -4 3t-4 1q-2 2 -3 4t-3 4q-2 4 -2 10v5t2 3q2 4 3 5t3 1q6 6 8 6q2 2 4 3t4 1q4 0 6 -1t4 -3q2 0 6 -6z
M1796 198q-8 -8 -16 -24q-2 -4 -4 -11t-2 -13q0 -8 2 -14l4 -12l7 -14t9 -10q4 -4 9 -8t13 -8q8 -2 14 -4t14 -2q6 0 10 2t10 2q4 2 9 5t9 7q4 0 8 2h6h6t6 -2q6 -2 10 -6l6 -10q-6 -8 -16 -14q-6 -4 -10 -7t-10 -5q-6 -4 -11 -5t-11 -3t-11 -3t-11 -1q-14 0 -24 3t-20 5
q-20 10 -34 24q-16 16 -24 34q-2 12 -5 22t-3 22q0 6 1 13t3 15l4 12t6 12q6 8 9 13t9 11q6 4 11 8t13 8q4 4 10 6t16 6q4 0 12 1t16 1h11t11 -2t11 -4t11 -4t10 -5t10 -7q10 -8 16 -16l-6 -8l-5 -5t-5 -3h-7h-5h-7t-7 2q-4 4 -9 7t-9 5q-6 2 -10 2h-10q-16 0 -28 -6
q-8 -2 -13 -6t-9 -8zM2144 202q2 -6 5 -12t5 -12q2 -8 2 -15v-13v-16t-2 -14t-5 -13t-5 -13q-8 -10 -16 -22q-8 -4 -14 -9t-10 -7q-6 -6 -13 -8t-15 -4q-6 -2 -13 -3t-15 -1q-20 0 -42 8q-8 6 -17 12t-15 12q-8 8 -14 16t-10 18q-4 12 -6 22t-2 22q0 6 1 13t1 15q2 6 6 12
t6 12q4 8 8 13t10 11q4 4 10 8l12 8q4 4 11 6t13 6q8 0 15 1t13 1q8 0 15 -1t13 -1q8 -4 15 -6t13 -6q4 -4 10 -8t14 -8q2 -6 8 -11t8 -13zM2114 124q4 10 4 26q0 6 -1 13t-3 11q-4 10 -7 15t-7 9q-10 10 -24 14q-6 4 -13 5t-15 1q-14 0 -26 -6q-6 -2 -11 -6t-11 -8
q-4 -4 -8 -9t-8 -15q-2 -4 -3 -11t-1 -13q0 -8 1 -14t3 -12q8 -16 16 -24q6 -4 11 -8t11 -8q6 -2 14 -4t12 -2q8 0 15 2t13 4q6 4 13 8t11 8q8 8 14 24zM2376 254l1 1t5 1h38v-214h-38v156q0 -2 -1 -4l-3 -6v-6t-2 -4q-6 -18 -14 -35t-14 -33t-13 -33t-13 -35h-38l-54 136
q-2 2 -2 10q-2 4 -3 5t-1 3v-154h-40v214h38q4 0 6 -1l2 -1q4 -2 5 -2t3 -2l6 -4l4 -4t2 -4q4 -16 11 -31t13 -33q6 -16 13 -32t13 -32v-2v-4v-4q4 0 4 -4v4v4q0 2 1 4l1 2l8 16l44 112q0 2 1 4t1 4q2 2 5 3l3 1q2 2 4 2t4 2z" />
    <glyph glyph-name="colon" unicode=":" horiz-adv-x="427" 
d="M93 835q0 22 8.5 41.5t23 34t33.5 23t41 8.5t41.5 -8.5t34 -23t23 -34t8.5 -41.5t-8.5 -41t-23 -33.5t-34 -23t-41.5 -8.5t-41 8.5t-33.5 23t-23 33.5t-8.5 41zM93 95q0 22 8.5 41.5t23 34t33.5 23t41 8.5t41.5 -8.5t34 -23t23 -34t8.5 -41.5t-8.5 -41t-23 -33.5t-34 -23
t-41.5 -8.5t-41 8.5t-33.5 23t-23 33.5t-8.5 41z" />
    <glyph glyph-name="semicolon" unicode=";" horiz-adv-x="427" 
d="M93 128q0 38 25.5 64t62.5 26q38 0 61.5 -26t23.5 -64v-295q0 -38 -23.5 -63.5t-61.5 -25.5q-37 0 -62.5 25.5t-25.5 63.5v295zM93 835q0 22 8.5 41.5t23 34t33.5 23t41 8.5t41.5 -8.5t34 -23t23 -34t8.5 -41.5t-8.5 -41t-23 -33.5t-34 -23t-41.5 -8.5t-41 8.5t-33.5 23
t-23 33.5t-8.5 41z" />
    <glyph glyph-name="less" unicode="&#x3c;" horiz-adv-x="725" 
d="M78 548q-8 4 -13.5 9.5t-10.5 11.5l-3 4l-3 5q-13 24 -5 53q1 4 2 7t3 7l7 10l10 10t12 9l491 257q27 14 54.5 6.5t41.5 -33.5q14 -24 7.5 -53t-33.5 -43l-378 -199l375 -205q26 -13 34 -41.5t-6 -54.5t-41 -34t-53 6z" />
    <glyph glyph-name="equal" unicode="=" horiz-adv-x="835" 
d="M690 407q37 0 62.5 -25.5t25.5 -61.5t-25.5 -62t-62.5 -26h-539q-18 0 -34 7t-27.5 19t-18.5 28.5t-7 35.5q0 18 7 33.5t18.5 27t27.5 18t34 6.5h539zM690 816q37 0 62.5 -25.5t25.5 -61.5t-25.5 -62t-62.5 -26h-539q-18 0 -34 7t-27.5 19t-18.5 28.5t-7 35.5
q0 18 7 33.5t18.5 27t27.5 18t34 6.5h539z" />
    <glyph glyph-name="greater" unicode="&#x3e;" horiz-adv-x="747" 
d="M131 280q-26 -14 -53 -6t-41 34t-6 54.5t34 41.5l375 205l-378 199q-27 14 -33.5 43t7.5 53q15 26 42 33.5t54 -6.5l492 -257q26 -16 33.5 -43.5t-6.5 -52.5l-3 -5l-2 -4q-5 -6 -10.5 -11.5t-13.5 -9.5z" />
    <glyph glyph-name="question" unicode="?" horiz-adv-x="902" 
d="M65 898q1 81 32.5 152.5t85 124.5t125 83.5t152.5 30.5q82 0 154.5 -31t126.5 -85t85.5 -126.5t31.5 -154.5t-32 -152.5t-86.5 -123t-127 -82.5t-154.5 -30h-14v-103q0 -38 -24 -63.5t-61 -25.5t-62.5 25.5t-25.5 63.5v188q0 37 26 62t62 25h3h99q46 0 86.5 17t71 46
t48.5 68.5t18 84.5q0 46 -16.5 87t-46 71.5t-70.5 48t-90 17.5q-45 0 -85 -16.5t-71 -46t-49 -70t-19 -88.5v-3q0 -37 -23.5 -63t-60.5 -26t-63 26t-26 63v6zM263 84q0 20 7.5 38t20.5 31t30 20.5t37 7.5q40 0 68 -28t28 -69q0 -19 -7.5 -36t-20.5 -30t-30.5 -21t-37.5 -8
t-37 8t-30 21t-20.5 30t-7.5 36z" />
    <glyph glyph-name="at" unicode="@" horiz-adv-x="2472" 
d="M1884 704q4 -4 8 -9t6 -9q0 -6 1 -11t1 -11q0 -12 -2 -22q-2 -6 -6 -10t-8 -6q-4 -4 -8 -7t-8 -7q-12 -4 -22 -4q-6 0 -12 1t-10 3q-6 4 -10 7t-8 7q-4 2 -7 6t-3 10q-4 6 -5 11t-1 11q0 10 6 22q0 4 3 9t7 9t8 7t10 5q8 4 22 4q6 0 10 -1l12 -3q4 -2 8 -5t8 -7zM506 686
q0 -2 -4 -8q-2 0 -3 -2t-5 -2q-2 -2 -8 -2h-32v46h32q4 0 8 -2q4 0 5 -1l3 -3l4 -8q2 -2 2 -10q0 -6 -2 -8zM782 704q4 -4 8 -9t6 -9q2 -6 3 -11t1 -11t-1 -11t-3 -11t-6 -10t-8 -6q-2 -4 -6 -7t-10 -7q-4 -2 -10 -3t-12 -1q-12 0 -22 4q-4 4 -9 7t-9 7l-6 6t-6 10t-4 11
t-2 11q0 10 6 22q2 4 6 9t6 9q4 4 9 7t9 5q6 2 12 3t10 1q12 0 22 -4q6 -2 10 -5t6 -7zM1064 716q0 -4 1 -6t1 -4l28 -62h-58l28 62v4v6zM264 712q2 -2 3 -5t3 -5q2 -4 2 -10v-5t-2 -5t-3 -5t-3 -3l-8 -8h-10h-36v52h36q6 0 10 -2q2 0 5 -2zM2420 1066v-572h-2348v572h890
q0 30 5 57t17 53t27 50t37 42q36 38 88 60q28 12 55 17t55 5q32 0 60 -6t52 -18q28 -12 51 -28t41 -34q36 -36 60 -92q20 -52 20 -106h890zM1006 1164q-22 -46 -22 -98q0 -56 22 -102q10 -22 24 -44t30 -40q18 -18 39 -32t45 -24q46 -22 102 -22q28 0 53 4t49 14
q24 12 44 25t38 33q18 18 32 39t26 43q22 50 22 106q0 22 -4 45t-14 43q-12 40 -40 74q-14 16 -30 30t-32 24q-18 10 -37 19t-39 17q-14 4 -31 6t-37 2q-28 0 -54 -5t-50 -17q-48 -18 -84 -56q-16 -18 -29 -40t-23 -44zM288 674q6 10 6 18q0 4 -1 9t-5 11q0 2 -4 6l-6 6
q-2 4 -5 7t-9 3q-4 2 -9 4t-9 2h-52v-150h16v56h36q4 0 9 1t9 3q10 4 14 8q2 4 6 8t4 8zM400 740h-92v-150h92v18h-70v46h58v20h-58v44h70v22zM546 590l-46 64q2 2 5 2t5 4q8 4 10 10q2 2 4 5t4 7v12v10t-2 8q-4 8 -10 14q-4 8 -14 8q-2 2 -7 4t-9 2h-54v-150h22v62h22
l40 -54q2 -4 6 -6q2 -2 4 -2h6h14zM648 616q0 4 1 8t1 8q0 12 -4 20t-12 14q-2 0 -3 2t-5 4h-1t-5 2h-2t-2 4q-6 0 -8 2q-6 0 -8 1l-6 3q-8 2 -8 4q-6 4 -6 6v8v8q2 0 4 2t2 4l3 1t5 1q4 2 6 2h4l2 -1t4 -1q8 0 8 -4q2 -2 4 -2h4q8 0 14 4l4 2q0 2 -2 4l-4 4q-4 2 -6 4t-6 4
q-2 0 -4 1t-6 5q-6 0 -7 1t-5 1t-9 -1t-9 -1q-4 -4 -7 -6t-7 -2q-2 -4 -5 -7t-5 -7t-3 -7t-1 -9v-9t4 -7q2 -4 5 -7t3 -5q4 -2 8 -5t8 -3q4 -2 7 -4t7 -4q2 -2 5 -2h5q6 -2 7 -2t3 -2q4 -2 4 -3t2 -5q2 -2 2 -5v-7v-3t-2 -5q-2 -4 -2 -5t-4 -3q-2 -4 -5 -5t-5 -3h-5h-5h-7
h-5q-2 2 -5 3t-3 5l-2 2q-6 4 -12 4h-4t-4 -2l-6 -2q0 -4 2 -4q0 -4 4 -6q0 -2 2 -4l2 -2h2q8 -8 17 -10t19 -2h9t9 2t9 4t7 6q6 2 9 5t5 9zM818 644q2 6 2 10v10q0 12 -2 20q0 6 -3 10t-5 10q-4 6 -12 14q-4 4 -8 6t-10 8q-2 0 -6 2t-10 6q-6 0 -10 1t-10 1q-4 0 -10 -1
t-10 -1q-6 -4 -10 -6t-8 -2q-4 -6 -8 -8t-8 -6l-7 -7t-5 -7q-4 -6 -5 -10t-3 -10q-2 -8 -2 -20q0 -8 2 -15t4 -15q2 -6 6 -12t10 -14l12 -8t14 -4q12 -6 28 -6h10h10q10 4 16 8q14 6 18 10q6 8 12 18q2 4 5 9t3 9zM974 740h-20v-116q0 2 -1 5l-1 3l-72 102q-4 0 -8 6h-4h-4
h-14v-150h20v126v-4l2 -2v0v-4l86 -116h16v150zM1142 590l-66 150h-22l-64 -150h12q6 0 8 2l3 3t5 3l8 26h78l10 -26q2 -4 6 -6q0 -2 8 -2h14zM1240 608h-64v132h-22v-150h86v18zM1444 740h-20v-90v-10t-2 -8q-2 -8 -10 -12q-2 -2 -5 -4t-5 -6q-6 -2 -9 -2h-7q-10 0 -14 2
q-6 4 -10 6t-4 4q-2 2 -4 5t-6 7q0 4 -1 8t-1 10v90h-20v-90v-11t2 -7q0 -8 4 -14q4 -10 12 -14q2 -2 5 -4t7 -4q2 -2 6 -3t6 -3q6 0 9 -2t9 -2q4 0 7 2t9 2q4 2 7 3t7 3l12 8q4 4 5 7t3 7q2 2 5 6t3 8v18v90zM1560 616q6 8 6 16q0 12 -4 20t-12 14q-6 4 -6 6h-5t-5 2h-3
t-5 4h-2t-4 2q-2 0 -4 1l-6 3q-8 2 -8 4q-4 2 -5 4t-3 2q0 2 -1 3t-1 5t4 8l6 6q2 0 3 1t5 1q0 2 10 2l2 -1t4 -1q2 -2 8 -4q8 -2 10 -2q6 0 8 4l6 2l-4 4l-4 4q0 2 -3 4t-5 4q-4 0 -6 1t-6 5q-4 0 -7 1l-3 1q-6 0 -10 -1t-8 -1q-4 -4 -8 -6t-6 -2q-4 -4 -6 -7t-6 -7
q0 -4 -2 -7t-2 -9t2 -9t2 -7q4 -8 10 -12q4 -2 7 -5t5 -3q6 -2 9 -4t7 -4t6 -2h4q2 -2 5 -2t5 -2t5 -3t3 -5q2 -2 2 -5v-7v-3t-2 -5q-2 -6 -8 -8q-4 -4 -6 -5t-4 -3h-5h-5h-7h-5q-4 2 -10 8v2q-6 4 -12 4h-3t-5 -2l-6 -2q2 -2 2 -3t2 -1q0 -2 1 -3t1 -3l1 -1t1 -3q4 -2 6 -2
q6 -8 15 -10t19 -2h10t10 2l8 4t8 6l5 5t5 9zM1682 740h-92v-150h92v18h-72v46h60v20h-60v44h72v22zM1920 644v10v10v11v9q-4 10 -10 20q-4 6 -12 14q-2 4 -6 6t-8 8q-4 0 -9 2t-9 6q-6 0 -10 1t-10 1t-11 -1t-9 -1q-12 -6 -20 -8q-4 -6 -7 -8t-7 -6l-7 -7l-7 -7
q-2 -6 -4 -10t-2 -10q-4 -8 -4 -20q0 -8 2 -15t4 -15q6 -14 18 -26q4 -4 10 -8t14 -4q12 -6 30 -6h10h10q4 2 9 4t9 4q4 4 8 6t6 4q8 8 12 18q6 8 10 18zM2076 740h-22v-116q0 2 -1 5t-3 3l-72 102l-1 1t-3 5h-5h-5h-16v-150h24v126v-4v-2v-2l2 -2l84 -116h18v150zM2198 608
h-64v132h-22v-150h86v18zM2318 740h-18q-4 0 -8 -4q-8 -4 -8 -8l-34 -46l-2 -2h-2v-2v2l-2 2l-36 46q-2 4 -6 8t-10 4h-16l54 -74l2 -2q0 -2 2 -2v-2v-2q0 -2 2 -2v-2v-64h22v64v2v4q2 0 2 4v2h2zM1160 844q-18 8 -37 19t-33 25h314q-16 -14 -34 -25t-38 -19q-20 -6 -42 -12
t-44 -6q-24 0 -45 6t-41 12zM1114 914l308 310q28 -38 44 -78t16 -80q0 -22 -3 -43t-11 -41q-8 -18 -18 -35t-22 -33h-314zM1068 906q-26 34 -44 72q-6 20 -10 42t-4 46q0 20 4 40t10 40q6 18 16 35t24 33h312zM1332 1284q20 -8 38 -20t32 -22h-316q36 28 74 42q38 18 86 18
t86 -18zM76 342q-4 4 -5 8t-3 8q-2 6 -3 10t-1 10t4 16q2 4 3 9t5 7l3 9t7 7q0 2 5 5t7 5q6 4 9 5l9 3q2 0 8 1t10 1q8 0 14 -1t14 -5q8 -2 13 -6t9 -8q-2 -2 -4 -2v-4h-2h-2h-4h-6q-4 2 -8 5t-8 3h-7h-9h-10h-8q-8 -4 -12 -7t-8 -5q-4 -6 -7 -10t-5 -8q-4 -6 -4 -12v-8
q0 -8 2 -14l3 -9t1 -7q2 -2 5 -4t5 -6q4 -2 6 -5t6 -3q2 -2 6 -4t8 -2q2 -2 6 -2h6h10t8 2q4 0 9 2t9 4v28h-12h-2l-2 2l-3 3l-3 3l-1 1t-1 3v1v3v0h38v-52l-5 -5l-5 -5q-6 -2 -12 -2q-6 -2 -14 -2h-14h-10h-8q-6 2 -9 4l-9 6q-2 0 -7 3t-5 7q-6 2 -7 6t-3 8zM234 428v-44
h54v-14h-54v-46h66v-16h-82v136h82v-16h-66zM360 308v120h-44v16h104v-16h-46v-120h-14zM520 428v-48h58v-12h-58v-60h-16v136h82v-16h-66zM626 444v-84q0 -4 2 -7t4 -5q2 -6 5 -9t5 -7q0 -2 3 -4t5 -4q6 -2 10 -2h8h7t5 2q6 2 9 4t7 4q0 4 3 7t5 9q4 4 4 12v84h14v-84
q0 -6 -1 -10t-3 -10t-5 -10t-7 -8t-8 -7t-8 -5q-12 -2 -22 -2q-12 0 -24 2q-2 2 -7 5t-9 7q-6 6 -10 18q-2 6 -4 10t-2 10v84h14zM766 444v-120h60v-16h-76v136h16zM856 444v-120h64v-16h-78v136h14zM1044 308l-60 136h8q4 0 8 -2q2 -2 3 -2t3 -4l42 -102v-4q2 -2 2 -6v6
l1 2l1 2q6 14 12 26l12 24q4 16 10 28l12 24q0 4 2 4t2 2q2 2 3 2h5h8q-8 -16 -15 -33t-17 -33q-6 -20 -13 -36t-15 -34h-14zM1144 428v-44h56v-14h-56v-46h66v-16h-82v136h82v-16h-66zM1310 372q-2 -2 -10 -4l46 -60h-10q-2 0 -5 1l-3 1q-2 2 -4 3t-4 5l-38 50h-24v-60h-14
v136h50h5t7 -2q8 -2 14 -8q2 -4 4 -7t4 -7q2 -2 2 -7v-5v-9t-2 -5q0 -4 -2 -8t-4 -6l-4 -4t-8 -4zM1294 380q4 0 6 4q2 0 4 1t4 1l3 6t3 4q0 2 1 4t1 8l-1 2t-1 6l-3 3t-3 5q-2 0 -4 1t-4 3h-6h-36v-48h36zM1418 328q2 2 4 8q2 2 3 6t1 6q0 6 -2 10q-2 0 -3 3t-3 5t-8 4
q-4 0 -6 1l-6 3q-4 0 -8 2t-4 4q-10 0 -14 6q-4 0 -5 4t-3 6v14v9t2 7q0 6 8 10q4 4 6 5t8 3q4 0 6 1t8 1q2 0 5 -1t5 -1t4 -1l6 -3q2 0 4 -2t2 -4q4 -2 5 -4t3 -2l-4 -2q-2 -2 -8 -2h-6q-4 2 -4 4h-2h-2h-2h-3h-1h-2h-8q-8 0 -8 -2q-6 -6 -6 -8q-4 0 -4 -8q0 -6 4 -6
q0 -4 2 -6t5 -3l3 -1q4 -4 6 -4t8 -4h3t3 -2h4t4 -4h2h1h1q2 0 4 -1l2 -1q4 -4 6 -7t6 -5q2 -10 2 -18v-10t-6 -8q0 -6 -8 -12q-2 -2 -6 -4l-8 -4t-8 -2h-10q-10 0 -17 2t-13 8q-2 0 -4 2l-4 4q0 2 -1 4l-1 2l2 2l1 1t5 1h2q2 0 4 -1t4 -3q4 -2 6 -4t6 -2q0 -2 4 -2h6
q8 0 10 2q8 0 12 4zM1488 444v-136h-16v136h16zM1542 328q-12 8 -18 20q-4 14 -4 30v7v9q6 10 8 16q6 8 14 16q6 6 12 10q4 4 9 5t9 3q4 0 8 1t10 1q4 0 9 -1t11 -1q4 -2 8 -3t8 -5l5 -5t7 -5q4 -4 6 -7l6 -9q2 -6 6 -16q2 -4 3 -9t1 -7q0 -8 -2 -15t-6 -15q-2 -6 -5 -11
t-9 -9q-6 -6 -11 -9t-11 -7q-10 -4 -26 -4q-8 0 -15 1t-11 3q-16 4 -22 16zM1542 398q-4 -6 -6 -12t-2 -8q0 -4 1 -8t1 -6q2 -8 8 -16q0 -2 2 -4t4 -6l5 -5t9 -3q2 -2 5 -4t5 -2q4 -2 8 -2h8h7t7 2q2 0 6 2l8 4q2 0 5 3l5 5q2 4 4 6l4 4q2 4 3 7l3 9q0 2 1 6t1 8q0 2 -1 8
t-5 12q0 4 -4 8t-6 10q-4 2 -8 5t-10 7h-9h-11h-12h-10q-4 -4 -9 -7t-9 -5q-2 -6 -5 -10t-3 -8zM1700 308h-16v136h12h5t5 -4l70 -100q2 0 2 -4l2 -2v-2v112h16v-136h-14l-80 112v4h-2v4v-120zM1910 428v-48h56v-12h-56v-60h-14v136h82v-16h-68zM2064 372q-8 -2 -12 -4
l44 -60h-12q-4 0 -8 2q0 2 -1 3t-3 5l-38 50h-24v-60h-16v136h50h6t8 -2t7 -4t5 -4q2 -4 4 -7t6 -7q0 -2 1 -7l1 -5q0 -6 -1 -9t-1 -5l-4 -8t-2 -6zM2052 384q2 0 3 1t3 1q6 8 6 10q2 4 2 12q0 2 -2 8q0 2 -6 8q-2 0 -3 1l-3 3h-8h-34v-48h34q4 0 8 4zM2228 328
q-4 -6 -10 -9t-12 -7q-6 -2 -12 -3t-14 -1t-15 1t-13 3q-12 4 -22 16q-4 4 -8 9t-6 11q-2 8 -5 15t-3 15q0 2 1 7t3 9t3 9t3 7q4 6 7 9t5 7q4 2 8 5t8 5q4 4 8 5t8 3q6 0 9 1t9 1q4 0 9 -1t9 -1l9 -3t7 -5q4 -2 8 -5t6 -5q2 -4 5 -7t5 -9q6 -6 8 -16q2 -4 3 -9t1 -7
q0 -8 -1 -15t-5 -15q-2 -6 -6 -11t-10 -9zM2180 322h7t9 2q2 0 5 2t5 4q2 0 6 3t8 5l3 6t3 4q2 4 3 7t1 9q2 2 2 6v8q0 2 -1 8t-1 12q-2 4 -5 8t-5 10q-6 2 -11 5t-9 7h-10h-10h-11h-11q-6 -4 -9 -7t-7 -5q-6 -6 -8 -10l-4 -8q-2 -6 -2 -12v-8v-14q0 -6 1 -9t5 -7q0 -2 3 -4
t5 -6l5 -5t5 -3q2 -2 5 -4t9 -2q2 -2 6 -2h8zM2402 442q2 2 3 2h3h12v-136h-14v112l-2 -2v0v-2q-4 -8 -6 -17t-6 -15t-7 -12l-7 -14q-2 -8 -4 -14l-4 -12q-4 -6 -7 -11t-5 -13h-14q-10 12 -15 26t-11 26q-4 14 -11 28t-11 28v2l-4 2v-112h-16v136h14q6 0 8 -2l2 -2v-4
l48 -106q0 -2 2 -2v-4q0 2 1 4t1 4q0 4 4 8l42 96q0 4 1 4t3 2zM72 256h154v-20v-4v-4q0 -4 -2 -6l-4 -4l-104 -142h2v2h4h2h102v-36h-162v12q0 10 2 12q0 2 4 8q2 2 2 4t2 4t3 4l3 6l92 126h-100v38zM254 256h136v-38h-98v-48h78v-40h-78v-52h98v-36h-136v214zM558 218h-58
v-176h-42v176h-62v38h162v-38zM656 256l92 -214h-24q-8 0 -16 4q-4 2 -5 6t-5 8l-12 28h-98l-10 -28q-2 -4 -3 -5t-3 -1q0 -4 -1 -5t-5 -3q-2 0 -4 -1t-4 -1q0 -2 -2 -2h-4h-24l92 214h36zM668 126l-26 66q0 2 -1 3t-1 3q0 4 -2 6v-6q0 -2 -2 -3t-2 -3l-26 -66h60zM756 256
h136v-38h-98v-54h80v-38h-80v-84h-38v214zM1106 202q4 -6 6 -12t6 -12q2 -8 2 -15v-13v-16t-2 -14q-4 -6 -6 -13t-6 -13q-4 -4 -8 -10l-8 -12q-8 -4 -12 -9t-10 -7q-6 -6 -13 -8t-13 -4q-8 -2 -15 -3t-15 -1q-10 0 -21 3t-21 5q-12 6 -19 12t-17 12q-14 16 -20 34
q-6 12 -8 22t-2 22q0 6 1 13t3 15q4 16 12 24q4 8 7 13t7 11q8 4 13 8t11 8t12 6t14 6q6 0 13 1t15 1t15 -1t15 -1q6 -4 13 -6t13 -6t10 -8t12 -8q4 -6 8 -11t8 -13zM1078 124q2 6 3 12t1 14q0 12 -4 24q-4 10 -8 15t-10 9q-4 4 -9 8t-11 6q-12 6 -28 6t-28 -6q-4 -2 -9 -6
t-11 -8t-9 -9t-7 -15q-4 -4 -4 -11v-13v-14t4 -12l7 -14t9 -10t11 -8t9 -8q8 -2 14 -4t14 -2t14 2t14 4q6 4 11 8t9 8q6 4 10 10t8 14zM1298 256h38v-214h-36l-100 144q-2 0 -2 1t-2 3q-2 4 -2 6q-4 0 -4 4l-1 1l-3 3v-162h-38v214h34q4 0 8 -1t4 -3l6 -3t4 -3
q10 -16 21 -31t21 -33q12 -14 23 -29t25 -29q0 -4 1 -6t1 -6q0 -2 1 -4t1 -4v152zM1356 256h162v-38h-64v-176h-38v176h-60v38zM1650 146q2 -4 5 -8t5 -8q0 -4 2 -9t2 -13q0 -12 -6 -26l-8 -12t-8 -10q-8 -4 -12 -8t-12 -6t-15 -4t-13 -2q-8 0 -15 2t-17 4q-6 2 -11 6
t-13 12q-4 2 -6 5t-4 7q-4 2 -4 12l1 1l3 3q2 0 2 1t2 1t4 1l2 1h10h3t3 -2q6 0 10 -2q4 -4 8 -6t6 -4q2 0 6 -2t10 -2q2 0 5 1t7 3q6 2 12 6l8 8q2 4 4 6t2 6q0 8 -6 12q-4 6 -8 6q-4 4 -7 5t-5 1q-6 2 -16 8q-4 0 -9 1t-9 5q-8 2 -12 5t-8 7q-6 4 -9 8t-5 8q-6 12 -6 24
q0 18 6 26q2 6 6 10t10 8q4 4 9 6t13 6q4 0 10 1t14 1q4 0 8 -1t10 -1q4 -2 7 -4t9 -4q2 -2 6 -5t8 -7l5 -5t5 -7l-8 -4q-2 -2 -5 -4t-3 -4h-8h-4h-4h-2q-6 0 -6 2l-8 4q-2 0 -3 1l-1 1h-6h-12q-4 0 -5 -1t-5 -3q-2 -2 -4 -8q-2 -2 -2 -8t2 -6q2 -2 3 -4t1 -6q4 0 7 -1t5 -1
q6 -2 11 -4t7 -4l10 -2q4 -4 9 -5t11 -7q10 -2 16 -12zM1714 78q6 0 6 -6q2 0 2 -3v-5q0 -6 -2 -10q0 -4 -6 -8q-4 0 -6 -4q-2 0 -4 -1t-6 -1q-2 0 -4 1t-4 1q-2 2 -4 3t-4 1q-2 2 -3 4t-3 4q-2 4 -2 10v5t2 3q2 4 3 5t3 1q6 6 8 6q2 2 4 3t4 1q4 0 6 -1t4 -3q2 0 6 -6z
M1796 198q-8 -8 -16 -24q-2 -4 -4 -11t-2 -13q0 -8 2 -14l4 -12l7 -14t9 -10q4 -4 9 -8t13 -8q8 -2 14 -4t14 -2q6 0 10 2t10 2q4 2 9 5t9 7q4 0 8 2h6h6t6 -2q6 -2 10 -6l6 -10q-6 -8 -16 -14q-6 -4 -10 -7t-10 -5q-6 -4 -11 -5t-11 -3t-11 -3t-11 -1q-14 0 -24 3t-20 5
q-20 10 -34 24q-16 16 -24 34q-2 12 -5 22t-3 22q0 6 1 13t3 15l4 12t6 12q6 8 9 13t9 11q6 4 11 8t13 8q4 4 10 6t16 6q4 0 12 1t16 1h11t11 -2t11 -4t11 -4t10 -5t10 -7q10 -8 16 -16l-6 -8l-5 -5t-5 -3h-7h-5h-7t-7 2q-4 4 -9 7t-9 5q-6 2 -10 2h-10q-16 0 -28 -6
q-8 -2 -13 -6t-9 -8zM2144 202q2 -6 5 -12t5 -12q2 -8 2 -15v-13v-16t-2 -14t-5 -13t-5 -13q-8 -10 -16 -22q-8 -4 -14 -9t-10 -7q-6 -6 -13 -8t-15 -4q-6 -2 -13 -3t-15 -1q-20 0 -42 8q-8 6 -17 12t-15 12q-8 8 -14 16t-10 18q-4 12 -6 22t-2 22q0 6 1 13t1 15q2 6 6 12
t6 12q4 8 8 13t10 11q4 4 10 8l12 8q4 4 11 6t13 6q8 0 15 1t13 1q8 0 15 -1t13 -1q8 -4 15 -6t13 -6q4 -4 10 -8t14 -8q2 -6 8 -11t8 -13zM2114 124q4 10 4 26q0 6 -1 13t-3 11q-4 10 -7 15t-7 9q-10 10 -24 14q-6 4 -13 5t-15 1q-14 0 -26 -6q-6 -2 -11 -6t-11 -8
q-4 -4 -8 -9t-8 -15q-2 -4 -3 -11t-1 -13q0 -8 1 -14t3 -12q8 -16 16 -24q6 -4 11 -8t11 -8q6 -2 14 -4t12 -2q8 0 15 2t13 4q6 4 13 8t11 8q8 8 14 24zM2376 254l1 1t5 1h38v-214h-38v156q0 -2 -1 -4l-3 -6v-6t-2 -4q-6 -18 -14 -35t-14 -33t-13 -33t-13 -35h-38l-54 136
q-2 2 -2 10q-2 4 -3 5t-1 3v-154h-40v214h38q4 0 6 -1l2 -1q4 -2 5 -2t3 -2l6 -4l4 -4t2 -4q4 -16 11 -31t13 -33q6 -16 13 -32t13 -32v-2v-4v-4q4 0 4 -4v4v4q0 2 1 4l1 2l8 16l44 112q0 2 1 4t1 4q2 2 5 3l3 1q2 2 4 2t4 2z" />
    <glyph glyph-name="A" unicode="A" horiz-adv-x="1161" 
d="M889 271h-615l-93 -219q-7 -17 -19.5 -29t-28.5 -18t-33.5 -5.5t-34.5 8.5q-34 14 -44.5 46.5t4.5 66.5l477 1106q11 26 31.5 39.5t47.5 13.5q26 0 46.5 -13.5t31.5 -38.5l478 -1107q15 -33 5 -66t-43 -47q-34 -15 -67.5 -2.5t-49.5 46.5zM343 443h475l-236 561z" />
    <glyph glyph-name="B" unicode="B" horiz-adv-x="1132" 
d="M218 0q-36 0 -61.5 24.5t-25.5 60.5v1110q0 36 25.5 60.5t61.5 24.5h3h457q71 0 133.5 -27t109 -74t73 -110t26.5 -134q0 -74 -28.5 -139.5t-77.5 -115.5q72 -52 115 -132t43 -176q0 -79 -30 -147t-81.5 -118t-121.5 -78.5t-150 -28.5h-471zM304 580v-407h379
q46 0 85.5 17t68.5 46.5t46 67.5t17 80q0 43 -17 79.5t-46.5 62t-69.5 40t-85 14.5h-378zM304 1107v-354h369q37 1 69 16t55 39.5t36.5 55.5t13.5 66t-14 67t-38.5 56.5t-57 39t-69.5 14.5h-364z" />
    <glyph glyph-name="C" unicode="C" horiz-adv-x="1261" 
d="M1169 1096q25 -25 25 -59.5t-25 -60.5q-25 -25 -61 -25.5t-61 24.5q-72 72 -159.5 107t-180.5 35q-98 0 -185 -37.5t-151.5 -102t-102 -151.5t-37.5 -187q0 -96 36 -182.5t99 -152.5t149.5 -105t188.5 -39q94 -1 180 32.5t161 106.5q12 12 28 18t32.5 6t32.5 -5.5
t28 -17.5q13 -12 19 -28.5t6 -33t-6 -32t-18 -27.5q-98 -98 -217 -145t-247 -47q-89 0 -171.5 23.5t-154 65.5t-130.5 101.5t-101 132t-65 155t-23 172.5q0 86 22 167.5t62.5 154t98.5 133.5t130.5 105t157 68.5t179.5 24.5q126 0 245 -48.5t216 -145.5z" />
    <glyph glyph-name="D" unicode="D" horiz-adv-x="1282" 
d="M221 1280h355q88 0 170.5 -23t155 -65t132 -101t102 -130.5t66 -153.5t23.5 -170t-23.5 -169.5t-66 -152t-102 -129t-132 -100t-155 -64t-170.5 -22.5h-355h-3q-36 0 -61.5 24.5t-25.5 60.5v1110q0 36 25.5 60.5t61.5 24.5h3zM304 1107v-934h275q101 0 187.5 38.5
t150 102.5t99.5 148t36 174q0 91 -36 176t-99.5 150.5t-150 105t-186.5 39.5h-276z" />
    <glyph glyph-name="E" unicode="E" horiz-adv-x="1099" 
d="M211 0q-35 3 -57.5 27.5t-22.5 59.5v1107q0 37 26 61.5t62 24.5h728q36 0 60.5 -25t24.5 -61t-24.5 -61.5t-60.5 -25.5h-643v-365h496q18 0 33.5 -7t27.5 -19t18.5 -27.5t6.5 -33.5q0 -36 -25 -60.5t-61 -24.5h-496v-397h643q18 0 33.5 -7t27 -19t18 -27.5t6.5 -33.5
q0 -37 -24.5 -62t-60.5 -24h-736z" />
    <glyph glyph-name="F" unicode="F" horiz-adv-x="1019" 
d="M910 1280q36 0 60.5 -25t24.5 -61q0 -37 -24.5 -62t-60.5 -25h-606v-428h465q37 0 62 -26.5t25 -62.5t-25 -60t-62 -24h-465v-421q0 -36 -25.5 -60.5t-60.5 -24.5q-18 0 -34 6.5t-28 18t-18.5 27t-6.5 33.5v1112q1 14 5.5 28.5t15 26.5t26.5 20t40 8h692z" />
    <glyph glyph-name="G" unicode="G" horiz-adv-x="1314" 
d="M1169 1096q26 -25 25.5 -60t-25.5 -60t-60.5 -26t-61.5 25q-72 70 -160 106t-182 36q-96 0 -182 -37t-151.5 -101.5t-103.5 -152t-38 -188.5q0 -96 36 -182.5t99.5 -152t150 -104.5t186.5 -39q88 0 170.5 26.5t154.5 88.5v183h-199q-18 0 -33.5 7t-27 19t-18 27.5
t-6.5 33.5q0 35 25 60t60 25h284q36 0 62 -24t26 -61v-306q0 -22 -8 -37t-21 -29q-108 -98 -227.5 -142t-246.5 -43q-87 0 -168 23.5t-152 65.5t-129.5 101.5t-101 131.5t-65.5 154.5t-23 172.5q0 89 22.5 172t64 155.5t100 132.5t130.5 103t155 66.5t174 23.5
q133 0 250.5 -49t214.5 -145z" />
    <glyph glyph-name="H" unicode="H" horiz-adv-x="1345" 
d="M304 724h737v471q0 18 7 33.5t19 27t27.5 18t33.5 6.5q36 0 60.5 -24.5t24.5 -60.5v-1110q0 -36 -25 -60.5t-61 -24.5t-61 24.5t-25 60.5v467h-737v-467q0 -36 -25.5 -60.5t-60.5 -24.5q-36 0 -61.5 24.5t-25.5 60.5v1110q0 36 25.5 60.5t61.5 24.5q35 0 60.5 -24.5
t25.5 -60.5v-471z" />
    <glyph glyph-name="I" unicode="I" horiz-adv-x="436" 
d="M304 85q0 -36 -25.5 -60.5t-60.5 -24.5q-36 0 -61.5 24.5t-25.5 60.5v1110q0 36 25.5 60.5t61.5 24.5q35 0 60.5 -24.5t25.5 -60.5v-1110z" />
    <glyph glyph-name="J" unicode="J" horiz-adv-x="436" 
d="M-119 -351q-45 0 -67.5 26t-23 58t21.5 59t66 29q54 1 100.5 22t80 56t53 81t19.5 99v1112q0 38 25 63.5t62 25.5t62 -25.5t25 -63.5v-1117q0 -89 -33 -166t-90.5 -135t-135 -91t-165.5 -33z" />
    <glyph glyph-name="K" unicode="K" horiz-adv-x="1193" 
d="M304 613l685 642q27 26 62 24.5t61 -27.5q12 -13 17.5 -29t4 -32.5t-9 -32.5t-20.5 -29l-496 -463l512 -518q26 -27 25.5 -62.5t-26.5 -60.5t-59 -25t-58 26l-518 524l-180 -168v-297q0 -36 -25.5 -60.5t-60.5 -24.5q-36 0 -61.5 24.5t-25.5 60.5v1110q0 36 25.5 60.5
t61.5 24.5q35 0 60.5 -24.5t25.5 -60.5v-582z" />
    <glyph glyph-name="L" unicode="L" horiz-adv-x="1040" 
d="M304 173l610 -1q18 0 33.5 -7t27.5 -18.5t18.5 -27t6.5 -33.5t-6.5 -34t-18.5 -27.5t-27.5 -18t-33.5 -6.5h-693h-3h-11q-32 4 -54 27.5t-22 57.5v1109q0 37 25.5 61.5t61.5 24.5q18 0 33.5 -6.5t27 -18t18.5 -27.5t7 -34v-1021z" />
    <glyph glyph-name="M" unicode="M" horiz-adv-x="1478" 
d="M304 963v-878q0 -36 -25.5 -60.5t-60.5 -24.5q-36 0 -61.5 24.5t-25.5 60.5v1110q0 36 25.5 60.5t61.5 24.5h3q34 -2 59 -25l459 -556l459 556q21 19 48 24q2 0 5 0.5t5 0.5q9 0 14 -1q32 -4 54 -27.5t22 -56.5v-1110q0 -36 -25.5 -60.5t-61.5 -24.5q-35 0 -60.5 24.5
t-25.5 60.5v877l-368 -445l-8 -10q-15 -15 -28 -20q-41 -18 -77 11l-9 8z" />
    <glyph glyph-name="N" unicode="N" horiz-adv-x="1339" 
d="M1204 85q0 -23 -10.5 -42t-28.5 -30q-15 -11 -35 -12q-1 0 -2 -0.5t-2 -0.5h-5h-3h-1q-38 1 -60 32l-4 5l-749 922v-874q0 -36 -25.5 -60.5t-60.5 -24.5q-36 0 -61.5 24.5t-25.5 60.5v1107q0 37 25 60q11 13 26 20.5t36 7.5q40 0 69 -33l745 -918v866q0 18 7 33.5
t18.5 27t27.5 18t34 6.5q37 0 61 -25t24 -60v-1110z" />
    <glyph glyph-name="O" unicode="O" horiz-adv-x="1441" 
d="M719 1290q90 0 173 -23.5t155.5 -65.5t132 -102t102 -132t66 -155.5t23.5 -173.5q0 -135 -51.5 -253t-140 -206.5t-207 -139.5t-253.5 -51q-90 0 -173.5 23t-155.5 65.5t-131 102t-101 131.5t-65 155t-23 173t23 173.5t65 155.5t101 132t131 102t155.5 65.5t173.5 23.5z
M720 1117q-100 0 -187 -37.5t-151.5 -103t-101.5 -152.5t-37 -186q0 -100 37 -187t101.5 -151.5t151.5 -102t187 -37.5q99 0 186.5 37.5t152 102t102 151.5t37.5 187q0 99 -37.5 186t-102 152.5t-152 103t-186.5 37.5z" />
    <glyph glyph-name="P" unicode="P" horiz-adv-x="1113" 
d="M585 1280q99 0 184.5 -37t149.5 -100.5t100.5 -149.5t36.5 -183t-37 -182t-100.5 -148.5t-149.5 -100t-184 -36.5h-281v-258q0 -36 -25.5 -60.5t-60.5 -24.5q-18 0 -34 6.5t-28 18t-18.5 27t-6.5 33.5v1109q0 36 25.5 61t61.5 25h367zM304 1107v-591h283q64 0 118.5 24.5
t94 65t61.5 93.5t22 111q0 57 -22.5 110.5t-61.5 95t-93 66.5t-117 25h-285z" />
    <glyph glyph-name="Q" unicode="Q" horiz-adv-x="1441" 
d="M719 1290q90 0 173 -23.5t155.5 -65.5t132 -102t102 -132t66 -155.5t23.5 -173.5q0 -123 -43.5 -233t-119.5 -196t-179 -142.5t-222 -72.5v-160q0 -18 -7 -33.5t-18.5 -27t-27 -18t-33.5 -6.5t-34 6.5t-27.5 18t-18.5 27t-7 33.5v160q-120 15 -223 71t-179 142
t-119 196.5t-43 234.5q0 90 23 173.5t65 155.5t101 132t131 102t155.5 65.5t173.5 23.5zM720 1117q-100 0 -187 -37.5t-151.5 -103t-101.5 -152.5t-37 -186q0 -89 29.5 -168t82 -141.5t124 -104.5t155.5 -57v124q0 36 25.5 61t61.5 25q18 0 33.5 -6.5t27 -18.5t18.5 -27.5
t7 -33.5v-124q84 15 155.5 57.5t124 105t82 141t29.5 167.5q0 99 -37.5 186t-102 152.5t-152 103t-186.5 37.5z" />
    <glyph glyph-name="R" unicode="R" horiz-adv-x="1131" 
d="M221 1280h364q97 0 183 -35t150 -96t101 -145t37 -181q0 -70 -19.5 -132t-54.5 -113.5t-84 -91.5t-108 -66l218 -272q13 -13 19.5 -29.5t6 -33t-7.5 -32.5t-20 -28q-26 -25 -57 -24.5t-57 25.5l-290 352h-18h-280v-293q0 -36 -25.5 -60.5t-60.5 -24.5q-36 0 -61.5 24.5
t-25.5 60.5v1109q0 36 25.5 61t61.5 25h3zM304 1107v-557h282q63 0 117.5 21.5t94.5 58t62.5 86.5t22.5 107q0 58 -22.5 109.5t-62.5 90.5t-93.5 61.5t-115.5 22.5h-285z" />
    <glyph glyph-name="S" unicode="S" horiz-adv-x="1003" 
d="M501 572q-84 17 -159 45.5t-132 72t-90 103t-33 139.5q0 81 34.5 147t91.5 113t131 72.5t152 25.5q58 0 114.5 -12t105.5 -35.5t89.5 -58.5t67.5 -81q14 -25 7 -50.5t-23 -40.5q-18 -17 -48.5 -21t-59.5 17q-28 29 -55 50t-57 34t-63.5 19t-75.5 6q-45 0 -88 -12.5
t-76.5 -36t-54 -57.5t-20.5 -78q0 -48 25.5 -79.5t67 -53t94.5 -35.5t107 -27q72 -20 140.5 -48t121.5 -70t85.5 -101t32.5 -141q0 -86 -34.5 -157.5t-94 -123t-139.5 -80.5t-171 -29q-73 0 -140.5 19t-124 52t-99 78t-65.5 96q-20 43 -7 73.5t41 44.5q32 17 61 7t58 -48
q41 -70 115.5 -110t168.5 -40q47 0 93.5 13.5t83 40t59.5 65.5t23 90q0 50 -23 83t-60 55t-83.5 36.5t-93.5 28.5z" />
    <glyph glyph-name="T" unicode="T" horiz-adv-x="1059" 
d="M613 1107v-1022q0 -18 -6.5 -33.5t-18.5 -27t-28 -18t-34 -6.5q-35 0 -60 25t-25 60v1022h-337q-18 0 -33.5 7t-27 19t-18 27.5t-6.5 33.5q0 36 25 61t60 25h846q36 0 61 -25.5t25 -61.5t-25 -61t-61 -25h-337z" />
    <glyph glyph-name="U" unicode="U" horiz-adv-x="1330" 
d="M1062 1195q0 36 25.5 60.5t60.5 24.5q37 0 62 -24.5t25 -60.5v-643q0 -116 -44 -219t-120.5 -179.5t-179 -121t-219.5 -44.5t-222 44.5t-184 121t-125 179.5t-46 219v640q0 37 25.5 62t61.5 25q18 0 33.5 -6.5t27 -18.5t18.5 -28t7 -34v-640q0 -83 33 -154.5t88.5 -124
t129 -83t154.5 -30.5t152 30.5t123.5 84t83 125t30.5 153.5v2v4v636v0z" />
    <glyph glyph-name="V" unicode="V" horiz-adv-x="1143" 
d="M17 1161q-8 16 -7.5 33.5t7 32.5t18.5 27t29 19q32 13 64 0t46 -46l398 -927l397 927q14 32 46 45.5t65 0.5q33 -14 46.5 -46t-0.5 -66l-475 -1108q-11 -26 -35 -40.5t-51 -12.5q-23 2 -42.5 15.5t-30.5 37.5z" />
    <glyph glyph-name="W" unicode="W" horiz-adv-x="1698" 
d="M943 721l181 -423l400 929q14 34 45.5 47t64.5 0q34 -14 48 -46t0 -66l-477 -1108q-11 -25 -31.5 -39t-45.5 -15q-26 -2 -50.5 12.5t-35.5 41.5l-193 449l-193 -449q-11 -25 -32 -39t-46 -15q-26 -2 -50 12t-36 42l-476 1108q-14 33 0 65.5t48 46.5q32 13 63.5 0
t46.5 -47l399 -928l400 928q14 33 47 47t66 0t46.5 -46t-0.5 -67z" />
    <glyph glyph-name="X" unicode="X" horiz-adv-x="1204" 
d="M602 765l421 484q23 26 55.5 29t59.5 -21q13 -12 20 -27.5t8.5 -32.5t-4 -33.5t-17.5 -29.5l-432 -497l430 -493q13 -14 19 -30.5t6 -33t-6.5 -31.5t-19.5 -27q-28 -25 -63 -22.5t-59 28.5l-419 480l-416 -480q-24 -26 -59 -28.5t-63 22.5q-13 12 -19.5 27t-6.5 31.5
t6 33t19 30.5l428 492l-435 499q-12 13 -17.5 30t-4 33.5t9 32t20.5 27.5q27 24 59.5 21t56.5 -29z" />
    <glyph glyph-name="Y" unicode="Y" horiz-adv-x="1131" 
d="M567 700l418 551q11 13 26 20.5t31 8.5t32 -4t29 -17q26 -21 31.5 -55t-20.5 -69l-460 -587v-463q0 -36 -25.5 -60.5t-60.5 -24.5q-36 0 -61.5 24.5t-25.5 60.5v463l-464 586q-23 27 -21 63t30 60q13 12 30 17.5t33.5 4.5t32 -8.5t26.5 -21.5z" />
    <glyph glyph-name="Z" unicode="Z" horiz-adv-x="1174" 
d="M136 0q-17 -2 -33.5 3t-30.5 18q-1 0 -1 1q-14 13 -22 29.5t-7 34.5q0 36 28.5 61.5t84.5 25.5h155l-118 -143q-24 -27 -56 -30h-8q-32 0 -56 21q-1 0 -1 1q-29 26 -29 64q1 15 6 30t16 28l796 963h-714q-36 0 -61 25.5t-25 61.5q0 18 7 33.5t19 27t28 18.5t34 7h888
q26 -2 43 -13q4 -2 7.5 -4.5t7.5 -5.5q13 -12 20.5 -27t8.5 -31.5t-4 -33t-17 -30.5l-792 -962h739q36 0 60.5 -25.5t24.5 -61.5q0 -35 -24.5 -60.5t-60.5 -25.5h-913z" />
    <glyph glyph-name="bracketleft" unicode="[" horiz-adv-x="549" 
d="M208 -325q-37 0 -62 26t-25 63v4v1421v2q0 37 25 63t62 26h240q37 0 62.5 -26.5t25.5 -63.5q0 -38 -25.5 -60.5t-62.5 -22.5h-155v-1260h157q37 0 62 -23t25 -60t-25 -63t-62 -26h-242z" />
    <glyph glyph-name="backslash" unicode="\" horiz-adv-x="555" 
d="M-25 1154q-6 17 -4.5 36t9 35.5t20 29.5t29.5 19q35 11 67.5 -5t45.5 -51l354 -1102q11 -35 -5.5 -67t-50.5 -44q-35 -10 -66.5 6.5t-43.5 51.5z" />
    <glyph glyph-name="bracketright" unicode="]" horiz-adv-x="549" 
d="M57 -326q-37 0 -62 26t-25 63t25 60.5t62 23.5h157v1260h-155q-37 0 -62.5 22.5t-25.5 59.5t25.5 64t62.5 27h240q37 0 62 -26t25 -63v-3v-1v-1420v-2v-2q0 -37 -25 -63t-62 -26h-242z" />
    <glyph glyph-name="asciicircum" unicode="^" horiz-adv-x="1131" 
d="M491 1209q16 23 40 27q20 6 41 -0.5t35 -25.5l443 -630q17 -24 13 -53t-28 -47q-23 -17 -52 -13t-47 29l-387 549l-387 -549q-16 -24 -45.5 -29.5t-53.5 12.5q-12 9 -19.5 21t-9.5 25t1 26.5t12 24.5z" />
    <glyph glyph-name="underscore" unicode="_" horiz-adv-x="1026" 
d="M878 -4q40 0 67.5 -23.5t27.5 -61.5t-27.5 -63t-67.5 -25h-736q-39 0 -65.5 25t-26.5 63t26.5 61.5t65.5 23.5h736z" />
    <glyph glyph-name="grave" unicode="`" horiz-adv-x="479" 
d="M243.013 1457q12.999 -14 29.498 -20.5t32.998 -6.5t31.998 6.5t27.498 19.5q12.999 13 19.999 29q6.99902 16 6.99902 32.5t-6.49902 32.5q-6.5 16 -20.499 29l-143.991 146q-12.999 13 -29.498 19.5t-32.998 6.5t-32.498 -6.5t-28.998 -18.5q-12.999 -13 -19.499 -29
t-6.5 -32.5t6.5 -32t19.499 -28.5z" />
    <glyph glyph-name="a" unicode="a" horiz-adv-x="1107" 
d="M50 465q0 99 37.5 186t102.5 151.5t152 102t185 37.5t184 -37t150.5 -101t102.5 -150t39 -184v-5v-376q0 -37 -25.5 -63t-63.5 -26q-37 0 -60.5 26t-23.5 63l-1 21q-62 -55 -138.5 -88.5t-163.5 -33.5q-98 0 -185 37.5t-152 102.5t-102.5 151.5t-37.5 185.5zM222 465
q0 -62 24 -117.5t65 -97t97 -66t119 -24.5q64 0 119 24.5t96 66t64.5 97t23.5 117.5q0 63 -23.5 118.5t-64.5 96.5t-96 65t-119 24q-63 0 -118.5 -24t-97 -65t-65.5 -96.5t-24 -118.5z" />
    <glyph glyph-name="b" unicode="b" horiz-adv-x="1120" 
d="M118 466v733q0 38 25 64t62 26t61 -26t24 -64v-368q63 52 140 81.5t165 29.5q99 0 185.5 -37.5t151 -102t102 -151.5t37.5 -186q0 -98 -37.5 -185t-102 -152t-151 -102.5t-185.5 -37.5q-98 0 -185 37.5t-152 102.5t-102.5 152t-37.5 185v1zM290 465q0 -62 24 -117.5
t65 -97t97 -66t119 -24.5q64 0 119 24.5t96 66t64.5 97t23.5 117.5q0 63 -23.5 118.5t-64.5 97t-96 65t-119 23.5q-63 0 -119 -23.5t-97 -65t-65 -97t-24 -118.5z" />
    <glyph glyph-name="c" unicode="c" horiz-adv-x="950" 
d="M222 468l-2 -2q0 -1 1 -2q0 -1 1 -1q0 -57 22.5 -110.5t62 -96t92.5 -68.5t115 -27q57 -1 107.5 16.5t98.5 58.5q13 10 28 20t32.5 14t36.5 -0.5t40 -22.5q28 -25 27.5 -62.5t-31.5 -68.5q-60 -62 -145.5 -95t-178.5 -33q-99 0 -186 36.5t-152.5 100.5t-103 150
t-37.5 185l2 4l-2 2q0 99 37.5 186t103 151.5t152.5 101.5t186 37q94 0 179 -31.5t145 -93.5q31 -31 32 -69t-28 -63q-21 -18 -40 -22.5t-36.5 -0.5t-32.5 14t-28 21q-47 40 -98 57t-108 15q-61 -1 -114 -26.5t-92.5 -67.5t-62.5 -96t-23 -111z" />
    <glyph glyph-name="d" unicode="d" horiz-adv-x="1120" 
d="M1003 466v-1v-3v-2q-1 -98 -39.5 -183.5t-103 -150t-151 -101.5t-183.5 -37q-99 0 -186 37.5t-151.5 102.5t-101.5 152t-37 185q0 99 37 186t101.5 151.5t151.5 102t186 37.5q87 0 164 -29.5t140 -80.5v367q0 38 24 64t62 26q36 0 61.5 -26t25.5 -64v-733zM830 465
q0 63 -24 118.5t-65 97t-96.5 65t-118.5 23.5q-64 0 -119.5 -23.5t-96.5 -65t-64.5 -97t-23.5 -118.5q0 -62 23.5 -117.5t64.5 -97t96.5 -66t119.5 -24.5q63 0 118.5 24.5t96.5 66t65 97t24 117.5z" />
    <glyph glyph-name="e" unicode="e" horiz-adv-x="1050" 
d="M242 387q10 -50 36.5 -91.5t64 -71.5t85 -47t100.5 -17q63 0 116.5 21t88.5 60q24 17 45.5 20.5t41.5 -3.5q13 -5 23 -14.5t18 -21.5q16 -25 14.5 -57t-32.5 -58q-24 -24 -55 -46t-70 -38t-86 -25.5t-104 -9.5q-99 0 -186 37.5t-152 102t-102.5 151.5t-37.5 186t37.5 186
t102.5 151.5t152 102t186 37.5q98 0 184.5 -37t151.5 -101t103.5 -150.5t39.5 -184.5q0 -36 -23.5 -59t-61.5 -23h-680zM829 531q-9 53 -35.5 96.5t-66 75t-89.5 49t-107 17.5t-106.5 -18t-88.5 -49.5t-64.5 -75t-34.5 -95.5h592z" />
    <glyph glyph-name="f" unicode="f" horiz-adv-x="593" 
d="M347 973v-140h98q37 0 62 -25t25 -61q0 -37 -25 -62t-62 -25h-98v-572q0 -19 -7 -35t-18.5 -28t-27 -18.5t-33.5 -6.5t-33.5 6.5t-27.5 18.5t-19 28t-7 35v572h-73q-36 0 -61 25.5t-25 61.5t25 61t61 25h73v143q0 36 26 61t63 25q35 0 58.5 -24t25.5 -59v-3v-3l-173 -1
q0 65 24 122.5t66 101t99 68.5t122 25q1 0 1 -4q0 -2 -1 -3l2 -162v-2q0 -2 -2 -2h-4q-35 2 -58.5 26t-23.5 59q0 37 25 62.5t61 25.5q37 0 62.5 -25t25.5 -63q0 -18 -7 -33.5t-19 -27t-28 -18t-34 -6.5h-4q-28 -1 -52 -12t-42 -30t-28.5 -43.5t-11.5 -51.5v-3v-3z" />
    <glyph glyph-name="g" unicode="g" horiz-adv-x="1067" 
d="M50 465q0 99 37.5 186t102.5 151.5t152 102t185 37.5q99 0 185.5 -37.5t151 -102t102 -151.5t37.5 -186q0 -75 -22 -142.5t-60 -124.5q36 -40 56 -96t20 -129q0 -87 -28.5 -152t-76.5 -109t-109.5 -66t-127.5 -22q-23 0 -46.5 2.5t-48 5t-48.5 3.5t-46 -1
q-25 -3 -52.5 -12.5t-51.5 -28.5q-18 -16 -40 -18.5t-42 5t-35.5 23t-22 35.5t-1.5 42.5t27 44.5q23 21 60.5 37.5t74.5 24.5q55 12 105.5 11t106.5 -1q230 0 230 174q0 42 -9.5 64.5t-19.5 36.5q-57 -40 -125.5 -62t-143.5 -22q-98 0 -185 37.5t-152 102.5t-102.5 151.5
t-37.5 185.5zM222 465q0 -62 24 -117.5t65 -96.5t97 -65t119 -24q64 0 119 24t96 65t64.5 96.5t23.5 117.5q0 63 -23.5 118.5t-64.5 96.5t-96 65t-119 24q-63 0 -118.5 -24t-97 -65t-65.5 -96.5t-24 -118.5z" />
    <glyph glyph-name="h" unicode="h" horiz-adv-x="1105" 
d="M1007 475v-390q0 -36 -25 -60.5t-61 -24.5q-35 0 -60.5 24.5t-25.5 60.5v393v1v3q0 60 -19 112.5t-53.5 91t-83 61t-108.5 22.5q-58 0 -108 -20t-87.5 -56t-60 -85.5t-24.5 -107.5v-414q0 -18 -6.5 -33.5t-18.5 -27t-27.5 -18.5t-33.5 -7t-34 7t-27.5 18.5t-18.5 27
t-7 33.5v1115q0 18 7 34t19 28t27.5 19t33.5 7q36 0 61 -25.5t25 -62.5v-379q57 55 128 87.5t152 32.5q95 0 175 -36.5t138 -99t90.5 -146t32.5 -178.5v-1v-3v-3z" />
    <glyph glyph-name="i" unicode="i" horiz-adv-x="421" 
d="M112 1144q0 42 28.5 70t69.5 28q42 0 70.5 -28t28.5 -70q0 -20 -7.5 -37.5t-21 -31t-31.5 -21.5t-39 -8q-20 0 -38 8t-31.5 21.5t-21 31t-7.5 37.5zM297 86q0 -18 -6.5 -33.5t-18.5 -27t-27.5 -18.5t-33.5 -7t-33.5 7t-27.5 18.5t-19 27t-7 33.5v757q0 36 26 61.5
t62 25.5q37 0 61 -25.5t24 -61.5v-757z" />
    <glyph glyph-name="j" unicode="j" horiz-adv-x="421" 
d="M297 25q0 -7 -1 -11q-2 -63 -27 -117.5t-67 -95.5t-97.5 -64.5t-118.5 -23.5h-1h-6q-36 0 -61.5 25t-25.5 61q0 37 25.5 62t61.5 25h6h1q28 0 53.5 11t44.5 30t29.5 44t10.5 54v817q0 18 7 34t19 28t27.5 19t33.5 7q36 0 61 -25.5t25 -62.5v-817zM112 1135q0 21 8 39
t21.5 31.5t31.5 21t38 7.5q41 0 68.5 -28.5t27.5 -70.5q0 -20 -8 -37.5t-21.5 -31t-31.5 -21.5t-38 -8t-37.5 8t-30.5 21.5t-20.5 31t-7.5 37.5z" />
    <glyph glyph-name="k" unicode="k" horiz-adv-x="921" 
d="M520 520l344 -376q23 -25 23.5 -61t-26.5 -61q-12 -12 -27.5 -17.5t-32 -5.5t-32.5 6.5t-28 19.5l-341 381l-110 -105v-216q0 -36 -24.5 -60.5t-59.5 -24.5q-18 0 -34 6.5t-28 18t-19 27t-7 33.5v1119q0 36 26 60.5t62 24.5t60.5 -24.5t24.5 -60.5v-677l389 379
q26 25 59.5 23.5t57.5 -27.5q1 0 1 -2q24 -25 24 -59.5t-26 -58.5z" />
    <glyph glyph-name="l" unicode="l" horiz-adv-x="555" 
d="M432 173q37 0 61 -26.5t24 -62.5t-24 -60t-61 -24h-4q-68 0 -127 24t-102 66.5t-67.5 102.5t-24.5 133v876q0 37 24 62t59 25q36 0 62.5 -25t26.5 -62v-876q1 -74 42.5 -113.5t110.5 -39.5z" />
    <glyph glyph-name="m" unicode="m" horiz-adv-x="1439" 
d="M805 85q0 -36 -24.5 -60.5t-59.5 -24.5q-18 0 -34 6.5t-28 18t-19.5 27t-7.5 33.5v507v2v4q-2 37 -17 68.5t-40 54t-57.5 35.5t-68.5 13q-38 0 -71.5 -14t-59 -37.5t-40.5 -55.5t-15 -68v-509q0 -36 -24.5 -60.5t-59.5 -24.5q-18 0 -34 6.5t-28 18t-19 27t-7 33.5v507v2
q0 72 28.5 135.5t77.5 110.5t113 74.5t136 27.5q81 0 151.5 -34t120.5 -91q51 57 122 91t152 34q72 0 135 -26.5t111 -72.5t77 -107.5t32 -131.5q1 -4 1 -10v-509q0 -36 -25 -60.5t-60 -24.5q-18 0 -34 6.5t-28 18t-19 27t-7 33.5v506v3v3q-2 37 -17 69t-40.5 54.5
t-58.5 35.5t-69 13q-37 0 -70.5 -14t-58.5 -37.5t-40 -55.5t-16 -68v-4v-2v-503z" />
    <glyph glyph-name="n" unicode="n" horiz-adv-x="1071" 
d="M979 477v-393q0 -37 -24 -61t-60 -24t-62 24t-26 61v395v1q0 60 -20 112.5t-55.5 91.5t-85 62t-108.5 23q-60 0 -110 -22t-87 -60.5t-57.5 -91t-20.5 -112.5v-399q0 -37 -24 -61t-60 -24q-18 0 -34 6.5t-28 17.5t-19 27t-7 34v396v3v1q0 95 34 178.5t94 145.5t142 98
t177 36t176 -36t140 -98t92 -145.5t33 -178.5v-2v-3v-2z" />
    <glyph glyph-name="o" unicode="o" horiz-adv-x="1052" 
d="M222 465q0 -62 24 -117.5t65 -97t97 -66t119 -24.5q64 0 119 24.5t96 66t64.5 97t23.5 117.5q0 63 -23.5 118.5t-64.5 96.5t-96 65t-119 24q-63 0 -118.5 -24t-97 -65t-65.5 -96.5t-24 -118.5zM50 465q0 99 37.5 186t102.5 151.5t152 102t185 37.5q99 0 185.5 -37.5
t151 -102t102 -151.5t37.5 -186t-37.5 -185.5t-102 -151.5t-151 -102.5t-185.5 -37.5q-98 0 -185 37.5t-152 102.5t-102.5 151.5t-37.5 185.5z" />
    <glyph glyph-name="p" unicode="p" horiz-adv-x="1094" 
d="M91 465q0 99 37.5 186t102.5 151.5t152 102t185 37.5q99 0 185.5 -37.5t151 -102t102 -151.5t37.5 -186t-37.5 -185.5t-102 -151.5t-151 -102.5t-185.5 -37.5q-88 0 -165 29.5t-140 81.5v-348q0 -38 -23 -64t-61 -26q-18 0 -34 7t-28 19t-19 28.5t-7 35.5v714zM263 465
q0 -62 24 -117.5t65 -97t97 -66t119 -24.5q64 0 119 24.5t96 66t64.5 97t23.5 117.5q0 63 -23.5 118.5t-64.5 96.5t-96 65t-119 24q-63 0 -118.5 -24t-97 -65t-65.5 -96.5t-24 -118.5z" />
    <glyph glyph-name="q" unicode="q" horiz-adv-x="1093" 
d="M50 465q0 99 37.5 186t102.5 151.5t152 102t185 37.5t184 -37t150.5 -101t102.5 -150t39 -184v-5v-714q0 -38 -26 -64t-63 -26q-38 0 -61 26t-23 64v346q-63 -51 -139.5 -80t-163.5 -29q-98 0 -185 37.5t-152 102.5t-102.5 151.5t-37.5 185.5zM222 465q0 -62 24 -117.5
t65 -97t97 -65.5t119 -24q64 0 119 24t96 65.5t64.5 97t23.5 117.5q0 63 -23.5 118.5t-64.5 96.5t-96 65t-119 24q-63 0 -118.5 -24t-97 -65t-65.5 -96.5t-24 -118.5z" />
    <glyph glyph-name="r" unicode="r" horiz-adv-x="719" 
d="M594 757h-1q-66 0 -125 -25.5t-103 -69.5t-70 -103.5t-26 -127.5v-345q0 -37 -24 -61.5t-59 -24.5q-37 0 -63 24.5t-26 61.5v345q0 103 39 193.5t106.5 158.5t158 107.5t192.5 39.5h1h4q43 0 66.5 -24.5t23.5 -61.5t-26 -62t-64 -25h-4z" />
    <glyph glyph-name="s" unicode="s" horiz-adv-x="804" 
d="M334 413q-44 17 -90 38t-83.5 51.5t-61 73t-23.5 101.5q0 63 25.5 112t69 83t102 52t125.5 18q43 0 86.5 -7t82.5 -22.5t70 -39.5t49 -58q12 -26 8.5 -51t-18.5 -41q-16 -17 -39 -24t-46 4q-42 37 -82 55t-98 18q-35 0 -64.5 -5.5t-51 -18t-34 -31.5t-12.5 -46
q0 -26 14 -43.5t38 -30.5t57 -23.5t71 -22.5q61 -19 117 -42.5t98 -56.5t67 -79t25 -109q0 -59 -25.5 -110.5t-70 -89t-105.5 -59t-131 -21.5q-49 0 -100 9t-97 29.5t-84.5 52.5t-61.5 77q-20 38 -12 68.5t31.5 45.5t57.5 10.5t67 -34.5q27 -40 79.5 -66t118.5 -26
q31 0 60 8t51.5 23t35.5 35.5t13 46.5q0 27 -22.5 49.5t-56.5 40t-74.5 31.5t-75.5 25z" />
    <glyph glyph-name="t" unicode="t" horiz-adv-x="951" 
d="M276 930h392q18 0 34 -7t27.5 -19t18.5 -27.5t7 -33.5t-6.5 -33.5t-18.5 -27t-28 -18.5t-34 -7h-392v-300q0 -62 24 -116.5t65.5 -94.5t97 -63t119.5 -23q57 0 105 16.5t91 54.5q8 8 16.5 13.5t18.5 9.5q20 8 42 5t41 -20q14 -13 20 -30.5t5 -36t-9 -36.5t-22 -31
q-61 -58 -139.5 -87.5t-168.5 -29.5q-99 0 -186.5 36.5t-152 100t-102 149.5t-37.5 185v683q0 37 25.5 63t61.5 26q18 0 33.5 -7t27 -19t18 -28t6.5 -35v-212z" />
    <glyph glyph-name="u" unicode="u" horiz-adv-x="1084" 
d="M271 447q0 -59 21 -111t58.5 -91t89 -62t111.5 -23t109 23t83 63t52.5 93t18.5 113v392q0 36 26 61t62 25t60.5 -25t24.5 -61v-392q0 -96 -32 -180.5t-90 -147.5t-138 -99.5t-176 -36.5q-95 0 -178 36t-144 98.5t-96 146.5t-35 179v396q0 18 7 33.5t18.5 27.5t27 18.5
t33.5 6.5t33.5 -6.5t27.5 -18.5t19 -27.5t7 -33.5v-397z" />
    <glyph glyph-name="v" unicode="v" horiz-adv-x="882" 
d="M441 276l274 601q15 33 47.5 46.5t65.5 -1.5t46.5 -48t-2.5 -67l-350 -753q-13 -26 -34.5 -39.5t-41.5 -14.5q-32 0 -53 15.5t-32 38.5l-351 753q-16 34 -3 67.5t46 48.5t66 1.5t48 -46.5z" />
    <glyph glyph-name="w" unicode="w" horiz-adv-x="1396" 
d="M446 284l266 595q4 9 14 20.5t23.5 19.5t31.5 11t39 -5q25 -10 37.5 -25t16.5 -31.5t1 -32.5t-8 -26l-74 -168l162 -356l265 591q5 12 16 24t27 20t35.5 8.5t41.5 -10.5q15 -8 25.5 -21t15 -28t3.5 -31t-7 -29l-345 -757q-11 -23 -27 -38t-45 -15q-30 0 -53 14t-34 43
l-173 392l-174 -397q-11 -23 -32.5 -37.5t-50.5 -14.5q-4 0 -14 1.5t-21.5 7t-23 16t-19.5 27.5l-342 754q-11 22 -7.5 46t17.5 42.5t36 28.5t48 5q24 -5 40 -21t23 -31z" />
    <glyph glyph-name="x" unicode="x" horiz-adv-x="1030" 
d="M515 585l320 318q25 26 61 27t62 -25t23.5 -61.5t-27.5 -60.5l-318 -317l321 -318q25 -25 25.5 -61.5t-25.5 -61.5q-26 -26 -61 -25t-60 25l-323 321l-322 -320q-13 -13 -28.5 -19.5t-31.5 -6.5t-32 6t-29 18q-26 25 -24.5 60.5t26.5 60.5l320 319l-321 320
q-25 25 -25 60t26 61t61 25.5t61 -26.5z" />
    <glyph glyph-name="y" unicode="y" horiz-adv-x="1114" 
d="M271 446q0 -60 22.5 -112t61.5 -90.5t91 -60.5t112 -22q59 0 110.5 22t90 61t61 91.5t23.5 112.5v4v2v389q0 18 7 34t19 27.5t28 18.5t34 7q37 0 61 -25.5t24 -61.5v-388v-3v-4q0 -84 -28.5 -160t-78.5 -136t-118.5 -100.5t-148.5 -55.5v-247q0 -18 -7 -34t-18.5 -28
t-27 -19t-33.5 -7q-37 0 -62 25.5t-25 62.5v248q-80 15 -147.5 56t-117.5 101t-78 135t-28 159v395q0 36 25 61.5t61 25.5q18 0 33.5 -7t27.5 -18.5t19 -27.5t7 -34v-397z" />
    <glyph glyph-name="z" unicode="z" horiz-adv-x="1056" 
d="M882 930q17 0 32.5 -7t26.5 -18q28 -25 28 -61t-25 -61l-593 -610h550q18 0 34 -7t28 -19t18.5 -27.5t6.5 -33.5q0 -36 -25 -61t-62 -25h-741q-23 0 -41.5 10.5t-29.5 27.5q-21 27 -18 59q2 29 22 48l593 612h-518q-36 0 -61 26t-25 62t25 60.5t61 24.5h714z" />
    <glyph glyph-name="braceleft" unicode="{" horiz-adv-x="716" 
d="M177 397h-49q-40 0 -67 28.5t-27 68.5q0 39 27 66t67 27h49v281v10q3 88 39.5 164t97.5 130.5t141.5 83.5t171.5 23q37 0 61 -24.5t24 -62.5q0 -35 -24 -60t-61 -25h-4h-48q-47 0 -88 -19t-72 -52t-48.5 -76.5t-17.5 -91.5v-773v-3v-4q0 -46 18 -88.5t49 -75t71.5 -52
t87.5 -19.5h48h4q37 0 61 -25.5t24 -61.5q0 -37 -24 -61t-61 -24q-91 -7 -172 22t-142.5 84.5t-98 132t-37.5 165.5v7v305z" />
    <glyph glyph-name="bar" unicode="|" horiz-adv-x="414" 
d="M121 1192q0 37 24.5 62.5t60.5 25.5q37 0 62 -25.5t25 -62.5v-1361q0 -38 -25.5 -63.5t-61.5 -25.5t-60.5 25.5t-24.5 63.5v1361z" />
    <glyph glyph-name="braceright" unicode="}" horiz-adv-x="717" 
d="M501 587h50q39 0 66.5 -27t27.5 -66q0 -20 -7.5 -37.5t-20 -31t-30 -21t-36.5 -7.5h-50v-305q0 -35 -25 -60t-60 -25q-18 0 -34 6.5t-28 18t-18.5 27t-6.5 33.5v3l172 -1q0 -91 -35.5 -169.5t-97 -134.5t-143 -86t-173.5 -23q-38 0 -61.5 24t-23.5 61q0 36 23.5 61.5
t61.5 25.5h3h49q47 0 88.5 20t72 54t48 77.5t16.5 90.5v770q1 49 -16.5 93t-48.5 77t-72 52.5t-88 19.5h-49h-3q-38 0 -61.5 25t-23.5 60q0 38 23.5 62.5t61.5 24.5q93 7 174.5 -23t142.5 -87t96.5 -136t35.5 -169l-172 1v3q0 18 7 34t19 27.5t27.5 18.5t33.5 7
q36 0 60.5 -25.5t24.5 -61.5v-281z" />
    <glyph glyph-name="asciitilde" unicode="~" horiz-adv-x="966" 
d="M746 711q23 23 55.5 22.5t55.5 -25.5q20 -23 22.5 -53t-16.5 -54q1 -6 -1 -8q-8 -15 -29 -40t-53 -49.5t-74 -42t-92 -17.5q-51 0 -95 22t-82 51q-9 8 -22.5 17.5t-29 18t-32.5 14.5t-33 6q-33 0 -62 -19.5t-54 -51.5q-5 -11 -15 -23q-25 -26 -60 -26.5t-61 23.5
q-13 12 -20 27.5t-7.5 32t5.5 32.5t18 29q0 1 1 1q9 15 30.5 40t53.5 49t73.5 42t90.5 18q52 0 94 -19.5t81 -48.5q10 -8 24.5 -19t30.5 -20.5t33 -16t33 -6.5q38 0 70.5 26t60.5 69l4 -3l2 2v0z" />
    <glyph glyph-name="exclamdown" unicode="&#xa1;" horiz-adv-x="431" 
d="M311 886q0 -19 -7.5 -36.5t-20.5 -30.5t-30.5 -20.5t-36.5 -7.5q-20 0 -37.5 7.5t-30 20.5t-20 30.5t-7.5 36.5q0 40 27.5 67.5t67.5 27.5q19 0 36.5 -7.5t30.5 -20t20.5 -30t7.5 -37.5zM127 598q0 19 6.5 35t18 28t27 19t33.5 7q38 0 63 -25.5t25 -63.5v-809
q0 -37 -25 -62.5t-61 -25.5t-61.5 25.5t-25.5 62.5v809z" />
    <glyph glyph-name="cent" unicode="&#xa2;" horiz-adv-x="903" 
d="M598 67v-240q0 -38 -25.5 -63.5t-61.5 -25.5t-61 25.5t-25 63.5v262zM425 904v222q0 37 25 62.5t61 25.5q37 0 62 -25t25 -63v-211zM206 468l-2 -2q0 -1 1 -2q0 -1 1 -1q0 -57 22.5 -110.5t62 -96t92.5 -68.5t115 -27q57 -1 107.5 16.5t98.5 58.5q13 10 28 20t32.5 14
t36.5 -0.5t40 -22.5q28 -25 27.5 -62.5t-31.5 -68.5q-60 -62 -145.5 -95t-178.5 -33q-99 0 -186 36.5t-152.5 100.5t-103 150t-37.5 185l2 4l-2 2q0 99 37.5 186t103 151.5t152.5 101.5t186 37q94 0 179 -31.5t145 -93.5q31 -31 32 -69t-28 -63q-21 -18 -40 -22.5
t-36.5 -0.5t-32.5 14t-28 21q-47 40 -98 57t-108 15q-61 -1 -114 -26.5t-92.5 -67.5t-62.5 -96t-23 -111z" />
    <glyph glyph-name="sterling" unicode="&#xa3;" horiz-adv-x="953" 
d="M148 469h-37q-32 0 -55 23.5t-23 55.5q0 33 23 55t55 22h37v322v8.5t1 8.5q4 65 30.5 122.5t70.5 100.5t102.5 68t124.5 25h18h4q36 0 60.5 -24.5t24.5 -60.5t-24.5 -61t-60.5 -25h-4q-37 1 -68.5 -11t-55 -34t-36.5 -52t-13 -66h-1v-321h82q16 0 30.5 -6t25 -16.5
t16.5 -24.5t6 -30q0 -32 -23 -55.5t-55 -23.5h-82v-296h508q36 0 60.5 -25t24.5 -60q0 -37 -25 -62.5t-61 -25.5h-590h-3q-37 0 -62 24.5t-25 61.5v383z" />
    <glyph glyph-name="currency" unicode="&#xa4;" horiz-adv-x="979" 
d="M107 648q0 70 23.5 131.5t65.5 111.5l-117 166v1q-20 30 -12 64.5t37 54.5q15 10 31.5 13t32 0t29.5 -12.5t24 -24.5l114 -160q34 14 71 22t76 8q73 0 141 -28l112 164q10 15 24 24t30.5 12.5t33.5 0t32 -13.5t23.5 -24.5t11.5 -31t-0.5 -33.5t-13.5 -32l-113 -164
q45 -50 70 -113.5t25 -135.5q0 -74 -26.5 -138.5t-73.5 -115.5l118 -165l1 -1q10 -15 13 -31.5t0 -32.5t-12 -30t-23 -24q-15 -11 -32 -14.5t-33.5 -0.5t-31 12.5t-24.5 24.5l-119 165q-62 -24 -133 -24t-132 24l-121 -174q-10 -15 -24.5 -24t-30.5 -12.5t-32.5 -0.5
t-31.5 14q-15 10 -24 24.5t-12 31t0 33t13 30.5l120 174q-47 51 -73.5 115.5t-26.5 139.5zM270 649q0 -44 16.5 -83t45 -68t67.5 -45.5t83 -16.5t83 16.5t67.5 45.5t45 68t16.5 83t-16.5 82.5t-45 67.5t-67.5 45.5t-83 16.5t-83 -16.5t-67.5 -45.5t-45 -67.5t-16.5 -82.5z
" />
    <glyph glyph-name="yen" unicode="&#xa5;" horiz-adv-x="1176" 
d="M585 719l417 530q23 26 57.5 29t61.5 -20q26 -22 31.5 -56t-20.5 -69l-440 -559h166q23 0 39 -15.5t16 -37.5q0 -23 -16 -39t-39 -16h-186v-102h186q23 0 39 -16.5t16 -37.5q0 -23 -16 -38.5t-39 -15.5h-186v-171q0 -36 -25.5 -60.5t-61.5 -24.5q-35 0 -60.5 24.5
t-25.5 60.5v171h-176q-23 0 -38.5 15.5t-15.5 38.5t15.5 38.5t38.5 15.5h176v102h-176q-23 0 -38.5 16t-15.5 39t15.5 38t38.5 15h155l-443 558q-23 27 -21 63t30 61q13 12 29.5 17t33 4t32 -8.5t26.5 -21.5z" />
    <glyph glyph-name="brokenbar" unicode="&#xa6;" horiz-adv-x="415" 
d="M121 1193q0 37 25 62.5t61 25.5q38 0 63 -25.5t25 -62.5v-547q0 -38 -26 -63t-62 -25t-61 25t-25 63v547zM121 322q0 36 25 61.5t61 25.5q38 0 63 -25.5t25 -61.5v-544q0 -36 -26 -61.5t-62 -25.5t-61 25.5t-25 61.5v544z" />
    <glyph glyph-name="section" unicode="&#xa7;" horiz-adv-x="977" 
d="M940 378q0 -65 -20 -121t-56 -103q15 -29 23.5 -62.5t8.5 -71.5q0 -81 -34.5 -147t-92 -113t-131 -72.5t-151.5 -25.5q-59 0 -115 12t-105.5 35.5t-90 58.5t-67.5 81q-14 24 -7 49.5t23 40.5q18 18 49 21.5t60 -16.5q28 -29 55 -50t56.5 -34t63.5 -19t75 -6q46 0 89 12
t76 35.5t53.5 57.5t20.5 78q0 48 -25.5 78t-67 49t-94.5 31t-107 25q-72 20 -140.5 50t-121.5 74t-85.5 105t-32.5 144q0 64 19.5 120t55.5 104q-15 29 -23 62t-8 72q0 81 34.5 147t92 113t131 72.5t151.5 25.5q59 0 115 -12t105.5 -35.5t89.5 -58.5t67 -81
q15 -25 7.5 -50.5t-22.5 -40.5q-9 -9 -22 -14.5t-27.5 -6.5t-30 2.5t-29.5 14.5q-28 29 -55 50t-57 34t-63.5 19t-75.5 6q-45 0 -88 -12.5t-76 -36t-53.5 -57.5t-20.5 -78q0 -48 25 -77.5t66.5 -48.5t94.5 -31t108 -25q72 -20 140.5 -50t121.5 -74.5t85.5 -105.5t32.5 -143z
M507 585q-77 16 -146.5 39t-124.5 58q-28 -44 -28 -99q0 -50 25 -85t64.5 -59.5t88.5 -41.5t96 -30q77 -16 146 -39t125 -58q13 21 20.5 45.5t7.5 53.5q0 50 -25 85t-65 59.5t-88.5 41t-95.5 30.5z" />
    <glyph glyph-name="dieresis" unicode="&#xa8;" horiz-adv-x="761" 
d="M469 1214q0 21 8 39t21.5 31.5t31.5 21t38 7.5q42 0 70.5 -28.5t28.5 -70.5t-28.5 -70t-70.5 -28q-20 0 -38 7.5t-31.5 21t-21.5 31t-8 38.5zM114 1214q0 42 28 70.5t70 28.5t70.5 -28.5t28.5 -70.5t-28.5 -70t-70.5 -28t-70 28t-28 70z" />
    <glyph glyph-name="copyright" unicode="&#xa9;" horiz-adv-x="1401" 
d="M705 1264q92 0 178 -24t161 -68t136.5 -105t105.5 -136t68 -160.5t24 -178.5t-24 -178.5t-68 -160.5t-105.5 -136t-136.5 -105t-161 -68t-178 -24q-140 0 -262 53t-213 144t-143 213.5t-52 261.5t52 261.5t143 213.5t213 144t262 53zM705 1084q-103 0 -192.5 -38.5
t-156 -105t-105 -156.5t-38.5 -192q0 -103 38.5 -193t105 -157t156 -105.5t192.5 -38.5t193 38.5t157 105.5t105.5 157t38.5 193q0 102 -38.5 192t-105.5 156.5t-157 105t-193 38.5zM502 592l-1 -1l1 -1q0 -36 15 -71.5t40.5 -63.5t60.5 -45.5t75 -18.5q37 -2 71 9t66 39
q12 9 25.5 17.5t29 12.5t32.5 0t36 -20q25 -22 24.5 -55.5t-28.5 -61.5q-45 -47 -109 -71.5t-133 -24.5q-74 0 -139.5 27t-114.5 74.5t-77 112t-28 138.5l1 1q-1 0 -1 1q0 75 28 140t77 113t114.5 75.5t139.5 27.5q69 0 133 -24t109 -71q28 -27 28.5 -61t-25.5 -56
q-19 -17 -36 -20.5t-32 0t-28.5 12t-25.5 17.5q-32 28 -66 38t-71 10q-40 -1 -74.5 -18.5t-60.5 -45t-41 -63t-15 -72.5z" />
    <glyph glyph-name="ordfeminine" unicode="&#xaa;" horiz-adv-x="854" 
d="M798 599q0 -38 -25.5 -64t-63.5 -26q-36 0 -59 23t-25 57q-42 -34 -93 -55t-111 -21q-80 0 -150.5 30.5t-123 83t-83 123.5t-30.5 151t30.5 150.5t83 123.5t123 83.5t150.5 30.5q79 0 148 -30.5t119.5 -82.5t79.5 -122t30 -149v-4v-302zM203 901q0 -45 17 -85t47 -69.5
t70 -47t85 -17.5t84.5 17.5t69 47t47 69.5t17.5 85t-17.5 85t-47 70t-69 47.5t-84.5 17.5t-85 -17.5t-70 -47.5t-47 -70t-17 -85z" />
    <glyph glyph-name="guillemotleft" unicode="&#xab;" horiz-adv-x="1201" 
d="M787 473l327 -325q13 -13 19.5 -29t6.5 -32.5t-6.5 -32.5t-19.5 -28q-26 -26 -62 -26t-62 26l-385 385q-14 14 -20.5 31t-5.5 35q0 33 26 59l2 2l384 379q26 26 61.5 26t62.5 -26q12 -13 18.5 -28.5t6.5 -32t-6 -32.5t-19 -29zM234 472l326 -325q13 -13 19.5 -29
t6.5 -32.5t-6.5 -32.5t-19.5 -28q-26 -26 -62 -26.5t-62 26.5l-385 385q-23 22 -26 52t13 55q5 9 14 18l1 1l385 380q13 13 29 19.5t32.5 6.5t32.5 -6.5t29 -19.5t19.5 -28.5t6.5 -32t-6.5 -32.5t-19.5 -29z" />
    <glyph glyph-name="logicalnot" unicode="&#xac;" horiz-adv-x="974" 
d="M898 396q0 -18 -7 -34t-19 -28t-27.5 -19t-33.5 -7q-37 0 -62.5 25.5t-25.5 62.5v134l-601 1q-38 0 -63 25.5t-25 61.5q0 37 25 62t63 25h685h2h3q35 -1 59.5 -25t26.5 -60v-3v-221z" />
    <glyph glyph-name="uni00AD" unicode="&#xad;" horiz-adv-x="891" 
d="M757 649q26 0 43.5 -17t17.5 -42q0 -26 -17.5 -44t-43.5 -18h-615q-26 0 -43 18t-17 44t17 42.5t43 16.5h615z" />
    <glyph glyph-name="registered" unicode="&#xae;" horiz-adv-x="1370" 
d="M669 1283q91 0 175.5 -23.5t157.5 -66.5t133.5 -103t103.5 -133.5t66.5 -157.5t23.5 -175t-23.5 -175t-66.5 -157t-103.5 -133t-133.5 -103t-157.5 -66.5t-175.5 -23.5t-175.5 23.5t-157.5 66.5t-132.5 103t-102 133t-65.5 157t-23 175t23 175t65.5 157.5t102 133.5
t132.5 103t157 66.5t176 23.5zM670 1143q-108 0 -203 -40.5t-165 -111t-110.5 -165t-40.5 -202.5q0 -109 40.5 -203.5t110.5 -165t165 -111t203 -40.5t203 40.5t165.5 111t111 165t40.5 203.5q0 108 -40.5 202.5t-111 165t-165.5 111t-203 40.5zM446 1034h246q61 0 115 -22
t94 -60t63 -90t23 -113q0 -85 -43.5 -152t-115.5 -102l151 -159q20 -20 21 -47t-18 -47q-10 -9 -24 -14.5t-29.5 -6t-30.5 4.5t-27 17l-210 221h-106v-174q0 -32 -25.5 -48t-56.5 -16t-55 16t-24 49v695q0 20 14 34t34 14h4zM555 873v-248h136q66 0 100.5 36t34.5 88
q0 25 -9 48t-26.5 39.5t-42.5 26.5t-56 10h-137z" />
    <glyph glyph-name="macron" unicode="&#xaf;" horiz-adv-x="821" 
d="M643 1252q32 0 54 -21.5t22 -51.5q0 -32 -22 -55t-54 -23h-403q-32 0 -53 22.5t-21 54.5t21 53t53 21h403z" />
    <glyph glyph-name="degree" unicode="&#xb0;" horiz-adv-x="699" 
d="M215 891q0 -33 12.5 -62t34 -50.5t51 -34.5t62.5 -13t62.5 13t51 34.5t34 50.5t12.5 62t-12.5 62.5t-34 51.5t-51 34.5t-62.5 12.5t-62.5 -12.5t-51 -34.5t-34 -51.5t-12.5 -62.5zM70 892q0 63 24 118.5t65.5 97t97 65t117.5 23.5q64 0 119.5 -23.5t96.5 -65t65 -97
t24 -118.5t-24 -119t-65 -98t-96.5 -66.5t-119.5 -24.5q-62 0 -117.5 24.5t-97 66.5t-65.5 98t-24 119z" />
    <glyph glyph-name="plusminus" unicode="&#xb1;" horiz-adv-x="796" 
d="M485 866h212q36 0 61.5 -25.5t25.5 -63.5q0 -36 -25.5 -60.5t-61.5 -24.5h-212v-212q0 -36 -25.5 -61.5t-61.5 -25.5q-37 0 -62 25.5t-25 61.5v212h-212q-37 0 -62 25t-25 61q0 37 25 62.5t62 25.5h212v212q0 37 25.5 62t61.5 25q37 0 62 -25t25 -62v-212zM110 -9
q-36 0 -62 25.5t-26 61.5q0 37 26 62t62 25h584q18 0 34 -7t28 -19t19 -27.5t7 -33.5q0 -37 -25.5 -62t-62.5 -25h-584z" />
    <glyph glyph-name="twosuperior" unicode="&#xb2;" horiz-adv-x="665" 
d="M319 661h199q36 0 59.5 -24t23.5 -59t-23.5 -57.5t-59.5 -22.5h-393q-36 0 -58 21.5t-26 51.5q-5 20 -2 41t20 36l330 312q11 11 20.5 28t9.5 37q0 42 -24.5 70.5t-69.5 28.5q-37 0 -64.5 -21t-34.5 -53v-2q0 -18 -6.5 -33.5t-18 -27t-27.5 -18.5t-35 -7q-35 0 -59 24.5
t-24 61.5q0 25 9 42q8 35 29 67.5t53.5 58t77 40.5t98.5 15q57 0 106 -18.5t85 -51.5t56.5 -77.5t20.5 -96.5q0 -32 -7.5 -66t-29.5 -60q-2 -2 -6 -4q-2 -3 -3.5 -5.5t-3.5 -4.5z" />
    <glyph glyph-name="threesuperior" unicode="&#xb3;" horiz-adv-x="578" 
d="M36 652q-11 21 -3.5 43.5t28.5 35.5q21 12 43 6t34 -27l5 -11q20 -33 56 -50.5t83 -17.5q27 0 50.5 10.5t41 28.5t27 42t9.5 51q0 26 -10 48t-28 37.5t-41.5 24.5t-50.5 9h-58v1q-14 -1 -28.5 4.5t-24.5 14.5q-19 15 -19 39t17 41l152 157h-233q-12 0 -25 4t-23 12.5
t-16.5 21.5t-6.5 30q0 34 23 53t48 19h375q9 0 21 -5q1 0 5 -2q17 -8 29.5 -25t12.5 -39t-13 -40q-3 -9 -9 -15l-143 -151q39 -12 71.5 -33t56 -51t36.5 -67.5t13 -81.5q0 -55 -21 -103.5t-57.5 -85t-85.5 -57.5t-104 -21q-38 0 -73 11.5t-66 31.5t-56 47.5t-42 59.5z" />
    <glyph glyph-name="acute" unicode="&#xb4;" horiz-adv-x="479" 
d="M202 1469q-13 -14 -29.5 -20.5t-33 -6.5t-32 6.5t-27.5 19.5q-13 13 -20 29t-7 32.5t6.5 32.5t20.5 29l144 146q13 13 29.5 19.5t33 6.5t32.5 -6.5t29 -18.5q13 -13 19.5 -29t6.5 -32.5t-6.5 -32t-19.5 -28.5z" />
    <glyph glyph-name="mu" unicode="&#xb5;" horiz-adv-x="1136" 
d="M293 416q0 -60 24.5 -114t66 -94t95.5 -63.5t114 -23.5q61 0 114.5 23.5t93 63.5t62 94t22.5 114v439q0 36 25 61.5t61 25.5t61.5 -25.5t25.5 -61.5v-434v-5q-1 -98 -37 -183.5t-98.5 -149t-147.5 -100.5t-182 -37q-92 0 -167.5 37.5t-132.5 100.5v-334
q0 -37 -23.5 -62.5t-59.5 -25.5q-37 0 -63 25.5t-26 62.5v1105q0 18 7 34t19 27.5t27.5 18.5t33.5 7q36 0 60.5 -25.5t24.5 -61.5v-439z" />
    <glyph glyph-name="paragraph" unicode="&#xb6;" horiz-adv-x="1381" 
d="M627 1280h7h450h7h3h182q37 0 62.5 -23t25.5 -59q0 -37 -25.5 -63.5t-62.5 -26.5h-97v-1020q0 -37 -26 -62.5t-63 -25.5t-60.5 28t-23.5 65v1015h-298v-1016q0 -37 -23 -64.5t-60 -27.5t-63 25.5t-26 62.5v332h-74q-89 0 -166.5 33.5t-136 92t-92 136t-33.5 166.5
t33.5 167.5t92 137.5t136 93t166.5 34h86h4h75zM203 848q0 -53 19.5 -99t53 -80t79 -53.5t98.5 -19.5h83v506h-83q-53 0 -98.5 -20t-79 -54.5t-53 -81t-19.5 -98.5z" />
    <glyph glyph-name="glyph121" unicode="&#xb7;" horiz-adv-x="319" 
d="M264 486q0 -23 -8.5 -43t-23.5 -35t-35.5 -24t-44.5 -9q-23 0 -42.5 9t-34.5 24t-23.5 35t-8.5 43q0 22 8.5 42t23.5 35t34.5 24t42.5 9q24 0 44.5 -9t35.5 -24t23.5 -35t8.5 -42z" />
    <glyph glyph-name="cedilla" unicode="&#xb8;" horiz-adv-x="451" 
d="M303 -84q37 -5 68.5 -23t54.5 -45.5t36 -62.5t13 -74q0 -43 -16.5 -81t-44.5 -66t-66 -44t-81 -16t-80.5 16t-66 44t-45 66t-16.5 81q0 24 16.5 40.5t40.5 16.5q22 0 37.5 -16t16.5 -40q0 -20 7.5 -37.5t21 -31t31.5 -21.5t38 -8q21 0 38.5 8t31 21.5t21 31t7.5 37.5
q0 44 -30.5 71t-82.5 27q-34 0 -48 13.5t-14 33.5v183q0 20 18 33.5t38 13.5t38 -13.5t18 -33.5v-124z" />
    <glyph glyph-name="onesuperior" unicode="&#xb9;" horiz-adv-x="481" 
d="M397 622q0 -36 -26 -61.5t-63 -25.5t-63 25.5t-26 61.5v414l-86 -50q-32 -18 -66.5 -9t-54.5 41q-19 31 -10 66.5t40 54.5l219 129q28 16 58 11q33 -4 55.5 -28t22.5 -59v-570z" />
    <glyph glyph-name="ordmasculine" unicode="&#xba;" horiz-adv-x="858" 
d="M207 900q0 -46 17 -86.5t47 -70.5t70.5 -47t86.5 -17q45 0 85 17t69.5 47t46.5 70.5t17 86.5q0 45 -17 85t-46.5 69.5t-69.5 46.5t-85 17q-46 0 -86.5 -17t-70.5 -46.5t-47 -69.5t-17 -85zM40 900q0 81 30.5 151.5t83 123t123 83t151.5 30.5t151.5 -30.5t123 -83t83 -123
t30.5 -151.5t-30.5 -151.5t-83 -123.5t-123 -83.5t-151.5 -30.5t-151.5 30.5t-123 83.5t-83 123.5t-30.5 151.5z" />
    <glyph glyph-name="guillemotright" unicode="&#xbb;" horiz-adv-x="1201" 
d="M599 794q-13 13 -19 29t-6 32.5t6.5 32t18.5 28.5q26 26 62 26t62 -26l384 -380l2 -1q0 -1 1 -1q0 -1 0.5 -1t0.5 -1q2 0 2 -2q17 -19 20 -41q5 -21 -1 -42t-23 -37l-385 -385q-13 -14 -29 -20.5t-32.5 -6.5t-32.5 7t-29 20q-13 12 -19.5 28t-6.5 32.5t6.5 32.5t19.5 29
l326 325zM46 795q-13 13 -19.5 29t-6.5 32.5t6.5 32t19.5 28.5q26 26 62 26t62 -26l378 -374l8 -7l9 -12l5 -7l6 -12q6 -15 6 -31q0 -18 -8 -36l-1 -1q-4 -10 -14 -22l-1 -1l-2 -2l-1 -1l-385 -385q-13 -13 -29 -19.5t-32.5 -6.5t-32.5 6.5t-29 19.5q-13 12 -19.5 28
t-6.5 32.5t6.5 32.5t19.5 29l326 325z" />
    <glyph glyph-name="onequarter" unicode="&#xbc;" horiz-adv-x="1666" 
 />
    <glyph glyph-name="onehalf" unicode="&#xbd;" horiz-adv-x="1612" 
 />
    <glyph glyph-name="threequarters" unicode="&#xbe;" horiz-adv-x="1640" 
 />
    <glyph glyph-name="questiondown" unicode="&#xbf;" horiz-adv-x="932" 
d="M843 78q0 -83 -31 -155t-84.5 -126t-125.5 -85t-154 -31t-154.5 31t-126.5 85t-85.5 126t-31.5 155q0 82 32 152.5t86.5 123t127 82.5t154.5 30h14v103q0 38 24.5 63.5t60.5 25.5q38 0 63 -25.5t25 -63.5v-188q0 -37 -26 -62t-62 -25h-102q-46 0 -86.5 -17t-71 -46
t-48.5 -68.5t-18 -84.5q0 -46 16.5 -87t46.5 -71.5t71 -48t89 -17.5q45 0 86 16.5t71.5 46.5t49 71t18.5 90q0 37 23.5 63t59.5 26q37 0 63 -26t26 -63zM646 886q0 -41 -28 -69t-68 -28q-20 0 -37 7.5t-30.5 20.5t-21 31t-7.5 38q0 19 7.5 36t21 30t30.5 21t37 8t37.5 -8
t30.5 -21t20.5 -30t7.5 -36z" />
    <glyph glyph-name="Agrave" unicode="&#xc0;" horiz-adv-x="1161" 
d="M889 271h-615l-93 -219q-7 -17 -19.5 -29t-28.5 -18t-33.5 -5.5t-34.5 8.5q-34 14 -44.5 46.5t4.5 66.5l477 1106q11 26 31.5 39.5t47.5 13.5q26 0 46.5 -13.5t31.5 -38.5l478 -1107q15 -33 5 -66t-43 -47q-34 -15 -67.5 -2.5t-49.5 46.5zM343 443h475l-236 561z
M519.013 1416q12.999 -14 29.498 -20.5t32.998 -6.5t31.998 6.5t27.498 19.5q12.999 13 19.999 29q6.99902 16 6.99902 32.5t-6.49902 32.5q-6.5 16 -20.499 29l-143.991 146q-12.999 13 -29.498 19.5t-32.998 6.5t-32.498 -6.5t-28.998 -18.5q-12.999 -13 -19.499 -29
t-6.5 -32.5t6.5 -32t19.499 -28.5z" />
    <glyph glyph-name="Aacute" unicode="&#xc1;" horiz-adv-x="1161" 
d="M889 271h-615l-93 -219q-7 -17 -19.5 -29t-28.5 -18t-33.5 -5.5t-34.5 8.5q-34 14 -44.5 46.5t4.5 66.5l477 1106q11 26 31.5 39.5t47.5 13.5q26 0 46.5 -13.5t31.5 -38.5l478 -1107q15 -33 5 -66t-43 -47q-34 -15 -67.5 -2.5t-49.5 46.5zM343 443h475l-236 561z
M680 1404q-13 -14 -29.5 -20.5t-33 -6.5t-32 6.5t-27.5 19.5q-13 13 -20 29t-7 32.5t6.5 32.5t20.5 29l144 146q13 13 29.5 19.5t33 6.5t32.5 -6.5t29 -18.5q13 -13 19.5 -29t6.5 -32.5t-6.5 -32t-19.5 -28.5z" />
    <glyph glyph-name="Acircumflex" unicode="&#xc2;" horiz-adv-x="1161" 
d="M889 271h-615l-93 -219q-7 -17 -19.5 -29t-28.5 -18t-33.5 -5.5t-34.5 8.5q-34 14 -44.5 46.5t4.5 66.5l477 1106q11 26 31.5 39.5t47.5 13.5q26 0 46.5 -13.5t31.5 -38.5l478 -1107q15 -33 5 -66t-43 -47q-34 -15 -67.5 -2.5t-49.5 46.5zM343 443h475l-236 561z
M633 1708.07q-7 7 -14 10.999l-4 3l-12 5q-1 0 -5 2h-3q-9 2.99902 -21 1q-4 0 -6 -1q-3 -1 -6.5 -1.5t-6.5 -2.5l-10 -6q-4 -2 -7.5 -4.49902q-3.5 -2.5 -6.5 -6.5l-218 -218.986q-24 -24.999 -21 -52.4971t21.5 -45.9971t46 -21.499t52.5 20.999l169 170.989l170 -170.989
q25 -23.999 53 -20.999t46.5 21.499t21.5 45.9971t-22 52.4971z" />
    <glyph glyph-name="Atilde" unicode="&#xc3;" horiz-adv-x="1161" 
d="M889 271h-615l-93 -219q-7 -17 -19.5 -29t-28.5 -18t-33.5 -5.5t-34.5 8.5q-34 14 -44.5 46.5t4.5 66.5l477 1106q11 26 31.5 39.5t47.5 13.5q26 0 46.5 -13.5t31.5 -38.5l478 -1107q15 -33 5 -66t-43 -47q-34 -15 -67.5 -2.5t-49.5 46.5zM343 443h475l-236 561z
M226 1506q8 13 26.5 35.5t46 43.5t63.5 36.5t78 15.5q45 0 82 -17t71 -43q9 -8 22 -17.5t27.5 -17.5t30 -14t29.5 -6q36 0 65.5 24.5t53.5 62.5l4 -3l2 2q18 17 44.5 17t44.5 -19q15 -19 17 -42t-12 -42q1 -8 0 -9q-8 -14 -26 -36t-45.5 -43t-63.5 -36.5t-79 -15.5
q-45 0 -83.5 19.5t-71.5 44.5q-9 7 -21 16t-26 16.5t-29 13t-30 5.5q-37 0 -66.5 -24.5t-52.5 -62.5q-35 18 -55.5 34.5t-31.5 29t-13.5 21t-0.5 11.5q20 20 49.5 21t50.5 -18q10 -10 15 -23t5 -26.5t-5 -26.5t-14 -23q-20 -20 -49 -21t-50 18q-10 10 -15.5 23t-5.5 26.5
t4.5 26.5t14.5 23z" />
    <glyph glyph-name="Adieresis" unicode="&#xc4;" horiz-adv-x="1161" 
d="M889 271h-615l-93 -219q-7 -17 -19.5 -29t-28.5 -18t-33.5 -5.5t-34.5 8.5q-34 14 -44.5 46.5t4.5 66.5l477 1106q11 26 31.5 39.5t47.5 13.5q26 0 46.5 -13.5t31.5 -38.5l478 -1107q15 -33 5 -66t-43 -47q-34 -15 -67.5 -2.5t-49.5 46.5zM343 443h475l-236 561z
M656 1485q0 21 8 39t21.5 31.5t31.5 21t38 7.5q42 0 70.5 -28.5t28.5 -70.5t-28.5 -70t-70.5 -28q-20 0 -38 7.5t-31.5 21t-21.5 31t-8 38.5zM301 1485q0 42 28 70.5t70 28.5t70.5 -28.5t28.5 -70.5t-28.5 -70t-70.5 -28t-70 28t-28 70z" />
    <glyph glyph-name="Aring" unicode="&#xc5;" horiz-adv-x="1161" 
d="M889 271h-615l-93 -219q-7 -17 -19.5 -29t-28.5 -18t-33.5 -5.5t-34.5 8.5q-34 14 -44.5 46.5t4.5 66.5l477 1106q11 26 31.5 39.5t47.5 13.5q26 0 46.5 -13.5t31.5 -38.5l478 -1107q15 -33 5 -66t-43 -47q-34 -15 -67.5 -2.5t-49.5 46.5zM343 443h475l-236 561z
M501 1544q0 -34 23.5 -57.5t57.5 -23.5t57.5 23.5t23.5 57.5t-23.5 57.5t-57.5 23.5t-57.5 -23.5t-23.5 -57.5zM382 1544q0 42 16 78.5t43 63.5t63.5 42.5t77.5 15.5q42 0 78.5 -15.5t64 -42.5t43 -63.5t15.5 -78.5q0 -41 -15.5 -77.5t-43 -64.5t-64 -44t-78.5 -16
q-41 0 -77.5 16t-63.5 44t-43 64.5t-16 77.5z" />
    <glyph glyph-name="AE" unicode="&#xc6;" horiz-adv-x="1772" 
d="M980 0q-35 2 -60 26.5t-25 61.5v180h-505l-180 -236q-12 -14 -27.5 -22.5t-32.5 -11t-34 2t-31 16.5q-15 11 -23 26.5t-10 32t2.5 33t15.5 31.5l838 1098q11 16 26.5 27t34.5 14h4q3 1 11 1h3h645q38 0 63.5 -26t25.5 -63t-25.5 -63.5t-63.5 -26.5h-559v-402h403
q19 1 35 -5.5t28 -18.5t19 -28.5t7 -34.5q0 -38 -25.5 -64t-62.5 -26l-404 -1v-344l555 -1q37 0 63 -25.5t26 -62.5q0 -18 -7 -34.5t-19 -28.5t-28.5 -18.5t-34.5 -6.5h-641h-3h-4zM895 445v482l-369 -482h369z" />
    <glyph glyph-name="Ccedilla" unicode="&#xc7;" horiz-adv-x="1261" 
d="M1169 1096q25 -25 25 -59.5t-25 -60.5q-25 -25 -61 -25.5t-61 24.5q-72 72 -159.5 107t-180.5 35q-98 0 -185 -37.5t-151.5 -102t-102 -151.5t-37.5 -187q0 -96 36 -182.5t99 -152.5t149.5 -105t188.5 -39q94 -1 180 32.5t161 106.5q12 12 28 18t32.5 6t32.5 -5.5
t28 -17.5q13 -12 19 -28.5t6 -33t-6 -32t-18 -27.5q-98 -98 -217 -145t-247 -47q-89 0 -171.5 23.5t-154 65.5t-130.5 101.5t-101 132t-65 155t-23 172.5q0 86 22 167.5t62.5 154t98.5 133.5t130.5 105t157 68.5t179.5 24.5q126 0 245 -48.5t216 -145.5zM767 -105
q37 -5 68.5 -23t54.5 -45.5t36 -62.5t13 -74q0 -43 -16.5 -81t-44.5 -66t-66 -44t-81 -16t-80.5 16t-66 44t-45 66t-16.5 81q0 24 16.5 40.5t40.5 16.5q22 0 37.5 -16t16.5 -40q0 -20 7.5 -37.5t21 -31t31.5 -21.5t38 -8q21 0 38.5 8t31 21.5t21 31t7.5 37.5q0 44 -30.5 71
t-82.5 27q-34 0 -48 13.5t-14 33.5v183q0 20 18 33.5t38 13.5t38 -13.5t18 -33.5v-124z" />
    <glyph glyph-name="Egrave" unicode="&#xc8;" horiz-adv-x="1099" 
d="M211 0q-35 3 -57.5 27.5t-22.5 59.5v1107q0 37 26 61.5t62 24.5h728q36 0 60.5 -25t24.5 -61t-24.5 -61.5t-60.5 -25.5h-643v-365h496q18 0 33.5 -7t27.5 -19t18.5 -27.5t6.5 -33.5q0 -36 -25 -60.5t-61 -24.5h-496v-397h643q18 0 33.5 -7t27 -19t18 -27.5t6.5 -33.5
q0 -37 -24.5 -62t-60.5 -24h-736zM548.013 1421q12.999 -14 29.498 -20.5t32.998 -6.5t31.998 6.5t27.498 19.5q12.999 13 19.999 29q6.99902 16 6.99902 32.5t-6.49902 32.5q-6.5 16 -20.499 29l-143.991 146q-12.999 13 -29.498 19.5t-32.998 6.5t-32.498 -6.5
t-28.998 -18.5q-12.999 -13 -19.499 -29t-6.5 -32.5t6.5 -32t19.499 -28.5z" />
    <glyph glyph-name="Eacute" unicode="&#xc9;" horiz-adv-x="1099" 
d="M211 0q-35 3 -57.5 27.5t-22.5 59.5v1107q0 37 26 61.5t62 24.5h728q36 0 60.5 -25t24.5 -61t-24.5 -61.5t-60.5 -25.5h-643v-365h496q18 0 33.5 -7t27.5 -19t18.5 -27.5t6.5 -33.5q0 -36 -25 -60.5t-61 -24.5h-496v-397h643q18 0 33.5 -7t27 -19t18 -27.5t6.5 -33.5
q0 -37 -24.5 -62t-60.5 -24h-736zM635 1420q-13 -14 -29.5 -20.5t-33 -6.5t-32 6.5t-27.5 19.5q-13 13 -20 29t-7 32.5t6.5 32.5t20.5 29l144 146q13 13 29.5 19.5t33 6.5t32.5 -6.5t29 -18.5q13 -13 19.5 -29t6.5 -32.5t-6.5 -32t-19.5 -28.5z" />
    <glyph glyph-name="Ecircumflex" unicode="&#xca;" horiz-adv-x="1099" 
d="M211 0q-35 3 -57.5 27.5t-22.5 59.5v1107q0 37 26 61.5t62 24.5h728q36 0 60.5 -25t24.5 -61t-24.5 -61.5t-60.5 -25.5h-643v-365h496q18 0 33.5 -7t27.5 -19t18.5 -27.5t6.5 -33.5q0 -36 -25 -60.5t-61 -24.5h-496v-397h643q18 0 33.5 -7t27 -19t18 -27.5t6.5 -33.5
q0 -37 -24.5 -62t-60.5 -24h-736zM641 1728.07q-7 7 -14 10.999l-4 3l-12 5q-1 0 -5 2h-3q-9 2.99902 -21 1q-4 0 -6 -1q-3 -1 -6.5 -1.5t-6.5 -2.5l-10 -6q-4 -2 -7.5 -4.49902q-3.5 -2.5 -6.5 -6.5l-218 -218.986q-24 -24.999 -21 -52.4971t21.5 -45.9971t46 -21.499
t52.5 20.999l169 170.989l170 -170.989q25 -23.999 53 -20.999t46.5 21.499t21.5 45.9971t-22 52.4971z" />
    <glyph glyph-name="Edieresis" unicode="&#xcb;" horiz-adv-x="1099" 
d="M211 0q-35 3 -57.5 27.5t-22.5 59.5v1107q0 37 26 61.5t62 24.5h728q36 0 60.5 -25t24.5 -61t-24.5 -61.5t-60.5 -25.5h-643v-365h496q18 0 33.5 -7t27.5 -19t18.5 -27.5t6.5 -33.5q0 -36 -25 -60.5t-61 -24.5h-496v-397h643q18 0 33.5 -7t27 -19t18 -27.5t6.5 -33.5
q0 -37 -24.5 -62t-60.5 -24h-736zM652 1497q0 21 8 39t21.5 31.5t31.5 21t38 7.5q42 0 70.5 -28.5t28.5 -70.5t-28.5 -70t-70.5 -28q-20 0 -38 7.5t-31.5 21t-21.5 31t-8 38.5zM297 1497q0 42 28 70.5t70 28.5t70.5 -28.5t28.5 -70.5t-28.5 -70t-70.5 -28t-70 28t-28 70z
" />
    <glyph glyph-name="Igrave" unicode="&#xcc;" horiz-adv-x="436" 
d="M304 85q0 -36 -25.5 -60.5t-60.5 -24.5q-36 0 -61.5 24.5t-25.5 60.5v1110q0 36 25.5 60.5t61.5 24.5q35 0 60.5 -24.5t25.5 -60.5v-1110zM187.013 1412q12.999 -14 29.498 -20.5t32.998 -6.5t31.998 6.5t27.498 19.5q12.999 13 19.999 29q6.99902 16 6.99902 32.5
t-6.49902 32.5q-6.5 16 -20.499 29l-143.991 146q-12.999 13 -29.498 19.5t-32.998 6.5t-32.498 -6.5t-28.998 -18.5q-12.999 -13 -19.499 -29t-6.5 -32.5t6.5 -32t19.499 -28.5z" />
    <glyph glyph-name="Iacute" unicode="&#xcd;" horiz-adv-x="436" 
d="M304 85q0 -36 -25.5 -60.5t-60.5 -24.5q-36 0 -61.5 24.5t-25.5 60.5v1110q0 36 25.5 60.5t61.5 24.5q35 0 60.5 -24.5t25.5 -60.5v-1110zM294 1417q-13 -14 -29.5 -20.5t-33 -6.5t-32 6.5t-27.5 19.5q-13 13 -20 29t-7 32.5t6.5 32.5t20.5 29l144 146q13 13 29.5 19.5
t33 6.5t32.5 -6.5t29 -18.5q13 -13 19.5 -29t6.5 -32.5t-6.5 -32t-19.5 -28.5z" />
    <glyph glyph-name="Icircumflex" unicode="&#xce;" horiz-adv-x="436" 
d="M304 85q0 -36 -25.5 -60.5t-60.5 -24.5q-36 0 -61.5 24.5t-25.5 60.5v1110q0 36 25.5 60.5t61.5 24.5q35 0 60.5 -24.5t25.5 -60.5v-1110zM272 1718.07q-7 7 -14 10.999l-4 3l-12 5q-1 0 -5 2h-3q-9 2.99902 -21 1q-4 0 -6 -1q-3 -1 -6.5 -1.5t-6.5 -2.5l-10 -6
q-4 -2 -7.5 -4.49902q-3.5 -2.5 -6.5 -6.5l-218 -218.986q-24 -24.999 -21 -52.4971t21.5 -45.9971t46 -21.499t52.5 20.999l169 170.989l170 -170.989q25 -23.999 53 -20.999t46.5 21.499t21.5 45.9971t-22 52.4971z" />
    <glyph glyph-name="Idieresis" unicode="&#xcf;" horiz-adv-x="436" 
d="M304 85q0 -36 -25.5 -60.5t-60.5 -24.5q-36 0 -61.5 24.5t-25.5 60.5v1110q0 36 25.5 60.5t61.5 24.5q35 0 60.5 -24.5t25.5 -60.5v-1110zM300 1490q0 21 8 39t21.5 31.5t31.5 21t38 7.5q42 0 70.5 -28.5t28.5 -70.5t-28.5 -70t-70.5 -28q-20 0 -38 7.5t-31.5 21
t-21.5 31t-8 38.5zM-55 1490q0 42 28 70.5t70 28.5t70.5 -28.5t28.5 -70.5t-28.5 -70t-70.5 -28t-70 28t-28 70z" />
    <glyph glyph-name="Eth" unicode="&#xd0;" horiz-adv-x="1241" 
d="M-44 641q0 31 21 52t52 21h92v481q0 36 25 60.5t61 24.5h3h355q88 0 170 -23t153 -65t129.5 -101t100.5 -130.5t65 -153.5t23 -170q0 -132 -50.5 -248t-137.5 -202.5t-204 -136.5t-249 -50h-355h-3q-36 0 -61 24.5t-25 60.5v480h-92q-31 0 -52 22.5t-21 53.5zM430 714
q32 0 53.5 -21.5t21.5 -51.5q0 -31 -21.5 -53.5t-53.5 -22.5h-137v-390h275q100 0 186 38t148.5 102t98 147.5t35.5 173.5q0 91 -35.5 175.5t-98 150t-148 105t-185.5 39.5h-276v-392h137z" />
    <glyph glyph-name="Ntilde" unicode="&#xd1;" horiz-adv-x="1345" 
d="M1204 85q0 -23 -10.5 -42t-28.5 -30q-15 -11 -35 -12q-1 0 -2 -0.5t-2 -0.5h-5h-3h-1q-38 1 -60 32l-4 5l-749 922v-874q0 -36 -25.5 -60.5t-60.5 -24.5q-36 0 -61.5 24.5t-25.5 60.5v1107q0 37 25 60q11 13 26 20.5t36 7.5q40 0 69 -33l745 -918v866q0 18 7 33.5
t18.5 27t27.5 18t34 6.5q37 0 61 -25t24 -60v-1110zM310 1503q8 13 26.5 35.5t46 43.5t63.5 36.5t78 15.5q45 0 82 -17t71 -43q9 -8 22 -17.5t27.5 -17.5t30 -14t29.5 -6q36 0 65.5 24.5t53.5 62.5l4 -3l2 2q18 17 44.5 17t44.5 -19q15 -19 17 -42t-12 -42q1 -8 0 -9
q-8 -14 -26 -36t-45.5 -43t-63.5 -36.5t-79 -15.5q-45 0 -83.5 19.5t-71.5 44.5q-9 7 -21 16t-26 16.5t-29 13t-30 5.5q-37 0 -66.5 -24.5t-52.5 -62.5q-35 18 -55.5 34.5t-31.5 29t-13.5 21t-0.5 11.5q20 20 49.5 21t50.5 -18q10 -10 15 -23t5 -26.5t-5 -26.5t-14 -23
q-20 -20 -49 -21t-50 18q-10 10 -15.5 23t-5.5 26.5t4.5 26.5t14.5 23z" />
    <glyph glyph-name="Ograve" unicode="&#xd2;" horiz-adv-x="1441" 
d="M719 1290q90 0 173 -23.5t155.5 -65.5t132 -102t102 -132t66 -155.5t23.5 -173.5q0 -135 -51.5 -253t-140 -206.5t-207 -139.5t-253.5 -51q-90 0 -173.5 23t-155.5 65.5t-131 102t-101 131.5t-65 155t-23 173t23 173.5t65 155.5t101 132t131 102t155.5 65.5t173.5 23.5z
M720 1117q-100 0 -187 -37.5t-151.5 -103t-101.5 -152.5t-37 -186q0 -100 37 -187t101.5 -151.5t151.5 -102t187 -37.5q99 0 186.5 37.5t152 102t102 151.5t37.5 187q0 99 -37.5 186t-102 152.5t-152 103t-186.5 37.5zM653.013 1413q12.999 -14 29.498 -20.5t32.998 -6.5
t31.998 6.5t27.498 19.5q12.999 13 19.999 29q6.99902 16 6.99902 32.5t-6.49902 32.5q-6.5 16 -20.499 29l-143.991 146q-12.999 13 -29.498 19.5t-32.998 6.5t-32.498 -6.5t-28.998 -18.5q-12.999 -13 -19.499 -29t-6.5 -32.5t6.5 -32t19.499 -28.5z" />
    <glyph glyph-name="Oacute" unicode="&#xd3;" horiz-adv-x="1441" 
d="M719 1290q90 0 173 -23.5t155.5 -65.5t132 -102t102 -132t66 -155.5t23.5 -173.5q0 -135 -51.5 -253t-140 -206.5t-207 -139.5t-253.5 -51q-90 0 -173.5 23t-155.5 65.5t-131 102t-101 131.5t-65 155t-23 173t23 173.5t65 155.5t101 132t131 102t155.5 65.5t173.5 23.5z
M720 1117q-100 0 -187 -37.5t-151.5 -103t-101.5 -152.5t-37 -186q0 -100 37 -187t101.5 -151.5t151.5 -102t187 -37.5q99 0 186.5 37.5t152 102t102 151.5t37.5 187q0 99 -37.5 186t-102 152.5t-152 103t-186.5 37.5zM846 1423q-13 -14 -29.5 -20.5t-33 -6.5t-32 6.5
t-27.5 19.5q-13 13 -20 29t-7 32.5t6.5 32.5t20.5 29l144 146q13 13 29.5 19.5t33 6.5t32.5 -6.5t29 -18.5q13 -13 19.5 -29t6.5 -32.5t-6.5 -32t-19.5 -28.5z" />
    <glyph glyph-name="Ocircumflex" unicode="&#xd4;" horiz-adv-x="1441" 
d="M719 1290q90 0 173 -23.5t155.5 -65.5t132 -102t102 -132t66 -155.5t23.5 -173.5q0 -135 -51.5 -253t-140 -206.5t-207 -139.5t-253.5 -51q-90 0 -173.5 23t-155.5 65.5t-131 102t-101 131.5t-65 155t-23 173t23 173.5t65 155.5t101 132t131 102t155.5 65.5t173.5 23.5z
M720 1117q-100 0 -187 -37.5t-151.5 -103t-101.5 -152.5t-37 -186q0 -100 37 -187t101.5 -151.5t151.5 -102t187 -37.5q99 0 186.5 37.5t152 102t102 151.5t37.5 187q0 99 -37.5 186t-102 152.5t-152 103t-186.5 37.5zM769 1727.07q-7 7 -14 10.999l-4 3l-12 5q-1 0 -5 2h-3
q-9 2.99902 -21 1q-4 0 -6 -1q-3 -1 -6.5 -1.5t-6.5 -2.5l-10 -6q-4 -2 -7.5 -4.49902q-3.5 -2.5 -6.5 -6.5l-218 -218.986q-24 -24.999 -21 -52.4971t21.5 -45.9971t46 -21.499t52.5 20.999l169 170.989l170 -170.989q25 -23.999 53 -20.999t46.5 21.499t21.5 45.9971
t-22 52.4971z" />
    <glyph glyph-name="Otilde" unicode="&#xd5;" horiz-adv-x="1441" 
d="M719 1290q90 0 173 -23.5t155.5 -65.5t132 -102t102 -132t66 -155.5t23.5 -173.5q0 -135 -51.5 -253t-140 -206.5t-207 -139.5t-253.5 -51q-90 0 -173.5 23t-155.5 65.5t-131 102t-101 131.5t-65 155t-23 173t23 173.5t65 155.5t101 132t131 102t155.5 65.5t173.5 23.5z
M720 1117q-100 0 -187 -37.5t-151.5 -103t-101.5 -152.5t-37 -186q0 -100 37 -187t101.5 -151.5t151.5 -102t187 -37.5q99 0 186.5 37.5t152 102t102 151.5t37.5 187q0 99 -37.5 186t-102 152.5t-152 103t-186.5 37.5zM403 1549q8 13 26.5 35.5t46 43.5t63.5 36.5t78 15.5
q45 0 82 -17t71 -43q9 -8 22 -17.5t27.5 -17.5t30 -14t29.5 -6q36 0 65.5 24.5t53.5 62.5l4 -3l2 2q18 17 44.5 17t44.5 -19q15 -19 17 -42t-12 -42q1 -8 0 -9q-8 -14 -26 -36t-45.5 -43t-63.5 -36.5t-79 -15.5q-45 0 -83.5 19.5t-71.5 44.5q-9 7 -21 16t-26 16.5t-29 13
t-30 5.5q-37 0 -66.5 -24.5t-52.5 -62.5q-35 18 -55.5 34.5t-31.5 29t-13.5 21t-0.5 11.5q20 20 49.5 21t50.5 -18q10 -10 15 -23t5 -26.5t-5 -26.5t-14 -23q-20 -20 -49 -21t-50 18q-10 10 -15.5 23t-5.5 26.5t4.5 26.5t14.5 23z" />
    <glyph glyph-name="Odieresis" unicode="&#xd6;" horiz-adv-x="1441" 
d="M719 1290q90 0 173 -23.5t155.5 -65.5t132 -102t102 -132t66 -155.5t23.5 -173.5q0 -135 -51.5 -253t-140 -206.5t-207 -139.5t-253.5 -51q-90 0 -173.5 23t-155.5 65.5t-131 102t-101 131.5t-65 155t-23 173t23 173.5t65 155.5t101 132t131 102t155.5 65.5t173.5 23.5z
M720 1117q-100 0 -187 -37.5t-151.5 -103t-101.5 -152.5t-37 -186q0 -100 37 -187t101.5 -151.5t151.5 -102t187 -37.5q99 0 186.5 37.5t152 102t102 151.5t37.5 187q0 99 -37.5 186t-102 152.5t-152 103t-186.5 37.5zM788 1494q0 21 8 39t21.5 31.5t31.5 21t38 7.5
q42 0 70.5 -28.5t28.5 -70.5t-28.5 -70t-70.5 -28q-20 0 -38 7.5t-31.5 21t-21.5 31t-8 38.5zM433 1494q0 42 28 70.5t70 28.5t70.5 -28.5t28.5 -70.5t-28.5 -70t-70.5 -28t-70 28t-28 70z" />
    <glyph glyph-name="multiply" unicode="&#xd7;" horiz-adv-x="952" 
d="M485 594l283 285q23 24 56.5 24.5t56.5 -22.5q24 -23 24.5 -56.5t-22.5 -56.5l-285 -288l282 -284q22 -23 23 -56.5t-23 -55.5q-24 -24 -56.5 -24t-55.5 23l-282 285l-281 -285q-12 -11 -27 -17t-30.5 -6t-31 5.5t-27.5 17.5q-12 11 -17.5 25.5t-5 29.5t6.5 29.5t17 26.5
l284 287l-285 289q-23 23 -23 55t24 56q23 24 56 23.5t56 -24.5z" />
    <glyph glyph-name="Oslash" unicode="&#xd8;" horiz-adv-x="1441" 
d="M721 1289q106 0 200.5 -31.5t174.5 -88.5l67 71q25 29 61 31.5t65 -21.5q13 -12 20.5 -27t9 -31.5t-3.5 -33t-17 -30.5l-74 -79q69 -85 107.5 -189t38.5 -222q0 -135 -51 -253t-139 -206.5t-206 -139.5t-253 -51q-106 0 -201.5 31.5t-176.5 88.5l-70 -75
q-12 -14 -27.5 -22t-32 -9.5t-33.5 3.5t-30 17q-14 12 -22 27.5t-9.5 32.5t3.5 33.5t17 30.5l76 81q-69 85 -107 189t-38 222q0 135 51 253.5t139 207t207 139.5t254 51zM721 1109q-98 0 -184 -37t-150 -100.5t-101 -149.5t-37 -184q0 -99 37 -185t101 -149.5t150 -100.5
t184 -37t184 37t149.5 100.5t100 149.5t36.5 185q0 98 -36.5 184t-100 149.5t-149.5 100.5t-184 37z" />
    <glyph glyph-name="Ugrave" unicode="&#xd9;" horiz-adv-x="1330" 
d="M1062 1195q0 36 25.5 60.5t60.5 24.5q37 0 62 -24.5t25 -60.5v-643q0 -116 -44 -219t-120.5 -179.5t-179 -121t-219.5 -44.5t-222 44.5t-184 121t-125 179.5t-46 219v640q0 37 25.5 62t61.5 25q18 0 33.5 -6.5t27 -18.5t18.5 -28t7 -34v-640q0 -83 33 -154.5t88.5 -124
t129 -83t154.5 -30.5t152 30.5t123.5 84t83 125t30.5 153.5v2v4v636v0zM624.013 1394q12.999 -14 29.498 -20.5t32.998 -6.5t31.998 6.5t27.498 19.5q12.999 13 19.999 29q6.99902 16 6.99902 32.5t-6.49902 32.5q-6.5 16 -20.499 29l-143.991 146q-12.999 13 -29.498 19.5
t-32.998 6.5t-32.498 -6.5t-28.998 -18.5q-12.999 -13 -19.499 -29t-6.5 -32.5t6.5 -32t19.499 -28.5z" />
    <glyph glyph-name="Uacute" unicode="&#xda;" horiz-adv-x="1330" 
d="M1062 1195q0 36 25.5 60.5t60.5 24.5q37 0 62 -24.5t25 -60.5v-643q0 -116 -44 -219t-120.5 -179.5t-179 -121t-219.5 -44.5t-222 44.5t-184 121t-125 179.5t-46 219v640q0 37 25.5 62t61.5 25q18 0 33.5 -6.5t27 -18.5t18.5 -28t7 -34v-640q0 -83 33 -154.5t88.5 -124
t129 -83t154.5 -30.5t152 30.5t123.5 84t83 125t30.5 153.5v2v4v636v0zM760 1388q-13 -14 -29.5 -20.5t-33 -6.5t-32 6.5t-27.5 19.5q-13 13 -20 29t-7 32.5t6.5 32.5t20.5 29l144 146q13 13 29.5 19.5t33 6.5t32.5 -6.5t29 -18.5q13 -13 19.5 -29t6.5 -32.5t-6.5 -32
t-19.5 -28.5z" />
    <glyph glyph-name="Ucircumflex" unicode="&#xdb;" horiz-adv-x="1330" 
d="M1062 1195q0 36 25.5 60.5t60.5 24.5q37 0 62 -24.5t25 -60.5v-643q0 -116 -44 -219t-120.5 -179.5t-179 -121t-219.5 -44.5t-222 44.5t-184 121t-125 179.5t-46 219v640q0 37 25.5 62t61.5 25q18 0 33.5 -6.5t27 -18.5t18.5 -28t7 -34v-640q0 -83 33 -154.5t88.5 -124
t129 -83t154.5 -30.5t152 30.5t123.5 84t83 125t30.5 153.5v2v4v636v0zM716 1705.07q-7 7 -14 10.999l-4 3l-12 5q-1 0 -5 2h-3q-9 2.99902 -21 1q-4 0 -6 -1q-3 -1 -6.5 -1.5t-6.5 -2.5l-10 -6q-4 -2 -7.5 -4.49902q-3.5 -2.5 -6.5 -6.5l-218 -218.986
q-24 -24.999 -21 -52.4971t21.5 -45.9971t46 -21.499t52.5 20.999l169 170.989l170 -170.989q25 -23.999 53 -20.999t46.5 21.499t21.5 45.9971t-22 52.4971z" />
    </font>
</defs>
</svg>
